<svg width="375" height="75" viewBox="0 0 375 75" fill="none" xmlns="http://www.w3.org/2000/svg">
<path fill-rule="evenodd" clip-rule="evenodd" d="M0 0H0.00341558C0.00341558 9.5 0 72.5 0 72.5C17.9625 74.5589 47.0371 73.2409 64.9996 65.0053C82.5629 56.7697 88.4996 50.5 108 50.5C127.5 50.5 132.755 65.0053 150.755 65.0053C168.779 65.0053 186.281 48.4411 204.244 50.5C221.807 52.5589 239.77 72.0614 257.333 72.0614C274.896 72.0614 292.859 59.2202 310.422 55.1024C328.385 50.9846 345.321 74.1203 363.91 74.1203C367.697 74.1203 371.415 73.5021 375.01 72.5V7.62939e-06C366.228 7.62939e-06 381.474 7.62939e-06 363.91 7.62939e-06C345.948 7.62939e-06 328.385 7.62939e-06 310.422 7.62939e-06C292.859 7.62939e-06 274.896 7.62939e-06 257.333 7.62939e-06C239.77 7.62939e-06 221.807 7.62939e-06 204.244 7.62939e-06C186.281 7.62939e-06 168.718 7.62939e-06 150.755 7.62939e-06C133.192 7.62939e-06 115.23 7.62939e-06 97.6663 7.62939e-06C80.1029 7.62939e-06 62.1404 7.62939e-06 44.5771 7.62939e-06C26.6146 7.62939e-06 17.9625 0 0 0Z" fill="white"/>
</svg>
