<svg width="375" height="61" viewBox="0 0 375 61" fill="none" xmlns="http://www.w3.org/2000/svg">
<path fill-rule="evenodd" clip-rule="evenodd" d="M414 28.0914L405.438 34.3339C396.877 40.5765 379.364 53.0615 362.241 54.6221C344.728 56.1828 325.632 55.5162 308.12 49.2736C290.996 43.0311 269.686 38.5525 252.563 44.795C235.44 51.0376 223.697 59.304 206.574 60.8647C189.062 62.4253 171.938 49.9402 154.426 51.5009C137.302 53.0615 119.79 60.8647 102.667 60.8647C85.5433 60.8647 68.0308 44.8886 50.9075 41.7673C33.395 38.646 16.2716 56.1828 -1.24086 59.304C-18.3642 62.4253 -35.8767 59.304 -44.4383 57.7434L-53 56.1828V2.9626e-07H-44.4383C-35.8767 2.9626e-07 -18.3642 2.9626e-07 -1.24086 2.9626e-07C16.2716 2.9626e-07 33.395 2.9626e-07 50.9075 2.9626e-07C68.0308 2.9626e-07 85.5433 2.9626e-07 102.667 2.9626e-07C119.79 2.9626e-07 137.302 2.9626e-07 154.426 2.9626e-07C171.938 2.9626e-07 189.062 2.9626e-07 206.574 2.9626e-07C223.697 2.9626e-07 241.21 2.9626e-07 258.333 2.9626e-07C275.457 2.9626e-07 292.969 2.9626e-07 310.092 2.9626e-07C327.605 2.9626e-07 344.728 2.9626e-07 362.241 2.9626e-07C379.364 2.9626e-07 396.877 2.9626e-07 405.438 2.9626e-07H414V28.0914Z" fill="white"/>
</svg>
