<svg width="320" height="4" viewBox="0 0 320 4" fill="none" xmlns="http://www.w3.org/2000/svg">
<path d="M197.551 0.524234C210.525 0.516534 224.729 0.470268 237.755 0.530459C239.354 0.537813 239.245 0.638561 239.694 0.651859C240.92 0.688552 241.658 0.569712 242.552 0.578433C246.898 0.620425 250.964 0.637521 255.227 0.675662C259.619 0.714857 257.541 1.02802 259.067 1.10431C262.049 1.25372 259.513 0.845352 260.685 0.753666C264.103 0.778161 267.551 0.8224 270.975 0.867191C270.139 0.905321 269.303 0.942639 268.458 0.977971C269.951 0.986374 272.087 1.04941 269.587 1.15613C270.14 1.18553 270.655 1.21991 271.223 1.2486C271.379 1.09989 274.021 1.08792 274.263 0.99976C274.504 0.911572 273.018 0.931836 273.027 0.924137C273.126 0.814297 279.22 0.964442 279.659 0.976689C280.821 1.00928 279.803 1.19364 280.791 1.18177C282.491 1.16147 281.358 0.786358 283.66 1.28504C284.575 1.12304 284.655 1.20717 285.814 1.21839C285.967 1.21979 285.848 1.12599 285.915 1.12354C287.67 1.05392 286.321 1.22835 286.331 1.2378C286.49 1.39831 288.373 1.32696 288.77 1.34235C293.747 1.53411 297.394 1.66394 302.646 1.70838C303.782 1.71783 307.24 1.6527 308.339 1.68C309.422 1.70694 308.841 1.82259 309.408 1.87812C310.317 1.5999 311.184 1.56922 313.225 1.75251C313.985 1.54956 313.887 1.71327 315.343 1.67268C316.555 1.63905 318.666 1.39559 320 1.6031C318.471 1.5842 318.629 1.6839 316.908 1.74409C316.335 1.76402 310.36 1.76828 310.804 1.97572C311.036 2.08384 313.017 1.98453 313.093 2.00446C313.539 2.12065 312.434 2.26343 311.454 2.21339C311.698 2.18994 311.992 2.16616 312.255 2.14271C310.054 1.99748 311.567 2.55527 309.895 2.06782C309.688 2.00803 309.768 1.94568 309.427 1.88215C309.357 1.90843 309.774 1.97357 309.415 1.98524C309.049 1.997 308.353 1.87331 308.25 1.97755C308.094 2.12913 309.612 2.06939 309.727 2.07826C309.728 2.07734 309.729 2.07642 309.73 2.07551C310.74 2.15599 308.631 2.16517 308.53 2.17951C307.878 2.27396 308.323 2.34668 307.344 2.42469C306.785 2.46914 305.363 2.44294 304.838 2.45729C304.316 2.47199 305.128 2.5437 304.777 2.55909C304.426 2.57449 303.989 2.52 303.577 2.53785C303.4 2.54572 303.409 2.62569 303.324 2.62849C302.409 2.65926 303.009 2.49291 302.179 2.50306C301.641 2.50981 299.836 2.66488 301.08 2.71107C300.482 2.72716 299.899 2.73894 299.304 2.75154C299.679 2.77533 300.067 2.79149 300.433 2.81947C299.314 2.78138 298.807 2.91824 298.105 2.92842C297.404 2.93857 296.774 2.77433 296.002 2.85444C294.354 3.02487 298.435 2.94613 298.942 2.97657C299.139 2.98854 298.381 3.11719 298.264 3.12086C297.746 3.13695 297.132 3.04496 296.732 3.04908C295.301 3.06448 294.424 3.1859 293.06 3.2104C288.415 3.29369 282.653 3.36123 278.252 3.38783C276.613 3.39763 275.627 3.26112 274.891 3.26497C273.17 3.27408 272.96 3.39304 271.459 3.39937C269.225 3.40917 266.077 3.30531 264.213 3.28291C262.922 3.26751 261.753 3.38264 261.417 3.38545C256.751 3.42674 251.074 3.42415 247.207 3.42555C245.388 3.42625 244.525 3.29687 244.149 3.30067C242.535 3.31677 242.968 3.42738 241.659 3.41621C240.952 3.41027 240.82 3.30409 240.725 3.29994C239.892 3.26494 239.726 3.40361 239.076 3.40816C235.337 3.43439 231.736 3.34364 228.035 3.33034C227.766 3.32929 227.79 3.26786 227.616 3.27101C226.869 3.28609 227.216 3.38282 226.435 3.38985C224.812 3.40489 223.145 3.38891 221.423 3.37666C221.253 3.37545 221.176 3.29649 220.786 3.29646C220.395 3.29646 220.099 3.37132 219.486 3.36714C217.884 3.35629 216.303 3.26675 214.606 3.26185C214.325 3.26115 213.977 3.35628 213.556 3.35524C212.234 3.35209 210.278 3.26574 209.145 3.26259C205.41 3.25279 201.964 3.30693 198.445 3.30763C197.618 3.30759 196.885 3.21946 196.455 3.21736C195.485 3.21284 196.217 3.29611 195.234 3.29646C187.208 3.29856 179.15 3.2607 171.029 3.26735C167.84 3.2698 163.957 3.35596 160.875 3.33217C159.593 3.32201 159.361 3.20687 158.454 3.20582C156.838 3.20446 156.544 3.35206 154.839 3.36677C153.478 3.37832 151.918 3.23097 150.502 3.24006C149.085 3.24916 148.432 3.39229 146.805 3.40944C145.465 3.42342 143.595 3.35847 142.136 3.36897C128.769 3.46556 115.605 3.52435 102.156 3.41237C97.4097 3.37282 92.1443 3.39338 87.2398 3.2527C86.7791 3.23938 87.4838 3.10116 86.0069 3.1302C85.2134 3.14595 84.1056 3.26505 82.2715 3.27101C71.3667 3.306 59.7351 3.05124 48.6472 3.10164C32.0385 3.17758 14.8255 4.16117 0.39276 2.72187C-0.315186 2.65119 0.0687136 2.30483 0.492858 2.20643C0.886473 2.27676 1.25038 2.36028 1.66229 2.43971C2.181 2.00693 2.08954 2.11961 4.01215 2.15846C5.19582 2.18258 4.25034 1.99749 4.88129 1.94495C5.69922 1.87706 9.53955 1.66329 8.80097 1.9499C9.03901 1.90021 9.25873 1.8526 9.49067 1.80396C12.2709 1.76057 14.9721 1.68881 17.6914 1.60657C18.1611 1.5922 18.1828 1.50227 18.6679 1.48792C19.971 1.44874 21.0056 1.50782 22.3483 1.49872C23.0778 1.49383 23.179 1.3899 24.1342 1.39655C25.0889 1.40324 25.068 1.54353 26.3706 1.39106C25.5221 1.21504 29.3068 1.34276 30.6528 1.33191C30.8481 1.33052 32.4502 1.17238 33.3017 1.19056C34.1562 1.2084 35.4533 1.30942 36.7746 1.25208C37.3942 1.22514 37.7701 1.10198 38.4384 1.09498C38.9084 1.09008 39.473 1.19954 40.0681 1.20411C40.663 1.20865 41.9501 1.1188 42.186 1.11731C43.0374 1.11137 42.0981 1.18833 42.6804 1.1922C45.4912 1.2097 48.7569 1.25095 51.5281 1.19916C51.8688 1.19288 51.3974 1.10221 51.4426 1.09919C53.7554 0.987931 52.521 1.10607 53.1455 1.18726C53.7505 1.26577 58.1776 1.22294 58.2102 1.06531C58.3462 1.2627 59.3303 1.11194 59.5859 1.10615C60.5807 1.08377 60.3856 1.25455 61.3498 1.20173C61.7037 1.18249 61.0147 1.06706 61.395 1.07044C62.335 1.07884 63.1809 1.26428 64.4321 1.28284C64.7343 1.28739 64.8325 1.20479 65.3696 1.20759C65.9074 1.21043 68.1616 1.31149 67.1213 1.13727C68.4885 1.27688 68.7637 1.20026 70.3538 1.20411C70.7566 1.20528 71.2751 1.3384 72.1323 1.29712C72.4222 1.28312 72.4137 1.1548 72.8501 1.15375C73.848 1.15099 74.7881 1.28382 76.0545 1.28907C78.4227 1.29921 80.9439 1.20584 83.4129 1.23908C84.0839 1.2482 83.9164 1.37721 84.8924 1.37971C85.0358 1.37971 86.2113 1.26814 86.8858 1.27863C87.2917 1.28493 89.3949 1.36334 89.8191 1.36963C90.5206 1.37973 90.6458 1.25496 91.0301 1.27936C92.141 1.3497 91.2497 1.53336 92.5865 1.28211C93.0259 1.42139 93.8071 1.40746 94.0574 1.57893C94.5121 1.39102 95.1018 1.57156 95.9837 1.50861C96.8657 1.44562 97.5889 1.08168 97.8025 1.47327C98.2145 1.42568 99.9699 1.34446 100.266 1.33851C101.138 1.32172 100.672 1.43004 101.33 1.41541C101.446 1.41296 101.325 1.33889 102.069 1.3462C102.557 1.3511 106.135 1.35564 106.349 1.36579C108.786 1.48175 105.02 1.43925 104.493 1.51942C104.4 1.49836 104.308 1.47723 104.209 1.45643C103.132 1.42145 103.745 1.58879 104.233 1.62763C104.722 1.66646 105.634 1.59192 106.04 1.64686C106.242 1.67444 106.117 1.87507 105.505 1.85084C106.16 1.91263 105.266 1.97788 105.525 2.03596C105.809 2.09962 108.75 2.11922 108.766 2.00868C108.216 2.00483 107.533 2.00864 106.977 2.0041C106.251 1.81197 108.457 1.15586 110.481 1.41797C111.948 1.60764 109.529 1.75845 113.002 1.59925C112.467 1.59155 112.016 1.57361 111.531 1.56556C111.479 1.42148 112.266 1.5799 112.672 1.53406C112.867 1.51165 111.665 1.40963 112.709 1.37568C113.606 1.58172 114.296 1.37446 115.801 1.37202C115.382 1.40876 114.964 1.44532 114.546 1.48206C117.088 1.63149 111.183 1.68078 116.127 1.76441C115.532 1.77105 114.94 1.76929 114.342 1.77943C114.632 1.85503 114.168 2.07696 114.427 2.12385C115.108 2.24693 116.114 2.17273 116.944 2.18354C117.308 2.18809 117.082 2.24801 117.113 2.24836C117.61 2.255 117.5 2.16717 117.937 2.16157C118.486 2.15458 120.072 2.23996 120.329 2.23023C120.995 2.20539 119.887 2.03206 119.951 2.01911C120.375 1.93516 121.242 2.00478 121.196 1.89497C119.111 1.97054 113.103 1.87352 118.539 1.6919C117.04 1.51448 117.473 1.26987 119.627 1.25062C121.41 1.23452 120.26 1.33253 121.188 1.44031C121.307 1.45381 123.695 1.50534 123.817 1.42914C123.721 1.60464 124.498 1.76005 123.977 1.94111C123.901 1.96771 122.921 1.95721 123.263 2.10279C123.434 2.17592 123.924 2.33508 123.845 2.42817C124.046 2.36344 124.257 2.29062 124.461 2.22309C125.929 2.2042 126.138 2.27393 126.941 2.39466C126.904 2.34427 126.162 2.13252 127.289 2.19691C127.346 2.20076 127.396 2.27676 127.969 2.31446C129.125 2.39004 129.367 2.41355 128.479 2.63673C130.874 2.50943 131.39 2.75817 133.846 2.68544C133.358 2.39853 132.494 2.46956 130.245 2.52485C130.148 2.45662 130.102 2.38907 130.001 2.32014C132.995 2.4748 131.515 2.45905 133.211 2.32051C133.627 2.28656 135.84 2.32288 135.101 2.12971C134.927 2.08426 133.552 2.08949 133.71 2.01783C133.74 2.00419 135.412 1.96947 135.559 1.98798C137.408 2.2165 134.103 2.37577 139.197 2.29249C139.337 2.29004 139.386 2.20652 139.66 2.19489C140.176 2.1732 140.183 2.26996 140.643 2.24763C141.104 2.22523 141.742 2.09509 142.435 2.2154C143.702 2.43447 140.714 2.56047 139.383 2.44428C138.843 2.73055 148.35 2.73685 148.939 2.71235C151.511 2.60564 147.231 2.66724 147.01 2.58784C146.919 2.55425 146.964 2.12842 145.881 2.40473C145.561 2.48662 146.9 2.59451 146.101 2.63966C145.301 2.6848 145.618 2.55942 145.56 2.55067C145.361 2.52068 144.511 2.56717 144.4 2.54939C142.704 2.27957 142.859 1.87186 145.108 2.47413C146.088 2.338 143.839 2.12102 145.057 2.02863C146.537 1.91634 147.618 2.11052 147.804 2.11927C150.034 2.22281 147.462 1.93935 150.187 2.02992C151.703 2.08031 147.917 2.21857 151.38 2.20002C154.28 2.18427 152.714 2.08559 152.925 1.86127C152.974 1.80879 154.563 1.74443 152.4 1.76752C152.339 1.82596 152.223 1.90297 152.086 1.95686C151.555 1.91419 150.671 1.62174 150.389 1.61152C149.013 1.56288 149.079 1.71467 148.268 1.5359C148.847 1.73147 147.904 1.61362 147.55 1.65491C146.235 1.8071 147.959 1.86368 145.008 1.6681C145.393 1.75979 145.741 1.84977 146.113 1.94111C145.759 1.94426 145.405 1.94748 145.051 1.95063C144.523 1.74871 142.643 1.77454 144.346 1.57123C142.298 1.5135 141.47 1.55752 141.022 1.71461C140.936 1.7446 140.629 1.75658 140.267 1.75947C140.336 1.80364 140.423 1.94012 140.366 1.95686C139.856 2.10406 139.066 1.84976 139.336 1.75269C139.083 1.74805 138.883 1.7426 138.812 1.74024C138.364 1.72517 139.242 1.6374 138.879 1.60731C138.76 1.59753 137.497 1.61662 137.473 1.58094C137.321 1.35218 139.398 1.51722 135.227 1.38428C135.126 1.59251 137.063 1.54672 136.566 1.76789C136.032 2.00549 134.942 1.68677 134.704 1.97828C134.616 1.93035 134.577 1.89039 134.501 1.83582C132.813 1.96283 132.791 1.72005 132.275 1.66645C131.274 1.56181 126.672 1.57753 130.804 1.78785C130.2 1.80885 129.583 1.81856 128.982 1.8371C128.844 1.40186 129.211 1.5751 126.315 1.50861C125.677 1.49392 125.469 1.30249 124.844 1.52985C124.929 1.30683 123.042 1.44156 122.866 1.4145C121.737 1.23848 125.93 0.99347 126.467 1.38776C127.175 1.23425 127.172 1.43718 127.962 1.41028C129.104 1.37144 129.262 1.33192 130.617 1.4817C131.951 1.27067 125.396 1.38885 129.37 1.10889C133.345 0.828952 156.489 0.672797 161.888 0.630801C171.67 0.554862 176.813 0.505228 185.599 0.517825C186.466 0.518875 193.009 0.498641 191.649 0.742496C191.454 0.777491 188.639 0.870233 191.053 1.06165C190.562 0.948631 191.982 0.875244 192.101 0.863346C194.832 0.593191 193.251 0.527033 197.551 0.524234ZM210.299 2.69917C204.687 2.64353 208.81 2.80655 207.644 3.1747C208.364 3.17575 209.082 3.17676 209.802 3.17781C209.613 3.15471 209.426 3.13169 209.237 3.10859C209.236 3.10859 209.235 3.10859 209.234 3.10859C209.589 2.97213 209.945 2.83563 210.299 2.69917ZM302.046 2.94563C301.827 2.9941 301.611 3.04267 301.373 3.0901C300.632 3.07506 299.893 3.06028 299.152 3.04524C299.24 3.01235 299.326 2.97907 299.414 2.94618C300.291 2.94758 301.166 2.9491 302.046 2.94563ZM138.598 2.49757C137.549 2.36286 137.643 2.60326 136.249 2.49372C136.42 2.67113 136.609 2.84468 136.789 3.02034C137.851 2.99409 138.092 2.92662 139.245 2.96998C139.111 2.91296 138.974 2.8556 138.843 2.79823C138.651 2.81046 138.446 2.82438 138.26 2.83522C137.964 2.67566 139.807 2.65185 138.602 2.4972C138.601 2.49732 138.6 2.49745 138.598 2.49757ZM127.84 2.56898C127.276 2.54588 125.039 2.45905 124.734 2.53254C123.699 2.78171 130.01 2.62358 125.359 2.8451C125.38 2.88006 125.359 2.91432 125.359 2.94893C126.207 2.96117 127.053 2.97172 127.908 2.98152C127.862 2.84366 127.892 2.70754 127.84 2.56898ZM190 2.71455C189.132 2.69535 184.995 2.81255 186.344 2.97035C186.741 3.01654 188.587 2.79081 189.289 2.80061C189.744 2.80693 189.234 2.93069 190.132 2.8852C190.092 2.83065 190.068 2.77017 189.997 2.71492C189.998 2.71479 189.999 2.71467 190 2.71455ZM191.627 1.99439C190.73 2.01644 189.82 2.04437 188.917 2.06782C189.576 2.20882 190.873 2.11825 190.95 2.31666C190.702 2.3317 190.458 2.34666 190.211 2.3617C190.022 2.31832 189.836 2.2749 189.65 2.23152C188.874 2.3393 189.344 2.39285 187.9 2.3617C188.773 2.66161 188.935 2.82258 191.407 2.51918C190.94 2.6819 191.38 3.2121 192.75 2.8332C193.006 2.76286 191.936 2.71586 191.924 2.70466C191.759 2.56543 192.353 2.47657 192.176 2.34504C192.097 2.28555 191.444 2.28646 191.346 2.20387C191.301 2.16358 191.922 2.04863 191.627 1.99439ZM193.415 2.70045C193.138 2.78478 194.087 2.98492 194.911 2.94435C196.196 2.88136 194.169 2.691 193.415 2.70045ZM302.051 2.94545C302.049 2.94551 302.047 2.94557 302.046 2.94563C302.047 2.94545 302.047 2.94526 302.048 2.94508C302.049 2.9452 302.05 2.94532 302.051 2.94545ZM130.752 2.66658C130.087 2.73827 129.102 2.72782 129.175 2.84181C128.851 2.81941 128.524 2.79737 128.201 2.77497C128.204 2.80925 128.21 2.84359 128.213 2.87751C129.186 2.89886 130.157 2.92027 131.13 2.94197C131.008 2.85029 130.895 2.75826 130.752 2.66658ZM120.146 2.58674C118.923 2.57521 119.949 2.7303 119.68 2.80519C119.411 2.88008 118.321 2.81915 118.45 2.92659C119.17 2.93079 119.921 2.93501 120.65 2.93885C120.458 2.82197 120.324 2.70293 120.144 2.58674C120.145 2.58674 120.145 2.58674 120.146 2.58674ZM233.204 2.8213C232.374 2.7877 232.713 2.66936 231.074 2.80793C231.075 2.80793 231.077 2.80793 231.078 2.80793C232.637 2.90485 234.645 2.99123 236.366 2.89747C235.313 2.77262 234.51 2.87379 233.204 2.8213ZM141.501 2.84675C141.852 2.75298 140.22 2.67466 139.859 2.76179C139.277 2.90281 140.967 2.98918 141.501 2.84675ZM266.731 1.99073C267.994 1.70204 265.601 1.378 263.096 1.51795C262.879 1.5302 264.496 1.62201 264.017 1.67835C263.969 1.6839 263.081 1.67702 262.861 1.71717C262.641 1.75741 262.872 1.85083 262.512 1.89002C261.88 1.95852 260.452 1.8316 259.979 1.92152C259.917 1.93357 260.803 2.0585 260.858 2.06324C261.768 2.13882 262.644 1.97552 262.784 1.97443C263.508 1.96884 263.398 2.09687 263.581 2.12696C263.926 2.18356 264.534 2.12698 264.576 2.13117C265.674 2.24346 263.166 2.21133 262.827 2.25752C261.915 2.38209 262.759 2.49791 260.571 2.56825C260.363 2.57487 257.876 2.56735 261.011 2.7107C254.856 3.00953 264.103 2.88068 265.107 2.81489C265.57 2.78439 264.869 2.66235 265.15 2.60743C265.791 2.48182 266.884 2.45967 266.786 2.2826C266.575 1.91034 265.14 2.15426 264.152 2.09162C264.255 2.01078 264.295 1.93194 264.487 1.85285C264.191 1.95924 266.639 2.01246 266.731 1.99146C266.731 1.99122 266.731 1.99098 266.731 1.99073ZM251.15 2.41609C249.767 2.30375 249.865 2.53875 248.599 2.40437C247.482 2.61538 249.685 2.60121 249.941 2.61311C251.113 2.66629 251.086 2.89574 252.285 2.82515C251.873 2.68938 251.537 2.5522 251.15 2.41609ZM263.175 2.51295C262.25 2.63193 263.905 2.62991 263.972 2.65266C264.703 2.894 259.748 2.8471 263.175 2.51295ZM184.614 2.24177C184.144 2.23372 184.442 2.34764 184.028 2.3813C183.613 2.41523 182.195 2.31774 182.23 2.38862C182.267 2.45966 184.866 2.64389 182.257 2.68379C182.345 2.72366 182.316 2.75341 182.358 2.78944C183.075 2.79049 183.799 2.79224 184.516 2.79329C184.123 2.67851 183.719 2.55777 183.341 2.44685C183.744 2.35551 183.97 2.47267 183.992 2.47267C183.992 2.47254 183.992 2.47242 183.992 2.4723C184.742 2.46311 185.669 2.25967 184.614 2.24177ZM221.6 2.59938C221.741 2.31416 220.633 2.6327 220.178 2.66804C219.723 2.70326 219.099 2.59768 219.333 2.72041C220.069 2.80509 221.585 2.6312 221.6 2.59901C221.6 2.59913 221.6 2.59925 221.6 2.59938ZM243.639 2.41664C242.48 2.48587 242.664 2.56001 241.246 2.47541C241.301 2.54435 241.356 2.6148 241.411 2.68269C242.537 2.68409 242.458 2.48396 243.761 2.5644C243.975 2.5777 243.517 2.73755 244.481 2.68617C244.201 2.60085 243.916 2.50616 243.639 2.41664ZM237.895 2.67225C239.226 2.66173 240.281 2.10387 237.831 2.35548C237.468 2.39309 236.895 2.6803 237.895 2.67225ZM196.888 2.22767C194.625 2.21159 197.196 2.30161 197.786 2.38734C192.516 2.45591 198.38 2.36388 198.906 2.649C199.55 2.56781 200.755 2.38213 199.416 2.33241C198.858 2.31176 199.062 2.39666 199.028 2.39631C198 2.37531 198.124 2.23642 196.888 2.22767ZM253.552 2.40235C253.467 2.40655 253.6 2.50286 253.329 2.5221C253.057 2.54121 252.441 2.47381 252.38 2.53291C252.32 2.59237 253.554 2.63849 253.933 2.59516C254.311 2.55142 254.324 2.36527 253.552 2.40235ZM244.866 2.16505C243.735 2.23435 245.584 2.58913 245.83 2.58747C247.991 2.56893 244.802 2.27738 244.866 2.16505ZM202.145 1.62507C199.416 1.80529 201.412 2.11846 203.121 2.30604C203.347 2.26792 203.578 2.22974 203.801 2.19196C202.776 2.42363 200.979 2.65262 204.977 2.45069C202.788 2.39617 204.621 2.33394 204.635 2.32087C204.876 1.89533 201.634 2.09295 202.147 1.62507C202.146 1.62507 202.145 1.62507 202.145 1.62507ZM257.23 2.50379C258.418 2.50238 261.505 2.42887 260.065 2.24342C259.119 2.33019 258.176 2.41702 257.23 2.50379ZM157.475 1.64997C156.505 1.54393 155.61 1.54574 154.414 1.55274C155.491 1.70706 154.783 1.72479 154.42 1.76258C153.869 1.81947 155.204 1.81481 155.207 1.8252C155.183 1.97182 154.332 1.99459 156.269 1.9911C155.79 2.04217 155.318 2.09363 154.839 2.14436C156.315 2.15102 156.663 2.24667 157.6 2.36354C156.69 2.07799 157.888 2.25677 158.974 2.11469C159.517 2.04356 157.969 1.7042 157.472 1.64997C157.473 1.64997 157.474 1.64997 157.475 1.64997ZM199.325 1.56776C199.044 1.61919 198.787 1.68878 198.516 1.74757C198.219 1.75317 197.923 1.75808 197.627 1.76368C197.59 1.7182 197.56 1.67063 197.517 1.6269C197.127 1.61366 197.279 1.67698 197.163 1.68293C197.163 1.68269 197.163 1.68244 197.163 1.6822C195.5 1.76614 194.819 1.7567 193.517 1.6161C193.517 1.75544 193.517 1.89478 193.517 2.03413C193.809 2.02084 194.105 2.00788 194.398 1.99494C194.554 1.92007 194.71 1.84515 194.866 1.77027C195.204 1.81157 195.54 1.85257 195.879 1.89387C196.15 1.86694 196.476 1.83861 196.711 1.81239C198.063 2.20186 194.991 1.93727 194.963 2.09895C194.945 2.20288 198.039 2.19833 198.485 2.1266C198.549 2.1161 197.88 1.82608 199.012 1.97718C199.189 2.00098 199.252 2.62842 200.472 2.12037C200.646 2.0483 200.039 1.65851 199.325 1.56776ZM188.089 1.36542C189.829 1.76681 183.409 1.34238 186.179 1.67268C185.389 1.85707 185.535 1.85467 186.332 2.01838C186.402 2.03305 185.852 2.08372 185.898 2.09016C186.643 2.18045 187.54 2.13257 187.546 2.2967C187.748 2.28796 187.937 2.28018 188.138 2.27143C187.3 2.11678 188.633 2.01285 189.149 1.88233C189.384 1.82322 188.844 1.80498 189.042 1.75324C189.115 1.73435 189.869 1.77206 189.9 1.7179C189.964 1.59542 189.49 1.42989 188.688 1.33961C188.688 1.33948 188.688 1.33936 188.688 1.33924C188.486 1.34728 188.291 1.35703 188.089 1.36542ZM225.27 1.69886C225.566 1.92073 226.752 1.98424 224.473 2.09272C224.585 2.13642 224.702 2.17976 224.814 2.22346C225.199 2.21961 225.571 2.21579 225.962 2.21229C227.134 1.55865 229.273 2.29629 227.903 1.83271C227.753 1.78232 226.841 1.83862 227.742 1.70179C227.74 1.70167 227.739 1.70155 227.738 1.70142C226.481 1.74342 226.323 1.82203 225.27 1.69886ZM216.855 1.85358C213.956 2.32042 220.862 2.11406 219.708 1.99018C219.604 1.97898 216.63 2.0793 216.855 1.85358ZM240.121 1.44727C238.821 1.43923 238.735 1.6911 238.866 1.78181C238.997 1.87278 239.897 1.78085 240.013 1.79517C240.392 1.84242 239.589 1.87362 240.08 1.93836C240.243 1.95939 242.507 2.04918 242.611 2.03834C243.187 1.97809 242.345 1.77026 242.51 1.74647C243.047 1.66847 243.776 1.77659 243.932 1.66608C244.267 1.4303 242.908 1.67781 242.678 1.68183C241.985 1.69303 242.046 1.56029 241.527 1.5337C241.009 1.50715 240.67 1.55262 240.212 1.54322C240.06 1.54008 240.187 1.44811 240.121 1.44727ZM235.823 1.9792C237.18 1.78852 233.875 1.58116 233.483 1.6258C232.329 1.75843 235.173 2.07018 235.823 1.9792ZM192.445 1.97114C193.687 1.83292 190.794 1.72104 189.967 1.77668C190.12 1.83412 192.018 2.01872 192.445 1.97114ZM202.901 1.6258C201.76 1.66884 203.274 1.98025 204.226 1.97535C204.784 1.7707 204.259 1.81126 203.636 1.80286C203.015 1.79439 203.792 1.59227 202.901 1.6258ZM254.22 1.67487C253.974 1.67162 250.005 1.84078 252.285 1.91108C252.459 1.91633 255.237 1.88654 255.448 1.85505C255.872 1.79135 254.855 1.68397 254.22 1.67487ZM208.376 1.32349C207.772 1.50052 207.178 1.49815 207.733 1.706C207.734 1.706 207.735 1.706 207.735 1.706C206.207 1.76966 206.139 1.34442 205.809 1.35352C204.656 1.38544 205.749 1.6881 205.026 1.78748C206.707 1.69406 206.225 1.89813 207.504 1.91108C207.79 1.91388 208.938 1.79201 209.106 1.71607C209.274 1.6401 208.688 1.41238 208.376 1.32349ZM259.827 1.63074C258.487 1.56291 257.26 1.84983 259.119 1.89533C260.025 1.91773 260.645 1.67204 259.827 1.63074ZM125.908 1.55897C126.112 1.6342 126.323 1.70911 126.543 1.78364C126.049 1.80183 125.554 1.8204 125.06 1.83894C125.45 1.81514 125.841 1.7917 126.235 1.76826C125.307 1.74201 124.883 1.60516 125.906 1.55897C125.906 1.55897 125.907 1.55897 125.908 1.55897ZM92.877 1.50165C92.4619 1.42921 91.6441 1.65353 91.7478 1.67103C92.5289 1.80142 93.453 1.60209 92.877 1.50165ZM190.61 1.2898C189.067 1.25842 190.128 1.62314 191.074 1.64814C190.495 1.57839 191.486 1.30764 190.61 1.2898ZM104.493 1.51942C104.632 1.55077 104.771 1.58213 104.927 1.61353C104.438 1.56993 104.354 1.54061 104.493 1.51942ZM253.589 1.35279C253.353 1.3248 251.611 1.30169 251.376 1.33631C250.887 1.4091 252.246 1.61046 253.046 1.54853C253.134 1.54188 253.823 1.38079 253.585 1.35279C253.586 1.35279 253.588 1.35279 253.589 1.35279ZM123.821 1.41926C123.823 1.42275 123.822 1.42608 123.817 1.42914C123.819 1.42589 123.818 1.42252 123.821 1.41926ZM58.1968 1.04865C58.2063 1.05431 58.2113 1.05992 58.2102 1.06531C58.2065 1.06002 58.1992 1.05445 58.1968 1.04865ZM241.301 1.04316C240.721 0.695654 239.385 0.880485 240.441 1.05231C240.5 1.06134 241.161 1.04247 241.301 1.04316Z" fill="white"/>
</svg>
