<svg width="149" height="119" viewBox="0 0 149 119" fill="none" xmlns="http://www.w3.org/2000/svg">
<path d="M89.9199 4.34734C89.9288 3.97777 90.4679 3.94819 90.5172 4.31457L90.85 6.79142C91.3603 10.5869 93.6359 13.4798 96.3336 13.7623L97.051 13.8373C97.7292 13.9083 97.7823 14.8757 97.1159 15.0204L96.411 15.1735C93.7605 15.7494 91.815 18.8735 91.7231 22.7024L91.6633 25.2009C91.6544 25.5704 91.1153 25.6 91.066 25.2336L90.7332 22.7568C90.2229 18.9612 87.9475 16.0684 85.2496 15.7859L84.5322 15.7109C83.854 15.6399 83.8009 14.6725 84.4673 14.5278L85.1721 14.3747C87.8227 13.7988 89.7682 10.6747 89.8601 6.84575L89.9199 4.34734Z" fill="white"/>
<path d="M134.083 29.4998C134.045 29.1321 134.575 29.0337 134.671 29.3908L135.319 31.8046C136.311 35.5035 138.938 38.0811 141.65 38.0158L142.371 37.9983C143.053 37.9818 143.229 38.9345 142.587 39.1634L141.907 39.4055C139.352 40.3161 137.823 43.6636 138.222 47.4728L138.483 49.9583C138.521 50.326 137.99 50.4244 137.895 50.0673L137.247 47.6535C136.255 43.9546 133.628 41.3769 130.916 41.4423L130.195 41.4598C129.513 41.4763 129.337 40.5236 129.979 40.2948L130.659 40.0527C133.214 39.142 134.743 35.7945 134.344 31.9853L134.083 29.4998Z" fill="white"/>
<path d="M84.6042 64.5901C84.7102 64.3828 85.0243 64.5134 84.9521 64.7348C84.5007 66.1185 84.8027 67.4843 85.6797 68.026C85.9427 68.1885 85.7741 68.594 85.4734 68.522C84.4709 68.282 83.2895 69.0307 82.6264 70.3265C82.5204 70.5338 82.2063 70.4032 82.2785 70.1818C82.7299 68.7981 82.4281 67.4323 81.5509 66.8906C81.2879 66.7282 81.4566 66.3226 81.7572 66.3946C82.7597 66.6347 83.9411 65.8859 84.6042 64.5901Z" fill="white"/>
<path d="M107.023 87L110.023 88.5" stroke="white" stroke-linecap="round"/>
<path d="M126.523 74L125.023 77" stroke="white" stroke-linecap="round"/>
<path d="M137.023 97.5L134.023 96" stroke="white" stroke-linecap="round"/>
<path d="M115.023 109L116.523 106" stroke="white" stroke-linecap="round"/>
<path d="M59.0134 71.0804C53.2067 70.8467 46.818 69.9402 40.3467 71.5383C41.0675 71.3388 41.7993 71.8948 41.8086 72.6325C41.7773 71.6508 41.6675 70.6839 41.5139 69.7536C41.3567 68.8388 41.2361 68.9214 41.1732 68.6669C40.9962 67.9948 41.0405 67.5381 40.913 67.0471C40.2814 64.6519 39.5513 62.4957 38.7379 60.2773C37.8931 58.0056 37.9075 59.2115 37.5408 58.4544C36.8171 56.9737 37.7568 58.1177 37.6447 57.4728C36.9825 55.7163 36.2881 53.9647 35.6315 52.2229C35.7351 52.6676 35.8419 53.1125 35.9541 53.5613C35.674 52.7979 35.2227 51.7229 35.545 53.0524C35.412 52.7799 35.2803 52.5279 35.1468 52.2467C35.2894 52.1077 34.845 50.7419 34.9087 50.5836C34.9698 50.4258 35.1996 51.1983 35.2076 51.1908C35.3054 51.0971 34.1334 48.0207 34.0678 47.7905C33.8554 47.2004 33.7906 47.7899 33.6583 47.2737C33.4378 46.3846 34.0364 46.8545 33.1338 45.8117C33.2061 45.2886 33.0937 45.2678 32.9383 44.6644C32.9182 44.585 33.0442 44.6212 33.0391 44.5855C32.9166 43.6535 32.8658 44.4014 32.8536 44.3998C32.6413 44.3627 32.5149 43.3472 32.4598 43.1431C31.7494 40.5699 31.3481 38.5864 31.5208 35.7689C31.5404 35.1497 31.9516 33.344 32.1099 32.7812C32.2438 32.2173 32.0196 32.4732 32.0485 32.1601C32.5333 31.7998 32.6945 31.3979 32.9758 30.3198C33.3836 30.0752 33.17 30.0223 33.6122 29.3789C33.7972 29.1161 34.1113 28.7941 34.4211 28.4593C34.7195 28.1368 35.0135 27.8173 35.1646 27.4827C34.7244 27.9757 34.635 27.9684 34.2603 28.3395C34.184 28.4182 34.0971 28.5136 33.997 28.6346C33.7152 28.8204 32.2765 31.6823 32.1938 31.4048C32.1063 31.2347 32.6649 30.2846 32.6686 30.2455C32.6532 29.962 32.2139 30.4294 32.0591 30.9636C32.1382 30.8489 32.2304 30.7104 32.3173 30.5895C32.0011 31.7753 31.6829 30.7574 31.915 31.8332C31.9466 31.9647 32.0323 31.9483 32.0471 32.1484C32.0044 32.1748 32.0012 31.9334 31.9254 32.1151C31.847 32.3018 31.884 32.7081 31.747 32.7276C31.541 32.7583 31.8566 31.977 31.8724 31.9167C31.8737 31.9165 31.875 31.9162 31.8762 31.9159C31.9658 31.3548 31.5759 32.4574 31.553 32.5101C31.3424 32.8278 31.32 32.5627 31.0891 33.0735C30.9549 33.3647 30.825 34.1673 30.7658 34.4546C30.7017 34.7427 30.6875 34.2757 30.6374 34.4689C30.5872 34.6631 30.618 34.9182 30.5681 35.1481C30.5465 35.2466 30.4502 35.2302 30.4412 35.2785C30.3482 35.7971 30.5843 35.4749 30.5309 35.9401C30.4925 36.2368 30.2624 37.2606 30.2366 36.5465C30.1998 36.8897 30.1769 37.2196 30.1599 37.5581C30.1318 37.3439 30.1161 37.1245 30.0888 36.9133C30.1166 37.552 29.9549 37.8413 29.9506 38.2481C29.9484 38.6552 30.1651 38.9966 30.0977 39.4432C29.9525 40.3988 29.8962 38.066 29.8849 37.766C29.8693 37.6514 29.7154 38.0921 29.7134 38.1612C29.6996 38.4676 29.8265 38.8105 29.8343 39.0406C29.8633 39.8656 29.7638 40.3749 29.8297 41.1601C30.0479 43.824 30.774 47.0137 31.4643 49.3738C31.7189 50.2524 32.0491 50.7277 32.1698 51.1161C32.4563 52.0277 32.3572 52.1858 32.6177 52.9757C33.0059 54.1528 33.7092 55.7459 34.0807 56.6976C34.3387 57.36 34.4228 58.0086 34.4813 58.1818C35.3025 60.6032 36.3198 63.5034 36.8895 65.4783C37.1638 66.4182 37.4237 66.8032 37.4725 67.0049C37.666 67.8427 37.476 67.6406 37.646 68.3115C37.7347 68.6731 37.874 68.712 37.8896 68.7596C38.02 69.1753 37.8687 69.2889 37.9252 69.6251C38.0992 70.6809 38.2537 71.7271 38.3096 72.7242C38.3296 74.1956 39.8607 75.3114 41.2528 74.8934C41.6626 74.7704 42.112 74.6593 42.551 74.5727C42.6831 74.5467 42.6581 74.4752 42.7456 74.4633C43.1247 74.4167 42.9676 74.5621 43.367 74.5089C44.1835 74.4055 45.0396 74.3015 45.9502 74.2317C46.0381 74.2251 46.0718 74.1261 46.2754 74.1154C46.4799 74.1051 46.6391 74.1889 46.965 74.172C47.8095 74.129 48.6563 74.0122 49.5635 74.0154C49.7145 74.0161 49.902 74.1347 50.1291 74.1374C50.8302 74.1446 51.8976 74.0737 52.5089 74.0954C54.5336 74.1659 56.4106 74.3464 58.3423 74.4514C58.7958 74.476 59.2054 74.3895 59.442 74.3991C59.9757 74.4206 59.5679 74.5021 60.109 74.5293C64.5306 74.7363 69.0558 74.8385 73.6638 74.138C75.47 73.8669 77.7072 73.4187 79.4004 72.6852C80.1044 72.3799 80.1702 72.1886 80.6521 71.9532C81.51 71.5119 81.7523 71.5868 82.6373 71.0385C83.3408 70.5915 83.9813 69.8628 84.6127 69.2843C85.239 68.7013 85.648 68.5295 86.2964 67.7665C86.4001 67.6419 86.5072 67.503 86.6153 67.3535C86.8956 66.9672 87.17 66.5098 87.4076 66.0542C87.5596 65.7639 87.6968 65.477 87.8216 65.2111C91.2188 57.3187 86.4887 49.1709 80.4889 44.8624C80.2213 44.6692 79.9522 44.4837 79.6764 44.3021C77.349 42.755 74.4441 41.4223 71.5386 41.0312C71.2662 40.9971 71.6461 41.2313 70.7928 41.0494C70.3345 40.9598 69.7008 40.7118 68.5964 40.6591C66.7798 40.5797 64.878 40.8083 63.0629 41.4564C63.667 41.2953 64.1205 41.6536 64.1219 42.2623C64.1981 37.7135 62.0929 33.5777 59.4282 30.3773C58.3273 29.0566 57.0915 27.836 55.7407 26.7503C49.9064 21.6208 38.9503 19.7466 34.3522 26.361C34.1135 26.7226 34.5821 26.8491 34.8335 26.7717C34.9327 26.5562 35.0169 26.3412 35.1354 26.1129C35.7094 26.334 35.5458 26.2359 36.4099 25.5918C36.9534 25.2154 36.6258 25.6855 36.9545 25.5619C37.3685 25.3511 39.3688 24.8391 38.8885 24.6632C39.0306 24.6778 39.1615 24.6956 39.2983 24.7147C40.7397 24.3164 42.2102 24.2324 43.6495 24.3593C43.8994 24.3827 43.9072 24.4929 44.1606 24.5227C44.8432 24.6087 45.3915 24.598 46.0921 24.7278C46.4713 24.8019 46.4998 24.9346 46.9912 25.0356C47.4805 25.144 47.5193 24.9721 48.1275 25.342C47.6426 25.4104 49.5808 25.8569 50.2198 26.1815C50.3172 26.2216 51.0011 26.745 51.4001 26.9325C51.8077 27.1178 52.4635 27.3402 53.0143 27.7745C53.2704 27.9771 53.3509 28.2109 53.6321 28.4159C53.7957 28.5357 54.0431 28.5993 54.269 28.7252C54.3141 28.7502 54.3581 28.7777 54.4001 28.8083C54.655 28.9902 55.1078 29.4995 55.1987 29.5816C55.5321 29.8749 55.2205 29.4852 55.4546 29.6796C56.585 30.6181 57.7931 31.8509 58.5835 33.0643C58.6811 33.2128 58.4477 33.0785 58.4585 33.1C59.0349 34.155 58.7837 33.5524 59.0491 33.7652C59.3373 33.9552 60.3895 36.017 60.1855 36.1203C60.4363 36.0836 60.4707 36.6242 60.5106 36.7477C60.6717 37.23 60.8326 37.0643 60.9357 37.5557C60.9713 37.7351 60.7249 37.4463 60.791 37.6289C60.9509 38.0772 61.2939 38.4293 61.4571 39.0565C61.4952 39.2074 61.4083 39.2782 61.4616 39.5459C61.5282 39.8129 61.775 40.9417 61.5057 40.438C61.7417 41.1089 61.6626 41.2637 61.6555 42.0616C61.6547 42.0947 61.6581 42.1295 61.6639 42.1665C61.6838 42.6659 61.9875 43.2978 62.7392 43.6719C63.0568 43.7902 63.0223 44.0014 63.6358 43.9417C63.7224 43.9266 63.8068 43.9043 63.8885 43.8753C64.3221 43.7126 64.7236 43.449 65.3199 43.3223C66.5111 43.0705 67.8218 43.1169 69.0933 43.1743C69.4399 43.1922 69.3684 43.0237 69.8764 43.0799C69.9523 43.0872 70.5411 43.3074 70.8861 43.3626C71.0961 43.3847 72.1905 43.542 72.4061 43.6038C72.7663 43.693 72.7822 43.8595 72.9833 43.8911C73.5615 43.9904 73.1963 43.6273 73.7553 44.151C74.031 44.0692 74.4089 44.2366 74.612 44.0946C74.7474 44.3992 75.1232 44.3179 75.5163 44.5883C75.9112 44.8601 76.0374 45.4311 76.361 45.061C76.5316 45.2112 77.2845 45.7603 77.4104 45.8526C77.7905 46.114 77.652 45.8704 77.936 46.0748C77.9852 46.1113 77.8848 46.1505 78.2142 46.3619C78.3049 46.4203 78.6289 46.6391 78.975 46.894C79.4605 47.2478 79.9756 47.6741 80.0298 47.7117C81.0996 48.4498 79.5572 47.1786 79.3817 46.9465C79.3267 46.9365 79.272 46.9272 79.2145 46.9154C79.1402 46.8672 79.086 46.8276 79.0486 46.7952C78.9128 46.6779 79 46.6538 79.134 46.6806C79.2027 46.6945 79.2833 46.7219 79.3515 46.7567C79.5909 46.8775 79.9154 47.2539 80.125 47.343C80.2296 47.3871 80.3378 47.1549 80.06 46.9666C80.3846 47.1342 80.0565 46.7632 80.2109 46.7977C80.3915 46.824 81.6185 47.8849 81.5223 47.999C81.3005 47.7926 81.0293 47.538 80.7951 47.341C80.3483 47.2673 80.7131 48.6196 81.6648 49.163C82.3596 49.5765 81.6454 48.4867 82.724 50.015C82.5327 49.8012 82.3582 49.6347 82.177 49.4489C82.0286 49.5466 82.4511 49.7276 82.5495 49.9317C82.5959 50.0271 82.0859 49.626 82.4146 50.0719C82.913 50.274 82.9542 50.7175 83.4135 51.3597C83.322 51.1543 83.2257 50.9492 83.1268 50.7465C84.0894 51.7216 82.2335 49.151 83.9053 51.2244C83.7281 50.9573 83.5357 50.7002 83.3477 50.438C83.5173 50.506 83.5766 50.1396 83.7092 50.2171C84.0586 50.4215 84.316 50.9292 84.5808 51.3049C84.6968 51.4698 84.6889 51.3254 84.6986 51.3392C84.8571 51.5665 84.7328 51.5723 84.8565 51.7808C85.0156 52.0395 85.5418 52.7534 85.594 52.8876C85.74 53.2285 85.2656 52.7856 85.268 52.8268C85.29 53.0768 85.5811 53.4625 85.4487 53.5C85.0655 52.4033 83.1135 49.786 84.5395 52.3614C83.9253 51.791 83.8262 52.1514 84.3624 53.1303C84.7865 53.9538 84.6089 53.3706 84.9494 53.744C85.0013 53.7851 85.577 54.9134 85.5028 55.0111C85.6832 54.8825 86.0117 55.2021 86.116 54.8602C86.1335 54.8097 85.9156 54.3187 86.1517 54.4229C86.2711 54.4746 86.5536 54.6561 86.6429 54.5735C86.6113 54.7081 86.5707 54.8502 86.5336 54.9864C86.7913 55.7612 86.8957 55.8482 87.1647 56.2431C87.0989 56.2382 86.7399 55.9117 86.9829 56.4952C86.9952 56.5255 87.0945 56.5266 87.2153 56.8282C87.4515 57.4411 87.5004 57.5796 87.6644 57.0239C87.7779 58.4013 88.1234 58.6652 88.0624 60.1115C87.7044 59.8256 87.8264 59.3384 87.7142 58.047C87.6234 58.0038 87.5379 57.9911 87.4458 57.9484C87.8487 59.6006 87.7279 58.7881 87.6128 59.7512C87.5943 59.9855 87.5749 61.2358 87.3604 60.8052C87.3176 60.7037 87.3382 59.9462 87.2465 60.0328C87.238 60.0518 87.1627 60.9632 87.1694 61.0444C87.304 62.0854 87.8669 60.2948 87.1866 63.1001C87.1625 63.1761 87.0573 63.1758 87.0001 63.319C86.8903 63.5871 87.001 63.6272 86.8891 63.8642C86.775 64.1026 86.4995 64.3694 86.4666 64.7819C86.391 65.5587 87.3 64.0553 87.3368 63.2527C87.5396 63.1429 87.3278 64.4102 86.6769 65.6485C86.4594 66.0712 86.1993 66.4861 85.9361 66.8474C85.4055 67.5791 84.909 68.0879 84.8174 68.1713C83.681 69.154 85.4677 67.4201 85.4371 67.2327C85.4382 67.1646 85.0405 66.8842 85.6103 66.6046C85.6258 66.5968 85.6419 66.5889 85.6588 66.581C85.7206 66.552 85.7255 66.6062 85.7137 66.6817C85.6897 66.8375 85.5918 67.0832 85.8126 66.8551C85.8328 66.8339 85.8509 66.8142 85.8669 66.7958C86.1091 66.514 85.9015 66.5664 85.9126 66.5348C85.9526 66.4211 86.2733 66.0365 86.2866 65.9679C86.3354 65.7616 86.3482 65.5901 86.3409 65.4615C86.3214 65.154 86.2 65.089 86.1183 65.3379C86.0628 65.5004 86.022 65.7956 85.9855 66.265C85.5374 66.6326 86.0184 65.4319 85.5496 65.9374C85.4258 66.0684 85.3195 66.1967 85.2275 66.3194C84.8942 66.7631 84.757 67.1407 84.7108 67.2082C83.9765 68.2026 84.6983 66.9429 83.7276 68.0853C83.16 68.7036 84.8087 67.3918 83.3813 68.6836C82.1224 69.6991 82.7198 69.0391 82.4628 68.902C82.4009 68.8681 81.6795 69.323 82.6139 68.637C82.6841 68.6722 82.7919 68.7061 82.8917 68.7092C83.0866 68.4837 83.2014 67.8989 83.2963 67.7897C83.7751 67.2452 83.884 67.3847 84.0114 66.9237C83.9858 67.3085 84.2108 66.847 84.3685 66.7351C84.8767 66.3691 84.5584 66.8931 84.9726 66.1294C85.0334 66.0118 85.1088 65.8624 85.1976 65.671C85.1814 65.8703 85.1654 66.0586 85.1399 66.2541C85.1357 66.2848 85.1313 66.3156 85.1266 66.3466C85.1435 66.3251 85.1604 66.3035 85.1772 66.2819C85.2788 66.151 85.3773 66.0176 85.4722 65.8816C85.4377 65.507 85.9444 64.6736 85.284 65.3158C85.3489 65.1922 85.4069 65.0777 85.46 64.972C85.8061 64.2697 85.9728 63.9647 86.2063 63.8326C86.2566 63.8037 86.3284 63.6557 86.3927 63.4743C86.4325 63.5256 86.5749 63.6246 86.6043 63.6019C86.8682 63.3929 86.6842 62.8875 86.5302 62.9982C86.5611 62.867 86.5805 62.7625 86.5869 62.7254C86.6263 62.4911 86.4094 62.9143 86.4207 62.7199C86.4299 62.6581 86.5899 62.0164 86.5443 61.9951C86.2606 61.8685 86.3642 62.9583 86.4468 60.8135C86.7146 60.777 86.5475 61.7806 86.8436 61.557C87.1743 61.3047 86.8291 60.6872 87.187 60.5769C87.1306 60.5262 87.0825 60.5032 87.0173 60.4599C87.1903 59.5481 86.8675 59.5401 86.7915 59.2742C86.6715 58.7544 86.2501 56.341 86.8643 58.4784C86.8489 58.1513 86.8072 57.8235 86.7654 57.4988C86.2164 57.5356 86.5214 57.6671 86.0293 56.2181C85.9127 55.901 85.6574 55.875 85.8097 55.4733C85.5743 55.6048 85.37 54.6289 85.2939 54.5566C84.8821 54.1103 85.4095 56.1977 85.9108 56.3369C85.8331 56.7425 86.0725 56.6738 86.1398 57.0826C86.226 57.6757 86.1973 57.7553 86.4805 58.4285C86.3664 59.1325 85.858 55.8052 85.9297 57.8667C85.9553 58.7748 86.2523 61.9348 84.6529 64.523C84.466 64.8355 84.257 65.138 84.0289 65.4262C82.0297 68.0636 78.9076 69.405 77.687 69.8094C72.969 71.2944 70.1483 71.2281 65.475 71.2974C65.0157 71.313 61.4849 71.1773 62.2071 71.4961C62.3101 71.5442 63.8337 71.7071 62.5157 71.8977C62.7866 71.7692 62.0207 71.6519 61.9566 71.6343C60.4868 71.2411 61.3535 71.2035 59.0134 71.0804ZM51.9099 73.3835C54.969 73.4403 52.7159 73.547 53.3293 74.0231C52.9421 74.0068 52.5453 73.9913 52.1572 73.978C52.2605 73.9536 52.3628 73.9294 52.4667 73.9053C52.4672 73.9053 52.4676 73.9053 52.4681 73.9054C52.2824 73.731 52.0955 73.557 51.9099 73.3835ZM29.9857 35.9734C29.9169 36.0953 29.8491 36.2169 29.7832 36.3521C29.7763 36.788 29.7827 37.2165 29.8007 37.6448C29.841 37.5936 29.8818 37.5445 29.9224 37.4939C29.9242 36.9931 29.9424 36.4804 29.9857 35.9734ZM87.5142 62.8302C87.4835 62.2047 87.7717 62.312 87.7458 61.4917C87.9498 61.6149 88.1457 61.7538 88.3426 61.8929C88.2105 62.5288 88.1041 62.6538 87.9778 63.3464C87.9323 63.2489 87.8856 63.1508 87.8368 63.0575C87.8795 62.9498 87.9242 62.8343 87.9612 62.7279C87.8142 62.52 87.5265 63.561 87.5133 62.8321C87.5136 62.8315 87.5139 62.8308 87.5142 62.8302ZM87.5004 56.6838C87.4098 56.3714 86.9271 55.1866 86.9416 54.9996C87.0641 54.3148 87.9579 57.8777 87.4213 55.2118C87.4658 55.2097 87.5014 55.1845 87.5415 55.1709C87.7167 55.6396 87.8693 56.1152 87.9997 56.6028C87.8295 56.6162 87.6721 56.6728 87.5004 56.6838ZM63.026 73.936C63.5033 73.9344 65.7923 74.109 65.0435 74.2916C64.8215 74.3471 63.8018 74.0525 63.4155 74.0525C63.164 74.0531 63.4414 74.2128 62.9467 74.1422C62.9707 74.0762 62.9866 74.0028 63.0274 73.9365C63.0269 73.9363 63.0265 73.9361 63.026 73.936ZM62.1616 73.0257C62.6509 73.071 63.15 73.1213 63.6439 73.1625C63.2783 73.3263 62.5684 73.1921 62.5186 73.4327C62.6534 73.4558 62.7877 73.4786 62.923 73.5013C63.0288 73.4516 63.1328 73.4016 63.2366 73.3516C63.6587 73.4948 63.3997 73.555 64.1933 73.5343C63.7073 73.8896 63.6072 74.0893 62.2584 73.6711C62.5085 73.8788 62.2417 74.5195 61.5041 74.0257C61.3665 73.9341 61.9585 73.9007 61.9657 73.887C62.0628 73.7205 61.7404 73.5992 61.8439 73.4423C61.8904 73.3715 62.2487 73.3863 62.3059 73.2872C62.3323 73.239 61.9974 73.0858 62.1616 73.0257ZM61.1446 73.848C61.2932 73.9576 60.7592 74.1794 60.3079 74.108C59.6051 73.9967 60.7303 73.819 61.1446 73.848ZM29.9861 35.9706C29.9859 35.9716 29.9858 35.9725 29.9857 35.9734C29.9859 35.973 29.9862 35.9725 29.9864 35.9721C29.9863 35.9716 29.9862 35.9711 29.9861 35.9706ZM87.9261 58.3136C87.9665 57.9156 87.8479 57.3553 87.9915 57.3695C87.9286 57.1874 87.863 57.0075 87.7938 56.8291C87.835 56.8214 87.8767 56.8155 87.9175 56.8079C88.0709 57.3584 88.1956 57.9213 88.2869 58.4939C88.1674 58.4345 88.0479 58.3821 87.9261 58.3136ZM85.9296 52.5914C85.5816 51.9883 86.0295 52.4074 86.0354 52.2289C86.0417 52.0461 85.6561 51.5421 85.8054 51.5383C86.0257 51.8917 86.2461 52.2721 86.446 52.6467C86.2673 52.6128 86.1024 52.6125 85.929 52.5901C85.9292 52.5905 85.9294 52.5909 85.9296 52.5914ZM38.9828 72.5455C38.9916 72.6118 39.0022 72.663 39.0133 72.7058C39.0569 73.0113 39.1305 73.1498 39.2696 73.4063C39.4293 73.6269 39.6293 74.1389 40.5883 74.3084C40.5866 74.3083 40.5849 74.3083 40.5832 74.3082C39.8116 74.3399 38.9401 73.6825 38.8916 72.709C38.8242 72.1352 38.7537 71.4956 38.756 70.9204C38.9726 71.4442 38.8922 71.8835 38.9828 72.5455ZM87.3926 64.595C87.2129 64.7452 87.4763 63.8071 87.6293 63.6312C87.9015 63.3428 87.6909 64.364 87.3926 64.595ZM35.1023 54.8645C35.2032 54.0946 36.0137 55.1955 36.3183 56.5449C36.3445 56.6621 35.9384 55.8642 35.9626 56.1351C35.9652 56.1625 36.1382 56.6185 36.1327 56.7483C36.1272 56.8783 35.977 56.798 35.9987 56.9999C36.037 57.3533 36.4479 58.0378 36.4319 58.3198C36.4297 58.357 36.1218 57.9507 36.1059 57.9238C35.8503 57.4853 35.8761 56.9679 35.8511 56.8944C35.7233 56.5189 35.5963 56.6281 35.5276 56.5459C35.3982 56.3906 35.351 56.0546 35.3383 56.0343C35.0059 55.5146 35.5075 56.7952 35.5176 56.9895C35.5436 57.5119 35.2537 57.1229 35.5782 58.2807C35.6093 58.3911 36.0773 59.6706 35.3327 58.1123C36.1242 61.4054 34.5665 56.5926 34.4534 56.0426C34.4028 55.7909 34.673 56.1026 34.6842 55.935C34.7101 55.5525 34.5341 54.9777 34.756 54.9557C35.2234 54.9123 35.2073 55.7538 35.4623 56.2367C35.5362 56.1499 35.6195 56.0969 35.675 55.9652C35.6072 56.1622 35.0937 54.9214 35.1014 54.8648C35.1017 54.8647 35.102 54.8646 35.1023 54.8645ZM37.4377 63.0838C37.7986 63.7549 37.5097 63.7942 37.8704 64.4048C37.8009 65.0597 37.4679 63.9121 37.4083 63.78C37.1542 63.1974 36.8924 63.2994 36.7694 62.6517C36.9978 62.8131 37.2142 62.9347 37.4377 63.0838ZM35.1592 56.9157C35.1941 57.4423 34.8891 56.5871 34.8503 56.5613C34.4374 56.2853 35.4106 58.8207 35.1592 56.9157ZM66.0037 73.4061C66.263 73.3958 66.0987 73.5355 66.3278 73.5757C66.5581 73.6174 67.3367 73.4868 67.3183 73.5729C67.3022 73.6617 65.8666 73.9054 67.3104 73.9339C67.2625 73.9835 67.2796 74.0196 67.2568 74.064C66.8599 74.0725 66.4579 74.0783 66.0586 74.0802C66.2776 73.9396 66.5004 73.7907 66.7078 73.653C66.4846 73.5436 66.3605 73.6872 66.3486 73.6873C66.3486 73.6872 66.3486 73.687 66.3486 73.6869C65.9324 73.6779 65.4217 73.427 66.0037 73.4061ZM45.7968 73.2893C45.7033 72.9452 46.3152 73.299 46.561 73.3328C46.8065 73.3648 47.1424 73.225 47.0198 73.3791C46.6213 73.4937 45.8132 73.3258 45.7968 73.2888C45.7968 73.289 45.7968 73.2891 45.7968 73.2893ZM38.5874 67.0016C38.6576 67.6336 38.5452 67.5429 38.8164 68.2765C38.7277 68.2655 38.6372 68.2551 38.5498 68.2442C38.4123 67.647 38.6636 67.6431 38.3961 66.982C38.3511 66.8737 38.2254 67.1633 38.1534 66.6407C38.2934 66.7619 38.4443 66.8824 38.5874 67.0016ZM38.9155 70.0826C38.814 69.39 39.3838 68.6971 39.3033 70.0562C39.2878 70.2559 38.9849 70.6014 38.9155 70.0826ZM59.2665 73.1787C60.5075 73.2224 59.0933 73.2609 58.7642 73.3476C61.6495 73.5802 58.4389 73.3037 58.1333 73.6338C57.7875 73.5156 57.1376 73.2523 57.8755 73.2321C58.182 73.2237 58.065 73.3212 58.0834 73.3218C58.6474 73.3267 58.5882 73.1538 59.2665 73.1787ZM37.0402 61.8342C37.0503 61.8798 36.9155 61.8488 36.9404 61.996C36.9655 62.1427 37.1497 62.4339 37.0919 62.4896C37.0329 62.5413 36.7674 61.9263 36.7504 61.7137C36.7344 61.5012 36.9479 61.4213 37.0402 61.8342ZM38.7149 66.2744C38.7919 66.8905 38.1145 66.0349 38.0792 65.9096C37.7806 64.775 38.5967 66.3441 38.7149 66.2744ZM56.43 72.2862C57.9085 72.5888 56.798 72.9102 55.8492 73.088C55.7279 73.0347 55.6037 72.9812 55.4843 72.9286C56.0318 73.2421 56.9963 73.5735 54.8264 73.2105C56.0228 73.2069 55.0275 73.078 55.0208 73.0617C54.914 72.5345 56.6798 72.8724 56.4287 72.2862C56.4292 72.2862 56.4296 72.2862 56.43 72.2862ZM36.2658 59.9766C36.0509 59.3587 35.5665 57.7434 36.0457 58.4083C36.1208 58.9325 36.1929 59.4508 36.2658 59.9766ZM80.2723 70.0095C80.6663 69.6492 81.0704 69.4145 81.5979 69.0651C81.2296 69.5393 81.552 69.3513 81.7403 69.2785C82.0249 69.1685 81.4266 69.5684 81.4293 69.577C81.5347 69.7176 81.9509 69.502 81.0445 70.0527C81.3011 69.9735 81.5562 69.8882 81.8116 69.7932C81.129 70.2466 81.0194 70.4323 80.623 70.811C80.9063 70.2588 80.4193 70.7848 79.8022 70.8834C79.4994 70.9318 80.0785 70.1959 80.2741 70.0085C80.2735 70.0088 80.2729 70.0091 80.2723 70.0095ZM57.9768 72.3016C58.1265 72.3728 58.2622 72.4654 58.4068 72.5452C58.5682 72.5608 58.7301 72.5756 58.8917 72.591C58.9147 72.5366 58.9345 72.4794 58.9607 72.4273C59.1749 72.4224 59.0877 72.4953 59.1507 72.5059C59.1508 72.5056 59.1508 72.5053 59.1508 72.505C60.0548 72.6548 60.4277 72.6612 61.1472 72.5214C61.1397 72.6915 61.1322 72.8617 61.1247 73.0318C60.965 73.0085 60.8037 72.9854 60.6442 72.9621C60.5632 72.8667 60.482 72.7712 60.4013 72.6757C60.2137 72.7173 60.0277 72.7583 59.8399 72.7994C59.6931 72.7591 59.5168 72.7155 59.3898 72.6768C58.6248 73.114 60.3233 72.8775 60.3287 73.0744C60.3328 73.2031 58.637 73.1106 58.3984 73.0087C58.3641 72.994 58.7487 72.66 58.12 72.8107C58.0216 72.8344 57.9463 73.5985 57.3109 72.9414C57.2203 72.8481 57.5802 72.3909 57.9768 72.3016ZM64.1152 72.3147C63.1581 72.7924 66.6629 72.3194 65.1506 72.7065C65.5791 72.9354 65.501 72.9323 65.0628 73.1282C65.0242 73.1458 65.3251 73.2106 65.2994 73.2181C64.8904 73.3255 64.3971 73.2582 64.3901 73.4586C64.2792 73.4459 64.175 73.4344 64.065 73.4213C64.5284 73.2417 63.8005 73.1002 63.5229 72.9326C63.3964 72.8569 63.6921 72.8424 63.5857 72.7764C63.5465 72.7524 63.1331 72.7868 63.1181 72.72C63.0876 72.5692 63.3527 72.3754 63.7912 72.2758C63.7912 72.2756 63.7912 72.2755 63.7912 72.2753C63.9003 72.2878 64.0062 72.3021 64.1152 72.3147ZM43.6991 72.3774C43.5701 72.6689 42.9397 72.8211 44.1922 72.8043C44.1363 72.8642 44.079 72.9239 44.0241 72.9841C43.8154 73.0036 43.6153 73.0243 43.4077 73.0488C42.6449 72.3406 41.6521 73.4601 42.2826 72.7606C42.351 72.6845 42.8617 72.6655 42.3411 72.5872C42.3417 72.587 42.3423 72.5867 42.343 72.5864C43.0403 72.5169 43.1466 72.6016 43.6991 72.3774ZM48.3459 72.2924C49.9422 72.8451 46.1612 72.6475 46.7829 72.4945C46.8468 72.4718 48.4671 72.5625 48.3459 72.2924ZM40.1729 68.6199C40.3233 69.3315 40.0224 69.4384 39.9017 69.3843C39.7809 69.3333 39.7973 68.8156 39.7675 68.7612C39.6706 68.5705 39.7184 69.0059 39.5887 68.7597C39.553 68.6829 39.173 67.479 39.1702 67.4318C39.1682 67.1102 39.5227 67.4959 39.5299 67.4023C39.555 67.0947 39.3273 66.7355 39.4362 66.618C39.6695 66.3655 39.563 67.1731 39.5853 67.2942C39.6596 67.6643 39.8107 67.5999 39.9066 67.876C40.0017 68.1527 39.9864 68.3486 40.048 68.5936C40.0684 68.6751 40.1647 68.5845 40.1729 68.6199ZM39.9045 71.078C40.0556 70.3031 40.5024 72.1072 40.4368 72.3379C40.3053 72.9829 39.8488 71.4239 39.9045 71.078ZM61.715 72.9798C61.0432 72.7834 62.6284 72.7114 63.0792 72.7907C62.9932 72.8593 61.9469 73.0485 61.715 72.9798ZM56.0151 72.2643C56.6399 72.3514 55.7856 72.6853 55.2662 72.6518C54.9746 72.3859 55.2585 72.4504 55.6001 72.4585C55.9416 72.4666 55.5284 72.1968 56.0151 72.2643ZM37.7644 61.202C37.8157 61.3258 38.3056 63.4657 37.8297 62.2996C37.7944 62.2059 37.3409 60.7598 37.3356 60.6333C37.3325 60.3868 37.6412 60.8752 37.7644 61.202ZM53.0296 71.7449C53.3548 71.9755 53.6764 71.9877 53.3622 72.2276C53.3618 72.2275 53.3614 72.2275 53.3609 72.2275C54.1922 72.3437 54.2576 71.8279 54.4383 71.8478C55.0719 71.9191 54.4527 72.2579 54.8418 72.3996C53.9246 72.2384 54.1751 72.5008 53.476 72.4837C53.3216 72.4797 52.695 72.3036 52.6065 72.2075C52.5179 72.1109 52.8521 71.8459 53.0296 71.7449ZM36.7948 58.2788C37.1204 58.9427 37.0134 59.6907 36.6207 58.7529C36.4283 58.2952 36.5957 57.8729 36.7948 58.2788ZM86.0243 55.995C86.1449 56.0702 86.2654 56.1506 86.3861 56.2377C86.3328 55.9781 86.2709 55.7132 86.2043 55.4555C86.2464 55.6629 86.2862 55.875 86.3206 56.0851C86.1401 55.6167 85.9065 55.4607 86.0239 55.9938C86.0241 55.9942 86.0242 55.9946 86.0243 55.995ZM73.9921 43.9525C73.7573 43.9574 73.4358 43.5571 73.4939 43.5548C73.9467 43.5389 74.3237 43.9475 73.9921 43.9525ZM62.747 72.1846C63.5885 72.1727 62.9974 72.6013 62.4791 72.6137C62.7974 72.5395 62.2696 72.1901 62.747 72.1846ZM79.3817 46.9465C79.4637 46.9613 79.5461 46.9769 79.6351 46.9981C79.3967 46.8787 79.3384 46.8808 79.3817 46.9465ZM38.2489 61.4036C38.3229 61.5123 38.6552 62.4201 38.6542 62.5571C38.6536 62.8418 38.1862 62.2019 38.1174 61.7623C38.11 61.7141 38.1752 61.2927 38.2495 61.4055C38.2493 61.4049 38.2491 61.4042 38.2489 61.4036ZM85.4923 55.0174C85.4967 55.0171 85.5002 55.0149 85.5028 55.0111C85.4994 55.0135 85.4955 55.0148 85.4923 55.0174ZM60.1641 36.1225C60.1725 36.1241 60.1798 36.1236 60.1855 36.1203C60.1789 36.1213 60.1711 36.1207 60.1641 36.1225ZM40.5196 67.8703C41.0079 68.1034 40.9341 68.8907 40.6103 68.3487C40.5933 68.3186 40.5382 67.9485 40.5196 67.8703Z" fill="white"/>
<path d="M67.8082 101.967C63.5414 101.793 58.8601 101.123 53.9646 102.253C54.6919 102.084 55.3408 102.582 55.3794 103.314C55.3434 102.614 55.2585 101.932 55.1438 101.268C55.0199 100.578 54.8998 100.647 54.8478 100.456C54.6993 99.9402 54.7701 99.6037 54.668 99.2238C54.175 97.4234 53.6214 95.8112 53.0016 94.158C52.358 92.4643 52.2786 93.3996 51.9819 92.841C51.399 91.7546 52.2188 92.563 52.1623 92.0733C51.6612 90.7665 51.1321 89.4684 50.6318 88.1796C50.6973 88.5139 50.7654 88.8481 50.8382 89.1854C50.6278 88.6189 50.2741 87.8265 50.4815 88.8256C50.374 88.626 50.266 88.4422 50.1583 88.236C50.3084 88.1173 49.9827 87.1022 50.0564 86.9759C50.1282 86.8502 50.2924 87.4258 50.3006 87.4192C50.4058 87.3385 49.4932 85.0714 49.4415 84.9033C49.2746 84.4689 49.1701 84.9219 49.076 84.5379C48.9194 83.8778 49.4776 84.1965 48.6567 83.463C48.7602 83.0622 48.6517 83.0557 48.5334 82.6089C48.5182 82.5501 48.6405 82.5704 48.6374 82.5438C48.5692 81.8496 48.4768 82.4146 48.4649 82.4142C48.2579 82.3971 48.1875 81.6419 48.1421 81.4914C47.5586 79.5983 47.2221 78.1326 47.3386 76.0452C47.3507 75.5865 47.6767 74.2563 47.7853 73.8397C47.8763 73.421 47.6753 73.5988 47.6802 73.3612C48.1238 73.1214 48.2492 72.8362 48.405 72.0138C48.7638 71.8632 48.5596 71.8002 48.8975 71.332C49.0384 71.1414 49.2877 70.9174 49.5249 70.6798C49.7538 70.4515 49.9695 70.2218 50.0558 69.9528C49.7371 70.3176 49.6558 70.2965 49.364 70.56C49.3051 70.6155 49.2386 70.6834 49.1627 70.77C48.9494 70.9036 47.8832 73.0173 47.76 72.7896C47.6636 72.6503 48.1092 71.9542 48.1061 71.9229C48.0627 71.6947 47.6941 72.0253 47.5915 72.4323C47.6575 72.3492 47.7334 72.2485 47.805 72.1611C47.6095 73.0637 47.2116 72.2412 47.525 73.0986C47.5661 73.2029 47.6482 73.1972 47.678 73.3522C47.6384 73.3692 47.6169 73.1831 47.5569 73.3171C47.4948 73.4553 47.5592 73.7683 47.4259 73.7737C47.2269 73.7837 47.481 73.2056 47.4901 73.1599C47.4913 73.1598 47.4926 73.1597 47.4938 73.1596C47.5377 72.732 47.2426 73.5553 47.2212 73.5937C47.0353 73.8235 46.9974 73.6183 46.8004 73.9966C46.6861 74.2126 46.5951 74.8192 46.5461 75.0341C46.4932 75.2505 46.4616 74.895 46.4191 75.0399C46.3764 75.1858 46.4156 75.3806 46.3724 75.5531C46.3537 75.627 46.2572 75.6118 46.2495 75.6482C46.1697 76.0384 46.3979 75.8004 46.3541 76.1505C46.3229 76.3731 46.1018 77.1433 46.0692 76.6036C46.0363 76.863 46.0152 77.1107 45.9982 77.3668C45.9701 77.2052 45.9536 77.0381 45.9248 76.8794C45.9566 77.3614 45.7932 77.5808 45.7866 77.8888C45.7815 78.1956 45.9939 78.4525 45.9186 78.7907C45.7573 79.5162 45.7403 77.7521 45.723 77.5238C45.7077 77.4368 45.5526 77.7713 45.5499 77.8239C45.5345 78.0566 45.6575 78.3149 45.6619 78.4894C45.6786 79.115 45.5667 79.5017 45.6087 80.0979C45.7465 82.1141 46.2726 84.5249 46.7806 86.2954C46.9685 86.9564 47.2552 87.2987 47.3444 87.5902C47.5559 88.274 47.4467 88.4032 47.6395 88.995C47.9268 89.8768 48.4816 91.055 48.7651 91.7623C48.9621 92.2548 48.9904 92.7488 49.0335 92.8788C49.6339 94.6894 50.388 96.8324 50.8124 98.2955C51.0143 98.9839 51.2484 99.2629 51.2828 99.4089C51.4209 100.024 51.2464 99.8855 51.3765 100.378C51.4439 100.641 51.5799 100.662 51.5927 100.696C51.6997 100.995 51.5466 101.097 51.5865 101.338C51.7047 102.066 51.8215 102.788 51.8789 103.467C51.9501 104.942 53.4073 105.995 54.8109 105.619C55.0604 105.547 55.3232 105.483 55.5969 105.428C55.692 105.41 55.6704 105.337 55.7338 105.33C56.0082 105.302 55.8999 105.439 56.1883 105.404C56.7882 105.334 57.4128 105.254 58.0754 105.2C58.1409 105.194 58.1679 105.096 58.3173 105.088C58.4669 105.081 58.5843 105.167 58.8225 105.153C59.4491 105.119 60.0717 105.004 60.7404 105.005C60.8519 105.006 60.9886 105.124 61.1571 105.125C61.6794 105.13 62.4709 105.05 62.9229 105.066C64.4258 105.115 65.822 105.266 67.2622 105.345C67.6002 105.363 67.9067 105.271 68.0836 105.278C68.4823 105.292 68.1764 105.379 68.5803 105.399C71.8818 105.554 75.2729 105.621 78.7572 105.097C80.1223 104.894 81.8297 104.581 83.1242 104.016C83.6604 103.782 83.6992 103.604 84.0678 103.425C84.7234 103.09 84.9313 103.184 85.6157 102.768C86.1612 102.427 86.6306 101.836 87.1201 101.394C87.6045 100.95 87.9513 100.845 88.4578 100.262C88.549 100.154 88.6429 100.032 88.7369 99.8999C88.9563 99.593 89.1671 99.2315 89.3504 98.8756C89.4584 98.6668 89.5571 98.4615 89.649 98.271C92.3774 92.0756 88.6897 85.775 84.0756 82.4927C83.8975 82.3655 83.7196 82.2435 83.5365 82.123C81.7616 80.9424 79.55 79.9047 77.3222 79.6275C77.1136 79.6036 77.3945 79.824 76.7463 79.6716C76.3981 79.5959 75.9199 79.3683 75.0741 79.3183C73.7392 79.2449 72.3395 79.3912 70.9862 79.8326C71.5832 79.7119 71.9414 80.0064 71.973 80.5918C71.9039 77.1695 70.2893 74.144 68.3105 71.7658C67.4829 70.7734 66.5619 69.8498 65.5551 69.0216C61.2099 65.0473 52.5747 63.4726 49.2046 68.8701C49.0359 69.1614 49.4668 69.3265 49.6758 69.2905C49.7354 69.1133 49.782 68.9325 49.8566 68.7416C50.3737 69.0072 50.2261 68.9096 50.8675 68.4161C51.2707 68.1276 51.0556 68.528 51.3088 68.4499C51.6303 68.3102 53.1307 67.9952 52.7452 67.7792C52.8562 67.8046 52.9579 67.832 53.0638 67.8608C54.1341 67.5781 55.2237 67.5378 56.2839 67.6561C56.4679 67.6776 56.4732 67.7877 56.6589 67.814C57.1597 67.8891 57.5639 67.8613 58.0796 67.959C58.3583 68.0145 58.3734 68.1451 58.7343 68.2165C59.0943 68.2932 59.1345 68.123 59.569 68.4417C59.1972 68.5475 60.6308 68.8322 61.1004 69.0732C61.1722 69.1031 61.6525 69.5325 61.9475 69.6638C62.2482 69.7932 62.7474 69.9275 63.1421 70.2608C63.3264 70.417 63.3625 70.6209 63.5678 70.7727C63.695 70.8671 63.9097 70.8903 64.0885 70.9898C64.1102 71.0019 64.1314 71.0151 64.1517 71.0296C64.3403 71.1617 64.6545 71.5569 64.7206 71.6169C64.964 71.8325 64.7513 71.5284 64.9241 71.6695C65.7577 72.3502 66.6573 73.2437 67.2254 74.1398C67.2954 74.2493 67.1004 74.1693 67.1076 74.1857C67.5008 74.975 67.3477 74.5132 67.5645 74.6533C67.7976 74.7778 68.5622 76.291 68.3658 76.3875C68.6075 76.3318 68.5896 76.7477 68.6167 76.8368C68.729 77.1903 68.8985 77.0489 68.959 77.4124C68.9794 77.5444 68.7629 77.3487 68.8126 77.4804C68.9331 77.804 69.2433 78.0412 69.3712 78.4971C69.4012 78.6071 69.3111 78.663 69.3522 78.8584C69.4025 79.051 69.6211 79.8659 69.3652 79.5088C69.5731 79.9567 69.5109 80.0881 69.5067 80.5725C69.5056 80.6654 69.5124 80.7631 69.5302 80.8652C69.6115 81.2646 69.9399 81.6699 70.5558 82.0288C70.7783 82.1348 70.7192 82.3107 71.1584 82.3545C71.3527 82.3636 71.5507 82.3328 71.7333 82.2667C71.9972 82.1452 72.2612 81.966 72.6356 81.8902C73.505 81.7139 74.4604 81.7882 75.3883 81.8275C75.6425 81.8399 75.594 81.6739 75.9673 81.7177C76.0229 81.7235 76.447 81.9244 76.6999 81.9634C76.8535 81.9788 77.6606 82.0753 77.8201 82.12C78.0848 82.1843 78.084 82.3454 78.2333 82.3619C78.6639 82.416 78.4185 82.0916 78.7984 82.5556C79.0169 82.4545 79.2926 82.5838 79.4644 82.4293C79.5392 82.7101 79.8394 82.5986 80.12 82.8184C80.402 83.0393 80.4356 83.563 80.7354 83.1809C80.8539 83.3061 81.3913 83.7356 81.4827 83.8057C81.7575 84.0037 81.6761 83.7948 81.8819 83.9505C81.9179 83.9785 81.8296 84.0262 82.0728 84.1814C82.1337 84.2205 82.3352 84.357 82.5624 84.5234C82.9361 84.7936 83.3634 85.1481 83.4065 85.1762C84.2161 85.6959 83.0772 84.7648 82.9635 84.5718C82.9189 84.5696 82.8745 84.5679 82.8281 84.5643C82.4652 84.3431 82.7795 84.3233 82.9633 84.4043C83.1469 84.4844 83.3715 84.7833 83.5367 84.8361C83.6194 84.8623 83.7418 84.6425 83.5315 84.5074C83.7841 84.618 83.5551 84.3255 83.6812 84.3376C83.8271 84.3416 84.745 85.1357 84.6478 85.2441C84.4832 85.091 84.2819 84.8984 84.1079 84.7523C83.7386 84.7431 83.8597 85.8967 84.6154 86.2382C85.1713 86.5049 84.684 85.6651 85.4368 86.832C85.2949 86.6755 85.1613 86.5545 85.0269 86.419C84.8825 86.521 85.2316 86.6228 85.2924 86.7834C85.3206 86.8585 84.9216 86.5823 85.1534 86.919C85.5701 87.0265 85.5475 87.3961 85.8813 87.8695C85.8251 87.712 85.7637 87.5526 85.7014 87.3964C86.4476 88.0926 85.0969 86.1739 86.3476 87.6994C86.2195 87.5002 86.0766 87.3081 85.9414 87.1118C86.0858 87.1484 86.1867 86.834 86.2967 86.8832C86.5874 87.0145 86.7594 87.4086 86.9588 87.689C87.0459 87.8117 87.0562 87.6938 87.0634 87.704C87.1827 87.8734 87.0672 87.8923 87.1574 88.0497C87.273 88.244 87.6866 88.7671 87.723 88.8701C87.8242 89.1296 87.4234 88.8202 87.4219 88.8537C87.4146 89.0531 87.6486 89.3305 87.5192 89.3731C87.2593 88.5448 85.7952 86.6113 86.7934 88.5562C86.2938 88.1622 86.1542 88.4719 86.5364 89.1921C86.839 89.7991 86.7395 89.3562 87.0191 89.6155C87.0613 89.6444 87.4951 90.4693 87.4169 90.5494C87.6026 90.4337 87.8913 90.6561 88.0229 90.381C88.0439 90.3406 87.8809 89.976 88.0982 90.037C88.2079 90.0671 88.4641 90.1862 88.558 90.1144C88.5152 90.2221 88.464 90.3381 88.416 90.4465C88.6003 91.0302 88.6979 91.0871 88.9341 91.3769C88.8698 91.3765 88.54 91.1487 88.7383 91.5806C88.7486 91.6033 88.8452 91.5973 88.9461 91.8231C89.143 92.2783 89.1869 92.3852 89.3784 91.9514C89.4208 93.0009 89.7548 93.1933 89.6802 94.2972C89.3253 94.0761 89.4412 93.7124 89.3788 92.7324C89.2902 92.7023 89.2056 92.6945 89.1159 92.6653C89.458 93.9059 89.3663 93.2965 89.2332 94.0224C89.208 94.1995 89.1981 95.1395 88.9805 94.8109C88.935 94.734 88.9557 94.1681 88.8646 94.2325C88.854 94.2465 88.7827 94.9244 88.793 94.9849C88.9581 95.772 89.4386 94.4359 88.887 96.5412C88.8678 96.5982 88.7643 96.5904 88.7172 96.6964C88.6272 96.8949 88.738 96.9351 88.6462 97.1106C88.5525 97.2877 88.3084 97.4698 88.3148 97.7946C88.3119 98.4115 89.0435 97.2893 89.0433 96.6697C89.2341 96.5993 89.0965 97.5349 88.6193 98.4698C88.457 98.7941 88.2598 99.1141 88.0579 99.3939C87.6447 99.9701 87.2462 100.374 87.1732 100.436C86.2853 101.156 87.6605 99.8577 87.6189 99.7016C87.6126 99.6416 87.1965 99.3409 87.745 99.177C87.7513 99.175 87.757 99.1739 87.7622 99.1736C87.7822 99.1724 87.7939 99.1833 87.8002 99.2019C87.8361 99.3024 87.706 99.6266 87.9164 99.4267C87.9486 99.3957 87.9734 99.3686 87.9923 99.3451C88.1263 99.1759 87.9664 99.1925 87.9725 99.1686C87.9962 99.0773 88.2534 98.7939 88.2595 98.7388C88.29 98.5353 88.2757 98.3718 88.2442 98.261C88.1942 98.0874 88.1059 98.0405 88.0551 98.156C88.0062 98.2636 87.9917 98.5072 88.0108 98.9511C87.6376 99.2025 87.9503 98.2657 87.5729 98.6266C87.4869 98.707 87.4137 98.7877 87.3507 98.8669C87.078 99.2095 86.9991 99.5352 86.9645 99.5891C86.435 100.353 86.9141 99.354 86.2077 100.222C85.7924 100.693 87.0593 99.7477 85.9822 100.707C85.0336 101.46 85.4649 100.943 85.2305 100.785C85.1745 100.747 84.6272 101.065 85.3248 100.566C85.3883 100.607 85.4833 100.651 85.5682 100.667C85.7057 100.489 85.7313 99.9867 85.7982 99.9051C86.1406 99.495 86.2553 99.6325 86.3091 99.2534C86.3347 99.5801 86.475 99.214 86.601 99.1414C87.018 98.8948 86.7789 99.3168 87.0873 98.6706C87.1244 98.5879 87.1686 98.4871 87.2189 98.3635C87.2264 98.505 87.2332 98.641 87.2348 98.7806C87.2349 98.8246 87.2346 98.869 87.2337 98.9139C87.2561 98.886 87.2785 98.8579 87.3007 98.8297C87.3675 98.7449 87.4325 98.6587 87.4954 98.571C87.4196 98.2559 87.801 97.6538 87.2572 98.0867C87.3112 97.9792 87.3588 97.8816 87.4023 97.7932C87.6373 97.3073 87.7747 97.1031 87.9823 97.0249C88.0285 97.0074 88.0858 96.9 88.135 96.7669C88.1775 96.8095 88.3232 96.8979 88.3501 96.8829C88.5915 96.7426 88.381 96.3427 88.2367 96.416C88.2587 96.319 88.2718 96.2416 88.276 96.2141C88.3014 96.0409 88.1124 96.3435 88.1122 96.1984C88.1161 96.1526 88.2427 95.6842 88.1979 95.6664C87.9172 95.5595 88.0415 96.361 88.0682 94.7956C88.3325 94.7744 88.1902 95.508 88.4799 95.3554C88.8007 95.1797 88.4476 94.7117 88.8054 94.6368C88.7487 94.5978 88.7005 94.5802 88.6351 94.5471C88.8079 93.8718 88.4919 93.8667 88.4199 93.671C88.3005 93.2911 88.0059 91.5115 88.516 93.0806C88.5129 92.8384 88.4864 92.5942 88.4626 92.3525C87.9204 92.403 88.1995 92.4919 87.8229 91.4291C87.734 91.1973 87.4876 91.1967 87.6711 90.8788C87.4295 90.9988 87.3252 90.2678 87.2612 90.2172C86.9101 89.9154 87.208 91.4619 87.6976 91.5268C87.5909 91.8379 87.83 91.7688 87.8693 92.0721C87.9172 92.5088 87.8828 92.5669 88.1357 93.0544C87.98 93.5752 87.6634 91.1454 87.6148 92.6619C87.5889 93.3265 87.7368 95.5682 86.5989 97.3462C86.4648 97.5636 86.3154 97.7738 86.1526 97.9742C84.6976 99.8514 82.4414 100.798 81.5479 101.086C78.1275 102.129 76.0512 102.073 72.5999 102.126C72.2602 102.138 69.6459 102.031 70.1774 102.344C70.2538 102.391 71.3824 102.541 70.4029 102.743C70.6054 102.612 70.0374 102.502 69.99 102.485C68.9016 102.108 69.5478 102.059 67.8082 101.967ZM62.4863 104.36C64.7608 104.385 63.0823 104.515 63.5344 104.984C63.2414 104.972 62.9518 104.961 62.6637 104.952C62.7405 104.926 62.8165 104.901 62.8937 104.876C62.894 104.876 62.8943 104.876 62.8946 104.876C62.759 104.704 62.6223 104.531 62.4863 104.36ZM45.8103 76.1647C45.7438 76.2561 45.6779 76.3475 45.6138 76.4495C45.6125 76.7819 45.6213 77.1063 45.639 77.4318C45.6793 77.393 45.7201 77.3558 45.7607 77.3176C45.7621 76.9376 45.7759 76.55 45.8103 76.1647ZM89.1953 96.3543C89.1364 95.8712 89.4239 95.9683 89.3767 95.3403C89.5827 95.4411 89.7813 95.555 89.9811 95.6704C89.8685 96.1595 89.7676 96.25 89.6783 96.7863C89.6284 96.7064 89.5774 96.6266 89.5247 96.5507C89.5613 96.4692 89.6 96.3819 89.632 96.3012C89.4757 96.1322 89.2445 96.9213 89.1944 96.3558C89.1947 96.3553 89.195 96.3548 89.1953 96.3543ZM89.2362 91.6981C89.1621 91.4617 88.7781 90.5736 88.8109 90.426C88.9756 89.881 89.5947 92.605 89.261 90.5587C89.3045 90.5542 89.3412 90.5319 89.3813 90.5185C89.5161 90.8752 89.6334 91.2375 89.7338 91.6108C89.565 91.6294 89.4063 91.681 89.2362 91.6981ZM70.7656 104.776C71.1223 104.769 72.832 104.936 72.2719 105.121C72.1047 105.177 71.3449 104.887 71.0558 104.89C70.8678 104.892 71.0741 105.05 70.7047 104.983C70.7231 104.917 70.7356 104.843 70.7666 104.777C70.7662 104.777 70.7659 104.776 70.7656 104.776ZM70.1289 103.874C70.4934 103.914 70.864 103.96 71.2324 103.999C70.9584 104.164 70.4306 104.036 70.3914 104.277C70.492 104.299 70.5909 104.321 70.6921 104.342C70.7714 104.292 70.8495 104.241 70.9273 104.19C71.2412 104.331 71.0476 104.392 71.6401 104.367C71.2758 104.725 71.1974 104.924 70.195 104.518C70.38 104.723 70.1744 105.366 69.6282 104.88C69.5264 104.79 69.9689 104.75 69.9744 104.737C70.0485 104.569 69.8091 104.451 69.8879 104.293C69.9233 104.222 70.1905 104.233 70.2341 104.134C70.2542 104.085 70.0059 103.935 70.1289 103.874ZM69.3616 104.706C69.4714 104.814 69.0702 105.042 68.734 104.976C68.2107 104.873 69.0529 104.682 69.3616 104.706ZM45.8107 76.1626C45.8106 76.1633 45.8104 76.164 45.8103 76.1647C45.8106 76.1643 45.8108 76.164 45.8111 76.1637C45.8109 76.1633 45.8108 76.1629 45.8107 76.1626ZM89.5797 92.9296C89.6333 92.6257 89.5424 92.1984 89.6845 92.2041C89.6308 92.0655 89.5754 91.9299 89.5172 91.7956C89.5584 91.7877 89.6 91.7812 89.6407 91.7735C89.7612 92.1919 89.8601 92.6227 89.9333 93.0594C89.816 93.0163 89.6986 92.9788 89.5797 92.9296ZM88.0719 88.5977C87.8091 88.1437 88.1858 88.4387 88.2107 88.2933C88.236 88.1446 87.9294 87.7688 88.0701 87.7506C88.2373 88.0197 88.4035 88.3076 88.5555 88.5939C88.3895 88.5833 88.2331 88.5983 88.0714 88.5968C88.0716 88.5971 88.0717 88.5974 88.0719 88.5977ZM52.5619 103.447C52.6193 103.87 52.7409 103.967 52.8541 104.147C52.9963 104.302 53.0858 104.65 53.8399 104.98C53.8387 104.979 53.8375 104.979 53.8364 104.979C53.1997 104.879 52.5167 104.297 52.4512 103.442C52.3935 103.061 52.346 102.637 52.3638 102.257C52.564 102.629 52.4756 102.963 52.561 103.437C52.5613 103.44 52.5616 103.444 52.5619 103.447ZM89.1885 97.7332C89.0255 97.8363 89.2109 97.1124 89.3526 96.9864C89.6016 96.7775 89.4564 97.5721 89.1885 97.7332ZM49.9055 90.2608C50.0659 89.6577 50.7639 90.4423 50.9498 91.4625C50.9657 91.551 50.6365 90.967 50.638 91.1745C50.6383 91.1955 50.7689 91.5341 50.7531 91.6349C50.7372 91.736 50.5979 91.6861 50.6025 91.8405C50.6106 92.1102 50.9546 92.6084 50.9161 92.827C50.9108 92.856 50.6449 92.567 50.6317 92.5474C50.4184 92.227 50.4862 91.8261 50.4678 91.7709C50.3743 91.4908 50.2421 91.5857 50.1822 91.5277C50.0694 91.4185 50.0504 91.1609 50.0398 91.1466C49.7593 90.7711 50.1425 91.7226 50.1363 91.8717C50.1192 92.2739 49.8688 91.9954 50.0904 92.8664C50.1116 92.9492 50.462 93.8998 49.8658 92.7562C50.3667 95.2366 49.2455 91.6437 49.18 91.2247C49.1513 91.0339 49.3883 91.2533 49.4129 91.1227C49.469 90.8245 49.3445 90.394 49.5619 90.3592C50.0194 90.2882 49.9353 90.9396 50.144 91.2936C50.2227 91.2203 50.3078 91.1722 50.3723 91.0659C50.2906 91.2238 49.8928 90.3055 49.9047 90.2611C49.905 90.261 49.9053 90.2609 49.9055 90.2608ZM51.5207 96.4233C51.8221 96.9083 51.5391 96.9663 51.847 97.4039C51.7322 97.9085 51.4888 97.058 51.4411 96.9614C51.2343 96.5288 50.9727 96.6316 50.9021 96.144C51.1122 96.2498 51.3139 96.3262 51.5207 96.4233ZM49.7945 91.8437C49.7855 92.2483 49.559 91.6115 49.5235 91.5946C49.1451 91.4147 49.8833 93.297 49.7945 91.8437ZM72.9899 104.234C73.1835 104.224 73.0609 104.364 73.2321 104.404C73.4043 104.446 73.9859 104.318 73.9725 104.404C73.9613 104.493 72.887 104.732 73.9683 104.765C73.9326 104.815 73.9456 104.851 73.9287 104.895C73.6312 104.902 73.3301 104.907 73.031 104.908C73.195 104.768 73.3616 104.619 73.5163 104.482C73.3492 104.372 73.2567 104.516 73.2478 104.516C73.2478 104.516 73.2478 104.516 73.2478 104.515C72.9352 104.506 72.5589 104.255 72.9899 104.234ZM57.9484 104.256C57.8709 103.911 58.3402 104.273 58.5179 104.31C58.6989 104.345 58.9452 104.208 58.8561 104.361C58.5663 104.473 57.9608 104.293 57.9484 104.255C57.9484 104.255 57.9484 104.255 57.9484 104.256ZM52.3795 99.3329C52.4105 99.8028 52.3064 99.7507 52.5338 100.282C52.4468 100.279 52.358 100.277 52.2722 100.274C52.17 99.8375 52.4154 99.8093 52.1924 99.3306C52.1549 99.2518 52.013 99.4785 51.9751 99.0891C52.1049 99.1712 52.2458 99.2523 52.3795 99.3329ZM52.5501 101.628C52.477 101.12 53.071 100.573 52.9363 101.591C52.914 101.742 52.6014 102.017 52.5501 101.628ZM67.9685 104.06C68.8942 104.088 67.8379 104.145 67.5919 104.236C69.7412 104.431 67.3494 104.196 67.1176 104.531C66.8599 104.417 66.3801 104.163 66.9303 104.133C67.1602 104.12 67.0709 104.219 67.0847 104.22C67.5051 104.217 67.4633 104.045 67.9685 104.06ZM51.2282 95.4925C51.2344 95.5268 51.1057 95.5137 51.1185 95.6248C51.131 95.7342 51.2898 95.9486 51.2288 95.9944C51.1677 96.0402 50.9549 95.5836 50.9556 95.4228C50.9566 95.2607 51.1705 95.1823 51.2282 95.4925ZM52.5495 98.7725C52.5878 99.2402 51.9734 98.6265 51.9485 98.5371C51.7322 97.6977 52.4261 98.8283 52.5495 98.7725ZM65.8662 103.208C66.964 103.49 66.1333 103.827 65.4215 104.017C65.3321 103.966 65.2403 103.914 65.1523 103.863C65.5551 104.169 66.2691 104.487 64.6581 104.154C65.5499 104.134 64.81 104.019 64.8055 104.002C64.7332 103.477 66.0423 103.79 65.8652 103.208C65.8655 103.208 65.8658 103.208 65.8662 103.208ZM50.6215 94.1217C50.4623 93.6632 50.1225 92.4513 50.5339 92.9269C50.5639 93.3251 50.5932 93.723 50.6215 94.1217ZM83.5709 101.543C83.8466 101.248 84.1433 101.078 84.5335 100.824C84.2889 101.213 84.5293 101.081 84.6759 101.037C84.8971 100.971 84.4521 101.265 84.4558 101.274C84.5584 101.418 84.8727 101.264 84.1961 101.671C84.3957 101.626 84.5941 101.577 84.7941 101.52C84.284 101.858 84.2168 102.023 83.9346 102.338C84.1075 101.847 83.7659 102.289 83.2858 102.322C83.0514 102.337 83.4367 101.695 83.5721 101.543C83.5717 101.543 83.5713 101.543 83.5709 101.543ZM67.019 103.202C67.1305 103.271 67.2298 103.361 67.3365 103.439C67.4565 103.452 67.5769 103.465 67.6971 103.478C67.715 103.423 67.7305 103.366 67.7507 103.314C67.9103 103.306 67.8444 103.38 67.8912 103.39C67.8912 103.389 67.8912 103.389 67.8913 103.389C68.5634 103.526 68.841 103.528 69.3784 103.38C69.3709 103.55 69.3634 103.721 69.3559 103.891C69.2372 103.869 69.1172 103.848 68.9986 103.827C68.9394 103.732 68.8801 103.638 68.8211 103.543C68.6808 103.587 68.5417 103.63 68.4012 103.674C68.2925 103.636 68.1611 103.594 68.067 103.557C67.491 104.004 68.7607 103.746 68.7621 103.943C68.7637 104.071 67.4999 104.001 67.3238 103.902C67.2985 103.888 67.5897 103.549 67.1192 103.708C67.0457 103.733 66.9772 104.498 66.5136 103.85C66.4476 103.758 66.7215 103.296 67.019 103.202ZM71.5883 103.148C70.8744 103.629 73.4819 103.144 72.3561 103.536C72.6746 103.764 72.6168 103.761 72.2896 103.958C72.2607 103.975 72.485 104.039 72.4658 104.047C72.1605 104.155 71.7925 104.09 71.7866 104.29C71.7044 104.278 71.6271 104.267 71.545 104.255C71.8916 104.073 71.3493 103.935 71.1437 103.769C71.05 103.695 71.2703 103.678 71.1915 103.613C71.1625 103.589 70.8543 103.627 70.8437 103.56C70.8221 103.409 71.0211 103.213 71.3477 103.111C71.3477 103.111 71.3477 103.111 71.3477 103.111C71.4287 103.122 71.5074 103.136 71.5883 103.148ZM56.3673 103.294C56.2792 103.58 55.817 103.711 56.7464 103.735C56.7065 103.793 56.6656 103.851 56.6267 103.909C56.4718 103.922 56.3279 103.935 56.1691 103.953C55.5712 103.223 54.8628 104.282 55.3149 103.619C55.3629 103.547 55.7452 103.551 55.3513 103.45C55.3518 103.45 55.3522 103.449 55.3527 103.449C55.8715 103.412 55.9596 103.499 56.3673 103.294ZM59.8372 103.282C61.0246 103.84 58.2115 103.627 58.6736 103.475C58.7177 103.454 59.9304 103.554 59.8372 103.282ZM53.8582 100.466C53.9767 101.007 53.6742 101.094 53.5567 101.061C53.4386 101.028 53.4782 100.64 53.4504 100.595C53.3626 100.453 53.3915 100.787 53.2733 100.602C53.2396 100.545 52.929 99.6657 52.9282 99.6212C52.9446 99.3781 53.272 99.6479 53.2846 99.5771C53.3262 99.342 53.1235 99.084 53.2378 98.9877C53.4823 98.7809 53.3295 99.4015 53.3451 99.4917C53.3992 99.7735 53.5514 99.714 53.6316 99.9179C53.7111 100.122 53.6863 100.271 53.7357 100.453C53.7521 100.513 53.8517 100.44 53.8582 100.466ZM53.5038 102.332C53.6721 101.745 54.0774 103.09 54.016 103.262C53.9961 103.333 53.9694 103.368 53.9393 103.377C53.9306 103.378 53.9217 103.379 53.9125 103.378C53.7381 103.345 53.4444 102.55 53.5038 102.332ZM69.7964 103.832C69.2978 103.643 70.4802 103.554 70.8141 103.631C70.7493 103.7 69.969 103.898 69.7964 103.832ZM65.5565 103.192C66.0205 103.27 65.3798 103.616 64.9937 103.589C64.7802 103.328 64.9907 103.388 65.2449 103.392C65.4991 103.395 65.1951 103.131 65.5565 103.192ZM51.9822 94.9486C52.021 95.0394 52.3381 96.6519 51.9622 95.791C51.9341 95.7214 51.6041 94.6409 51.6098 94.5443C51.626 94.354 51.8878 94.7066 51.9822 94.9486ZM63.3352 102.711C63.5755 102.938 63.8182 102.946 63.5795 103.189C63.5792 103.189 63.5788 103.189 63.5785 103.189C64.197 103.296 64.2513 102.779 64.3858 102.797C64.857 102.86 64.3898 103.206 64.6802 103.343C63.9972 103.194 64.182 103.453 63.6617 103.444C63.5449 103.442 63.0797 103.273 63.0153 103.177C62.9504 103.082 63.2019 102.813 63.3352 102.711ZM51.2717 92.7658C51.5336 93.2514 51.3715 93.8435 51.0643 93.1464C50.9145 92.8083 51.1113 92.4681 51.2717 92.7658ZM87.8358 91.2606C87.9473 91.3092 88.0588 91.3614 88.1706 91.4205C88.1376 91.2258 88.0991 91.0293 88.0558 90.8346C88.0793 90.9917 88.1007 91.1509 88.1181 91.3085C87.9786 90.9636 87.7657 90.8629 87.8355 91.2597C87.8356 91.26 87.8357 91.2603 87.8358 91.2606ZM78.9986 82.3444C78.8177 82.3688 78.6069 82.0041 78.6513 81.9974C79.0008 81.9491 79.2551 82.3124 78.9986 82.3444ZM70.5721 103.028C71.1975 103.009 70.7544 103.442 70.3693 103.459C70.6067 103.382 70.2175 103.037 70.5721 103.028ZM82.9635 84.5718C83.0301 84.5751 83.097 84.579 83.1688 84.5872C82.9847 84.509 82.9361 84.5179 82.9635 84.5718ZM52.4382 95.0659C52.5012 95.1427 52.7579 95.8215 52.7465 95.9256C52.7243 96.1437 52.3174 95.691 52.2827 95.3528C52.279 95.316 52.375 94.9863 52.4387 95.0673C52.4385 95.0669 52.4384 95.0664 52.4382 95.0659ZM87.4062 90.5551C87.4105 90.5545 87.4141 90.5525 87.4169 90.5494C87.4135 90.5515 87.4096 90.5528 87.4062 90.5551ZM68.3452 76.3915C68.353 76.3918 68.36 76.3906 68.3658 76.3875C68.3594 76.389 68.352 76.3893 68.3452 76.3915ZM54.2375 99.8788C54.7077 100.029 54.5997 100.634 54.3038 100.237C54.2883 100.216 54.2518 99.9373 54.2375 99.8788Z" fill="white"/>
<path d="M12.2397 63.9094C14.0098 66.3205 16.2242 68.774 17.5961 72.1481C17.3172 71.4837 16.6085 71.2492 15.9947 71.5914C16.3946 71.3666 16.8036 71.1684 17.2046 70.9943C17.6868 70.7885 17.6981 70.9234 17.838 70.8816C18.2231 70.7719 18.3784 70.5588 18.651 70.47C19.9552 70.0518 21.1388 69.7452 22.3792 69.4656C23.6525 69.1847 23.1492 69.7116 23.6094 69.69C24.5005 69.6534 23.6584 69.3511 23.9641 69.1585C24.9436 68.943 25.9273 68.7546 26.8918 68.5534C26.6717 68.6605 26.4503 68.7658 26.2246 68.8689C26.6446 68.7709 27.2595 68.6864 26.5954 68.9972C26.759 68.9914 26.9137 68.9939 27.0814 68.9852C27.0789 68.7987 27.8067 68.5838 27.8437 68.4602C27.8809 68.3379 27.478 68.4764 27.478 68.4663C27.4733 68.3349 29.1873 68.0245 29.3062 67.9929C29.6318 67.93 29.4265 68.2334 29.6889 68.1325C30.1389 67.9556 29.6832 67.6287 30.4999 67.9878C30.6762 67.7137 30.7305 67.804 31.0424 67.7C31.0832 67.6862 31.0109 67.5911 31.0274 67.5815C31.4527 67.324 31.1805 67.6596 31.1865 67.6696C31.3 67.8375 31.761 67.5568 31.8701 67.5287C33.2399 67.1851 34.2581 66.8424 35.4495 65.9585C35.7166 65.772 36.3512 65.0386 36.559 64.8179C36.7757 64.6056 36.7833 64.8196 36.9368 64.7344C36.8248 64.3167 36.9279 64.1323 37.4058 63.749C37.2886 63.4444 37.4575 63.5677 37.5856 63.1789C37.6359 63.0195 37.6457 62.7775 37.6773 62.543C37.7064 62.3171 37.7509 62.1054 37.9111 61.9588C37.818 62.2838 37.8867 62.3276 37.8666 62.6098C37.8611 62.667 37.8513 62.7333 37.834 62.8121C37.8462 62.9924 37.0287 64.4533 37.271 64.4795C37.4232 64.5022 37.6301 63.9397 37.6556 63.9331C37.8441 63.8866 37.8366 64.2649 37.6194 64.4821C37.6359 64.4047 37.6588 64.3143 37.6754 64.2322C37.174 64.6835 37.9813 64.7004 37.2072 64.7614C37.1122 64.7664 37.0654 64.7024 36.9442 64.7329C36.9571 64.7688 37.0941 64.7211 37.0418 64.8127C36.9877 64.9076 36.7433 64.9668 36.8212 65.0712C36.935 65.2274 37.1618 64.8307 37.1876 64.809C37.1869 64.808 37.1863 64.807 37.1856 64.8061C37.4453 64.6244 37.0747 65.1338 37.064 65.1654C37.026 65.3901 37.1835 65.3455 37.0548 65.6352C36.9817 65.8023 36.6464 66.0978 36.5399 66.2183C36.434 66.342 36.678 66.2336 36.6112 66.322C36.5436 66.4112 36.3977 66.4537 36.3149 66.5545C36.2795 66.5979 36.3453 66.6701 36.327 66.6903C36.1304 66.9053 36.1457 66.6283 35.9544 66.7997C35.8347 66.9104 35.4891 67.3997 35.8385 67.2113C35.6974 67.3418 35.5592 67.4582 35.4128 67.5769C35.5268 67.5343 35.638 67.4802 35.7517 67.44C35.4386 67.608 35.3974 67.8341 35.2143 67.9674C35.0329 68.0983 34.7612 68.0291 34.6008 68.2353C34.2544 68.6784 35.3189 67.9448 35.4713 67.8694C35.5329 67.846 35.4154 68.113 35.3848 68.1374C35.2534 68.2461 35.0283 68.2528 34.9212 68.3227C34.5356 68.5738 34.3672 68.8341 33.9899 69.0605C32.7217 69.8262 31.0586 70.5099 29.7934 70.9287C29.3205 71.0865 28.9883 71.0078 28.7777 71.0732C28.2835 71.225 28.262 71.3811 27.8307 71.506C27.1886 71.6921 26.2554 71.7987 25.7187 71.9053C25.3461 71.9796 25.0512 72.1986 24.9561 72.226C23.645 72.6052 22.0765 73.0086 21.0528 73.3334C20.5746 73.4835 20.2983 73.413 20.2025 73.4504C19.7955 73.6133 19.9483 73.7027 19.6141 73.8125C19.4354 73.8726 19.3567 73.7649 19.3313 73.7693C19.1061 73.8127 19.1286 73.9871 18.9747 74.0581C18.5474 74.2567 18.1285 74.4401 17.7473 74.6317C16.4736 75.342 14.8657 74.7353 14.3657 73.3999C14.3259 73.2827 14.2812 73.1633 14.2309 73.0421C14.2048 72.9791 14.2757 72.9542 14.2539 72.9146C14.1575 72.7469 14.0886 72.8793 13.9959 72.7037C13.7984 72.3347 13.6052 71.9381 13.3847 71.5355C13.3625 71.4952 13.4352 71.4282 13.3802 71.3366C13.3244 71.2443 13.2046 71.2233 13.1214 71.08C12.9007 70.7015 12.7506 70.2759 12.4841 69.8778C12.4403 69.8127 12.2894 69.7988 12.2225 69.7008C12.011 69.3903 11.7738 68.8806 11.5841 68.6157C10.961 67.7453 10.2997 66.988 9.67738 66.1626C9.53147 65.9688 9.48803 65.7313 9.41405 65.6282C9.247 65.3955 9.29474 65.6296 9.12072 65.3969C7.70593 63.4895 6.30861 61.4771 5.20002 59.1473C4.76503 58.2368 4.22522 57.0721 4.04053 56.0359C3.96489 55.6087 4.09287 55.5027 4.04991 55.201C3.9836 54.6582 3.79258 54.571 3.75821 53.9704C3.73622 53.4862 3.95028 52.9479 4.01511 52.4565C4.08302 51.9694 3.96006 51.6965 4.10395 51.1319C4.1358 51.0121 4.18009 50.8822 4.2331 50.7474C4.33991 50.473 4.4858 50.1848 4.63463 49.9177C4.7105 49.781 4.78652 49.6498 4.85615 49.5266C7.61747 45.048 13.1532 44.7346 17.1008 46.2573C17.2182 46.3024 17.3341 46.349 17.4498 46.3974C18.9111 47.0018 20.481 47.9179 21.5608 49.1986C21.6602 49.319 21.377 49.2714 21.749 49.5965C21.9454 49.7739 22.3138 49.9452 22.7053 50.4425C23.277 51.1751 23.7542 52.0264 24.0653 52.9701C23.961 52.7023 23.7679 52.5728 23.6139 52.5269C23.4599 52.4801 23.2363 52.4783 23.0066 52.6273C25.1549 51.4086 27.5665 51.2299 29.7547 51.4544C30.6874 51.5519 31.6175 51.7228 32.5294 51.9796C36.7653 52.8796 41.6098 57.7084 39.2757 62.1068C39.1438 62.3284 38.7574 62.1065 38.6618 61.9613C38.7677 61.858 38.8856 61.7603 38.9972 61.6396C38.4839 61.4181 38.6395 61.4753 38.6909 60.8908C38.71 60.5325 38.4934 60.8245 38.4208 60.6437C38.3513 60.3954 37.8718 59.4094 38.2498 59.5255C38.1738 59.4739 38.1012 59.4292 38.0259 59.383C37.7558 58.6458 37.3278 58.0013 36.8195 57.444C36.7308 57.3479 36.6376 57.4065 36.546 57.3119C36.296 57.0582 36.1719 56.7985 35.911 56.5372C35.7686 56.3975 35.6593 56.4659 35.4796 56.2822C35.2967 56.1007 35.414 55.9724 35.0226 55.8852C35.0638 56.1922 34.373 55.4336 34.0469 55.2562C34.0009 55.2262 33.5351 55.1633 33.3485 55.0374C33.1614 54.9078 32.9048 54.6355 32.5494 54.5545C32.3823 54.5165 32.2331 54.6169 32.0652 54.559C31.9508 54.5198 31.86 54.3495 31.7159 54.2864C31.7121 54.2848 31.7084 54.2832 31.7046 54.2817C31.5548 54.2215 31.1939 54.2235 31.1339 54.2091C30.9143 54.1532 31.1807 54.1318 31.0324 54.0847C30.317 53.8575 29.4501 53.6647 28.7105 53.6995C28.6202 53.7034 28.7398 53.8193 28.7275 53.8226C28.1202 53.9397 28.4468 53.8069 28.282 53.7049C28.12 53.5886 26.9477 53.7427 26.9782 53.9512C26.9065 53.717 26.6826 53.9421 26.6214 53.9626C26.378 54.0406 26.38 53.8261 26.1515 53.9493C26.0692 53.9948 26.2754 54.0873 26.1804 54.1075C25.9493 54.1577 25.6745 54.0018 25.359 54.0952C25.2832 54.1182 25.2963 54.2206 25.1683 54.2698C25.0387 54.3126 24.4698 54.4604 24.8016 54.5321C24.5291 54.5338 24.4391 54.6009 24.2903 54.7097C24.12 54.8216 23.8926 54.9278 23.594 54.9611C23.3213 54.9832 23.0218 54.829 22.5699 54.6469C22.417 54.575 22.3273 54.7181 22.1046 54.5245C21.9067 54.3409 21.7639 54.0866 21.6989 53.8076C21.6924 53.65 21.6879 53.4746 21.6113 53.2953C21.3707 52.7305 20.9224 52.2352 20.5446 51.7142C20.4405 51.5725 20.5905 51.5027 20.4181 51.3049C20.3922 51.2747 20.0795 51.1395 19.9598 51.007C19.8928 50.9241 19.5367 50.4759 19.4487 50.3993C19.3091 50.2693 19.1878 50.3693 19.1251 50.2829C18.9394 50.0357 19.2627 49.9938 18.7908 50.0332C18.7921 49.8254 18.6048 49.7211 18.6597 49.5077C18.4301 49.6332 18.4102 49.3593 18.1585 49.3029C17.9056 49.2462 17.5291 49.5527 17.6969 49.1007C17.569 49.0969 17.0943 48.9824 17.0169 48.9594C16.7914 48.8844 16.9595 48.8122 16.7856 48.7595C16.7549 48.7506 16.7524 48.8458 16.5667 48.7637C16.5271 48.7463 16.4081 48.6985 16.2591 48.6438C15.9445 48.5253 15.5011 48.395 15.4647 48.3779C14.8532 48.0733 15.8398 48.3798 16.0075 48.3421C16.0242 48.3744 16.0405 48.4068 16.0586 48.4395C16.3264 48.5743 16.2335 48.3268 16.1171 48.2385C16.002 48.1501 15.7285 48.1633 15.6379 48.0691C15.5923 48.0218 15.6908 47.7934 15.8523 47.871C15.6919 47.746 15.9623 47.7411 15.9103 47.6522C15.8568 47.5467 15.0126 47.3167 14.9815 47.4559C15.1373 47.4924 15.3344 47.5328 15.4897 47.578C15.6238 47.8562 14.8508 48.4749 14.3746 48.0788C14.0081 47.7936 14.699 47.6897 13.7109 47.7719C13.8577 47.795 13.9822 47.8313 14.1136 47.8585C14.1053 48.0347 13.9132 47.8151 13.7943 47.86C13.739 47.8815 14.0523 48.0404 13.7649 48.0517C13.5451 47.778 13.3312 48.0125 12.9276 48.0074C13.0409 47.9643 13.1571 47.9234 13.2743 47.8843C12.5719 47.6727 14.2355 47.679 12.8426 47.5268C13.0112 47.5198 13.1801 47.5273 13.3504 47.5244C13.2724 47.4276 13.4212 47.164 13.3487 47.1027C13.154 46.941 12.8482 47.0241 12.6016 47.0157C12.4935 47.0121 12.5589 46.9377 12.5498 46.9374C12.4004 46.933 12.436 47.0394 12.3065 47.0516C12.1452 47.0641 11.6637 47.0014 11.5864 47.0251C11.3922 47.0787 11.7453 47.2504 11.7267 47.2692C11.6134 47.3832 11.3542 47.3327 11.3863 47.4642C11.9771 47.2576 13.7009 47.3763 12.1636 47.6341C12.5956 47.8321 12.4709 48.125 11.9092 48.195C11.4421 48.2654 11.7322 48.1124 11.4672 48.014C11.4322 47.9962 10.7806 48.0528 10.7714 48.1568C10.7512 47.9409 10.4922 47.8072 10.5861 47.5574C10.6005 47.5194 10.881 47.4724 10.7472 47.319C10.6802 47.2414 10.4926 47.0845 10.4898 46.9685C10.4465 47.0597 10.4046 47.1614 10.3652 47.2565C9.94332 47.3907 9.86388 47.3328 9.58016 47.2718C9.61267 47.326 9.90512 47.4981 9.56076 47.5349C9.54289 47.5367 9.49751 47.4527 9.31676 47.4728C8.95574 47.5172 8.86505 47.5298 9.0221 47.1664C8.38525 47.6138 8.09306 47.4192 7.46123 47.947C7.79719 48.1456 7.95288 47.9076 8.56339 47.5233C8.62813 47.5844 8.67722 47.6523 8.74185 47.7147C7.83347 47.9732 8.23499 47.785 7.88007 48.2015C7.78981 48.2993 7.22378 48.6814 7.54986 48.7276C7.62354 48.7357 7.95008 48.4916 7.9626 48.5922C7.96136 48.6081 7.59743 48.9341 7.55384 48.9472C6.96804 49.111 7.5339 48.2352 6.5164 49.4538C6.49071 49.4893 6.55945 49.5659 6.51851 49.6399C6.4428 49.7793 6.34718 49.7102 6.28573 49.8418C6.22388 49.9758 6.25293 50.2185 6.02146 50.3271C5.58694 50.5506 5.92975 49.6166 6.33584 49.3809C6.2672 49.2117 5.76097 49.6433 5.3799 50.2988C5.24313 50.5306 5.12333 50.7853 5.03106 51.0288C4.83531 51.5397 4.74947 51.9801 4.74457 52.0528C4.70764 52.8982 4.90951 51.5179 5.04582 51.4872C5.09538 51.4689 5.58196 51.6384 5.36807 51.214C5.306 51.0832 5.04509 51.4505 5.07355 51.1884C5.08126 51.1211 5.09505 51.0803 5.11087 51.057C5.15817 50.9869 5.22162 51.0686 5.23398 51.0576C5.28866 51.0084 5.34016 50.7278 5.37642 50.7031C5.56398 50.5671 5.74206 50.5264 5.84539 50.5363C5.89719 50.5413 5.93086 50.5587 5.93964 50.5845C5.9624 50.6553 5.81619 50.7636 5.37333 50.9522C5.41813 51.2962 5.91821 50.7513 5.88635 51.1355C5.88178 51.2024 5.87193 51.2638 5.85818 51.3205C5.77789 51.6514 5.55354 51.8315 5.53186 51.8761C5.25686 52.4939 5.75198 51.8262 5.49189 52.5877C5.36226 53.0228 5.36594 51.8766 5.23663 52.9106C5.17726 53.7828 5.34441 53.3168 5.60982 53.3976C5.67323 53.4169 5.72751 53.865 5.73408 53.2571C5.66419 53.2346 5.57294 53.1943 5.51088 53.1487C5.5757 52.9965 5.96328 52.7949 5.98781 52.7251C6.10794 52.3682 5.92877 52.3444 6.1911 52.1776C5.92171 52.2768 6.12121 52.0578 6.09882 51.953C6.02876 51.5891 5.84677 51.9169 6.18501 51.4358C6.2179 51.3918 6.25628 51.3413 6.30146 51.2841C6.21495 51.3177 6.13064 51.351 6.04645 51.3869C5.99178 51.4112 5.93719 51.4361 5.88215 51.4627C5.89395 51.4224 5.90611 51.3822 5.91864 51.3419C5.93666 51.2838 5.95569 51.226 5.97576 51.1686C6.25823 51.111 6.44461 50.6521 6.47859 51.1667C6.53201 51.0784 6.57925 51.0011 6.61952 50.9318C6.7929 50.6374 6.83084 50.4755 6.75724 50.3046C6.74 50.2648 6.77594 50.1863 6.83281 50.1041C6.77836 50.0868 6.62898 50.0084 6.6222 49.9831C6.56683 49.7525 6.9567 49.7703 6.99791 49.9067C7.0467 49.8564 7.08808 49.819 7.10296 49.8063C7.19725 49.7264 7.12145 49.9768 7.21372 49.9265C7.24102 49.9088 7.45554 49.6461 7.49265 49.6743C7.72387 49.854 7.17711 50.05 8.08994 49.4623C7.95044 49.2412 7.59509 49.6257 7.51354 49.3384C7.43146 49.0172 7.91944 49.1229 7.75595 48.802C7.81192 48.833 7.85033 48.8652 7.90761 48.9057C8.20764 48.4967 8.38592 48.7509 8.53756 48.7319C8.82356 48.6834 9.97052 48.1426 8.82173 48.4023C8.96042 48.301 9.11358 48.215 9.26144 48.1262C9.51015 48.6059 9.3232 48.4214 10.0955 48.2415C10.2672 48.2061 10.3811 48.4166 10.4718 48.1042C10.5186 48.3703 10.9686 48.0943 11.0252 48.121C11.3444 48.2696 10.3756 48.7903 10.1019 48.3947C9.98396 48.6321 9.90587 48.3961 9.71862 48.5024C9.45461 48.6598 9.4434 48.7146 9.03893 48.7113C8.83965 49.074 10.3264 48.2674 9.52651 48.9822C9.18059 49.2958 7.93335 50.0993 7.43356 51.347C7.36901 51.4993 7.31377 51.6568 7.26844 51.8179C6.79404 53.3456 7.13613 54.9645 7.32481 55.5872C8.06901 57.9128 8.9223 59.0973 10.2487 61.1432C10.3752 61.3471 11.4782 62.8409 11.0135 62.7029C10.9455 62.6834 10.3828 62.0955 10.5974 62.7936C10.6267 62.5986 10.9383 62.8757 10.9705 62.8946C11.7022 63.3326 11.4923 62.9162 12.2397 63.9094ZM12.336 68.4782C11.4317 67.1295 11.9764 68.209 11.4151 68.205C11.5379 68.3732 11.6583 68.539 11.7782 68.7059C11.7688 68.6449 11.7606 68.586 11.7514 68.5256C11.7512 68.5254 11.7511 68.5253 11.751 68.5251C11.945 68.5077 12.1406 68.4929 12.336 68.4782ZM36.2587 67.249C36.2399 67.3395 36.2206 67.4298 36.1937 67.5233C35.9872 67.6579 35.7836 67.7817 35.5744 67.9011C35.5755 67.8518 35.5754 67.8027 35.576 67.7535C35.8076 67.5965 36.0376 67.4299 36.2587 67.249ZM6.45079 49.1462C6.79964 49.0111 6.56582 48.8225 6.99128 48.615C6.80643 48.489 6.61675 48.3746 6.42347 48.2613C6.17283 48.5457 6.17511 48.6601 5.87011 48.9357C5.95416 48.9437 6.03874 48.9525 6.12117 48.9645C6.15301 48.905 6.18726 48.8414 6.22107 48.7852C6.42661 48.8445 6.04749 49.3212 6.45033 49.1474C6.45048 49.147 6.45064 49.1466 6.45079 49.1462ZM9.24214 47.1682C9.42053 47.1216 10.1196 47.0153 10.1901 46.9109C10.4334 46.5064 8.53295 47.3117 9.89581 46.5953C9.87736 46.5562 9.87261 46.514 9.86105 46.4733C9.58617 46.536 9.3138 46.6128 9.04058 46.7054C9.11549 46.8572 9.16594 47.016 9.24214 47.1682ZM8.77868 63.7255C8.64557 63.5062 7.82712 62.5748 7.89671 63.0144C7.91825 63.1467 8.45881 63.4388 8.5705 63.615C8.64266 63.7295 8.43158 63.6945 8.63195 63.8788C8.67926 63.8304 8.7351 63.7813 8.7779 63.7251C8.77816 63.7253 8.77842 63.7254 8.77868 63.7255ZM9.7723 63.5978C9.5962 63.4015 9.41373 63.2063 9.23701 63.0067C9.20825 63.2646 9.52013 63.5082 9.33689 63.6684C9.27946 63.6204 9.22266 63.5728 9.16537 63.5246C9.17598 63.4485 9.18744 63.3733 9.19868 63.2978C8.95923 63.1886 8.98495 63.3392 8.7714 62.9697C8.61898 63.3894 8.48792 63.5497 9.21546 63.9227C8.97346 63.9274 8.52519 64.4149 9.13921 64.4693C9.25329 64.4796 9.11271 64.1904 9.12178 64.1793C9.23071 64.0399 9.42164 64.1173 9.52077 63.9804C9.56568 63.9187 9.45188 63.7643 9.51684 63.6818C9.54896 63.6423 9.7695 63.7067 9.7723 63.5978ZM9.38626 64.5314C9.25457 64.5264 9.22399 64.8977 9.40902 65.0633C9.69687 65.3211 9.52694 64.7036 9.38626 64.5314ZM36.2598 67.2478C36.2594 67.2482 36.259 67.2486 36.2587 67.249C36.2587 67.2486 36.2588 67.2483 36.2589 67.2479C36.2592 67.2479 36.2595 67.2479 36.2598 67.2478ZM8.33995 47.4422C8.49127 47.2629 8.79229 47.1424 8.71444 47.0251C8.82387 47.0066 8.93405 46.9896 9.04221 46.976C9.02577 46.9375 9.00835 46.8992 8.99204 46.8611C8.68229 46.9566 8.37439 47.0703 8.07151 47.2034C8.16143 47.2823 8.247 47.3642 8.33995 47.4422ZM11.5934 46.5857C11.9765 46.5609 11.6381 46.4044 11.7132 46.3049C11.7901 46.2039 12.1484 46.2537 12.0985 46.1261C11.8638 46.1349 11.6204 46.152 11.3821 46.1773C11.4623 46.3113 11.5221 46.4508 11.5942 46.5857C11.5939 46.5857 11.5936 46.5857 11.5934 46.5857ZM17.0595 74.1833C16.7644 74.2449 16.6732 74.1894 16.5244 74.1717C16.3764 74.1347 16.1609 74.1841 15.6318 73.9708C15.6325 73.9713 15.6332 73.9717 15.6339 73.9722C16.0506 74.3233 16.8054 74.4989 17.4662 74.144C17.6744 74.0527 17.8897 73.9354 18.0645 73.7875C17.7911 73.7758 17.6455 73.9344 17.4111 74.0484C17.3061 74.1056 17.1879 74.1529 17.0595 74.1833ZM5.52143 49.6646C5.55158 49.8237 5.93799 49.4188 5.93419 49.2619C5.92431 48.9919 5.47124 49.4062 5.52143 49.6646ZM26.0464 70.1929C26.3152 69.7599 25.5444 69.5489 24.8757 69.8927C24.8179 69.9227 25.3034 69.9164 25.1845 70.0173C25.1723 70.0273 24.9188 70.0824 24.8686 70.1456C24.8185 70.2089 24.9115 70.3032 24.8213 70.3753C24.6637 70.5012 24.2189 70.4529 24.1125 70.5931C24.0985 70.6118 24.3865 70.6968 24.4037 70.6985C24.6845 70.7231 24.8841 70.4673 24.9235 70.456C25.1265 70.398 25.1338 70.5575 25.1947 70.5801C25.3093 70.6227 25.4649 70.5121 25.4783 70.514C25.8237 70.5685 25.1014 70.71 25.0198 70.7886C24.7987 71.0011 25.0725 71.0782 24.4731 71.3175C24.4161 71.3402 23.7122 71.5082 24.6399 71.4551C22.9928 72.247 25.5625 71.4375 25.8337 71.2863C25.9559 71.2169 25.7204 71.1226 25.7836 71.0374C25.9278 70.8426 26.2315 70.7373 26.1502 70.5346C25.9775 70.1092 25.646 70.5011 25.3458 70.4976C25.3512 70.3943 25.3389 70.298 25.3698 70.1906C25.3181 70.3379 26.0268 70.2257 26.0466 70.1938C26.0465 70.1935 26.0464 70.1932 26.0464 70.1929ZM21.7795 71.8325C21.356 71.8099 21.4615 72.0785 21.0671 72.0241C20.8362 72.3626 21.4323 72.166 21.5092 72.16C21.854 72.1286 21.9194 72.4017 22.2278 72.2267C22.0696 72.0981 21.9317 71.9625 21.7795 71.8325ZM25.1944 71.0667C24.9678 71.2735 25.4361 71.1534 25.4622 71.1754C25.7405 71.4098 24.3239 71.7063 25.1944 71.0667ZM8.34463 62.089C8.27608 61.969 8.20911 62.1194 8.10707 62.0404C8.00338 61.9606 7.87421 61.5437 7.80766 61.5995C7.73874 61.6545 7.97543 62.4284 7.50875 61.8017C7.48211 61.8503 7.44675 61.8626 7.41669 61.8972C7.53207 62.0782 7.6509 62.2624 7.7686 62.4404C7.82006 62.2652 7.87603 62.0826 7.92764 61.9143C8.08658 61.9528 8.00447 62.0878 8.00803 62.0932C8.00815 62.0931 8.00828 62.093 8.0084 62.0929C8.14096 62.2722 8.49966 62.3582 8.34463 62.089ZM14.228 71.0951C14.5491 70.9528 14.0529 70.879 13.9482 70.7922C13.8458 70.7072 13.8613 70.4894 13.7693 70.6251C13.7902 70.8511 14.1932 71.1111 14.2284 71.0949C14.2282 71.095 14.2281 71.0951 14.228 71.0951ZM19.714 72.4761C19.4336 72.6655 19.5083 72.7334 19.0981 72.7786C19.1428 72.8517 19.188 72.9265 19.232 72.9986C19.5253 72.8896 19.4285 72.6641 19.8061 72.6352C19.8687 72.6309 19.81 72.8573 20.0473 72.7097C19.9384 72.6365 19.8245 72.5533 19.714 72.4761ZM18.3241 73.3612C18.6511 73.2021 18.6648 72.4537 18.1479 73.0159C18.0708 73.1015 18.0754 73.4858 18.3241 73.3612ZM10.4586 65.0049C10.0772 64.4622 10.4401 65.1315 10.4602 65.332C9.46731 64.1459 10.5869 65.4549 10.402 65.7866C10.5951 65.8779 10.9883 66.0221 10.801 65.673C10.7227 65.5273 10.6758 65.6374 10.6702 65.6293C10.5091 65.3727 10.6672 65.3007 10.4586 65.0049ZM22.4467 71.6315C22.424 71.643 22.4922 71.7465 22.4218 71.7898C22.3513 71.833 22.1573 71.8006 22.1595 71.875C22.1611 71.9497 22.5233 71.9094 22.6139 71.8307C22.7053 71.751 22.6505 71.5299 22.4467 71.6315ZM19.9486 72.0707C19.6646 72.2558 20.3115 72.4953 20.375 72.4738C20.9531 72.2646 19.9798 72.2024 19.9486 72.0707ZM11.9716 65.7887C11.3146 65.2841 11.3615 65.9812 11.4789 66.5177C11.5557 66.5422 11.6335 66.568 11.7093 66.592C11.3035 66.524 10.7651 66.2734 11.6627 67.0565C11.332 66.5051 11.7143 66.8873 11.7297 66.8813C12.1875 66.6242 11.4258 66.0145 11.972 65.7892C11.9719 65.7891 11.9717 65.7889 11.9716 65.7887ZM23.5105 71.4805C23.8441 71.3925 24.6956 71.0858 24.2329 70.9686C23.9929 71.1384 23.7495 71.3097 23.5105 71.4805ZM5.9007 54.6704C6.00189 54.3883 5.98358 54.1504 5.97458 53.8236C5.78854 54.12 5.76429 53.9286 5.71809 53.8249C5.64839 53.6687 5.65509 54.0471 5.64448 54.0488C5.46726 54.0474 5.42409 53.7995 5.45605 54.3635C5.38474 54.2282 5.31626 54.0917 5.25224 53.9494C5.25426 54.3898 5.15086 54.4984 5.03748 54.8004C5.35716 54.4878 5.17098 54.8773 5.39338 55.1706C5.5028 55.3115 5.84528 54.8085 5.90059 54.6694C5.90063 54.6697 5.90066 54.67 5.9007 54.6704ZM11.5311 65.0889C11.4316 65.0612 11.3184 65.0524 11.2132 65.0322C11.1557 64.9672 11.099 64.9019 11.0417 64.837C11.0797 64.795 11.1209 64.753 11.1561 64.7109C11.1008 64.6103 11.0655 64.6922 11.0394 64.6695C11.0397 64.6694 11.0399 64.6692 11.0401 64.669C10.6672 64.3426 10.5575 64.1758 10.4708 63.769C10.3337 63.87 10.1966 63.9711 10.0595 64.0722C10.1234 64.1314 10.1875 64.1915 10.2512 64.2508C10.3518 64.2328 10.4525 64.2149 10.553 64.1967C10.5714 64.3061 10.5896 64.4145 10.6084 64.524C10.6822 64.5679 10.767 64.6234 10.8338 64.6591C10.6897 65.2608 10.4102 64.3479 10.2476 64.4592C10.1417 64.5309 10.6893 65.2534 10.8377 65.3037C10.8593 65.311 11.0247 64.9414 11.0765 65.3172C11.0844 65.3759 10.4834 65.8528 11.1938 65.7632C11.2947 65.7506 11.5681 65.3222 11.5311 65.0889ZM9.79979 62.3152C9.68387 63.0101 9.05551 61.1878 9.1766 62.0763C8.86124 62.0144 8.88657 62.0466 8.85348 62.3522C8.85031 62.3793 8.70804 62.2813 8.7093 62.297C8.74159 62.5401 8.94033 62.7227 8.77683 62.8389C8.81945 62.8812 8.85916 62.9213 8.90193 62.9636C8.91537 62.6536 9.24377 62.9009 9.46114 62.9307C9.55971 62.9447 9.48673 62.8035 9.57164 62.8138C9.60265 62.8178 9.69281 63.0235 9.75184 62.9921C9.88452 62.9201 9.96836 62.6903 9.92485 62.4378C9.92498 62.4377 9.9251 62.4376 9.92522 62.4375C9.88369 62.3959 9.84149 62.3567 9.79979 62.3152ZM15.7034 71.4944C15.503 71.7009 15.5893 72.0359 15.1685 71.5089C15.1365 71.5625 15.1049 71.6165 15.0723 71.6695C15.1261 71.7626 15.181 71.8604 15.2341 71.9587C16.1074 71.9144 15.536 72.8782 15.8935 72.2751C15.9324 72.2096 15.755 71.9844 16.0202 72.1659C16.0202 72.1655 16.0201 72.1651 16.0201 72.1647C15.8168 71.8395 15.7123 71.8477 15.7034 71.4944ZM14.2723 69.4501C13.3335 69.0608 14.6407 70.6015 14.5833 70.2436C14.5827 70.2102 14.0069 69.5445 14.2723 69.4501ZM18.3299 71.7308C17.9578 71.8725 18.061 72.1672 18.1395 72.2533C18.2181 72.3399 18.42 72.1338 18.4598 72.137C18.5859 72.1481 18.3793 72.2733 18.5442 72.2917C18.6027 72.2927 19.2516 72.1619 19.279 72.1404C19.4141 72.0131 19.0928 71.8594 19.1285 71.8155C19.2491 71.6697 19.4928 71.7245 19.4925 71.5818C19.491 71.2769 19.2136 71.6943 19.1489 71.724C18.9587 71.8081 18.9195 71.6499 18.7625 71.6745C18.6055 71.6997 18.5349 71.7871 18.3998 71.8291C18.3554 71.8429 18.349 71.7242 18.3299 71.7308ZM17.4289 72.8501C17.6567 72.5053 16.8958 72.636 16.6692 72.7614C16.6593 72.7654 16.6534 72.7705 16.652 72.7781C16.6343 72.8574 16.6654 72.9738 16.8099 73.0056C17.0358 73.0176 17.3584 72.9557 17.4289 72.8501ZM9.93616 63.7742C10.2864 63.9666 9.89838 63.2054 9.70479 63.0498C9.67281 63.1266 9.81471 63.7077 9.93616 63.7742ZM12.1042 65.966C11.8612 65.7312 11.8241 66.3139 11.9954 66.5318C12.294 66.5129 12.1609 66.4181 12.0605 66.2676C11.9596 66.1165 12.2936 66.1492 12.1042 65.966ZM22.4041 70.7224C22.334 70.7346 21.2639 71.245 21.9312 71.1495C21.9824 71.1408 22.7574 70.8955 22.8081 70.8435C22.9089 70.7366 22.5862 70.6852 22.4041 70.7224ZM13.3624 67.033C13.0825 67.0179 12.9805 66.8756 12.8737 67.1582C12.8738 67.1584 12.874 67.1586 12.8741 67.1588C12.5433 66.8429 12.9495 66.5195 12.8823 66.4478C12.6483 66.2001 12.5443 66.6785 12.3199 66.5816C12.7068 66.9081 12.4206 66.9417 12.6321 67.2531C12.6797 67.3229 12.9988 67.505 13.1025 67.4897C13.2064 67.4745 13.3295 67.1715 13.3624 67.033ZM23.9824 70.2594C23.5828 70.2748 23.3187 70.7041 23.8615 70.6236C24.1242 70.5853 24.2264 70.25 23.9824 70.2594ZM10.1824 48.1498C10.1023 48.0781 10.0189 48.0084 9.93104 47.9415C10.0577 47.8763 10.1841 47.8145 10.3153 47.7551C10.2148 47.8128 10.1165 47.8717 10.0199 47.9325C10.2802 47.8851 10.4352 48.0169 10.183 48.1496C10.1828 48.1496 10.1826 48.1497 10.1824 48.1498ZM18.8793 49.7679C18.9217 49.9038 19.2653 49.8154 19.2554 49.782C19.1706 49.5207 18.8157 49.5759 18.8793 49.7679ZM10.2967 62.8535C10.0687 62.4703 9.8835 62.9778 10.0202 63.2188C9.99107 63.033 10.427 63.0712 10.2967 62.8535ZM16.0075 48.3421C15.9827 48.2939 15.9573 48.2457 15.9266 48.1961C16.0419 48.2877 16.0519 48.3293 16.0075 48.3421ZM22.1238 70.3899C22.0465 70.3747 21.5404 70.4842 21.4858 70.5441C21.3718 70.6684 21.8217 70.7977 22.0304 70.663C22.0533 70.6482 22.1999 70.4048 22.1227 70.3902C22.1231 70.3901 22.1234 70.39 22.1238 70.3899ZM10.7732 48.1688C10.7715 48.1648 10.771 48.1607 10.7714 48.1568C10.7719 48.1608 10.7729 48.1647 10.7732 48.1688ZM26.9846 53.9708C26.9812 53.9643 26.9789 53.9577 26.9782 53.9512C26.9801 53.9574 26.983 53.9639 26.9846 53.9708ZM18.4845 71.1389C18.1677 70.8045 17.8527 71.1765 18.242 71.2459C18.2651 71.2482 18.4434 71.1535 18.4845 71.1389Z" fill="white"/>
</svg>
