<svg width="27" height="21" viewBox="0 0 27 21" fill="none" xmlns="http://www.w3.org/2000/svg">
<mask id="path-1-inside-1_2742_991" fill="white">
<path d="M24.75 0H2.25002C1.00907 0 0 1.04645 0 2.33335V18.6667C0 19.9536 1.00907 21 2.25002 21H24.75C25.9909 21 27 19.9536 27 18.6666V2.33335C27 1.04645 25.9909 0 24.75 0ZM2.25002 1.16665H24.75C24.8329 1.16665 24.906 1.19798 24.9838 1.2157C23.0358 3.06452 16.5767 9.19237 14.3163 11.3043C14.1395 11.4696 13.8544 11.6666 13.5001 11.6666C13.1457 11.6666 12.8606 11.4696 12.6832 11.3038C10.4231 9.19215 3.96357 3.06398 2.01593 1.21581C2.09387 1.19809 2.16707 1.16665 2.25002 1.16665ZM1.12498 18.6666V2.33335C1.12498 2.21905 1.15821 2.11537 1.18795 2.01091C2.67885 3.42601 7.18574 7.70169 10.1081 10.4576C7.19524 13.0523 2.68719 17.4846 1.18441 18.9707C1.15789 18.8715 1.12498 18.7745 1.12498 18.6666ZM24.75 19.8334H2.25002C2.16016 19.8334 2.08027 19.8009 1.99637 19.7801C3.54923 18.2449 8.08597 13.7871 10.9476 11.2483C11.3206 11.5993 11.6614 11.9192 11.93 12.1703C12.3937 12.6044 12.9364 12.8334 13.5 12.8334C14.0636 12.8334 14.6063 12.6043 15.0694 12.1708C15.3381 11.9197 15.6791 11.5994 16.0524 11.2483C18.9142 13.7868 23.4503 18.2443 25.0036 19.7801C24.9197 19.8009 24.8399 19.8334 24.75 19.8334ZM25.875 18.6666C25.875 18.7744 25.8421 18.8715 25.8156 18.9707C24.3123 17.4839 19.8048 13.052 16.892 10.4576C19.8144 7.70175 24.3206 3.42645 25.8121 2.0108C25.8418 2.11526 25.875 2.219 25.875 2.3333V18.6666Z"/>
</mask>
<path d="M24.75 0H2.25002C1.00907 0 0 1.04645 0 2.33335V18.6667C0 19.9536 1.00907 21 2.25002 21H24.75C25.9909 21 27 19.9536 27 18.6666V2.33335C27 1.04645 25.9909 0 24.75 0ZM2.25002 1.16665H24.75C24.8329 1.16665 24.906 1.19798 24.9838 1.2157C23.0358 3.06452 16.5767 9.19237 14.3163 11.3043C14.1395 11.4696 13.8544 11.6666 13.5001 11.6666C13.1457 11.6666 12.8606 11.4696 12.6832 11.3038C10.4231 9.19215 3.96357 3.06398 2.01593 1.21581C2.09387 1.19809 2.16707 1.16665 2.25002 1.16665ZM1.12498 18.6666V2.33335C1.12498 2.21905 1.15821 2.11537 1.18795 2.01091C2.67885 3.42601 7.18574 7.70169 10.1081 10.4576C7.19524 13.0523 2.68719 17.4846 1.18441 18.9707C1.15789 18.8715 1.12498 18.7745 1.12498 18.6666ZM24.75 19.8334H2.25002C2.16016 19.8334 2.08027 19.8009 1.99637 19.7801C3.54923 18.2449 8.08597 13.7871 10.9476 11.2483C11.3206 11.5993 11.6614 11.9192 11.93 12.1703C12.3937 12.6044 12.9364 12.8334 13.5 12.8334C14.0636 12.8334 14.6063 12.6043 15.0694 12.1708C15.3381 11.9197 15.6791 11.5994 16.0524 11.2483C18.9142 13.7868 23.4503 18.2443 25.0036 19.7801C24.9197 19.8009 24.8399 19.8334 24.75 19.8334ZM25.875 18.6666C25.875 18.7744 25.8421 18.8715 25.8156 18.9707C24.3123 17.4839 19.8048 13.052 16.892 10.4576C19.8144 7.70175 24.3206 3.42645 25.8121 2.0108C25.8418 2.11526 25.875 2.219 25.875 2.3333V18.6666Z" fill="white"/>
<path d="M24.9838 1.2157L30.491 7.01828L41.3271 -3.26629L26.7606 -6.58448L24.9838 1.2157ZM14.3163 11.3043L19.7772 17.1506L19.7781 17.1498L14.3163 11.3043ZM12.6832 11.3038L7.22164 17.1494L7.22224 17.15L12.6832 11.3038ZM2.01593 1.21581L0.242505 -6.58515L-14.3348 -3.27123L-3.49079 7.01892L2.01593 1.21581ZM1.18795 2.01091L6.69535 -3.79154L-2.88786 -12.8874L-6.50622 -0.179938L1.18795 2.01091ZM10.1081 10.4576L15.4294 16.4312L21.9466 10.6256L15.5967 4.63737L10.1081 10.4576ZM1.18441 18.9707L-6.54408 21.0372L-2.98565 34.3455L6.80959 24.6591L1.18441 18.9707ZM1.99637 19.7801L-3.62801 14.0909L-13.7694 24.1168L0.0729708 27.5454L1.99637 19.7801ZM10.9476 11.2483L16.4291 5.42142L11.1057 0.413566L5.63844 5.26397L10.9476 11.2483ZM11.93 12.1703L17.3979 6.33049L17.392 6.32503L11.93 12.1703ZM15.0694 12.1708L9.60727 6.32569L9.60195 6.33067L15.0694 12.1708ZM16.0524 11.2483L21.3611 5.26354L15.8941 0.414212L10.5712 5.42115L16.0524 11.2483ZM25.0036 19.7801L26.927 27.5454L40.7687 24.117L30.6283 14.0912L25.0036 19.7801ZM25.8156 18.9707L20.1901 24.6587L29.991 34.352L33.5452 21.0334L25.8156 18.9707ZM16.892 10.4576L11.4034 4.63733L5.05296 10.6258L11.571 16.4315L16.892 10.4576ZM25.8121 2.0108L33.5062 -0.180047L29.8878 -12.8878L20.3046 -3.79156L25.8121 2.0108ZM24.75 0V-8H2.25002V0V8H24.75V0ZM2.25002 0V-8C-3.68094 -8 -8 -3.09511 -8 2.33335H0H8C8 5.188 5.69908 8 2.25002 8V0ZM0 2.33335H-8V18.6667H0H8V2.33335H0ZM0 18.6667H-8C-8 24.0952 -3.68082 29 2.25002 29V21V13C5.69896 13 8 15.8119 8 18.6667H0ZM2.25002 21V29H24.75V21V13H2.25002V21ZM24.75 21V29C30.6811 29 35 24.095 35 18.6666H27H19C19 15.8121 21.3008 13 24.75 13V21ZM27 18.6666H35V2.33335H27H19V18.6666H27ZM27 2.33335H35C35 -3.09511 30.6809 -8 24.75 -8V0V8C21.3009 8 19 5.188 19 2.33335H27ZM2.25002 1.16665V9.16665H24.75V1.16665V-6.83335H2.25002V1.16665ZM24.75 1.16665V9.16665C23.7942 9.16665 23.0715 8.98368 22.8407 8.9232C22.7526 8.90011 22.6331 8.86567 22.7366 8.89511C22.7815 8.90789 22.9698 8.96187 23.2069 9.01588L24.9838 1.2157L26.7606 -6.58448C26.9588 -6.53932 27.1088 -6.49591 27.1156 -6.49399C27.1809 -6.4754 27.0233 -6.52099 26.8969 -6.55413C26.5894 -6.63471 25.7888 -6.83335 24.75 -6.83335V1.16665ZM24.9838 1.2157L19.4765 -4.58688C17.5152 -2.72541 11.0859 3.37407 8.85459 5.45889L14.3163 11.3043L19.7781 17.1498C22.0675 15.0107 28.5564 8.85445 30.491 7.01828L24.9838 1.2157ZM14.3163 11.3043L8.85546 5.45807C9.27682 5.06449 10.8765 3.66665 13.5001 3.66665V11.6666V19.6666C16.8323 19.6666 19.0021 17.8746 19.7772 17.1506L14.3163 11.3043ZM13.5001 11.6666V3.66665C16.1252 3.66665 17.7252 5.06622 18.1441 5.4576L12.6832 11.3038L7.22224 17.15C7.99614 17.8729 10.1662 19.6666 13.5001 19.6666V11.6666ZM12.6832 11.3038L18.1448 5.45817C15.9136 3.37361 9.48443 -2.72571 7.52265 -4.5873L2.01593 1.21581L-3.49079 7.01892C-1.55729 8.85367 4.9325 15.0107 7.22164 17.1494L12.6832 11.3038ZM2.01593 1.21581L3.78935 9.01677C4.02784 8.96256 4.21712 8.90832 4.26302 8.89526C4.36814 8.86535 4.24788 8.89998 4.16105 8.92276C3.9321 8.98282 3.20803 9.16665 2.25002 9.16665V1.16665V-6.83335C1.20906 -6.83335 0.406907 -6.6338 0.10114 -6.55358C-0.0240971 -6.52073 -0.182458 -6.47492 -0.115572 -6.49395C-0.107915 -6.49613 0.0429904 -6.53979 0.242505 -6.58515L2.01593 1.21581ZM1.12498 18.6666H9.12498V2.33335H1.12498H-6.87502V18.6666H1.12498ZM1.12498 2.33335H9.12498C9.12498 3.05334 9.01934 3.61821 8.94897 3.92994C8.91441 4.08305 8.88306 4.19688 8.87214 4.23608C8.86649 4.25635 8.8627 4.26941 8.86501 4.26138C8.87262 4.23494 8.86089 4.27572 8.87053 4.2422C8.87326 4.23272 8.87739 4.21834 8.88211 4.20177L1.18795 2.01091L-6.50622 -0.179938C-6.47186 -0.300587 -6.58265 0.0715736 -6.65835 0.406948C-6.75276 0.8252 -6.87502 1.49906 -6.87502 2.33335H1.12498ZM1.18795 2.01091L-4.31946 7.81337C-2.8295 9.22756 1.68635 13.5118 4.61941 16.2778L10.1081 10.4576L15.5967 4.63737C12.6851 1.89163 8.18721 -2.37555 6.69535 -3.79154L1.18795 2.01091ZM10.1081 10.4576L4.78678 4.48396C1.69164 7.24112 -2.96475 11.8227 -4.44076 13.2824L1.18441 18.9707L6.80959 24.6591C8.33912 23.1465 12.6988 18.8635 15.4294 16.4312L10.1081 10.4576ZM1.18441 18.9707L8.91291 16.9042C8.89799 16.8484 8.85613 16.6974 8.87645 16.7712C8.87951 16.7823 8.90832 16.8859 8.94081 17.0271C9.00778 17.318 9.12498 17.9065 9.12498 18.6666H1.12498H-6.87502C-6.87502 19.5346 -6.74136 20.2256 -6.65131 20.6168C-6.60727 20.808 -6.56527 20.9613 -6.54858 21.0219C-6.51463 21.1451 -6.54243 21.0434 -6.54408 21.0372L1.18441 18.9707ZM24.75 19.8334V11.8334H2.25002V19.8334V27.8334H24.75V19.8334ZM2.25002 19.8334V11.8334C3.1622 11.8334 3.85468 12.0001 4.1129 12.0665C4.22915 12.0964 4.33272 12.1269 4.27564 12.1105C4.26213 12.1066 4.10655 12.061 3.91976 12.0147L1.99637 19.7801L0.0729708 27.5454C-0.0718716 27.5096 -0.185995 27.4758 -0.15813 27.4839C-0.152049 27.4856 -0.15942 27.4835 -0.150647 27.486C-0.146981 27.4871 -0.141446 27.4887 -0.135086 27.4905C-0.122563 27.4941 -0.103006 27.4997 -0.079669 27.5063C-0.0338591 27.5192 0.0395161 27.5395 0.129012 27.5626C0.470619 27.6504 1.24797 27.8334 2.25002 27.8334V19.8334ZM1.99637 19.7801L7.62074 25.4692C9.20381 23.9042 13.5852 19.6028 16.2568 17.2327L10.9476 11.2483L5.63844 5.26397C2.58672 7.97137 -2.10535 12.5856 -3.62801 14.0909L1.99637 19.7801ZM10.9476 11.2483L5.46609 17.0753C5.84097 17.4279 6.1895 17.7552 6.46807 18.0155L11.93 12.1703L17.392 6.32503C17.1333 6.0833 16.8003 5.77062 16.4291 5.42142L10.9476 11.2483ZM11.93 12.1703L6.46223 18.01C8.20761 19.6442 10.6465 20.8334 13.5 20.8334V12.8334V4.83335C15.2262 4.83335 16.5798 5.5645 17.3979 6.33049L11.93 12.1703ZM13.5 12.8334V20.8334C16.3526 20.8334 18.7915 19.6449 20.5368 18.011L15.0694 12.1708L9.60195 6.33067C10.4212 5.56373 11.7747 4.83335 13.5 4.83335V12.8334ZM15.0694 12.1708L20.5315 18.0159C20.8102 17.7555 21.159 17.4279 21.5336 17.0755L16.0524 11.2483L10.5712 5.42115C10.1993 5.77092 9.86607 6.08385 9.60727 6.32569L15.0694 12.1708ZM16.0524 11.2483L10.7437 17.2331C13.415 19.6026 17.7954 23.9033 19.379 25.469L25.0036 19.7801L30.6283 14.0912C29.1052 12.5853 24.4134 7.97103 21.3611 5.26354L16.0524 11.2483ZM25.0036 19.7801L23.0802 12.0147C22.893 12.0611 22.7372 12.1068 22.7236 12.1107C22.6663 12.1272 22.7701 12.0966 22.8866 12.0666C23.1459 11.9999 23.8382 11.8334 24.75 11.8334V19.8334V27.8334C25.7517 27.8334 26.5289 27.6505 26.8716 27.5624C26.9612 27.5394 27.0347 27.519 27.0805 27.5061C27.1039 27.4995 27.1235 27.4939 27.136 27.4903C27.1423 27.4884 27.1479 27.4868 27.1515 27.4858C27.1598 27.4834 27.1534 27.4852 27.159 27.4836C27.1867 27.4756 27.0723 27.5095 26.927 27.5454L25.0036 19.7801ZM25.875 18.6666H17.875C17.875 17.9064 17.9923 17.318 18.0589 17.0283C18.0913 16.8876 18.12 16.7843 18.1229 16.7736C18.1427 16.7015 18.1014 16.8506 18.0861 16.9081L25.8156 18.9707L33.5452 21.0334C33.5431 21.0412 33.5158 21.141 33.5493 21.0194C33.5658 20.9593 33.6077 20.8064 33.6516 20.6155C33.7413 20.2255 33.875 19.5347 33.875 18.6666H25.875ZM25.8156 18.9707L31.4412 13.2827C29.9642 11.822 25.3083 7.24079 22.2129 4.48373L16.892 10.4576L11.571 16.4315C14.3012 18.8633 18.6603 23.1458 20.1901 24.6587L25.8156 18.9707ZM16.892 10.4576L22.3805 16.2779C25.3139 13.5118 29.8292 9.22778 31.3196 7.81317L25.8121 2.0108L20.3046 -3.79156C18.812 -2.37489 14.315 1.89174 11.4034 4.63733L16.892 10.4576ZM25.8121 2.0108L18.1179 4.20166C18.1226 4.21818 18.1267 4.23252 18.1294 4.24196C18.1375 4.27017 18.1288 4.23989 18.1349 4.26103C18.1372 4.26898 18.1334 4.25589 18.1278 4.23557C18.1168 4.19628 18.0855 4.08247 18.0509 3.9294C17.9806 3.61788 17.875 3.05315 17.875 2.3333H25.875H33.875C33.875 1.49914 33.7528 0.8254 33.6585 0.407321C33.5827 0.0717334 33.4721 -0.300014 33.5062 -0.180047L25.8121 2.0108ZM25.875 2.3333H17.875V18.6666H25.875H33.875V2.3333H25.875Z" fill="white" mask="url(#path-1-inside-1_2742_991)"/>
<mask id="path-3-inside-2_2742_991" fill="white">
<path d="M24.0282 0H2.97986C1.81897 0 0.875 1.03519 0.875 2.30826V18.466C0.875 19.739 1.81897 20.7742 2.97986 20.7742H24.0283C25.1891 20.7742 26.1331 19.739 26.1331 18.4659V2.30826C26.1331 1.03519 25.1891 0 24.0282 0ZM2.97986 1.1541H24.0283C24.1058 1.1541 24.1741 1.1851 24.2469 1.20263C22.4246 3.03157 16.3822 9.09352 14.2677 11.1828C14.1022 11.3462 13.8355 11.5412 13.5041 11.5412C13.1726 11.5412 12.9059 11.3462 12.7399 11.1823C10.6256 9.09331 4.58285 3.03103 2.76087 1.20274C2.83378 1.18521 2.90226 1.1541 2.97986 1.1541ZM1.9274 18.4659V2.30826C1.9274 2.19519 1.95848 2.09262 1.98631 1.98929C3.38102 3.38917 7.59715 7.61888 10.3309 10.3451C7.60603 12.912 3.38882 17.2966 1.983 18.7667C1.95819 18.6686 1.9274 18.5726 1.9274 18.4659ZM24.0282 19.6201H2.97986C2.89579 19.6201 2.82105 19.588 2.74257 19.5674C4.19525 18.0487 8.4393 13.6389 11.1163 11.1274C11.4653 11.4745 11.7841 11.7911 12.0354 12.0394C12.4691 12.4688 12.9768 12.6954 13.504 12.6954C14.0313 12.6954 14.539 12.4688 14.9722 12.0399C15.2236 11.7915 15.5426 11.4747 15.8918 11.1274C18.5689 13.6386 22.8124 18.0481 24.2655 19.5674C24.187 19.588 24.1124 19.6201 24.0282 19.6201ZM25.0807 18.4659C25.0807 18.5726 25.0499 18.6686 25.0251 18.7667C23.6188 17.2959 19.402 12.9117 16.6772 10.3452C19.4111 7.61894 23.6265 3.3896 25.0218 1.98918C25.0496 2.09251 25.0807 2.19514 25.0807 2.30821V18.4659Z"/>
</mask>
<path d="M24.0282 0H2.97986C1.81897 0 0.875 1.03519 0.875 2.30826V18.466C0.875 19.739 1.81897 20.7742 2.97986 20.7742H24.0283C25.1891 20.7742 26.1331 19.739 26.1331 18.4659V2.30826C26.1331 1.03519 25.1891 0 24.0282 0ZM2.97986 1.1541H24.0283C24.1058 1.1541 24.1741 1.1851 24.2469 1.20263C22.4246 3.03157 16.3822 9.09352 14.2677 11.1828C14.1022 11.3462 13.8355 11.5412 13.5041 11.5412C13.1726 11.5412 12.9059 11.3462 12.7399 11.1823C10.6256 9.09331 4.58285 3.03103 2.76087 1.20274C2.83378 1.18521 2.90226 1.1541 2.97986 1.1541ZM1.9274 18.4659V2.30826C1.9274 2.19519 1.95848 2.09262 1.98631 1.98929C3.38102 3.38917 7.59715 7.61888 10.3309 10.3451C7.60603 12.912 3.38882 17.2966 1.983 18.7667C1.95819 18.6686 1.9274 18.5726 1.9274 18.4659ZM24.0282 19.6201H2.97986C2.89579 19.6201 2.82105 19.588 2.74257 19.5674C4.19525 18.0487 8.4393 13.6389 11.1163 11.1274C11.4653 11.4745 11.7841 11.7911 12.0354 12.0394C12.4691 12.4688 12.9768 12.6954 13.504 12.6954C14.0313 12.6954 14.539 12.4688 14.9722 12.0399C15.2236 11.7915 15.5426 11.4747 15.8918 11.1274C18.5689 13.6386 22.8124 18.0481 24.2655 19.5674C24.187 19.588 24.1124 19.6201 24.0282 19.6201ZM25.0807 18.4659C25.0807 18.5726 25.0499 18.6686 25.0251 18.7667C23.6188 17.2959 19.402 12.9117 16.6772 10.3452C19.4111 7.61894 23.6265 3.3896 25.0218 1.98918C25.0496 2.09251 25.0807 2.19514 25.0807 2.30821V18.4659Z" fill="white"/>
<path d="M24.2469 1.20263L29.9141 6.84916L39.9661 -3.23963L26.1204 -6.5749L24.2469 1.20263ZM14.2677 11.1828L19.8896 16.8744L19.8905 16.8735L14.2677 11.1828ZM12.7399 11.1823L7.11734 16.8732L7.11793 16.8738L12.7399 11.1823ZM2.76087 1.20274L0.890949 -6.57565L-12.9653 -3.24461L-2.90575 6.84981L2.76087 1.20274ZM1.98631 1.98929L7.65359 -3.65711L-2.13323 -13.4801L-5.73855 -0.0907563L1.98631 1.98929ZM10.3309 10.3451L15.8164 16.1683L21.8244 10.5088L15.98 4.68044L10.3309 10.3451ZM1.983 18.7667L-5.77291 20.7278L-2.22839 34.7459L7.76485 24.2958L1.983 18.7667ZM2.74257 19.5674L-3.0385 14.0375L-12.4357 23.8617L0.715549 27.3063L2.74257 19.5674ZM11.1163 11.1274L16.7584 5.45577L11.2792 0.00514651L5.64273 5.29301L11.1163 11.1274ZM12.0354 12.0394L17.6641 6.35452L17.6584 6.34889L12.0354 12.0394ZM14.9722 12.0399L9.34904 6.34955L9.34385 6.35469L14.9722 12.0399ZM15.8918 11.1274L21.3649 5.29257L15.7287 0.00584933L10.25 5.4555L15.8918 11.1274ZM24.2655 19.5674L26.2925 27.3063L39.4431 23.8619L30.0468 14.0378L24.2655 19.5674ZM25.0251 18.7667L19.2429 24.2954L29.2418 34.7528L32.7819 20.7242L25.0251 18.7667ZM16.6772 10.3452L11.0283 4.68039L5.18325 10.509L11.192 16.1687L16.6772 10.3452ZM25.0218 1.98918L32.7466 -0.090865L29.1412 -13.4805L19.3544 -3.65713L25.0218 1.98918ZM24.0282 0V-8H2.97986V0V8H24.0282V0ZM2.97986 0V-8C-3.27786 -8 -7.125 -2.67254 -7.125 2.30826H0.875H8.875C8.875 4.74292 6.9158 8 2.97986 8V0ZM0.875 2.30826H-7.125V18.466H0.875H8.875V2.30826H0.875ZM0.875 18.466H-7.125C-7.125 23.4469 -3.27774 28.7742 2.97986 28.7742V20.7742V12.7742C6.91568 12.7742 8.875 16.0311 8.875 18.466H0.875ZM2.97986 20.7742V28.7742H24.0283V20.7742V12.7742H2.97986V20.7742ZM24.0283 20.7742V28.7742C30.286 28.7742 34.1331 23.4466 34.1331 18.4659H26.1331H18.1331C18.1331 16.0314 20.0921 12.7742 24.0283 12.7742V20.7742ZM26.1331 18.4659H34.1331V2.30826H26.1331H18.1331V18.4659H26.1331ZM26.1331 2.30826H34.1331C34.1331 -2.67254 30.2859 -8 24.0282 -8V0V8C20.0923 8 18.1331 4.74292 18.1331 2.30826H26.1331ZM2.97986 1.1541V9.1541H24.0283V1.1541V-6.8459H2.97986V1.1541ZM24.0283 1.1541V9.1541C23.0126 9.1541 22.2461 8.94864 22.0028 8.88122C21.9087 8.85513 21.7818 8.81646 21.8878 8.84835C21.9324 8.86177 22.1272 8.92086 22.3734 8.98016L24.2469 1.20263L26.1204 -6.5749C26.3302 -6.52436 26.4892 -6.47572 26.4981 -6.47304C26.5684 -6.4519 26.4059 -6.5016 26.2759 -6.53763C25.9609 -6.62494 25.1215 -6.8459 24.0283 -6.8459V1.1541ZM24.2469 1.20263L18.5797 -4.4439C16.7445 -2.60191 10.7311 3.4308 8.64493 5.49205L14.2677 11.1828L19.8905 16.8735C22.0333 14.7562 28.1048 8.66505 29.9141 6.84916L24.2469 1.20263ZM14.2677 11.1828L8.64578 5.49121C8.93137 5.20912 9.42993 4.76913 10.1627 4.37554C10.9192 3.96922 12.0651 3.5412 13.5041 3.5412V11.5412V19.5412C16.9793 19.5412 19.1789 17.5764 19.8896 16.8744L14.2677 11.1828ZM13.5041 11.5412V3.5412C14.9434 3.5412 16.0897 3.96942 16.8467 4.37618C17.5797 4.77008 18.0778 5.21012 18.3619 5.49075L12.7399 11.1823L7.11793 16.8738C7.82732 17.5745 10.0273 19.5412 13.5041 19.5412V11.5412ZM12.7399 11.1823L18.3625 5.49134C16.2765 3.43033 10.2633 -2.6022 8.42749 -4.44433L2.76087 1.20274L-2.90575 6.84981C-1.09756 8.66426 4.97473 14.7563 7.11734 16.8732L12.7399 11.1823ZM2.76087 1.20274L4.63079 8.98113C4.8784 8.92161 5.07426 8.86223 5.11987 8.84851C5.22757 8.8161 5.09992 8.85498 5.0071 8.88073C4.76575 8.94768 3.9978 9.1541 2.97986 9.1541V1.1541V-6.8459C1.88431 -6.8459 1.04333 -6.62392 0.73011 -6.53703C0.601354 -6.50131 0.438065 -6.45137 0.510001 -6.47302C0.519839 -6.47598 0.679797 -6.52489 0.890949 -6.57565L2.76087 1.20274ZM1.9274 18.4659H9.9274V2.30826H1.9274H-6.0726V18.4659H1.9274ZM1.9274 2.30826H9.9274C9.9274 2.98648 9.83328 3.51946 9.77016 3.81517C9.7392 3.96021 9.71113 4.06797 9.70145 4.10471C9.69645 4.12368 9.69314 4.13575 9.69534 4.12766C9.70228 4.10214 9.69173 4.14096 9.70051 4.10867C9.70304 4.09939 9.70683 4.08541 9.71116 4.06934L1.98631 1.98929L-5.73855 -0.0907563C-5.70802 -0.204158 -5.80861 0.153199 -5.87732 0.475078C-5.96294 0.876173 -6.0726 1.51697 -6.0726 2.30826H1.9274ZM1.98631 1.98929L-3.68098 7.63569C-2.28719 9.03464 1.93766 13.2731 4.68192 16.0098L10.3309 10.3451L15.98 4.68044C13.2566 1.96464 9.04924 -2.2563 7.65359 -3.65711L1.98631 1.98929ZM10.3309 10.3451L4.84549 4.5219C1.9424 7.25659 -2.41941 11.7952 -3.79885 13.2377L1.983 18.7667L7.76485 24.2958C9.19705 22.7981 13.2696 18.5673 15.8164 16.1683L10.3309 10.3451ZM1.983 18.7667L9.73891 16.8056C9.72521 16.7515 9.68714 16.6062 9.7053 16.6759C9.70788 16.6858 9.73367 16.784 9.76279 16.9177C9.82293 17.194 9.9274 17.7496 9.9274 18.4659H1.9274H-6.0726C-6.0726 19.289 -5.95273 19.9459 -5.871 20.3214C-5.83108 20.5047 -5.79294 20.6519 -5.77761 20.7107C-5.7467 20.8293 -5.77162 20.7329 -5.77291 20.7278L1.983 18.7667ZM24.0282 19.6201V11.6201H2.97986V19.6201V27.6201H24.0282V19.6201ZM2.97986 19.6201V11.6201C3.94988 11.6201 4.68503 11.8075 4.95787 11.8817C5.08165 11.9153 5.19208 11.9498 5.13466 11.9323C5.12293 11.9287 4.96264 11.879 4.76959 11.8285L2.74257 19.5674L0.715549 27.3063C0.561741 27.2661 0.440228 27.2281 0.46721 27.2363C0.473276 27.2382 0.465308 27.2358 0.474181 27.2385C0.477727 27.2396 0.483223 27.2412 0.48958 27.2432C0.502086 27.247 0.521936 27.253 0.545733 27.2601C0.592406 27.274 0.66794 27.2961 0.760375 27.3212C1.11121 27.4166 1.92577 27.6201 2.97986 27.6201V19.6201ZM2.74257 19.5674L8.52364 25.0972C10.0061 23.5475 14.0987 19.2989 16.5899 16.9618L11.1163 11.1274L5.64273 5.29301C2.7799 7.97881 -1.61558 12.55 -3.0385 14.0375L2.74257 19.5674ZM11.1163 11.1274L5.47426 16.799C5.82502 17.148 6.15137 17.472 6.41237 17.7299L12.0354 12.0394L17.6584 6.34889C17.4168 6.11016 17.1055 5.80115 16.7584 5.45577L11.1163 11.1274ZM12.0354 12.0394L6.40667 17.7243C8.08584 19.3869 10.5383 20.6954 13.504 20.6954V12.6954V4.69536C15.4153 4.69536 16.8523 5.55083 17.6641 6.35452L12.0354 12.0394ZM13.504 12.6954V20.6954C16.4688 20.6954 18.9213 19.3876 20.6005 17.7252L14.9722 12.0399L9.34385 6.35469C10.1567 5.55 11.5937 4.69536 13.504 4.69536V12.6954ZM14.9722 12.0399L20.5953 17.7303C20.8564 17.4723 21.183 17.148 21.5335 16.7993L15.8918 11.1274L10.25 5.4555C9.90218 5.80145 9.59074 6.11071 9.34904 6.34955L14.9722 12.0399ZM15.8918 11.1274L10.4187 16.9622C12.9096 19.2987 17.0013 23.5466 18.4842 25.097L24.2655 19.5674L30.0468 14.0378C28.6235 12.5497 24.2283 7.97847 21.3649 5.29257L15.8918 11.1274ZM24.2655 19.5674L22.2385 11.8285C22.045 11.8791 21.8844 11.9289 21.8726 11.9325C21.815 11.9501 21.9256 11.9155 22.0496 11.8818C22.3237 11.8073 23.0586 11.6201 24.0282 11.6201V19.6201V27.6201C25.0819 27.6201 25.8963 27.4168 26.2483 27.3211C26.3409 27.2959 26.4165 27.2737 26.4632 27.2598C26.487 27.2527 26.5069 27.2467 26.5194 27.2429C26.5258 27.241 26.5312 27.2393 26.5348 27.2382C26.5431 27.2357 26.5362 27.2378 26.5417 27.2361C26.5686 27.2279 26.4467 27.2659 26.2925 27.3063L24.2655 19.5674ZM25.0807 18.4659H17.0807C17.0807 17.7495 17.1852 17.194 17.245 16.9188C17.274 16.7855 17.2997 16.6877 17.3022 16.6783C17.3199 16.6101 17.2823 16.7536 17.2683 16.8093L25.0251 18.7667L32.7819 20.7242C32.7803 20.7308 32.7558 20.8254 32.7863 20.7083C32.8015 20.65 32.8395 20.5031 32.8793 20.3202C32.9608 19.9459 33.0807 19.289 33.0807 18.4659H25.0807ZM25.0251 18.7667L30.8073 13.2381C29.427 11.7944 25.0656 7.25627 22.1623 4.52166L16.6772 10.3452L11.192 16.1687C13.7385 18.5671 17.8105 22.7973 19.2429 24.2954L25.0251 18.7667ZM16.6772 10.3452L22.3261 16.0099C25.0706 13.2731 29.295 9.03484 30.6891 7.63549L25.0218 1.98918L19.3544 -3.65713C17.9581 -2.25564 13.7515 1.96475 11.0283 4.68039L16.6772 10.3452ZM25.0218 1.98918L17.2969 4.06923C17.3012 4.08526 17.305 4.09919 17.3075 4.10844C17.3149 4.13564 17.3071 4.10687 17.3127 4.12731C17.3148 4.13534 17.3115 4.12323 17.3065 4.10422C17.2968 4.0674 17.2688 3.95966 17.2378 3.81466C17.1747 3.51914 17.0807 2.9863 17.0807 2.30821H25.0807H33.0807C33.0807 1.51705 32.971 0.87636 32.8855 0.475431C32.8167 0.153349 32.7163 -0.203612 32.7466 -0.090865L25.0218 1.98918ZM25.0807 2.30821H17.0807V18.4659H25.0807H33.0807V2.30821H25.0807Z" fill="white" mask="url(#path-3-inside-2_2742_991)"/>
</svg>
