<svg width="254" height="254" viewBox="0 0 254 254" fill="none" xmlns="http://www.w3.org/2000/svg">
<ellipse cx="126.938" cy="126.938" rx="126.938" ry="126.938" fill="#F6517C"/>
<path fill-rule="evenodd" clip-rule="evenodd" d="M30.0389 103.462C31.6013 103.444 33.2505 103.765 34.619 104.083L35.8612 104.161C37.5197 104.561 39.4956 104.624 41.1405 105.016L67.0712 105.093C69.0563 105.093 70.7285 104.927 72.3504 104.549C73.7299 104.228 75.195 104.403 76.5433 104.083C77.1304 103.944 79.738 103.449 80.2698 103.772C80.3996 103.809 80.5177 103.878 80.6129 103.973C80.708 104.068 80.7771 104.187 80.8133 104.316C81.2081 104.839 80.9682 108.08 80.9682 109.055C80.9682 112.834 80.8907 116.736 80.8907 120.397C80.8907 121.404 81.1333 124.306 80.7357 124.902C80.4861 125.645 79.0327 126.073 78.0962 125.601C77.4099 125.256 76.8659 124.225 76.4657 123.581C74.4655 120.364 72.6227 117.05 70.643 113.871C69.9915 112.825 69.5313 111.236 68.5469 110.531C68.1811 110.269 65.846 109.96 65.0532 110.22C63.8977 110.599 63.966 111.934 63.9663 113.483V121.174C63.9147 130.287 63.863 139.402 63.8114 148.518V155.742C63.8114 156.568 63.6039 158.071 63.9663 158.616C64.4575 160.02 67.876 160.71 69.2456 161.413C70.0384 161.82 70.2817 161.88 70.5654 162.811C70.6249 163.006 70.7917 163.253 70.7204 163.588C70.6483 163.928 70.4945 164.282 70.4098 164.598C68.6913 165.718 64.638 165.142 62.0251 165.142H50.6901C48.9278 165.142 46.7082 165.41 45.1002 165.064H43.3918C42.0602 165.064 40.589 165.062 39.5877 164.831C39.4067 164.598 39.2255 164.365 39.0443 164.131C39.0094 163.192 38.9465 162.391 39.4324 161.801C39.8062 161.348 40.5499 161.273 41.1405 161.024C41.7178 160.781 42.418 160.389 43.0037 160.17C44.3425 159.669 45.5109 159.603 45.8764 158.15C45.928 146.862 45.9797 135.572 46.0313 124.281C46.0313 120.853 46.1087 117.339 46.1087 114.027C46.1087 112.316 46.2855 110.581 45.0218 110.142L43.4691 110.065C40.6513 110.066 40.4199 112.054 39.3544 113.793C37.6808 116.526 35.9245 119.304 34.2303 122.028C33.6533 122.956 32.8819 124.867 31.9788 125.368C31.3084 125.74 30.1692 125.433 29.572 125.291C28.8119 124.088 29.0286 122.037 29.0286 120.086C29.0545 116.332 29.0802 112.577 29.1061 108.822C29.1061 107.495 28.8425 104.506 29.4167 103.772C29.5463 103.608 29.8689 103.588 30.0389 103.462ZM100.843 117.134C107.834 117.016 114.702 118.172 117.614 122.106C118.799 123.709 119.865 126.652 118.623 129.097C117.568 131.171 115.211 132.359 112.101 132.36C111.312 132.36 110.367 132.474 109.694 132.282C107.188 131.568 105.112 130.658 104.182 128.398C103.624 127.042 104.11 125.02 104.414 123.815C104.603 123.068 104.658 122.122 104.027 121.872C103.111 121.152 100.827 121.674 99.9892 122.029C97.181 123.214 96.0927 126.49 97.9712 129.486C99.2076 131.459 103.46 133.61 105.813 134.612C107.067 135.147 108.39 136.009 109.539 136.71C110.211 137.12 110.965 137.297 111.635 137.72C114.787 139.707 117.846 142.232 119.166 146.032C120.472 149.793 119.736 155.022 118.079 157.762C117.867 158.112 117.835 158.514 117.614 158.849C115.468 162.093 112.044 163.865 108.064 165.297C106.818 165.746 105.467 165.778 104.105 166.074H102.862C101.4 166.383 99.1573 166.477 97.6604 166.152H96.3405C95.1757 166.022 94.0111 165.892 92.8468 165.763C89.4084 164.847 85.346 163.599 83.6081 161.024C82.713 159.699 81.7343 157.053 82.5989 154.966C83.1054 153.743 84.0769 152.747 85.1608 152.091C85.9094 151.638 86.7522 151.558 87.7225 151.314C92.1013 150.215 96.4867 151.891 97.4269 155.276C97.7533 156.449 97.3699 158.535 97.1171 159.549C96.998 160.024 96.7065 160.761 97.0397 161.258C97.5315 161.993 99.4933 161.968 100.533 161.724C100.896 161.698 101.258 161.672 101.62 161.646C103.871 161.07 104.965 160.022 105.424 157.607C105.783 155.717 103.809 153.272 102.862 152.557C102.079 151.966 101.312 151.233 100.455 150.693C99.2049 149.905 97.8724 149.454 96.5738 148.673C93.9226 147.081 91.0758 145.662 88.6541 143.857C86.7871 142.465 84.4212 139.286 83.6858 136.788C81.7894 130.347 84.4637 124.258 88.1885 121.484C88.6697 121.126 89.1335 120.526 89.6642 120.241C91.8362 119.077 94.0342 118.231 96.729 117.522L100.843 117.134ZM142.146 117.289C146.913 117.212 151.465 117.621 154.801 119.076C155.585 119.417 156.905 120.13 157.597 120.629L158.373 121.484C159.844 122.605 161.327 125.376 160.547 128.164C160.102 129.752 158.873 131.222 157.441 131.816C154.638 132.977 150.052 132.638 147.892 131.194C146.471 130.245 144.964 128.267 145.562 125.601C145.802 124.532 146.013 123.727 146.028 122.416C145.689 122.187 145.488 121.924 145.019 121.795C144.175 121.56 142.976 121.762 142.302 121.95C141.81 122.087 141.475 122.047 141.059 122.261C139.456 123.087 137.872 125.352 138.652 128.009C138.844 128.659 139.284 129.355 139.662 129.873C141.034 131.762 143.781 132.939 145.95 134.069C148.902 135.605 152.074 137.132 154.801 138.962C155.133 139.186 155.412 139.582 155.733 139.817C156.476 140.363 157.439 140.951 157.985 141.681C158.779 142.731 159.481 143.849 160.081 145.022C161.141 147.077 161.826 150.945 161.091 154.032C160.672 155.788 160.139 157.349 159.305 158.694C156.738 162.824 152.323 164.785 146.882 166.074C146.076 166.265 145.406 166.049 144.553 166.229C143.152 166.524 140.608 166.614 139.196 166.306H137.876C136.913 166.095 135.852 166.233 134.849 165.996C130.398 164.944 125.94 163.536 124.29 159.703C121.292 152.743 130.136 149.51 135.935 151.936C137.871 152.745 139.641 155.188 138.885 158.383C138.654 159.361 138.295 160.401 138.497 161.413C139.37 161.974 141.132 162.121 142.457 161.801C142.794 161.775 143.13 161.75 143.466 161.724C145.223 161.129 146.095 160.625 146.65 158.771C146.825 158.186 146.996 157.357 146.804 156.596C146.715 156.241 146.65 155.689 146.494 155.276C145.632 153.004 142.397 151.141 140.283 149.993C134.732 146.982 128.525 144.406 125.92 138.419C125.399 137.214 124.984 135.966 124.678 134.69V133.136C124.54 132.487 124.521 131.125 124.678 130.418C124.945 129.14 125.335 127.891 125.842 126.689C126.715 124.687 128.154 122.61 129.802 121.406C132.022 119.785 134.543 118.684 137.566 117.833C138.641 117.531 139.913 117.617 141.059 117.367C141.421 117.288 141.893 117.448 142.146 117.289ZM173.278 151.47C177.21 151.451 180.159 152.689 181.664 155.121C182.022 155.699 182.239 156.437 182.439 157.141C183.756 161.75 180.554 165.142 177.394 166.151C176.477 166.444 175.504 166.238 174.443 166.462C173.707 166.618 172.631 166.532 171.958 166.385C171.153 166.208 170.5 166.394 169.784 166.151C167.655 165.429 166.26 164.172 165.282 162.267C164.511 160.766 164.317 157.898 165.049 156.13C165.895 154.092 167.658 152.539 169.941 151.936C170.472 151.795 170.901 151.728 171.337 151.625C171.968 151.478 172.796 151.765 173.278 151.47ZM195.172 151.625C199.241 151.571 202.476 152.364 204.022 154.81C204.41 155.417 204.724 156.069 204.954 156.752C206.427 161.361 203.561 164.856 200.53 166.074C199.492 166.49 196.748 166.832 195.405 166.54C194.051 166.245 192.894 166.476 191.757 165.996C189.384 164.996 186.405 162.163 187.253 158.305C187.439 157.462 187.355 156.9 187.641 156.208C188.429 154.309 190.142 152.689 192.223 152.091C192.917 151.891 193.535 151.843 194.164 151.702C194.504 151.627 194.934 151.77 195.172 151.625ZM217.628 88C219.944 88.0067 220.056 90.5036 220.617 92.3202C221.997 96.8131 222.715 101.758 223.652 106.734C223.76 107.67 223.869 108.606 223.978 109.542C224.211 111.035 224.185 112.331 223.133 113.04C221.515 114.128 220.134 113.303 219.6 111.746C219.37 111.076 219.416 110.215 219.333 109.445C218.979 106.069 218.414 102.718 217.641 99.4124C217.516 98.8855 217.503 98.023 217.193 97.6463C216.986 97.7548 215.927 100.835 215.777 101.301C215.41 102.256 215.044 103.212 214.677 104.169C213.911 106.072 212.792 110.647 211.327 111.563C210.318 112.194 208.746 111.856 208.218 111.056C206.078 106.852 203.937 102.648 201.796 98.4446H201.747C201.545 98.5705 201.38 101.669 201.323 102.209C201.159 104.18 200.994 106.153 200.828 108.127C200.686 109.416 200.784 110.819 200.38 111.89C199.958 113.013 198.564 114.277 196.993 113.403C195.504 112.575 195.719 110.918 196.001 108.938C196.03 108.498 196.058 108.058 196.088 107.618C196.803 103.091 196.961 98.275 197.466 93.6272C197.738 91.1275 197.518 88.5067 199.969 88.1696C201.941 87.8982 202.637 90.304 203.295 91.4618C204.913 94.6765 206.529 97.8916 208.146 101.107C208.405 101.569 209.482 104.045 209.815 104.145C209.823 104.137 209.831 104.129 209.839 104.12C211.306 100.281 212.774 96.4402 214.242 92.5992C215.112 90.3944 215.076 88.6211 217.628 88ZM179.807 88.3634L188.962 88.4475C189.897 88.4475 192.358 88.2016 192.99 88.4844C193.836 88.8613 194.903 89.9175 194.756 91.2438C194.533 93.2522 191.166 93.3385 188.805 93.1312C188.253 93.1361 187.7 93.1402 187.148 93.1438C187.145 98.2905 187.14 103.438 187.137 108.586C187.137 110.789 187.529 112.798 185.879 113.463C185.621 113.567 185.24 113.704 184.837 113.645C181.979 113.232 182.468 110.886 182.468 107.739C182.458 102.902 182.45 98.0654 182.444 93.2281C182.385 93.0295 180.62 93.1797 180.218 93.1797C178.28 93.1806 176.25 93.0759 175.161 92.2001C174.822 91.926 174.636 91.1604 174.762 90.614C174.998 89.59 175.588 88.7412 176.602 88.5087L178.295 88.4475L179.807 88.3634Z" fill="white"/>
</svg>
