<svg width="25" height="26" viewBox="0 0 25 26" fill="none" xmlns="http://www.w3.org/2000/svg">
<g clip-path="url(#clip0_2742_1004)">
<path d="M12.5 26C9.10523 26 8.67953 25.985 7.34624 25.9218C6.01577 25.8587 5.10713 25.6389 4.31201 25.3176C3.49001 24.9853 2.79292 24.5408 2.09802 23.8181C1.40308 23.0954 0.975643 22.3703 0.656232 21.5155C0.347208 20.6886 0.135943 19.7436 0.0751724 18.3599C0.0143646 16.9733 0 16.5306 0 13C0 9.46944 0.0143646 9.02671 0.0751724 7.64009C0.135943 6.2564 0.347208 5.31141 0.656232 4.48453C0.975681 3.62967 1.40312 2.90466 2.09802 2.18192C2.79296 1.45921 3.49001 1.01466 4.31201 0.682426C5.10713 0.361151 6.01577 0.141394 7.34624 0.0782204C8.67953 0.0149727 9.10523 1.90735e-06 12.5 1.90735e-06C15.8948 1.90735e-06 16.3205 0.0149727 17.6538 0.0782204C18.9842 0.141357 19.8929 0.361151 20.688 0.682426C21.5099 1.01466 22.2071 1.45921 22.902 2.18192C23.5969 2.90466 24.0244 3.62967 24.3438 4.48453C24.6527 5.31141 24.8641 6.2564 24.9248 7.64009C24.9856 9.02671 25 9.46944 25 13C25 16.5306 24.9856 16.9733 24.9248 18.3599C24.8641 19.7436 24.6527 20.6886 24.3438 21.5155C24.0244 22.3703 23.5969 23.0954 22.902 23.8181C22.2071 24.5408 21.5099 24.9853 20.688 25.3176C19.8929 25.6389 18.9842 25.8587 17.6538 25.9218C16.3205 25.985 15.8948 26 12.5 26ZM12.5 23.6577C15.8376 23.6577 16.233 23.6444 17.5511 23.5819C18.7698 23.5241 19.4317 23.3123 19.8721 23.1343C20.4556 22.8984 20.872 22.6167 21.3094 22.1618C21.7468 21.7069 22.0177 21.2738 22.2445 20.667C22.4157 20.2089 22.6193 19.5206 22.6749 18.2531C22.735 16.8823 22.7478 16.4711 22.7478 13C22.7478 9.52885 22.735 9.11771 22.6749 7.74687C22.6193 6.47937 22.4157 5.79106 22.2445 5.333C22.0177 4.72616 21.7468 4.2931 21.3094 3.83821C20.872 3.38329 20.4556 3.1016 19.8722 2.86573C19.4317 2.68771 18.7698 2.47592 17.5511 2.41815C16.2332 2.35559 15.8379 2.34234 12.5 2.34234C9.16211 2.34234 8.76685 2.35559 7.44891 2.41818C6.23016 2.47592 5.56833 2.68771 5.12788 2.86573C4.54438 3.1016 4.12798 3.38329 3.69059 3.83821C3.25318 4.2931 2.9823 4.72619 2.75552 5.33296C2.58433 5.79106 2.38074 6.4794 2.32514 7.74687C2.265 9.11771 2.25224 9.52885 2.25224 13C2.25224 16.4711 2.265 16.8823 2.32514 18.2531C2.38074 19.5206 2.58433 20.2089 2.75552 20.667C2.9823 21.2738 3.25318 21.7069 3.69055 22.1618C4.12798 22.6167 4.54442 22.8984 5.12784 23.1343C5.56833 23.3123 6.2302 23.5241 7.44891 23.5819C8.76703 23.6444 9.16243 23.6577 12.5 23.6577Z" fill="white"/>
</g>
<g clip-path="url(#clip1_2742_1004)">
<path d="M12.5986 16.6846C10.233 16.6846 8.31528 14.7669 8.31528 12.4013C8.31528 10.0357 10.233 8.11799 12.5986 8.11799C14.9642 8.11799 16.8819 10.0357 16.8819 12.4013C16.8819 14.7669 14.9642 16.6846 12.5986 16.6846ZM12.5986 5.80272C8.95426 5.80272 6 8.757 6 12.4013C6 16.0456 8.95426 18.9999 12.5986 18.9999C16.2429 18.9999 19.1972 16.0456 19.1972 12.4013C19.1972 8.757 16.2429 5.80272 12.5986 5.80272ZM20.9999 5.54201C20.9999 6.39366 20.3095 7.08399 19.4579 7.08399C18.6063 7.08399 17.9159 6.39366 17.9159 5.54201C17.9159 4.6904 18.6063 4 19.4579 4C20.3095 4 20.9999 4.6904 20.9999 5.54201Z" fill="white"/>
</g>
<defs>
<clipPath id="clip0_2742_1004">
<rect width="25" height="26" fill="white"/>
</clipPath>
<clipPath id="clip1_2742_1004">
<rect width="15" height="15" fill="white" transform="translate(6 4)"/>
</clipPath>
</defs>
</svg>
