<svg width="25" height="26" viewBox="0 0 25 26" fill="none" xmlns="http://www.w3.org/2000/svg">
<path d="M8.11911 4.45808L9.30876 4.09949C10.4289 3.76184 11.6258 4.30751 12.1055 5.3746L12.846 7.02193C13.2549 7.93148 13.0394 9.00041 12.3101 9.68052L11.0165 10.8868C11.0005 10.9017 10.9874 10.9194 10.9778 10.9391C10.8425 11.2156 11.0475 11.9546 11.6922 13.0711C12.4188 14.3297 12.9804 14.8277 13.2398 14.7504L14.9379 14.2312C15.8913 13.9397 16.9245 14.2873 17.5078 15.0958L18.5596 16.5534C19.2424 17.4997 19.1196 18.8052 18.2723 19.6075L17.3678 20.4642C16.7289 21.0693 15.8342 21.3232 14.9727 21.1441C12.4519 20.6201 10.1934 18.5901 8.17834 15.0999C6.16124 11.6061 5.53324 8.63283 6.34339 6.18643C6.61855 5.35554 7.28108 4.71068 8.11911 4.45808ZM8.42937 5.48739C7.92656 5.63895 7.52904 6.02587 7.36394 6.5244C6.66587 8.63233 7.23132 11.3095 9.10936 14.5623C10.9856 17.8121 13.0193 19.64 15.1915 20.0916C15.7084 20.1991 16.2452 20.0467 16.6286 19.6836L17.5331 18.827C17.9893 18.3949 18.0554 17.692 17.6878 17.1824L16.636 15.7248C16.3219 15.2895 15.7656 15.1023 15.2522 15.2593L13.5505 15.7795C12.6086 16.0603 11.7234 15.2753 10.7612 13.6087C9.94656 12.1978 9.66378 11.1786 10.0121 10.4667C10.0794 10.3291 10.1714 10.205 10.2834 10.1005L11.5769 8.89428C11.9696 8.52806 12.0857 7.95248 11.8655 7.46273L11.1249 5.8154C10.8666 5.24081 10.2222 4.94699 9.61902 5.1288L8.42937 5.48739Z" fill="white"/>
<path d="M12.5 26C9.10523 26 8.67953 25.985 7.34624 25.9218C6.01577 25.8587 5.10713 25.6389 4.31201 25.3176C3.49001 24.9853 2.79292 24.5408 2.09802 23.8181C1.40308 23.0954 0.975643 22.3703 0.656232 21.5155C0.347208 20.6886 0.135943 19.7436 0.0751724 18.3599C0.0143646 16.9733 0 16.5306 0 13C0 9.46944 0.0143646 9.02671 0.0751724 7.64009C0.135943 6.2564 0.347208 5.31141 0.656232 4.48453C0.975681 3.62967 1.40312 2.90466 2.09802 2.18192C2.79296 1.45921 3.49001 1.01466 4.31201 0.682426C5.10713 0.361151 6.01577 0.141394 7.34624 0.0782204C8.67953 0.0149727 9.10523 1.90735e-06 12.5 1.90735e-06C15.8948 1.90735e-06 16.3205 0.0149727 17.6538 0.0782204C18.9842 0.141357 19.8929 0.361151 20.688 0.682426C21.5099 1.01466 22.2071 1.45921 22.902 2.18192C23.5969 2.90466 24.0244 3.62967 24.3438 4.48453C24.6527 5.31141 24.8641 6.2564 24.9248 7.64009C24.9856 9.02671 25 9.46944 25 13C25 16.5306 24.9856 16.9733 24.9248 18.3599C24.8641 19.7436 24.6527 20.6886 24.3438 21.5155C24.0244 22.3703 23.5969 23.0954 22.902 23.8181C22.2071 24.5408 21.5099 24.9853 20.688 25.3176C19.8929 25.6389 18.9842 25.8587 17.6538 25.9218C16.3205 25.985 15.8948 26 12.5 26ZM12.5 23.6577C15.8376 23.6577 16.233 23.6444 17.5511 23.5819C18.7698 23.5241 19.4317 23.3123 19.8721 23.1343C20.4556 22.8984 20.872 22.6167 21.3094 22.1618C21.7468 21.7069 22.0177 21.2738 22.2445 20.667C22.4157 20.2089 22.6193 19.5206 22.6749 18.2531C22.735 16.8823 22.7478 16.4711 22.7478 13C22.7478 9.52885 22.735 9.11771 22.6749 7.74687C22.6193 6.47937 22.4157 5.79106 22.2445 5.333C22.0177 4.72616 21.7468 4.2931 21.3094 3.83821C20.872 3.38329 20.4556 3.1016 19.8722 2.86573C19.4317 2.68771 18.7698 2.47592 17.5511 2.41815C16.2332 2.35559 15.8379 2.34234 12.5 2.34234C9.16211 2.34234 8.76685 2.35559 7.44891 2.41818C6.23016 2.47592 5.56833 2.68771 5.12788 2.86573C4.54438 3.1016 4.12798 3.38329 3.69059 3.83821C3.25318 4.2931 2.9823 4.72619 2.75552 5.33296C2.58433 5.79106 2.38074 6.4794 2.32514 7.74687C2.265 9.11771 2.25224 9.52885 2.25224 13C2.25224 16.4711 2.265 16.8823 2.32514 18.2531C2.38074 19.5206 2.58433 20.2089 2.75552 20.667C2.9823 21.2738 3.25318 21.7069 3.69055 22.1618C4.12798 22.6167 4.54442 22.8984 5.12784 23.1343C5.56833 23.3123 6.2302 23.5241 7.44891 23.5819C8.76703 23.6444 9.16243 23.6577 12.5 23.6577Z" fill="white"/>
</svg>
