<svg width="145" height="144" viewBox="0 0 145 144" fill="none" xmlns="http://www.w3.org/2000/svg">
<g clip-path="url(#clip0_2869_14)">
<path d="M0.71875 72C0.71875 111.764 32.9543 144 72.7188 144C112.483 144 144.719 111.764 144.719 72C144.719 32.2355 112.483 0 72.7188 0C32.9543 0 0.71875 32.2355 0.71875 72Z" fill="white"/>
</g>
<path d="M26.9462 27.419C26.3982 27.419 25.8879 27.33 25.4153 27.1519C24.9495 26.967 24.542 26.7101 24.1927 26.3813C23.8502 26.0457 23.583 25.6518 23.3913 25.1998C23.1995 24.7477 23.1036 24.2545 23.1036 23.7203C23.1036 23.186 23.1995 22.6929 23.3913 22.2408C23.583 21.7887 23.8536 21.3983 24.2029 21.0695C24.5523 20.7339 24.9598 20.477 25.4256 20.2989C25.8913 20.114 26.4016 20.0215 26.9564 20.0215C27.5455 20.0215 28.0832 20.1243 28.5695 20.3298C29.0558 20.5284 29.4668 20.8264 29.8024 21.2236L28.9394 22.0353C28.6791 21.7545 28.388 21.5456 28.0661 21.4086C27.7441 21.2647 27.3948 21.1928 27.0181 21.1928C26.6414 21.1928 26.2955 21.2544 25.9804 21.3777C25.6722 21.501 25.4016 21.6757 25.1687 21.9017C24.9427 22.1278 24.7646 22.3949 24.6345 22.7031C24.5112 23.0114 24.4495 23.3504 24.4495 23.7203C24.4495 24.0902 24.5112 24.4292 24.6345 24.7374C24.7646 25.0457 24.9427 25.3128 25.1687 25.5388C25.4016 25.7649 25.6722 25.9395 25.9804 26.0628C26.2955 26.1861 26.6414 26.2478 27.0181 26.2478C27.3948 26.2478 27.7441 26.1793 28.0661 26.0423C28.388 25.8984 28.6791 25.6827 28.9394 25.395L29.8024 26.2169C29.4668 26.6074 29.0558 26.9053 28.5695 27.1108C28.0832 27.3163 27.5421 27.419 26.9462 27.419ZM31.1695 27.3163V22.6107L31.4674 22.9189H29.2379V21.8298H34.375V22.9189H32.1558L32.4538 22.6107V27.3163H31.1695ZM34.5874 27.3163V21.8298H35.8717V25.4464L38.9026 21.8298H40.0739V27.3163H38.7896V23.6997L35.769 27.3163H34.5874ZM41.0823 27.3163V21.8298H42.4282L44.6372 25.7238H44.103L46.425 21.8298H47.627L47.6373 27.3163H46.4763V23.2066L46.6818 23.3401L44.6269 26.7409H44.0721L42.007 23.2477L42.2536 23.186V27.3163H41.0823ZM49.1339 29.3814C48.8668 29.3814 48.5996 29.3369 48.3325 29.2479C48.0654 29.1588 47.8428 29.0355 47.6647 28.878L48.1784 27.9327C48.3085 28.0492 48.4558 28.1417 48.6202 28.2101C48.7846 28.2786 48.9524 28.3129 49.1236 28.3129C49.3565 28.3129 49.5449 28.2547 49.6887 28.1382C49.8326 28.0218 49.9661 27.8266 50.0894 27.5526L50.4079 26.8334L50.5107 26.6793L52.5861 21.8298H53.819L51.2504 27.7581C51.0792 28.1691 50.8874 28.4944 50.6751 28.7341C50.4696 28.9739 50.2367 29.1417 49.9764 29.2376C49.723 29.3335 49.4421 29.3814 49.1339 29.3814ZM50.2641 27.5115L47.788 21.8298H49.1236L51.1374 26.5663L50.2641 27.5115ZM52.8593 27.306L52.921 26.2272C52.9689 26.2341 53.0134 26.2409 53.0545 26.2478C53.0956 26.2546 53.1333 26.258 53.1675 26.258C53.3799 26.258 53.5443 26.193 53.6607 26.0628C53.7771 25.9327 53.8628 25.758 53.9176 25.5388C53.9792 25.3128 54.0203 25.0628 54.0409 24.7888C54.0682 24.508 54.0888 24.2271 54.1025 23.9463L54.195 21.8298H58.6335V27.3163H57.3492V22.5696L57.6471 22.9189H55.0375L55.3149 22.5593L55.2429 24.008C55.2224 24.4943 55.1813 24.9463 55.1197 25.3642C55.0649 25.7751 54.9758 26.1347 54.8525 26.443C54.7361 26.7512 54.5717 26.9909 54.3594 27.1622C54.1539 27.3334 53.8902 27.419 53.5682 27.419C53.4655 27.419 53.3525 27.4088 53.2292 27.3882C53.1127 27.3677 52.9894 27.3403 52.8593 27.306ZM59.6439 27.3163V21.8298H60.9282V25.4464L63.9591 21.8298H65.1303V27.3163H63.8461V23.6997L60.8254 27.3163H59.6439ZM69.1799 27.3882C68.7347 27.3882 68.3272 27.2855 67.9573 27.08C67.5943 26.8745 67.3032 26.5663 67.084 26.1553C66.8717 25.7375 66.7655 25.2101 66.7655 24.573C66.7655 23.9292 66.8682 23.4018 67.0737 22.9908C67.2861 22.5798 67.5737 22.275 67.9368 22.0764C68.2998 21.8709 68.7142 21.7682 69.1799 21.7682C69.7211 21.7682 70.1971 21.8846 70.6081 22.1175C71.0259 22.3504 71.3547 22.6757 71.5944 23.0935C71.841 23.5114 71.9643 24.0045 71.9643 24.573C71.9643 25.1416 71.841 25.6381 71.5944 26.0628C71.3547 26.4806 71.0259 26.806 70.6081 27.0389C70.1971 27.2718 69.7211 27.3882 69.1799 27.3882ZM66.1388 29.3095V21.8298H67.3614V23.1244L67.3203 24.5833L67.423 26.0423V29.3095H66.1388ZM69.0361 26.2889C69.3443 26.2889 69.6183 26.2204 69.8581 26.0834C70.1046 25.9464 70.2998 25.7477 70.4437 25.4875C70.5875 25.2272 70.6594 24.9224 70.6594 24.573C70.6594 24.2169 70.5875 23.9121 70.4437 23.6586C70.2998 23.3984 70.1046 23.1997 69.8581 23.0627C69.6183 22.9257 69.3443 22.8572 69.0361 22.8572C68.7279 22.8572 68.4505 22.9257 68.2039 23.0627C67.9573 23.1997 67.7621 23.3984 67.6183 23.6586C67.4744 23.9121 67.4025 24.2169 67.4025 24.573C67.4025 24.9224 67.4744 25.2272 67.6183 25.4875C67.7621 25.7477 67.9573 25.9464 68.2039 26.0834C68.4505 26.2204 68.7279 26.2889 69.0361 26.2889ZM72.8659 29.3814C72.5988 29.3814 72.3317 29.3369 72.0645 29.2479C71.7974 29.1588 71.5748 29.0355 71.3967 28.878L71.9104 27.9327C72.0406 28.0492 72.1878 28.1417 72.3522 28.2101C72.5166 28.2786 72.6844 28.3129 72.8557 28.3129C73.0885 28.3129 73.2769 28.2547 73.4207 28.1382C73.5646 28.0218 73.6981 27.8266 73.8214 27.5526L74.1399 26.8334L74.2427 26.6793L76.3181 21.8298H77.551L74.9824 27.7581C74.8112 28.1691 74.6194 28.4944 74.4071 28.7341C74.2016 28.9739 73.9687 29.1417 73.7084 29.2376C73.455 29.3335 73.1742 29.3814 72.8659 29.3814ZM73.9961 27.5115L71.52 21.8298H72.8557L74.8694 26.5663L73.9961 27.5115ZM80.1316 27.3882C79.522 27.3882 78.9878 27.2683 78.5288 27.0286C78.0768 26.782 77.724 26.4464 77.4706 26.0217C77.224 25.5971 77.1007 25.1142 77.1007 24.573C77.1007 24.0251 77.2206 23.5422 77.4603 23.1244C77.7069 22.6997 78.0425 22.3675 78.4672 22.1278C78.8987 21.888 79.3885 21.7682 79.9364 21.7682C80.4707 21.7682 80.9467 21.8846 81.3645 22.1175C81.7824 22.3504 82.1111 22.6792 82.3509 23.1038C82.5906 23.5285 82.7105 24.0285 82.7105 24.6039C82.7105 24.6587 82.7071 24.7203 82.7002 24.7888C82.7002 24.8573 82.6968 24.9224 82.6899 24.984H78.1179V24.1313H82.0118L81.5084 24.3984C81.5152 24.0833 81.4502 23.8059 81.3132 23.5662C81.1762 23.3264 80.9878 23.1381 80.7481 23.0011C80.5152 22.8641 80.2446 22.7956 79.9364 22.7956C79.6213 22.7956 79.3439 22.8641 79.1042 23.0011C78.8713 23.1381 78.6864 23.3299 78.5494 23.5764C78.4192 23.8162 78.3542 24.1004 78.3542 24.4292V24.6347C78.3542 24.9635 78.4295 25.2546 78.5802 25.508C78.7309 25.7614 78.9432 25.9567 79.2172 26.0936C79.4912 26.2306 79.8063 26.2991 80.1624 26.2991C80.4707 26.2991 80.7481 26.2512 80.9947 26.1553C81.2413 26.0594 81.4604 25.9087 81.6522 25.7032L82.3406 26.4943C82.094 26.782 81.7824 27.0046 81.4056 27.1622C81.0358 27.3129 80.6111 27.3882 80.1316 27.3882ZM84.3257 27.3163V22.6107L84.6237 22.9189H82.3941V21.8298H87.5313V22.9189H85.312L85.61 22.6107V27.3163H84.3257ZM92.3606 27.3882C91.7853 27.3882 91.2715 27.2683 90.8195 27.0286C90.3742 26.782 90.0249 26.4464 89.7715 26.0217C89.5181 25.5971 89.3913 25.1142 89.3913 24.573C89.3913 24.0251 89.5181 23.5422 89.7715 23.1244C90.0249 22.6997 90.3742 22.3675 90.8195 22.1278C91.2715 21.888 91.7853 21.7682 92.3606 21.7682C92.8949 21.7682 93.3641 21.8778 93.7682 22.0969C94.1792 22.3093 94.4908 22.6244 94.7032 23.0422L93.7168 23.6175C93.5524 23.3573 93.3504 23.1655 93.1106 23.0422C92.8778 22.9189 92.6243 22.8572 92.3503 22.8572C92.0353 22.8572 91.751 22.9257 91.4976 23.0627C91.2441 23.1997 91.0455 23.3984 90.9017 23.6586C90.7578 23.9121 90.6859 24.2169 90.6859 24.573C90.6859 24.9292 90.7578 25.2375 90.9017 25.4977C91.0455 25.7512 91.2441 25.9464 91.4976 26.0834C91.751 26.2204 92.0353 26.2889 92.3503 26.2889C92.6243 26.2889 92.8778 26.2272 93.1106 26.1039C93.3504 25.9806 93.5524 25.7888 93.7168 25.5286L94.7032 26.1039C94.4908 26.5149 94.1792 26.8334 93.7682 27.0594C93.3641 27.2786 92.8949 27.3882 92.3606 27.3882ZM98.4436 27.3163V26.2067L98.3716 25.9704V24.0285C98.3716 23.6518 98.2586 23.3607 98.0326 23.1552C97.8066 22.9429 97.4641 22.8367 97.0052 22.8367C96.6969 22.8367 96.3921 22.8846 96.0907 22.9805C95.7962 23.0764 95.5462 23.21 95.3407 23.3812L94.8373 22.4463C95.1318 22.2202 95.4811 22.0524 95.8853 21.9428C96.2962 21.8264 96.7209 21.7682 97.1593 21.7682C97.9538 21.7682 98.5669 21.96 98.9984 22.3435C99.4367 22.7202 99.6559 23.3059 99.6559 24.1004V27.3163H98.4436ZM96.7175 27.3882C96.3065 27.3882 95.9469 27.3197 95.6387 27.1827C95.3304 27.0389 95.0907 26.8437 94.9195 26.5971C94.7551 26.3437 94.6729 26.0594 94.6729 25.7443C94.6729 25.4361 94.7448 25.1587 94.8887 24.9121C95.0393 24.6655 95.2825 24.4703 95.6181 24.3265C95.9538 24.1826 96.399 24.1107 96.9538 24.1107H98.5463V24.9635H97.0463C96.6079 24.9635 96.3134 25.0354 96.1627 25.1792C96.012 25.3162 95.9366 25.4875 95.9366 25.6929C95.9366 25.9258 96.0291 26.1108 96.214 26.2478C96.399 26.3847 96.6558 26.4532 96.9846 26.4532C97.2997 26.4532 97.5805 26.3813 97.8271 26.2375C98.0805 26.0936 98.262 25.8813 98.3716 25.6005L98.5874 26.371C98.4641 26.693 98.2415 26.943 97.9196 27.1211C97.6045 27.2992 97.2038 27.3882 96.7175 27.3882ZM100.526 27.3163V21.8298H101.872L104.081 25.7238H103.547L105.869 21.8298H107.071L107.081 27.3163H105.92V23.2066L106.125 23.3401L104.071 26.7409H103.516L101.451 23.2477L101.697 23.186V27.3163H100.526ZM113.622 27.3163V21.8298H114.907V27.3163H113.622ZM110.756 23.6381C111.461 23.6381 111.995 23.7956 112.358 24.1107C112.728 24.4258 112.913 24.871 112.913 25.4464C112.913 26.0423 112.708 26.508 112.297 26.8437C111.893 27.1724 111.317 27.3334 110.571 27.3266L108.084 27.3163V21.8298H109.369V23.6278L110.756 23.6381ZM110.458 26.3813C110.834 26.3882 111.122 26.3094 111.321 26.145C111.519 25.9806 111.619 25.7409 111.619 25.4258C111.619 25.1107 111.519 24.8847 111.321 24.7477C111.129 24.6039 110.841 24.5285 110.458 24.5217L109.369 24.5114V26.371L110.458 26.3813ZM118.472 27.3882C117.862 27.3882 117.328 27.2683 116.869 27.0286C116.417 26.782 116.064 26.4464 115.811 26.0217C115.564 25.5971 115.441 25.1142 115.441 24.573C115.441 24.0251 115.561 23.5422 115.801 23.1244C116.047 22.6997 116.383 22.3675 116.808 22.1278C117.239 21.888 117.729 21.7682 118.277 21.7682C118.811 21.7682 119.287 21.8846 119.705 22.1175C120.123 22.3504 120.452 22.6792 120.691 23.1038C120.931 23.5285 121.051 24.0285 121.051 24.6039C121.051 24.6587 121.047 24.7203 121.041 24.7888C121.041 24.8573 121.037 24.9224 121.03 24.984H116.458V24.1313H120.352L119.849 24.3984C119.856 24.0833 119.791 23.8059 119.654 23.5662C119.517 23.3264 119.328 23.1381 119.088 23.0011C118.856 22.8641 118.585 22.7956 118.277 22.7956C117.962 22.7956 117.684 22.8641 117.445 23.0011C117.212 23.1381 117.027 23.3299 116.89 23.5764C116.76 23.8162 116.695 24.1004 116.695 24.4292V24.6347C116.695 24.9635 116.77 25.2546 116.921 25.508C117.071 25.7614 117.284 25.9567 117.558 26.0936C117.832 26.2306 118.147 26.2991 118.503 26.2991C118.811 26.2991 119.088 26.2512 119.335 26.1553C119.582 26.0594 119.801 25.9087 119.993 25.7032L120.681 26.4943C120.434 26.782 120.123 27.0046 119.746 27.1622C119.376 27.3129 118.951 27.3882 118.472 27.3882ZM20.942 38.3163V36.4464L21.127 36.6621H19.4831C18.7296 36.6621 18.1372 36.5046 17.7056 36.1895C17.281 35.8676 17.0686 35.4052 17.0686 34.8025C17.0686 34.1586 17.2947 33.6689 17.7467 33.3333C18.2057 32.9976 18.8153 32.8298 19.5756 32.8298H22.0928V38.3163H20.942ZM16.9967 38.3163L18.4762 36.2203H19.7913L18.3735 38.3163H16.9967ZM20.942 36.0354V33.5696L21.127 33.9086H19.6167C19.2194 33.9086 18.9112 33.984 18.692 34.1346C18.4796 34.2785 18.3735 34.5148 18.3735 34.8436C18.3735 35.46 18.7742 35.7683 19.5756 35.7683H21.127L20.942 36.0354ZM26.1423 38.3882C25.6971 38.3882 25.2895 38.2855 24.9196 38.08C24.5566 37.8745 24.2655 37.5663 24.0463 37.1553C23.834 36.7375 23.7278 36.2101 23.7278 35.573C23.7278 34.9292 23.8306 34.4018 24.0361 33.9908C24.2484 33.5798 24.5361 33.275 24.8991 33.0764C25.2621 32.8709 25.6765 32.7682 26.1423 32.7682C26.6834 32.7682 27.1594 32.8846 27.5704 33.1175C27.9882 33.3504 28.317 33.6757 28.5567 34.0935C28.8033 34.5114 28.9266 35.0045 28.9266 35.573C28.9266 36.1416 28.8033 36.6381 28.5567 37.0628C28.317 37.4806 27.9882 37.806 27.5704 38.0389C27.1594 38.2718 26.6834 38.3882 26.1423 38.3882ZM23.1011 40.3095V32.8298H24.3237V34.1244L24.2826 35.5833L24.3854 37.0423V40.3095H23.1011ZM25.9984 37.2889C26.3067 37.2889 26.5807 37.2204 26.8204 37.0834C27.067 36.9464 27.2622 36.7477 27.406 36.4875C27.5499 36.2272 27.6218 35.9224 27.6218 35.573C27.6218 35.2169 27.5499 34.9121 27.406 34.6586C27.2622 34.3984 27.067 34.1997 26.8204 34.0627C26.5807 33.9257 26.3067 33.8572 25.9984 33.8572C25.6902 33.8572 25.4128 33.9257 25.1662 34.0627C24.9196 34.1997 24.7244 34.3984 24.5806 34.6586C24.4368 34.9121 24.3648 35.2169 24.3648 35.573C24.3648 35.9224 24.4368 36.2272 24.5806 36.4875C24.7244 36.7477 24.9196 36.9464 25.1662 37.0834C25.4128 37.2204 25.6902 37.2889 25.9984 37.2889ZM33.4207 38.3163L31.4377 35.6861L32.4857 35.0388L34.931 38.3163H33.4207ZM29.4856 38.3163V32.8298H30.7699V38.3163H29.4856ZM30.3897 36.1176V35.0491H32.2494V36.1176H30.3897ZM32.609 35.7272L31.4069 35.5833L33.4207 32.8298H34.7974L32.609 35.7272ZM35.1176 38.3163V32.8298H36.4019V36.4464L39.4328 32.8298H40.6041V38.3163H39.3198V34.6997L36.2992 38.3163H35.1176ZM44.1708 38.3882C43.5612 38.3882 43.0269 38.2683 42.568 38.0286C42.1159 37.782 41.7632 37.4464 41.5097 37.0217C41.2632 36.5971 41.1399 36.1142 41.1399 35.573C41.1399 35.0251 41.2597 34.5422 41.4995 34.1244C41.7461 33.6997 42.0817 33.3675 42.5064 33.1278C42.9379 32.888 43.4276 32.7682 43.9756 32.7682C44.5098 32.7682 44.9859 32.8846 45.4037 33.1175C45.8215 33.3504 46.1503 33.6792 46.39 34.1038C46.6298 34.5285 46.7496 35.0285 46.7496 35.6039C46.7496 35.6587 46.7462 35.7203 46.7394 35.7888C46.7394 35.8573 46.7359 35.9224 46.7291 35.984H42.157V35.1313H46.051L45.5475 35.3984C45.5544 35.0833 45.4893 34.8059 45.3523 34.5662C45.2153 34.3264 45.027 34.1381 44.7872 34.0011C44.5544 33.8641 44.2838 33.7956 43.9756 33.7956C43.6605 33.7956 43.3831 33.8641 43.1434 34.0011C42.9105 34.1381 42.7255 34.3299 42.5885 34.5764C42.4584 34.8162 42.3933 35.1004 42.3933 35.4292V35.6347C42.3933 35.9635 42.4687 36.2546 42.6194 36.508C42.7701 36.7614 42.9824 36.9567 43.2564 37.0936C43.5304 37.2306 43.8454 37.2991 44.2016 37.2991C44.5098 37.2991 44.7872 37.2512 45.0338 37.1553C45.2804 37.0594 45.4996 36.9087 45.6914 36.7032L46.3798 37.4943C46.1332 37.782 45.8215 38.0046 45.4448 38.1622C45.0749 38.3129 44.6503 38.3882 44.1708 38.3882ZM50.5109 36.0046V35.0799H53.4905V36.0046H50.5109ZM51.2609 32.7476C51.85 32.7476 52.3706 32.8709 52.8226 33.1175C53.2747 33.3572 53.6309 33.6894 53.8912 34.1141C54.1514 34.5319 54.2816 35.0182 54.2816 35.573C54.2816 36.121 54.1514 36.6108 53.8912 37.0423C53.6309 37.4669 53.2747 37.8026 52.8226 38.0492C52.3706 38.2889 51.85 38.4088 51.2609 38.4088C50.7678 38.4088 50.3157 38.3266 49.9047 38.1622C49.4938 37.9978 49.1513 37.7615 48.8773 37.4532L49.617 36.734C49.8362 36.9464 50.076 37.1073 50.3362 37.2169C50.6034 37.3265 50.8945 37.3813 51.2096 37.3813C51.5794 37.3813 51.9048 37.306 52.1856 37.1553C52.4665 36.9977 52.6891 36.782 52.8535 36.508C53.0178 36.234 53.1 35.9224 53.1 35.573C53.1 35.2169 53.0178 34.9052 52.8535 34.6381C52.6891 34.3641 52.4665 34.1518 52.1856 34.0011C51.9048 33.8435 51.5794 33.7648 51.2096 33.7648C50.8945 33.7648 50.6034 33.8196 50.3362 33.9292C50.076 34.0388 49.8362 34.2031 49.617 34.4223L48.8773 33.7031C49.1513 33.3949 49.4938 33.1586 49.9047 32.9942C50.3157 32.8298 50.7678 32.7476 51.2609 32.7476ZM57.8473 38.3882C57.4021 38.3882 56.9946 38.2855 56.6247 38.08C56.2617 37.8745 55.9705 37.5663 55.7514 37.1553C55.539 36.7375 55.4329 36.2101 55.4329 35.573C55.4329 34.9292 55.5356 34.4018 55.7411 33.9908C55.9534 33.5798 56.2411 33.275 56.6041 33.0764C56.9672 32.8709 57.3816 32.7682 57.8473 32.7682C58.3884 32.7682 58.8645 32.8846 59.2754 33.1175C59.6933 33.3504 60.022 33.6757 60.2618 34.0935C60.5084 34.5114 60.6317 35.0045 60.6317 35.573C60.6317 36.1416 60.5084 36.6381 60.2618 37.0628C60.022 37.4806 59.6933 37.806 59.2754 38.0389C58.8645 38.2718 58.3884 38.3882 57.8473 38.3882ZM54.8061 40.3095V32.8298H56.0288V34.1244L55.9877 35.5833L56.0904 37.0423V40.3095H54.8061ZM57.7035 37.2889C58.0117 37.2889 58.2857 37.2204 58.5254 37.0834C58.772 36.9464 58.9672 36.7477 59.1111 36.4875C59.2549 36.2272 59.3268 35.9224 59.3268 35.573C59.3268 35.2169 59.2549 34.9121 59.1111 34.6586C58.9672 34.3984 58.772 34.1997 58.5254 34.0627C58.2857 33.9257 58.0117 33.8572 57.7035 33.8572C57.3953 33.8572 57.1178 33.9257 56.8713 34.0627C56.6247 34.1997 56.4295 34.3984 56.2856 34.6586C56.1418 34.9121 56.0699 35.2169 56.0699 35.573C56.0699 35.9224 56.1418 36.2272 56.2856 36.4875C56.4295 36.7477 56.6247 36.9464 56.8713 37.0834C57.1178 37.2204 57.3953 37.2889 57.7035 37.2889ZM63.6359 38.3882C63.0743 38.3882 62.5742 38.2683 62.1359 38.0286C61.6975 37.782 61.3516 37.4464 61.0982 37.0217C60.8447 36.5971 60.718 36.1142 60.718 35.573C60.718 35.0251 60.8447 34.5422 61.0982 34.1244C61.3516 33.6997 61.6975 33.3675 62.1359 33.1278C62.5742 32.888 63.0743 32.7682 63.6359 32.7682C64.2044 32.7682 64.7079 32.888 65.1462 33.1278C65.5915 33.3675 65.9374 33.6963 66.184 34.1141C66.4374 34.5319 66.5641 35.0182 66.5641 35.573C66.5641 36.1142 66.4374 36.5971 66.184 37.0217C65.9374 37.4464 65.5915 37.782 65.1462 38.0286C64.7079 38.2683 64.2044 38.3882 63.6359 38.3882ZM63.6359 37.2889C63.951 37.2889 64.2318 37.2204 64.4784 37.0834C64.725 36.9464 64.9168 36.7477 65.0538 36.4875C65.1976 36.2272 65.2695 35.9224 65.2695 35.573C65.2695 35.2169 65.1976 34.9121 65.0538 34.6586C64.9168 34.3984 64.725 34.1997 64.4784 34.0627C64.2318 33.9257 63.9544 33.8572 63.6462 33.8572C63.3311 33.8572 63.0503 33.9257 62.8037 34.0627C62.564 34.1997 62.3722 34.3984 62.2283 34.6586C62.0845 34.9121 62.0126 35.2169 62.0126 35.573C62.0126 35.9224 62.0845 36.2272 62.2283 36.4875C62.3722 36.7477 62.564 36.9464 62.8037 37.0834C63.0503 37.2204 63.3277 37.2889 63.6359 37.2889ZM67.1136 38.3163V32.8298H71.3261V33.9189H68.0999L68.3979 33.6312V38.3163H67.1136ZM73.8591 38.3882C73.2495 38.3882 72.7152 38.2683 72.2563 38.0286C71.8042 37.782 71.4515 37.4464 71.198 37.0217C70.9515 36.5971 70.8282 36.1142 70.8282 35.573C70.8282 35.0251 70.948 34.5422 71.1878 34.1244C71.4344 33.6997 71.77 33.3675 72.1947 33.1278C72.6262 32.888 73.1159 32.7682 73.6639 32.7682C74.1981 32.7682 74.6742 32.8846 75.092 33.1175C75.5098 33.3504 75.8386 33.6792 76.0783 34.1038C76.3181 34.5285 76.4379 35.0285 76.4379 35.6039C76.4379 35.6587 76.4345 35.7203 76.4277 35.7888C76.4277 35.8573 76.4242 35.9224 76.4174 35.984H71.8453V35.1313H75.7393L75.2358 35.3984C75.2427 35.0833 75.1776 34.8059 75.0406 34.5662C74.9036 34.3264 74.7153 34.1381 74.4755 34.0011C74.2427 33.8641 73.9721 33.7956 73.6639 33.7956C73.3488 33.7956 73.0714 33.8641 72.8317 34.0011C72.5988 34.1381 72.4138 34.3299 72.2768 34.5764C72.1467 34.8162 72.0816 35.1004 72.0816 35.4292V35.6347C72.0816 35.9635 72.157 36.2546 72.3077 36.508C72.4584 36.7614 72.6707 36.9567 72.9447 37.0936C73.2187 37.2306 73.5337 37.2991 73.8899 37.2991C74.1981 37.2991 74.4755 37.2512 74.7221 37.1553C74.9687 37.0594 75.1879 36.9087 75.3797 36.7032L76.0681 37.4943C75.8215 37.782 75.5098 38.0046 75.1331 38.1622C74.7632 38.3129 74.3386 38.3882 73.8591 38.3882ZM77.1234 38.3163V32.8298H78.4077V35.0593H81.1715V32.8298H82.4558V38.3163H81.1715V36.1484H78.4077V38.3163H77.1234ZM83.4578 38.3163V32.8298H84.7421V35.0593H87.5058V32.8298H88.7901V38.3163H87.5058V36.1484H84.7421V38.3163H83.4578ZM95.33 38.3163V32.8298H96.6143V38.3163H95.33ZM92.4634 34.6381C93.1689 34.6381 93.7032 34.7956 94.0662 35.1107C94.4361 35.4258 94.621 35.871 94.621 36.4464C94.621 37.0423 94.4156 37.508 94.0046 37.8437C93.6005 38.1724 93.0251 38.3334 92.2785 38.3266L89.7921 38.3163V32.8298H91.0764V34.6278L92.4634 34.6381ZM92.1655 37.3813C92.5422 37.3882 92.8299 37.3094 93.0285 37.145C93.2272 36.9806 93.3265 36.7409 93.3265 36.4258C93.3265 36.1107 93.2272 35.8847 93.0285 35.7477C92.8367 35.6039 92.5491 35.5285 92.1655 35.5217L91.0764 35.5114V37.371L92.1655 37.3813ZM100.18 38.3882C99.5701 38.3882 99.0359 38.2683 98.577 38.0286C98.1249 37.782 97.7721 37.4464 97.5187 37.0217C97.2721 36.5971 97.1488 36.1142 97.1488 35.573C97.1488 35.0251 97.2687 34.5422 97.5084 34.1244C97.755 33.6997 98.0906 33.3675 98.5153 33.1278C98.9468 32.888 99.4366 32.7682 99.9845 32.7682C100.519 32.7682 100.995 32.8846 101.413 33.1175C101.83 33.3504 102.159 33.6792 102.399 34.1038C102.639 34.5285 102.759 35.0285 102.759 35.6039C102.759 35.6587 102.755 35.7203 102.748 35.7888C102.748 35.8573 102.745 35.9224 102.738 35.984H98.166V35.1313H102.06L101.557 35.3984C101.563 35.0833 101.498 34.8059 101.361 34.5662C101.224 34.3264 101.036 34.1381 100.796 34.0011C100.563 33.8641 100.293 33.7956 99.9845 33.7956C99.6695 33.7956 99.3921 33.8641 99.1523 34.0011C98.9194 34.1381 98.7345 34.3299 98.5975 34.5764C98.4674 34.8162 98.4023 35.1004 98.4023 35.4292V35.6347C98.4023 35.9635 98.4776 36.2546 98.6283 36.508C98.779 36.7614 98.9914 36.9567 99.2653 37.0936C99.5393 37.2306 99.8544 37.2991 100.211 37.2991C100.519 37.2991 100.796 37.2512 101.043 37.1553C101.289 37.0594 101.509 36.9087 101.7 36.7032L102.389 37.4943C102.142 37.782 101.83 38.0046 101.454 38.1622C101.084 38.3129 100.659 38.3882 100.18 38.3882ZM107.301 38.4088C106.883 38.4088 106.469 38.3608 106.058 38.2649C105.653 38.1622 105.287 38.0183 104.958 37.8334L105.318 36.8779C105.585 37.0286 105.886 37.145 106.222 37.2272C106.558 37.3094 106.893 37.3505 107.229 37.3505C107.516 37.3505 107.763 37.3231 107.969 37.2683C108.174 37.2067 108.332 37.1176 108.441 37.0012C108.558 36.8847 108.616 36.7512 108.616 36.6005C108.616 36.3813 108.52 36.2169 108.328 36.1073C108.143 35.9909 107.876 35.9326 107.527 35.9326H106.469V35.0696H107.424C107.643 35.0696 107.828 35.0456 107.979 34.9977C108.136 34.9497 108.256 34.8778 108.338 34.7819C108.421 34.686 108.462 34.573 108.462 34.4429C108.462 34.3127 108.41 34.1997 108.308 34.1038C108.212 34.0011 108.071 33.9257 107.886 33.8778C107.701 33.823 107.479 33.7956 107.219 33.7956C106.945 33.7956 106.66 33.8298 106.366 33.8983C106.078 33.9668 105.784 34.0661 105.482 34.1963L105.153 33.2511C105.503 33.0935 105.842 32.9736 106.171 32.8915C106.506 32.8024 106.838 32.7545 107.167 32.7476C107.667 32.7271 108.112 32.7784 108.503 32.9017C108.893 33.025 109.201 33.2031 109.428 33.436C109.654 33.6689 109.767 33.9429 109.767 34.2579C109.767 34.5182 109.684 34.7545 109.52 34.9669C109.362 35.1723 109.143 35.3333 108.862 35.4498C108.588 35.5662 108.273 35.6244 107.917 35.6244L107.958 35.347C108.568 35.347 109.047 35.4703 109.397 35.7169C109.746 35.9566 109.921 36.2854 109.921 36.7032C109.921 37.0388 109.808 37.3368 109.582 37.5971C109.356 37.8505 109.044 38.0492 108.647 38.193C108.256 38.3368 107.808 38.4088 107.301 38.4088ZM112.969 38.3882C112.408 38.3882 111.908 38.2683 111.469 38.0286C111.031 37.782 110.685 37.4464 110.432 37.0217C110.178 36.5971 110.052 36.1142 110.052 35.573C110.052 35.0251 110.178 34.5422 110.432 34.1244C110.685 33.6997 111.031 33.3675 111.469 33.1278C111.908 32.888 112.408 32.7682 112.969 32.7682C113.538 32.7682 114.041 32.888 114.48 33.1278C114.925 33.3675 115.271 33.6963 115.517 34.1141C115.771 34.5319 115.898 35.0182 115.898 35.573C115.898 36.1142 115.771 36.5971 115.517 37.0217C115.271 37.4464 114.925 37.782 114.48 38.0286C114.041 38.2683 113.538 38.3882 112.969 38.3882ZM112.969 37.2889C113.284 37.2889 113.565 37.2204 113.812 37.0834C114.058 36.9464 114.25 36.7477 114.387 36.4875C114.531 36.2272 114.603 35.9224 114.603 35.573C114.603 35.2169 114.531 34.9121 114.387 34.6586C114.25 34.3984 114.058 34.1997 113.812 34.0627C113.565 33.9257 113.288 33.8572 112.98 33.8572C112.665 33.8572 112.384 33.9257 112.137 34.0627C111.897 34.1997 111.706 34.3984 111.562 34.6586C111.418 34.9121 111.346 35.2169 111.346 35.573C111.346 35.9224 111.418 36.2272 111.562 36.4875C111.706 36.7477 111.897 36.9464 112.137 37.0834C112.384 37.2204 112.661 37.2889 112.969 37.2889ZM116.447 38.3163V32.8298H117.731V35.0593H120.495V32.8298H121.779V38.3163H120.495V36.1484H117.731V38.3163H116.447ZM128.319 38.3163V32.8298H129.604V38.3163H128.319ZM125.453 34.6381C126.158 34.6381 126.693 34.7956 127.056 35.1107C127.425 35.4258 127.61 35.871 127.61 36.4464C127.61 37.0423 127.405 37.508 126.994 37.8437C126.59 38.1724 126.014 38.3334 125.268 38.3266L122.781 38.3163V32.8298H124.066V34.6278L125.453 34.6381ZM125.155 37.3813C125.532 37.3882 125.819 37.3094 126.018 37.145C126.216 36.9806 126.316 36.7409 126.316 36.4258C126.316 36.1107 126.216 35.8847 126.018 35.7477C125.826 35.6039 125.538 35.5285 125.155 35.5217L124.066 35.5114V37.371L125.155 37.3813Z" fill="#F6517C"/>
<path d="M97.554 102.371L99.104 96.1709L99.3333 96.5671L96.7218 95.9142L96.9959 94.8178L102.897 96.2931L102.623 97.3895L100.011 96.7366L100.39 96.4924L98.8399 102.692L97.554 102.371ZM103.242 103.867C102.697 103.731 102.241 103.493 101.874 103.154C101.509 102.809 101.255 102.399 101.112 101.926C100.969 101.452 100.963 100.953 101.094 100.428C101.227 99.8966 101.467 99.4588 101.814 99.1149C102.163 98.7644 102.58 98.526 103.063 98.3998C103.546 98.2735 104.061 98.2785 104.605 98.4147C105.157 98.5526 105.616 98.791 105.983 99.1299C106.357 99.4705 106.613 99.8733 106.751 100.338C106.895 100.805 106.9 101.308 106.766 101.846C106.635 102.371 106.395 102.809 106.046 103.159C105.703 103.511 105.286 103.753 104.795 103.884C104.311 104.011 103.794 104.005 103.242 103.867ZM103.509 102.8C103.815 102.877 104.104 102.879 104.376 102.805C104.649 102.732 104.883 102.586 105.079 102.367C105.282 102.149 105.425 101.871 105.51 101.532C105.596 101.187 105.6 100.873 105.522 100.593C105.453 100.307 105.315 100.068 105.109 99.875C104.903 99.6823 104.65 99.5485 104.351 99.4738C104.046 99.3974 103.756 99.3957 103.484 99.4688C103.218 99.5435 102.984 99.6897 102.781 99.9074C102.58 100.118 102.437 100.397 102.35 100.742C102.266 101.081 102.261 101.394 102.338 101.682C102.414 101.969 102.552 102.208 102.751 102.399C102.957 102.592 103.21 102.726 103.509 102.8ZM110.518 103.377C110.236 103.434 109.942 103.466 109.636 103.475C109.339 103.478 109.034 103.44 108.722 103.362C108.051 103.195 107.568 102.908 107.274 102.503C106.98 102.097 106.915 101.566 107.08 100.908L107.506 99.2034L108.752 99.5149L108.346 101.14C108.257 101.492 108.293 101.773 108.453 101.982C108.619 102.193 108.881 102.343 109.24 102.433C109.479 102.493 109.726 102.523 109.98 102.523C110.234 102.523 110.491 102.499 110.75 102.45L110.518 103.377ZM109.903 105.458L111.234 100.135L112.48 100.447L111.149 105.77L109.903 105.458ZM115.944 106.968L114.658 103.936L115.832 103.562L117.409 107.335L115.944 106.968ZM112.127 106.014L113.457 100.691L114.703 101.003L113.373 106.325L112.127 106.014ZM113.537 104.1L113.796 103.064L115.6 103.515L115.341 104.551L113.537 104.1ZM115.785 104.26L114.653 103.829L117.275 101.646L118.611 101.98L115.785 104.26ZM120.723 108.163L120.992 107.087L120.979 106.84L121.45 104.956C121.542 104.591 121.503 104.281 121.333 104.027C121.165 103.766 120.859 103.58 120.414 103.468C120.115 103.394 119.807 103.366 119.492 103.386C119.183 103.408 118.908 103.477 118.667 103.593L118.405 102.564C118.746 102.416 119.125 102.338 119.544 102.33C119.971 102.316 120.397 102.363 120.822 102.469C121.593 102.662 122.141 102.997 122.467 103.473C122.801 103.945 122.871 104.566 122.679 105.337L121.899 108.457L120.723 108.163ZM119.031 107.814C118.632 107.714 118.3 107.561 118.034 107.353C117.77 107.139 117.584 106.891 117.478 106.611C117.38 106.325 117.369 106.029 117.446 105.723C117.521 105.424 117.658 105.173 117.857 104.968C118.063 104.766 118.346 104.635 118.707 104.577C119.067 104.519 119.517 104.557 120.055 104.692L121.6 105.078L121.393 105.905L119.938 105.542C119.512 105.435 119.209 105.434 119.028 105.537C118.849 105.633 118.734 105.781 118.684 105.98C118.628 106.206 118.673 106.408 118.819 106.586C118.965 106.763 119.198 106.892 119.517 106.972C119.822 107.048 120.112 107.047 120.386 106.967C120.667 106.889 120.895 106.727 121.069 106.481L121.091 107.281C120.894 107.563 120.617 107.752 120.262 107.847C119.913 107.943 119.502 107.932 119.031 107.814ZM128.134 110.122C127.589 109.986 127.109 109.774 126.694 109.486C126.287 109.194 125.954 108.846 125.694 108.442C125.437 108.032 125.27 107.584 125.194 107.099C125.117 106.614 125.144 106.112 125.273 105.594C125.403 105.076 125.615 104.621 125.911 104.229C126.207 103.836 126.564 103.523 126.983 103.289C127.41 103.05 127.874 102.901 128.376 102.843C128.879 102.778 129.403 102.814 129.948 102.95C130.539 103.098 131.047 103.327 131.471 103.638C131.901 103.95 132.232 104.333 132.465 104.787L131.448 105.38C131.244 105.039 130.998 104.766 130.711 104.56C130.431 104.349 130.103 104.196 129.724 104.101C129.358 104.01 129.004 103.985 128.662 104.027C128.32 104.068 128.009 104.17 127.728 104.333C127.447 104.496 127.206 104.711 127.005 104.979C126.811 105.248 126.669 105.562 126.579 105.921C126.491 106.273 126.469 106.613 126.514 106.942C126.566 107.273 126.676 107.579 126.846 107.862C127.017 108.137 127.24 108.373 127.516 108.569C127.792 108.765 128.116 108.91 128.488 109.003C128.833 109.089 129.179 109.119 129.524 109.093C129.878 109.061 130.234 108.952 130.591 108.766L131.087 109.918C130.648 110.119 130.167 110.235 129.644 110.266C129.129 110.293 128.626 110.245 128.134 110.122ZM129.903 109.442L130.556 106.83L131.782 107.137L131.087 109.918L129.903 109.442Z" fill="#F6517C"/>
<path d="M12.2834 70.5924L8.98204 67.8895L9.83673 66.9518L13.736 70.1788L12.2834 70.5924ZM7.70822 71.895L5.73875 64.9779L7.00359 64.6178L8.97306 71.5349L7.70822 71.895ZM7.75769 68.7296L7.44257 67.6228L9.77462 66.9588L10.0897 68.0656L7.75769 68.7296ZM10.1551 67.6197L8.93414 67.7964L10.3139 63.6753L11.6776 63.287L10.1551 67.6197ZM13.1491 70.3352L12.9129 69.2808C12.9609 69.2742 13.0056 69.2686 13.047 69.2639C13.0884 69.2593 13.1256 69.2522 13.1585 69.2429C13.3628 69.1847 13.503 69.0771 13.5794 68.9201C13.6557 68.763 13.6903 68.5716 13.6829 68.3458C13.6803 68.1115 13.6514 67.8598 13.5961 67.5907C13.5456 67.3131 13.4884 67.0373 13.4247 66.7635L12.9341 64.7026L17.2029 63.4871L18.7053 68.7639L17.4701 69.1156L16.1703 64.5503L16.5525 64.8047L14.0426 65.5193L14.2109 65.0975L14.5384 66.5105C14.6519 66.9838 14.7361 67.4299 14.7913 67.8486C14.8511 68.2589 14.8639 68.6291 14.8298 68.9593C14.8022 69.2877 14.7097 69.5632 14.5524 69.7861C14.4016 70.007 14.1715 70.1616 13.8618 70.2498C13.763 70.2779 13.6515 70.299 13.5273 70.313C13.4097 70.3251 13.2836 70.3325 13.1491 70.3352ZM19.6771 68.4872L18.1747 63.2104L19.4099 62.8587L20.4002 66.3371L22.3249 62.0288L23.4514 61.708L24.9539 66.9848L23.7187 67.3365L22.7283 63.8581L20.8135 68.1636L19.6771 68.4872ZM27.0206 66.3963L25.732 61.8706L26.103 62.0854L23.9587 62.696L23.6604 61.6485L28.6012 60.2418L28.8994 61.2892L26.765 61.8969L26.9672 61.5189L28.2558 66.0446L27.0206 66.3963ZM32.4478 64.9258C31.9076 65.0797 31.3939 65.1013 30.9066 64.9908C30.4175 64.8736 29.9929 64.6456 29.6329 64.3065C29.2728 63.9675 29.0187 63.5378 28.8705 63.0173C28.7205 62.4903 28.7101 61.9912 28.8394 61.5199C28.9669 61.0421 29.2086 60.6279 29.5646 60.2773C29.9205 59.9266 30.3686 59.6744 30.9088 59.5206C31.4556 59.3649 31.9726 59.3424 32.4599 59.4529C32.9537 59.5615 33.3764 59.783 33.728 60.1174C34.0862 60.4498 34.3412 60.8828 34.4931 61.4164C34.6413 61.9369 34.6517 62.436 34.5242 62.9138C34.4034 63.3898 34.1626 63.8073 33.8019 64.1664C33.446 64.517 32.9946 64.7702 32.4478 64.9258ZM32.1468 63.8685C32.4498 63.7822 32.7011 63.6395 32.9008 63.4402C33.1004 63.2409 33.2305 62.9973 33.291 62.7095C33.358 62.4198 33.3437 62.1069 33.2481 61.7709C33.1505 61.4284 32.9979 61.1549 32.7901 60.9506C32.5871 60.7378 32.3483 60.5992 32.0736 60.535C31.7989 60.4708 31.5134 60.4809 31.2169 60.5653C30.9139 60.6515 30.6625 60.7943 30.4629 60.9936C30.2698 61.191 30.1398 61.4346 30.0727 61.7243C30.0038 62.0074 30.0181 62.3203 30.1156 62.6628C30.2113 62.9988 30.3639 63.2723 30.5735 63.4832C30.7831 63.6942 31.022 63.8327 31.2901 63.8988C31.5647 63.963 31.8503 63.9529 32.1468 63.8685ZM38.7175 63.1407C38.2893 63.2626 37.8692 63.2754 37.4572 63.1791C37.0518 63.0809 36.6874 62.8641 36.364 62.5289C36.0454 62.1852 35.7989 61.707 35.6244 61.0943C35.4481 60.4751 35.4025 59.9397 35.4876 59.4882C35.5793 59.0348 35.7725 58.6628 36.0672 58.3724C36.3601 58.0753 36.7305 57.863 37.1785 57.7355C37.6989 57.5873 38.1887 57.5689 38.6477 57.6804C39.1133 57.79 39.5186 58.0128 39.8636 58.349C40.2152 58.6834 40.4688 59.1239 40.6245 59.6707C40.7802 60.2175 40.7976 60.7289 40.6767 61.2048C40.5606 61.6723 40.3335 62.0753 39.9954 62.4137C39.6639 62.7502 39.2379 62.9925 38.7175 63.1407ZM36.3187 65.8214L34.2704 58.6276L35.4463 58.2928L35.8009 59.5379L36.1608 60.9523L36.6592 62.3273L37.5539 65.4697L36.3187 65.8214ZM38.2781 62.1228C38.5746 62.0384 38.8193 61.8975 39.0124 61.7001C39.212 61.5008 39.3454 61.2563 39.4124 60.9666C39.4795 60.6768 39.4652 60.364 39.3695 60.028C39.272 59.6855 39.1194 59.412 38.9116 59.2076C38.702 58.9967 38.4599 58.8591 38.1852 58.7949C37.9171 58.7288 37.6348 58.7379 37.3384 58.8223C37.0419 58.9067 36.7939 59.0486 36.5943 59.2479C36.3946 59.4471 36.2613 59.6916 36.1942 59.9814C36.1253 60.2645 36.1395 60.5773 36.2371 60.9199C36.3327 61.2559 36.4854 61.5293 36.695 61.7403C36.9046 61.9512 37.1468 62.0888 37.4214 62.153C37.6961 62.2173 37.9817 62.2072 38.2781 62.1228Z" fill="#F6517C"/>
<path d="M123.396 58.3309C124.549 56.4778 126.157 53.65 126.549 51.7194C126.843 50.2766 126.541 48.7353 125.725 47.5008C123.909 44.6724 119.697 44.8007 118.127 47.7276C118.038 47.8914 117.965 48.064 117.889 48.2411C117.858 48.3134 117.827 48.3865 117.794 48.4601C117.722 48.4255 117.65 48.3904 117.58 48.3556C117.407 48.2703 117.239 48.1873 117.065 48.1206C113.968 46.9209 110.687 49.5654 111.15 52.8947C111.334 54.3634 112.109 55.7295 113.271 56.6334C114.825 57.8439 117.886 58.9436 119.968 59.5993C120.549 59.782 122.148 60.2253 122.148 60.2253C122.148 60.2253 123.074 58.8473 123.396 58.3309Z" fill="#E4016A"/>
<path d="M38.2865 89.0759C38.1743 86.8959 37.878 83.6565 37.0962 81.8483C36.5128 80.4965 35.385 79.4036 34.0092 78.8573C30.9027 77.5738 27.5196 80.0859 27.9037 83.3849C27.9246 83.5699 27.9628 83.7537 28.002 83.9423C28.018 84.0192 28.0341 84.097 28.0493 84.1761C27.9699 84.1893 27.8913 84.2012 27.8136 84.2129C27.6231 84.2416 27.4376 84.2696 27.2567 84.3143C24.0296 85.0995 22.8485 89.1443 25.1308 91.6119C26.1207 92.7124 27.5372 93.3907 29.0075 93.4684C30.9746 93.5737 34.1154 92.7269 36.1987 92.0752C36.7793 91.8937 38.3455 91.3432 38.3455 91.3432C38.3455 91.3432 38.3178 89.6834 38.2865 89.0759Z" fill="#E4016A"/>
<path d="M36.8367 111.766C36.7613 110.301 36.5622 108.124 36.0368 106.909C35.6448 106.001 34.8869 105.266 33.9624 104.899C31.8749 104.037 29.6014 105.725 29.8596 107.942C29.8736 108.066 29.8992 108.19 29.9256 108.316C29.9363 108.368 29.9472 108.42 29.9574 108.474C29.904 108.482 29.8512 108.49 29.799 108.498C29.671 108.518 29.5463 108.536 29.4248 108.566C27.2562 109.094 26.4625 111.812 27.9962 113.47C28.6614 114.21 29.6132 114.666 30.6013 114.718C31.9232 114.789 34.0338 114.22 35.4337 113.782C35.8239 113.66 36.8763 113.29 36.8763 113.29C36.8763 113.29 36.8578 112.174 36.8367 111.766Z" fill="#F6517C"/>
<path d="M58.0044 127.119C57.9031 125.151 57.6355 122.226 56.9295 120.593C56.4028 119.372 55.3843 118.385 54.142 117.892C51.3369 116.733 48.282 119.001 48.6289 121.98C48.6478 122.147 48.6822 122.313 48.7176 122.484C48.732 122.553 48.7466 122.623 48.7604 122.695C48.6886 122.707 48.6177 122.717 48.5475 122.728C48.3755 122.754 48.208 122.779 48.0447 122.819C45.1306 123.529 44.0641 127.181 46.125 129.409C47.0189 130.403 48.2979 131.015 49.6256 131.086C51.4018 131.181 54.2379 130.416 56.1191 129.827C56.6433 129.664 58.0576 129.167 58.0576 129.167C58.0576 129.167 58.0327 127.668 58.0044 127.119Z" fill="#E4016A"/>
<path d="M117.989 78.3683C118.954 76.8176 120.299 74.4514 120.627 72.8359C120.873 71.6286 120.621 70.3389 119.937 69.3059C118.418 66.9391 114.893 67.0465 113.58 69.4956C113.506 69.6327 113.444 69.7771 113.381 69.9254C113.355 69.9859 113.329 70.047 113.301 70.1086C113.241 70.0797 113.181 70.0502 113.122 70.0211C112.977 69.9498 112.837 69.8803 112.691 69.8245C110.1 68.8207 107.354 71.0335 107.742 73.8193C107.895 75.0484 108.544 76.1915 109.516 76.9478C110.817 77.9608 113.378 78.881 115.121 79.4296C115.606 79.5826 116.945 79.9535 116.945 79.9535C116.945 79.9535 117.72 78.8004 117.989 78.3683Z" fill="#F6517C"/>
<path d="M49.1631 65.8138C43.6726 77.7641 45.135 104.626 59.0173 117.771C66.3507 124.714 78.4584 124.433 85.5999 117.292C91.8531 111.039 97.0079 100.35 96.9633 82.681C96.935 71.4672 94.4643 59.3075 85.9017 52.0665C82.4324 49.1326 78.1069 47.2532 72.4369 47.2532C59.938 47.2531 53.2917 56.8278 49.1631 65.8138Z" fill="#D8A683"/>
<path d="M82.878 119.578C67.664 132.827 45.1689 113.097 46.3493 79.5125C46.4564 76.4652 47.0404 73.4838 47.7825 70.3273C48.281 68.2072 49.0648 66.1641 50.0903 64.2428C52.6568 59.4349 57.136 51.7386 62.6983 49.6104C56.3152 55.797 47.1819 72.4371 53.7129 92.475C62.5947 119.726 76.6416 118.596 82.878 119.578Z" fill="#CB9671"/>
<path d="M67.5116 62.2779C69.683 60.1254 73.7803 60.1269 75.9497 62.2802C77.4262 63.7447 79.0469 62.5071 80.6219 64.3401C81.3226 54.8758 71.6731 47.5477 71.6731 47.5477C71.6731 47.5477 62.0284 54.8719 62.7233 64.3331C64.2963 62.5001 66.0361 63.7401 67.5116 62.2779Z" fill="#CB9671"/>
<path d="M72.9623 56.5718C72.5146 56.0287 71.6727 56.0221 71.2112 56.5535C70.0399 57.9022 67.8423 60.2998 65.4369 62.2478C62.2278 64.8466 58.6203 66.264 57.0902 70.0364C52.8643 80.455 57.834 99.3642 71.2955 114.702C71.7207 115.187 72.4753 115.186 72.8998 114.701C86.3248 99.3635 90.3596 80.4548 86.1338 70.0364C84.6037 66.264 80.9041 64.8466 78.1616 62.2478C76.1153 60.3086 74.0766 57.9238 72.9623 56.5718Z" fill="#FF6C92"/>
<path d="M72.8782 63.1339C72.427 62.5634 71.546 62.5563 71.0787 63.1138C70.1662 64.2025 68.6677 65.8844 67.0414 67.2745C64.6566 69.3128 61.9759 70.4245 60.8388 73.3832C57.7217 81.4942 61.3373 96.1663 71.1741 108.148C71.598 108.664 72.3847 108.664 72.8076 108.147C82.6077 96.1656 85.5387 81.494 82.4217 73.3832C81.2846 70.4245 78.5354 69.3128 76.4974 67.2745C75.1161 65.893 73.7396 64.2232 72.8782 63.1339Z" fill="#D43C63"/>
<path d="M73.0353 63.3692C72.5308 62.7445 71.4724 62.7472 70.9482 63.3554C70.5983 63.7613 70.1544 64.2416 69.6066 64.7748C68.8057 65.5543 68.3122 66.6056 68.2788 67.7227C68.0355 75.8428 66.1264 79.1026 65.0631 81.8693C61.0504 89.1795 61.5185 96.5616 71.1774 108.149C71.6051 108.662 72.3949 108.662 72.8216 108.148C82.4571 96.5385 82.4976 88.7495 79.0575 81.8693C77.9649 79.0262 76.7959 77.8388 75.53 67.2948C75.4267 66.4351 75.0354 65.632 74.4468 64.9968C73.8759 64.3808 73.4057 63.828 73.0353 63.3692Z" fill="#FF91AD"/>
<path d="M78.2985 61.753C78.2985 65.4597 75.3967 68.4645 71.8172 68.4645C68.2377 68.4645 65.3359 65.4597 65.3359 61.753C65.3359 58.0464 68.2377 52.5559 71.8172 52.5559C75.3967 52.5559 78.2985 58.0464 78.2985 61.753Z" fill="#CB9671" fill-opacity="0.76"/>
<path d="M75.6519 58.89C75.6519 61.0865 73.9372 62.8671 71.822 62.8671C69.7069 62.8671 67.9922 61.0865 67.9922 58.89C67.9922 56.6935 69.7069 53.4398 71.822 53.4398C73.9372 53.4398 75.6519 56.6935 75.6519 58.89Z" fill="#FF91AD"/>
<path d="M75.3595 95.4205C75.3595 99.7322 73.7768 103.227 71.8243 103.227C69.8718 103.227 68.2891 99.7322 68.2891 95.4205C68.2891 91.1088 69.4675 87.6135 71.8243 87.6135C74.1811 87.6135 75.3595 91.1088 75.3595 95.4205Z" fill="#FF6C92"/>
<path d="M11.7754 74.0802L54.4133 62.6554M54.4133 62.6554L46.0836 69.6919M54.4133 62.6554L43.6814 60.7265" stroke="url(#paint0_linear_2869_14)" stroke-width="1.63794" stroke-linecap="round" stroke-linejoin="round"/>
<path d="M127.736 112.471L85.0304 101.504M85.0304 101.504L95.7308 99.4606M85.0304 101.504L93.4221 108.45" stroke="url(#paint1_linear_2869_14)" stroke-width="1.63794" stroke-linecap="round" stroke-linejoin="round"/>
<defs>
<linearGradient id="paint0_linear_2869_14" x1="11.7754" y1="74.0802" x2="54.4133" y2="62.6554" gradientUnits="userSpaceOnUse">
<stop offset="0.509615" stop-color="#E4016A"/>
<stop offset="0.509715" stop-color="#F6517C"/>
</linearGradient>
<linearGradient id="paint1_linear_2869_14" x1="127.736" y1="112.471" x2="85.0304" y2="101.504" gradientUnits="userSpaceOnUse">
<stop offset="0.490285" stop-color="#F6517C"/>
<stop offset="0.490385" stop-color="#E4016A"/>
</linearGradient>
<clipPath id="clip0_2869_14">
<rect width="144" height="144" fill="white" transform="translate(0.71875)"/>
</clipPath>
</defs>
</svg>
