<svg width="146" height="145" viewBox="0 0 146 145" fill="none" xmlns="http://www.w3.org/2000/svg">
<g clip-path="url(#clip0_2869_17)">
<path d="M0.71875 72.5C0.71875 112.541 33.1781 145 73.2188 145C113.259 145 145.719 112.541 145.719 72.5C145.719 32.4594 113.259 0 73.2188 0C33.1781 0 0.71875 32.4594 0.71875 72.5Z" fill="white"/>
</g>
<path d="M113.345 105.563V113.035H111.991V106.88H111.948L110.2 107.996V106.756L112.057 105.563H113.345ZM119.219 107.431V113.035H117.949V107.431H119.219ZM118.624 109.963V111.043C118.481 111.106 118.318 111.163 118.135 111.214C117.955 111.263 117.764 111.302 117.562 111.331C117.363 111.36 117.163 111.375 116.964 111.375C116.215 111.375 115.623 111.207 115.187 110.871C114.754 110.533 114.538 110.007 114.538 109.292V107.423H115.8V109.292C115.8 109.532 115.843 109.726 115.928 109.872C116.013 110.018 116.142 110.125 116.315 110.193C116.487 110.258 116.704 110.291 116.964 110.291C117.256 110.291 117.533 110.262 117.796 110.204C118.059 110.145 118.335 110.065 118.624 109.963Z" fill="#F6517C"/>
<path d="M44.5239 20.1243H45.8596V27.3163H44.5239V20.1243ZM40.8046 27.3163H39.469V20.1243H40.8046V27.3163ZM44.6267 24.234H40.6916V23.0935H44.6267V24.234ZM49.5723 27.3882C48.9627 27.3882 48.4284 27.2683 47.9695 27.0286C47.5174 26.782 47.1647 26.4464 46.9113 26.0217C46.6647 25.5971 46.5414 25.1142 46.5414 24.573C46.5414 24.0251 46.6613 23.5422 46.901 23.1244C47.1476 22.6997 47.4832 22.3675 47.9079 22.1278C48.3394 21.888 48.8291 21.7682 49.3771 21.7682C49.9114 21.7682 50.3874 21.8846 50.8052 22.1175C51.223 22.3504 51.5518 22.6792 51.7916 23.1038C52.0313 23.5285 52.1512 24.0285 52.1512 24.6039C52.1512 24.6587 52.1477 24.7203 52.1409 24.7888C52.1409 24.8573 52.1375 24.9224 52.1306 24.984H47.5585V24.1313H51.4525L50.9491 24.3984C50.9559 24.0833 50.8908 23.8059 50.7539 23.5662C50.6169 23.3264 50.4285 23.1381 50.1888 23.0011C49.9559 22.8641 49.6853 22.7956 49.3771 22.7956C49.062 22.7956 48.7846 22.8641 48.5449 23.0011C48.312 23.1381 48.1271 23.3299 47.9901 23.5764C47.8599 23.8162 47.7949 24.1004 47.7949 24.4292V24.6347C47.7949 24.9635 47.8702 25.2546 48.0209 25.508C48.1716 25.7614 48.3839 25.9567 48.6579 26.0936C48.9319 26.2306 49.247 26.2991 49.6031 26.2991C49.9114 26.2991 50.1888 26.2512 50.4353 26.1553C50.6819 26.0594 50.9011 25.9087 51.0929 25.7032L51.7813 26.4943C51.5347 26.782 51.223 27.0046 50.8463 27.1622C50.4764 27.3129 50.0518 27.3882 49.5723 27.3882ZM52.8366 27.3163V21.8298H58.0971V27.3163H56.8231V22.6209L57.121 22.9189H53.823L54.1209 22.6209V27.3163H52.8366ZM62.152 27.3882C61.7068 27.3882 61.2992 27.2855 60.9293 27.08C60.5663 26.8745 60.2752 26.5663 60.056 26.1553C59.8437 25.7375 59.7375 25.2101 59.7375 24.573C59.7375 23.9292 59.8403 23.4018 60.0457 22.9908C60.2581 22.5798 60.5458 22.275 60.9088 22.0764C61.2718 21.8709 61.6862 21.7682 62.152 21.7682C62.6931 21.7682 63.1691 21.8846 63.5801 22.1175C63.9979 22.3504 64.3267 22.6757 64.5664 23.0935C64.813 23.5114 64.9363 24.0045 64.9363 24.573C64.9363 25.1416 64.813 25.6381 64.5664 26.0628C64.3267 26.4806 63.9979 26.806 63.5801 27.0389C63.1691 27.2718 62.6931 27.3882 62.152 27.3882ZM59.1108 29.3095V21.8298H60.3334V23.1244L60.2923 24.5833L60.3951 26.0423V29.3095H59.1108ZM62.0081 26.2889C62.3164 26.2889 62.5904 26.2204 62.8301 26.0834C63.0767 25.9464 63.2719 25.7477 63.4157 25.4875C63.5596 25.2272 63.6315 24.9224 63.6315 24.573C63.6315 24.2169 63.5596 23.9121 63.4157 23.6586C63.2719 23.3984 63.0767 23.1997 62.8301 23.0627C62.5904 22.9257 62.3164 22.8572 62.0081 22.8572C61.6999 22.8572 61.4225 22.9257 61.1759 23.0627C60.9293 23.1997 60.7341 23.3984 60.5903 23.6586C60.4464 23.9121 60.3745 24.2169 60.3745 24.573C60.3745 24.9224 60.4464 25.2272 60.5903 25.4875C60.7341 25.7477 60.9293 25.9464 61.1759 26.0834C61.4225 26.2204 61.6999 26.2889 62.0081 26.2889ZM68.0536 27.3882C67.444 27.3882 66.9097 27.2683 66.4508 27.0286C65.9987 26.782 65.646 26.4464 65.3926 26.0217C65.146 25.5971 65.0227 25.1142 65.0227 24.573C65.0227 24.0251 65.1425 23.5422 65.3823 23.1244C65.6289 22.6997 65.9645 22.3675 66.3892 22.1278C66.8207 21.888 67.3104 21.7682 67.8584 21.7682C68.3927 21.7682 68.8687 21.8846 69.2865 22.1175C69.7043 22.3504 70.0331 22.6792 70.2728 23.1038C70.5126 23.5285 70.6324 24.0285 70.6324 24.6039C70.6324 24.6587 70.629 24.7203 70.6222 24.7888C70.6222 24.8573 70.6187 24.9224 70.6119 24.984H66.0398V24.1313H69.9338L69.4304 24.3984C69.4372 24.0833 69.3721 23.8059 69.2351 23.5662C69.0982 23.3264 68.9098 23.1381 68.6701 23.0011C68.4372 22.8641 68.1666 22.7956 67.8584 22.7956C67.5433 22.7956 67.2659 22.8641 67.0262 23.0011C66.7933 23.1381 66.6083 23.3299 66.4714 23.5764C66.3412 23.8162 66.2761 24.1004 66.2761 24.4292V24.6347C66.2761 24.9635 66.3515 25.2546 66.5022 25.508C66.6529 25.7614 66.8652 25.9567 67.1392 26.0936C67.4132 26.2306 67.7282 26.2991 68.0844 26.2991C68.3927 26.2991 68.6701 26.2512 68.9166 26.1553C69.1632 26.0594 69.3824 25.9087 69.5742 25.7032L70.2626 26.4943C70.016 26.782 69.7043 27.0046 69.3276 27.1622C68.9577 27.3129 68.5331 27.3882 68.0536 27.3882ZM74.3591 27.3882C73.9139 27.3882 73.5064 27.2855 73.1365 27.08C72.7735 26.8745 72.4824 26.5663 72.2632 26.1553C72.0508 25.7375 71.9447 25.2101 71.9447 24.573C71.9447 23.9292 72.0474 23.4018 72.2529 22.9908C72.4652 22.5798 72.7529 22.275 73.1159 22.0764C73.479 21.8709 73.8934 21.7682 74.3591 21.7682C74.9002 21.7682 75.3763 21.8846 75.7873 22.1175C76.2051 22.3504 76.5339 22.6757 76.7736 23.0935C77.0202 23.5114 77.1435 24.0045 77.1435 24.573C77.1435 25.1416 77.0202 25.6381 76.7736 26.0628C76.5339 26.4806 76.2051 26.806 75.7873 27.0389C75.3763 27.2718 74.9002 27.3882 74.3591 27.3882ZM71.3179 29.3095V21.8298H72.5406V23.1244L72.4995 24.5833L72.6022 26.0423V29.3095H71.3179ZM74.2153 26.2889C74.5235 26.2889 74.7975 26.2204 75.0372 26.0834C75.2838 25.9464 75.479 25.7477 75.6229 25.4875C75.7667 25.2272 75.8386 24.9224 75.8386 24.573C75.8386 24.2169 75.7667 23.9121 75.6229 23.6586C75.479 23.3984 75.2838 23.1997 75.0372 23.0627C74.7975 22.9257 74.5235 22.8572 74.2153 22.8572C73.9071 22.8572 73.6297 22.9257 73.3831 23.0627C73.1365 23.1997 72.9413 23.3984 72.7974 23.6586C72.6536 23.9121 72.5817 24.2169 72.5817 24.573C72.5817 24.9224 72.6536 25.2272 72.7974 25.4875C72.9413 25.7477 73.1365 25.9464 73.3831 26.0834C73.6297 26.2204 73.9071 26.2889 74.2153 26.2889ZM83.2403 27.3163V21.8298H84.5246V27.3163H83.2403ZM80.3738 23.6381C81.0793 23.6381 81.6135 23.7956 81.9766 24.1107C82.3464 24.4258 82.5314 24.871 82.5314 25.4464C82.5314 26.0423 82.3259 26.508 81.9149 26.8437C81.5108 27.1724 80.9354 27.3334 80.1888 27.3266L77.7024 27.3163V21.8298H78.9867V23.6278L80.3738 23.6381ZM80.0758 26.3813C80.4525 26.3882 80.7402 26.3094 80.9389 26.145C81.1375 25.9806 81.2368 25.7409 81.2368 25.4258C81.2368 25.1107 81.1375 24.8847 80.9389 24.7477C80.7471 24.6039 80.4594 24.5285 80.0758 24.5217L78.9867 24.5114V26.371L80.0758 26.3813ZM85.5318 27.3163V21.8298H88.2134C88.8778 21.8298 89.3983 21.9531 89.7751 22.1997C90.1586 22.4463 90.3504 22.7956 90.3504 23.2477C90.3504 23.6929 90.1723 24.0422 89.8162 24.2956C89.46 24.5422 88.9874 24.6655 88.3983 24.6655L88.5524 24.347C89.2168 24.347 89.71 24.4703 90.0319 24.7169C90.3607 24.9566 90.5251 25.3094 90.5251 25.7751C90.5251 26.2615 90.3436 26.6416 89.9806 26.9156C89.6175 27.1827 89.0661 27.3163 88.3264 27.3163H85.5318ZM86.7544 26.3813H88.2236C88.573 26.3813 88.8367 26.3265 89.0148 26.2169C89.1929 26.1005 89.2819 25.9258 89.2819 25.6929C89.2819 25.4464 89.1997 25.2648 89.0353 25.1484C88.8709 25.032 88.6141 24.9737 88.2647 24.9737H86.7544V26.3813ZM86.7544 24.121H88.1004C88.4291 24.121 88.6757 24.0628 88.8401 23.9463C89.0113 23.823 89.097 23.6518 89.097 23.4326C89.097 23.2066 89.0113 23.0388 88.8401 22.9292C88.6757 22.8196 88.4291 22.7648 88.1004 22.7648H86.7544V24.121ZM91.1738 27.3163V21.8298H92.4581V24.0593H95.2219V21.8298H96.5062V27.3163H95.2219V25.1484H92.4581V27.3163H91.1738ZM100.837 27.3163V26.2067L100.765 25.9704V24.0285C100.765 23.6518 100.652 23.3607 100.426 23.1552C100.2 22.9429 99.8576 22.8367 99.3986 22.8367C99.0904 22.8367 98.7856 22.8846 98.4842 22.9805C98.1897 23.0764 97.9397 23.21 97.7342 23.3812L97.2308 22.4463C97.5253 22.2202 97.8746 22.0524 98.2787 21.9428C98.6897 21.8264 99.1144 21.7682 99.5527 21.7682C100.347 21.7682 100.96 21.96 101.392 22.3435C101.83 22.7202 102.049 23.3059 102.049 24.1004V27.3163H100.837ZM99.111 27.3882C98.7 27.3882 98.3404 27.3197 98.0322 27.1827C97.7239 27.0389 97.4842 26.8437 97.313 26.5971C97.1486 26.3437 97.0664 26.0594 97.0664 25.7443C97.0664 25.4361 97.1383 25.1587 97.2821 24.9121C97.4328 24.6655 97.676 24.4703 98.0116 24.3265C98.3472 24.1826 98.7925 24.1107 99.3473 24.1107H100.94V24.9635H99.4397C99.0014 24.9635 98.7068 25.0354 98.5561 25.1792C98.4055 25.3162 98.3301 25.4875 98.3301 25.6929C98.3301 25.9258 98.4226 26.1108 98.6075 26.2478C98.7925 26.3847 99.0493 26.4532 99.3781 26.4532C99.6932 26.4532 99.974 26.3813 100.221 26.2375C100.474 26.0936 100.656 25.8813 100.765 25.6005L100.981 26.371C100.858 26.693 100.635 26.943 100.313 27.1211C99.998 27.2992 99.5973 27.3882 99.111 27.3882ZM106.402 27.3163V25.4464L106.587 25.6621H104.943C104.19 25.6621 103.598 25.5046 103.166 25.1895C102.741 24.8676 102.529 24.4052 102.529 23.8025C102.529 23.1586 102.755 22.6689 103.207 22.3333C103.666 21.9976 104.276 21.8298 105.036 21.8298H107.553V27.3163H106.402ZM102.457 27.3163L103.937 25.2203H105.252L103.834 27.3163H102.457ZM106.402 25.0354V22.5696L106.587 22.9086H105.077C104.68 22.9086 104.372 22.984 104.152 23.1346C103.94 23.2785 103.834 23.5148 103.834 23.8436C103.834 24.46 104.235 24.7683 105.036 24.7683H106.587L106.402 25.0354ZM47.3448 38.3882C46.8995 38.3882 46.492 38.2855 46.1221 38.08C45.7591 37.8745 45.468 37.5663 45.2488 37.1553C45.0365 36.7375 44.9303 36.2101 44.9303 35.573C44.9303 34.9292 45.033 34.4018 45.2385 33.9908C45.4509 33.5798 45.7385 33.275 46.1016 33.0764C46.4646 32.8709 46.879 32.7682 47.3448 32.7682C47.8859 32.7682 48.3619 32.8846 48.7729 33.1175C49.1907 33.3504 49.5195 33.6757 49.7592 34.0935C50.0058 34.5114 50.1291 35.0045 50.1291 35.573C50.1291 36.1416 50.0058 36.6381 49.7592 37.0628C49.5195 37.4806 49.1907 37.806 48.7729 38.0389C48.3619 38.2718 47.8859 38.3882 47.3448 38.3882ZM44.3036 40.3095V32.8298H45.5262V34.1244L45.4851 35.5833L45.5878 37.0423V40.3095H44.3036ZM47.2009 37.2889C47.5091 37.2889 47.7831 37.2204 48.0229 37.0834C48.2694 36.9464 48.4647 36.7477 48.6085 36.4875C48.7523 36.2272 48.8243 35.9224 48.8243 35.573C48.8243 35.2169 48.7523 34.9121 48.6085 34.6586C48.4647 34.3984 48.2694 34.1997 48.0229 34.0627C47.7831 33.9257 47.5091 33.8572 47.2009 33.8572C46.8927 33.8572 46.6153 33.9257 46.3687 34.0627C46.1221 34.1997 45.9269 34.3984 45.7831 34.6586C45.6392 34.9121 45.5673 35.2169 45.5673 35.573C45.5673 35.9224 45.6392 36.2272 45.7831 36.4875C45.9269 36.7477 46.1221 36.9464 46.3687 37.0834C46.6153 37.2204 46.8927 37.2889 47.2009 37.2889ZM53.9467 38.3163V37.2067L53.8748 36.9704V35.0285C53.8748 34.6518 53.7618 34.3607 53.5357 34.1552C53.3097 33.9429 52.9672 33.8367 52.5083 33.8367C52.2001 33.8367 51.8953 33.8846 51.5939 33.9805C51.2994 34.0764 51.0494 34.21 50.8439 34.3812L50.3404 33.4463C50.635 33.2202 50.9843 33.0524 51.3884 32.9428C51.7994 32.8264 52.2241 32.7682 52.6624 32.7682C53.457 32.7682 54.07 32.96 54.5015 33.3435C54.9399 33.7202 55.1591 34.3059 55.1591 35.1004V38.3163H53.9467ZM52.2206 38.3882C51.8097 38.3882 51.4501 38.3197 51.1418 38.1827C50.8336 38.0389 50.5939 37.8437 50.4226 37.5971C50.2582 37.3437 50.176 37.0594 50.176 36.7443C50.176 36.4361 50.248 36.1587 50.3918 35.9121C50.5425 35.6655 50.7857 35.4703 51.1213 35.3265C51.4569 35.1826 51.9021 35.1107 52.4569 35.1107H54.0495V35.9635H52.5494C52.111 35.9635 51.8165 36.0354 51.6658 36.1792C51.5151 36.3162 51.4398 36.4875 51.4398 36.6929C51.4398 36.9258 51.5323 37.1108 51.7172 37.2478C51.9021 37.3847 52.159 37.4532 52.4878 37.4532C52.8028 37.4532 53.0837 37.3813 53.3303 37.2375C53.5837 37.0936 53.7652 36.8813 53.8748 36.6005L54.0906 37.371C53.9673 37.693 53.7446 37.943 53.4227 38.1211C53.1076 38.2992 52.7069 38.3882 52.2206 38.3882ZM58.649 38.419C58.197 38.419 57.7929 38.3505 57.4367 38.2135C57.0805 38.0766 56.7723 37.8676 56.512 37.5868C56.2586 37.2991 56.0634 36.9361 55.9264 36.4977C55.7894 36.0594 55.7209 35.5388 55.7209 34.936C55.7209 34.4977 55.7585 34.097 55.8339 33.7339C55.9092 33.3709 56.0223 33.0456 56.1729 32.7579C56.3236 32.4634 56.512 32.2031 56.738 31.977C56.9709 31.751 57.2415 31.5626 57.5497 31.412C57.8579 31.2613 58.2073 31.1448 58.5977 31.0626L61.1457 30.5181L61.3306 31.6688L59.0189 32.1414C58.8888 32.1688 58.7312 32.2099 58.5463 32.2647C58.3682 32.3127 58.1833 32.388 57.9915 32.4908C57.8066 32.5867 57.6319 32.7271 57.4675 32.912C57.31 33.0901 57.1798 33.323 57.0771 33.6107C56.9812 33.8915 56.9332 34.2442 56.9332 34.6689C56.9332 34.799 56.9367 34.8984 56.9435 34.9669C56.9572 35.0285 56.9675 35.097 56.9743 35.1723C56.988 35.2408 56.9949 35.3436 56.9949 35.4806L56.512 34.9771C56.649 34.6278 56.8373 34.3299 57.0771 34.0833C57.3237 33.8298 57.6079 33.6381 57.9298 33.5079C58.2586 33.3709 58.6148 33.3024 58.9984 33.3024C59.5121 33.3024 59.9676 33.4086 60.3649 33.6209C60.7621 33.8333 61.0738 34.1312 61.2998 34.5148C61.5259 34.8984 61.6389 35.3333 61.6389 35.8196C61.6389 36.3265 61.5156 36.7751 61.269 37.1656C61.0224 37.556 60.6731 37.8642 60.221 38.0902C59.7758 38.3094 59.2518 38.419 58.649 38.419ZM58.7518 37.3813C59.06 37.3813 59.3306 37.3163 59.5635 37.1861C59.8032 37.0491 59.9881 36.8642 60.1183 36.6313C60.2553 36.3984 60.3238 36.1381 60.3238 35.8505C60.3238 35.5628 60.2553 35.3128 60.1183 35.1004C59.9881 34.8812 59.8032 34.7066 59.5635 34.5764C59.3306 34.4463 59.0532 34.3812 58.7312 34.3812C58.423 34.3812 58.1456 34.4429 57.899 34.5662C57.6593 34.6895 57.4709 34.8607 57.3339 35.0799C57.2038 35.2922 57.1387 35.5388 57.1387 35.8196C57.1387 36.1073 57.2072 36.371 57.3442 36.6108C57.4812 36.8505 57.6696 37.0388 57.9093 37.1758C58.1559 37.3128 58.4367 37.3813 58.7518 37.3813ZM64.6081 38.3882C64.0464 38.3882 63.5464 38.2683 63.108 38.0286C62.6696 37.782 62.3237 37.4464 62.0703 37.0217C61.8169 36.5971 61.6902 36.1142 61.6902 35.573C61.6902 35.0251 61.8169 34.5422 62.0703 34.1244C62.3237 33.6997 62.6696 33.3675 63.108 33.1278C63.5464 32.888 64.0464 32.7682 64.6081 32.7682C65.1766 32.7682 65.68 32.888 66.1184 33.1278C66.5636 33.3675 66.9095 33.6963 67.1561 34.1141C67.4095 34.5319 67.5362 35.0182 67.5362 35.573C67.5362 36.1142 67.4095 36.5971 67.1561 37.0217C66.9095 37.4464 66.5636 37.782 66.1184 38.0286C65.68 38.2683 65.1766 38.3882 64.6081 38.3882ZM64.6081 37.2889C64.9231 37.2889 65.204 37.2204 65.4506 37.0834C65.6971 36.9464 65.8889 36.7477 66.0259 36.4875C66.1698 36.2272 66.2417 35.9224 66.2417 35.573C66.2417 35.2169 66.1698 34.9121 66.0259 34.6586C65.8889 34.3984 65.6971 34.1997 65.4506 34.0627C65.204 33.9257 64.9266 33.8572 64.6183 33.8572C64.3033 33.8572 64.0224 33.9257 63.7758 34.0627C63.5361 34.1997 63.3443 34.3984 63.2005 34.6586C63.0566 34.9121 62.9847 35.2169 62.9847 35.573C62.9847 35.9224 63.0566 36.2272 63.2005 36.4875C63.3443 36.7477 63.5361 36.9464 63.7758 37.0834C64.0224 37.2204 64.2998 37.2889 64.6081 37.2889ZM69.0255 38.3163V33.6107L69.3235 33.9189H67.094V32.8298H72.2311V33.9189H70.0119L70.3098 33.6107V38.3163H69.0255ZM75.7724 38.3163V37.2067L75.7004 36.9704V35.0285C75.7004 34.6518 75.5874 34.3607 75.3614 34.1552C75.1354 33.9429 74.7929 33.8367 74.334 33.8367C74.0257 33.8367 73.7209 33.8846 73.4196 33.9805C73.125 34.0764 72.875 34.21 72.6695 34.3812L72.1661 33.4463C72.4606 33.2202 72.8099 33.0524 73.2141 32.9428C73.625 32.8264 74.0497 32.7682 74.4881 32.7682C75.2826 32.7682 75.8957 32.96 76.3272 33.3435C76.7655 33.7202 76.9847 34.3059 76.9847 35.1004V38.3163H75.7724ZM74.0463 38.3882C73.6353 38.3882 73.2757 38.3197 72.9675 38.1827C72.6593 38.0389 72.4195 37.8437 72.2483 37.5971C72.0839 37.3437 72.0017 37.0594 72.0017 36.7443C72.0017 36.4361 72.0736 36.1587 72.2175 35.9121C72.3681 35.6655 72.6113 35.4703 72.9469 35.3265C73.2826 35.1826 73.7278 35.1107 74.2826 35.1107H75.8751V35.9635H74.3751C73.9367 35.9635 73.6422 36.0354 73.4915 36.1792C73.3408 36.3162 73.2654 36.4875 73.2654 36.6929C73.2654 36.9258 73.3579 37.1108 73.5428 37.2478C73.7278 37.3847 73.9846 37.4532 74.3134 37.4532C74.6285 37.4532 74.9093 37.3813 75.1559 37.2375C75.4093 37.0936 75.5909 36.8813 75.7004 36.6005L75.9162 37.371C75.7929 37.693 75.5703 37.943 75.2484 38.1211C74.9333 38.2992 74.5326 38.3882 74.0463 38.3882ZM80.7148 38.3163V31.638L81.3004 32.2442H79.1942V31.1243H82.0504V38.3163H80.7148ZM88.7516 36.1484C88.4913 36.2717 88.2139 36.3744 87.9194 36.4566C87.6317 36.532 87.3269 36.5697 87.005 36.5697C86.3132 36.5697 85.7755 36.4087 85.3919 36.0868C85.0083 35.7648 84.8166 35.2648 84.8166 34.5867V32.8298H86.1008V34.5045C86.1008 34.8675 86.2036 35.1313 86.4091 35.2956C86.6214 35.46 86.9125 35.5422 87.2824 35.5422C87.529 35.5422 87.7756 35.5114 88.0221 35.4498C88.2687 35.3881 88.5119 35.3025 88.7516 35.1929V36.1484ZM88.6591 38.3163V32.8298H89.9434V38.3163H88.6591ZM94.2801 38.3163V37.2067L94.2082 36.9704V35.0285C94.2082 34.6518 94.0952 34.3607 93.8692 34.1552C93.6431 33.9429 93.3007 33.8367 92.8417 33.8367C92.5335 33.8367 92.2287 33.8846 91.9273 33.9805C91.6328 34.0764 91.3828 34.21 91.1773 34.3812L90.6739 33.4463C90.9684 33.2202 91.3177 33.0524 91.7218 32.9428C92.1328 32.8264 92.5575 32.7682 92.9959 32.7682C93.7904 32.7682 94.4034 32.96 94.835 33.3435C95.2733 33.7202 95.4925 34.3059 95.4925 35.1004V38.3163H94.2801ZM92.5541 38.3882C92.1431 38.3882 91.7835 38.3197 91.4753 38.1827C91.167 38.0389 90.9273 37.8437 90.7561 37.5971C90.5917 37.3437 90.5095 37.0594 90.5095 36.7443C90.5095 36.4361 90.5814 36.1587 90.7252 35.9121C90.8759 35.6655 91.1191 35.4703 91.4547 35.3265C91.7903 35.1826 92.2356 35.1107 92.7904 35.1107H94.3829V35.9635H92.8828C92.4445 35.9635 92.1499 36.0354 91.9993 36.1792C91.8486 36.3162 91.7732 36.4875 91.7732 36.6929C91.7732 36.9258 91.8657 37.1108 92.0506 37.2478C92.2356 37.3847 92.4924 37.4532 92.8212 37.4532C93.1363 37.4532 93.4171 37.3813 93.6637 37.2375C93.9171 37.0936 94.0986 36.8813 94.2082 36.6005L94.424 37.371C94.3007 37.693 94.0781 37.943 93.7562 38.1211C93.4411 38.2992 93.0404 38.3882 92.5541 38.3882ZM98.8592 38.3882C98.2838 38.3882 97.7701 38.2683 97.318 38.0286C96.8728 37.782 96.5235 37.4464 96.2701 37.0217C96.0166 36.5971 95.8899 36.1142 95.8899 35.573C95.8899 35.0251 96.0166 34.5422 96.2701 34.1244C96.5235 33.6997 96.8728 33.3675 97.318 33.1278C97.7701 32.888 98.2838 32.7682 98.8592 32.7682C99.3935 32.7682 99.8626 32.8778 100.267 33.0969C100.678 33.3093 100.989 33.6244 101.202 34.0422L100.215 34.6175C100.051 34.3573 99.8489 34.1655 99.6092 34.0422C99.3763 33.9189 99.1229 33.8572 98.8489 33.8572C98.5338 33.8572 98.2496 33.9257 97.9962 34.0627C97.7427 34.1997 97.5441 34.3984 97.4002 34.6586C97.2564 34.9121 97.1845 35.2169 97.1845 35.573C97.1845 35.9292 97.2564 36.2375 97.4002 36.4977C97.5441 36.7512 97.7427 36.9464 97.9962 37.0834C98.2496 37.2204 98.5338 37.2889 98.8489 37.2889C99.1229 37.2889 99.3763 37.2272 99.6092 37.1039C99.8489 36.9806 100.051 36.7888 100.215 36.5286L101.202 37.1039C100.989 37.5149 100.678 37.8334 100.267 38.0594C99.8626 38.2786 99.3935 38.3882 98.8592 38.3882Z" fill="#F6517C"/>
<path d="M22.2105 108.317C21.171 107.282 19.6844 105.68 19.1314 104.477C18.7174 103.578 18.6775 102.524 19.0221 101.591C19.7752 99.4611 22.5502 98.8975 24.0271 100.571C24.1102 100.664 24.185 100.766 24.2617 100.87C24.293 100.913 24.3246 100.956 24.3573 100.999C24.3996 100.965 24.4408 100.931 24.4815 100.898C24.5814 100.815 24.6787 100.735 24.7823 100.665C26.6238 99.4038 29.1765 100.629 29.3854 102.878C29.4911 103.868 29.1943 104.88 28.5729 105.65C27.7424 106.681 25.9087 107.871 24.6475 108.62C24.2961 108.829 23.3176 109.365 23.3176 109.365C23.3176 109.365 22.5001 108.606 22.2105 108.317Z" fill="#E4016A"/>
<path d="M36.6402 122.392C35.6007 121.357 34.1141 119.754 33.5611 118.551C33.1471 117.653 33.1072 116.598 33.4518 115.665C34.2049 113.535 36.9798 112.972 38.4568 114.645C38.5399 114.739 38.6147 114.84 38.6914 114.945C38.7226 114.987 38.7543 115.03 38.787 115.073C38.8292 115.039 38.8705 115.006 38.9112 114.972C39.0111 114.89 39.1084 114.809 39.2119 114.739C41.0535 113.478 43.6062 114.704 43.8151 116.953C43.9208 117.942 43.624 118.955 43.0026 119.725C42.172 120.755 40.3384 121.945 39.0772 122.694C38.7257 122.903 37.7473 123.439 37.7473 123.439C37.7473 123.439 36.9298 122.68 36.6402 122.392Z" fill="#F6517C"/>
<path d="M130.193 77.2443C131.203 76.1805 132.644 74.5364 133.163 73.3185C133.551 72.4085 133.561 71.3532 133.19 70.4302C132.377 68.3229 129.588 67.838 128.159 69.5524C128.078 69.6483 128.006 69.7519 127.933 69.8583C127.902 69.9018 127.872 69.9457 127.841 69.9897C127.797 69.9571 127.755 69.9243 127.714 69.8919C127.611 69.8124 127.512 69.735 127.406 69.6676C125.53 68.4593 123.013 69.7566 122.868 72.0106C122.79 73.0023 123.115 74.0062 123.758 74.7583C124.618 75.7652 126.484 76.903 127.766 77.616C128.123 77.8147 129.116 78.3228 129.116 78.3228C129.116 78.3228 129.912 77.5408 130.193 77.2443Z" fill="#F6517C"/>
<path d="M21.2257 90.9408C19.7286 89.3489 17.5938 86.8897 16.8294 85.0718C16.2571 83.7134 16.2493 82.1412 16.8081 80.7688C18.0339 77.635 22.1933 76.932 24.3104 79.4959C24.4295 79.6393 24.5358 79.7942 24.6449 79.9532C24.6894 80.0181 24.7345 80.0837 24.781 80.1495C24.8456 80.1012 24.9086 80.0527 24.971 80.0046C25.1237 79.887 25.2726 79.7724 25.4301 79.6726C28.234 77.8855 31.9746 79.8356 32.1755 83.1945C32.2844 84.6724 31.7928 86.1657 30.8299 87.2818C29.5426 88.7758 26.7541 90.4579 24.8394 91.5112C24.3059 91.8048 22.8228 92.5548 22.8228 92.5548C22.8228 92.5548 21.6429 91.3845 21.2257 90.9408Z" fill="#F6517C"/>
<path d="M121.23 57.5819C122.426 55.7529 124.098 52.9584 124.533 51.0348C124.859 49.5973 124.592 48.0479 123.802 46.7943C122.047 43.9231 117.829 43.958 116.193 46.8525C116.1 47.0145 116.023 47.1855 115.943 47.3612C115.911 47.4329 115.878 47.5053 115.843 47.5782C115.771 47.542 115.701 47.5053 115.631 47.4689C115.46 47.3797 115.294 47.2929 115.121 47.2222C112.048 45.9528 108.706 48.5267 109.095 51.869C109.246 53.3432 109.991 54.7276 111.134 55.6581C112.663 56.9042 115.703 58.0729 117.772 58.7753C118.349 58.9711 119.94 59.4503 119.94 59.4503C119.94 59.4503 120.897 58.0917 121.23 57.5819Z" fill="#E4016A"/>
<path d="M106.927 66.9846C114.875 71.2927 119.411 84.5628 116.695 96.5913M116.695 96.5913L114.202 91.1492M116.695 96.5913L120.484 91.6536" stroke="url(#paint0_linear_2869_17)" stroke-width="1.63794" stroke-linecap="round" stroke-linejoin="round"/>
<path d="M62.5817 126.966H54.9379C54.665 125.965 54.7742 124.072 57.3949 124.509C60.0156 124.946 61.9447 126.329 62.5817 126.966Z" fill="#E4016A"/>
<path d="M65.3116 117.139L62.5817 126.966M62.5817 126.966H54.9379C54.665 125.965 54.7742 124.072 57.3949 124.509C60.0156 124.946 61.9447 126.329 62.5817 126.966Z" stroke="#E4016A" stroke-width="2.18392" stroke-linecap="round" stroke-linejoin="round"/>
<path d="M89.7777 126.966H97.4214C97.6944 125.965 97.5852 124.072 94.9645 124.509C92.3438 124.946 90.4147 126.329 89.7777 126.966Z" fill="#E4016A"/>
<path d="M87.0478 117.139L89.7777 126.966M89.7777 126.966H97.4214C97.6944 125.965 97.5852 124.072 94.9645 124.509C92.3438 124.946 90.4147 126.329 89.7777 126.966Z" stroke="#E4016A" stroke-width="2.18392" stroke-linecap="round" stroke-linejoin="round"/>
<path d="M106.746 91.4774C106.746 108.366 93.0237 122.089 76.1347 122.089C59.2458 122.089 45.5234 108.366 45.5234 91.4774C45.5234 74.5884 59.2458 60.8661 76.1347 60.8661C93.0237 60.8661 106.746 74.5884 106.746 91.4774Z" fill="#FF6C92"/>
<path d="M103.579 91.4774C103.579 108.366 90.596 122.089 74.5514 122.089C58.5068 122.089 45.5234 108.366 45.5234 91.4774C45.5234 74.5884 58.5069 60.8661 74.5514 60.8661C90.5959 60.8661 103.579 74.5884 103.579 91.4774Z" fill="#FF91AD"/>
<path d="M76.1347 122.089C76.4514 122.089 76.6625 122.089 76.9792 122.089C61.2514 121.666 51.0174 108.155 51.0174 91.4774C51.0174 74.7994 61.2514 61.2884 76.9792 60.8661C76.6625 60.8661 76.4514 60.8661 76.1347 60.8661C59.2458 60.8661 45.5234 74.5884 45.5234 91.4774C45.5234 108.366 59.2458 122.089 76.1347 122.089Z" fill="#EB577D"/>
<path d="M72.9609 91.3716C72.9609 93.1661 74.3331 94.5382 76.1276 94.5382C77.9221 94.5382 79.2942 93.1661 79.2942 91.3716C79.2942 89.5771 77.9221 88.205 76.1276 88.205C74.3331 88.205 72.9609 89.5771 72.9609 91.3716Z" fill="#EB577D"/>
<path d="M76.1434 123.145C58.7266 123.145 44.4766 108.894 44.4766 91.4776C44.4766 74.0608 58.7266 59.8108 76.1434 59.8108C93.5601 59.8108 107.81 74.0608 107.81 91.4776C107.81 108.894 93.5601 123.145 76.1434 123.145ZM76.1434 61.9219C59.8877 61.9219 46.5877 75.2219 46.5877 91.4776C46.5877 107.733 59.8877 121.033 76.1434 121.033C92.399 121.033 105.699 107.733 105.699 91.4776C105.699 75.2219 92.399 61.9219 76.1434 61.9219Z" fill="#E4016A"/>
<path d="M88.1719 92.4278H79.7274C79.0941 92.4278 78.6719 92.0056 78.6719 91.3723C78.6719 90.739 79.0941 90.3168 79.7274 90.3168H88.1719C88.8053 90.3168 89.2274 90.739 89.2274 91.3723C89.2274 92.0056 88.8053 92.4278 88.1719 92.4278Z" fill="#E4016A"/>
<path d="M77.3984 88.9315C76.7938 88.743 76.5164 88.2142 76.705 87.6096L80.1623 76.5251C80.3509 75.9205 80.8796 75.6432 81.4842 75.8317C82.0888 76.0203 82.3661 76.549 82.1775 77.1536L78.7203 88.2382C78.5318 88.8428 78.003 89.1201 77.3984 88.9315Z" fill="#E4016A"/>
<path d="M76.1363 95.5944C73.814 95.5944 71.9141 93.6945 71.9141 91.3722C71.9141 89.0499 73.814 87.1499 76.1363 87.1499C78.4586 87.1499 80.3586 89.0499 80.3586 91.3722C80.3586 93.6945 78.4586 95.5944 76.1363 95.5944ZM76.1363 89.261C74.9752 89.261 74.0252 90.211 74.0252 91.3722C74.0252 92.5333 74.9752 93.4833 76.1363 93.4833C77.2975 93.4833 78.2475 92.5333 78.2475 91.3722C78.2475 90.211 77.2975 89.261 76.1363 89.261Z" fill="#E4016A"/>
<path d="M76.1258 70.2611C75.4925 70.2611 75.0703 69.8389 75.0703 69.2056V68.1501C75.0703 67.5168 75.4925 67.0946 76.1258 67.0946C76.7591 67.0946 77.1813 67.5168 77.1813 68.1501V69.2056C77.1815 69.8389 76.7591 70.2611 76.1258 70.2611Z" fill="#E4016A"/>
<path d="M76.1258 115.65C75.4925 115.65 75.0703 115.227 75.0703 114.594V113.539C75.0703 112.905 75.4925 112.483 76.1258 112.483C76.7591 112.483 77.1813 112.905 77.1813 113.539V114.594C77.1815 115.227 76.7591 115.65 76.1258 115.65Z" fill="#E4016A"/>
<path d="M99.361 92.4278H98.3055C97.6722 92.4278 97.25 92.0056 97.25 91.3723C97.25 90.739 97.6722 90.3168 98.3055 90.3168H99.361C99.9943 90.3168 100.417 90.739 100.417 91.3723C100.417 92.0056 99.9943 92.4278 99.361 92.4278Z" fill="#E4016A"/>
<path d="M53.9704 92.4278H52.9149C52.2816 92.4278 51.8594 92.0056 51.8594 91.3723C51.8594 90.739 52.2816 90.3168 52.9149 90.3168H53.9704C54.6037 90.3168 55.0259 90.739 55.0259 91.3723C55.0259 92.0056 54.6037 92.4278 53.9704 92.4278Z" fill="#E4016A"/>
<path d="M91.7508 76.8054C91.4341 76.8054 91.223 76.6999 91.0119 76.4887C90.5898 76.0665 90.5898 75.4332 91.0119 75.0109L91.7508 74.2721C92.173 73.8499 92.8063 73.8499 93.2286 74.2721C93.6508 74.6943 93.6508 75.3276 93.2286 75.7499L92.4898 76.4887C92.3841 76.6999 92.0675 76.8054 91.7508 76.8054Z" fill="#E4016A"/>
<path d="M59.6648 108.895C59.3482 108.895 59.137 108.789 58.926 108.578C58.5038 108.156 58.5038 107.522 58.926 107.1L59.6648 106.361C60.087 105.939 60.7204 105.939 61.1427 106.361C61.565 106.783 61.5648 107.417 61.1427 107.839L60.4038 108.578C60.2982 108.789 59.9815 108.895 59.6648 108.895Z" fill="#E4016A"/>
<path d="M92.5912 108.895C92.2745 108.895 92.0634 108.789 91.8523 108.578L91.1135 107.839C90.6913 107.417 90.6913 106.784 91.1135 106.361C91.5357 105.939 92.169 105.939 92.5913 106.361L93.3302 107.1C93.7523 107.522 93.7523 108.156 93.3302 108.578C93.119 108.789 92.8023 108.895 92.5912 108.895Z" fill="#E4016A"/>
<path d="M60.5131 76.8054C60.1964 76.8054 59.9852 76.6999 59.7742 76.4887L59.0354 75.7499C58.6132 75.3277 58.6132 74.6944 59.0354 74.2721C59.4576 73.8499 60.0909 73.8499 60.5132 74.2721L61.252 75.0109C61.6742 75.4331 61.6742 76.0664 61.252 76.4887C61.0409 76.6999 60.7242 76.8054 60.5131 76.8054Z" fill="#E4016A"/>
<path d="M45.2829 77.5785C46.3248 77.8979 47.7614 77.6565 49.5224 76.8862C52.199 75.7153 55.4003 72.8866 59.7776 69.1854L59.682 68.9668C58.5711 68.2964 57.5979 67.341 57.0533 66.0961C56.5609 64.9704 56.4063 63.781 56.5959 62.6143C54.7297 61.7522 44.5646 57.4629 39.4248 66.2749L43.8448 76.379C43.8838 76.4682 44.1658 77.2362 45.2829 77.5785ZM44.6508 75.0474C45.9331 72.9287 49.3904 69.1777 57.7935 69.1408C47.0039 79.504 44.9699 75.9669 44.6508 75.0474Z" fill="#E4016A"/>
<path d="M68.5571 57.3845C69.5426 58.0372 70.3112 58.958 70.8036 60.0837C71.3482 61.3287 71.3893 62.6918 71.1276 63.9626L71.2232 64.1811C76.9124 63.4788 81.1626 63.0477 83.8391 61.8769C85.5999 61.1066 86.7522 60.2155 87.2251 59.2334C87.7318 58.1808 87.3593 57.4524 87.3203 57.3632L82.9002 47.259C72.9402 45.0526 69.1906 55.4289 68.5571 57.3845ZM72.5371 62.6937C78.2679 56.5477 83.369 56.5548 85.7953 57.0512C86.254 57.9096 87.4709 61.8042 72.5371 62.6937Z" fill="#E4016A"/>
<path d="M66.1269 68.1191C69.2806 66.7395 70.8597 63.3612 69.6468 60.5886C68.4339 57.8159 64.8812 56.6825 61.7274 58.0621C58.5736 59.4418 56.9946 62.82 58.2075 65.5927C59.4204 68.3653 62.9731 69.4988 66.1269 68.1191Z" fill="#E4016A"/>
<path d="M66.1269 68.1191C62.2843 68.2594 61.0701 67.1488 60.4663 66.277C60.1585 65.8326 59.8895 65.355 59.7383 64.836C59.2608 63.1973 59.5645 60.9732 61.7275 58.0621C58.5736 59.4418 56.9946 62.82 58.2075 65.5927C59.4204 68.3653 62.9731 69.4988 66.1269 68.1191Z" fill="black" fill-opacity="0.16"/>
<defs>
<linearGradient id="paint0_linear_2869_17" x1="119.556" y1="91.2852" x2="99.8283" y2="63.4424" gradientUnits="userSpaceOnUse">
<stop offset="0.375" stop-color="#FF6C92"/>
<stop offset="0.3751" stop-color="#E4016A"/>
</linearGradient>
<clipPath id="clip0_2869_17">
<rect width="145" height="145" fill="white" transform="translate(0.71875)"/>
</clipPath>
</defs>
</svg>
