<svg width="145" height="145" viewBox="0 0 145 145" fill="none" xmlns="http://www.w3.org/2000/svg">
<g clip-path="url(#clip0_2869_16)">
<path d="M0.71875 72.5C0.71875 112.541 32.9543 145 72.7188 145C112.483 145 144.719 112.541 144.719 72.5C144.719 32.4594 112.483 0 72.7188 0C32.9543 0 0.71875 32.4594 0.71875 72.5Z" fill="white"/>
</g>
<path d="M47.7208 24.3163V17.1243H48.8098L51.964 22.3744H51.3784L54.4813 17.1243H55.5703L55.5909 24.3163H54.3169L54.3066 19.1072H54.5737L51.9435 23.4943H51.3476L48.6763 19.1072H48.9845V24.3163H47.7208ZM60.0693 24.3163V23.2067L59.9974 22.9704V21.0285C59.9974 20.6518 59.8844 20.3607 59.6584 20.1552C59.4323 19.9429 59.0899 19.8367 58.6309 19.8367C58.3227 19.8367 58.0179 19.8846 57.7165 19.9805C57.422 20.0764 57.172 20.21 56.9665 20.3812L56.4631 19.4463C56.7576 19.2202 57.1069 19.0524 57.511 18.9428C57.922 18.8264 58.3467 18.7682 58.7851 18.7682C59.5796 18.7682 60.1926 18.96 60.6242 19.3435C61.0625 19.7202 61.2817 20.3059 61.2817 21.1004V24.3163H60.0693ZM58.3433 24.3882C57.9323 24.3882 57.5727 24.3197 57.2645 24.1827C56.9562 24.0389 56.7165 23.8437 56.5453 23.5971C56.3809 23.3437 56.2987 23.0594 56.2987 22.7443C56.2987 22.4361 56.3706 22.1587 56.5144 21.9121C56.6651 21.6655 56.9083 21.4703 57.2439 21.3265C57.5795 21.1826 58.0248 21.1107 58.5796 21.1107H60.1721V21.9635H58.672C58.2337 21.9635 57.9391 22.0354 57.7885 22.1792C57.6378 22.3162 57.5624 22.4875 57.5624 22.6929C57.5624 22.9258 57.6549 23.1108 57.8398 23.2478C58.0248 23.3847 58.2816 23.4532 58.6104 23.4532C58.9255 23.4532 59.2063 23.3813 59.4529 23.2375C59.7063 23.0936 59.8878 22.8813 59.9974 22.6005L60.2132 23.371C60.0899 23.693 59.8673 23.943 59.5454 24.1211C59.2303 24.2992 58.8296 24.3882 58.3433 24.3882ZM63.2922 24.3163V19.6107L63.5901 19.9189H61.3606V18.8298H66.4978V19.9189H64.2785L64.5765 19.6107V24.3163H63.2922ZM69.0276 24.3882C68.418 24.3882 67.8838 24.2683 67.4249 24.0286C66.9728 23.782 66.62 23.4464 66.3666 23.0217C66.12 22.5971 65.9967 22.1142 65.9967 21.573C65.9967 21.0251 66.1166 20.5422 66.3563 20.1244C66.6029 19.6997 66.9385 19.3675 67.3632 19.1278C67.7947 18.888 68.2845 18.7682 68.8324 18.7682C69.3667 18.7682 69.8427 18.8846 70.2606 19.1175C70.6784 19.3504 71.0072 19.6792 71.2469 20.1038C71.4866 20.5285 71.6065 21.0285 71.6065 21.6039C71.6065 21.6587 71.6031 21.7203 71.5962 21.7888C71.5962 21.8573 71.5928 21.9224 71.5859 21.984H67.0139V21.1313H70.9078L70.4044 21.3984C70.4113 21.0833 70.3462 20.8059 70.2092 20.5662C70.0722 20.3264 69.8838 20.1381 69.6441 20.0011C69.4112 19.8641 69.1407 19.7956 68.8324 19.7956C68.5174 19.7956 68.24 19.8641 68.0002 20.0011C67.7673 20.1381 67.5824 20.3299 67.4454 20.5764C67.3153 20.8162 67.2502 21.1004 67.2502 21.4292V21.6347C67.2502 21.9635 67.3255 22.2546 67.4762 22.508C67.6269 22.7614 67.8393 22.9567 68.1132 23.0936C68.3872 23.2306 68.7023 23.2991 69.0585 23.2991C69.3667 23.2991 69.6441 23.2512 69.8907 23.1553C70.1373 23.0594 70.3565 22.9087 70.5482 22.7032L71.2366 23.4943C70.99 23.782 70.6784 24.0046 70.3017 24.1622C69.9318 24.3129 69.5071 24.3882 69.0276 24.3882ZM75.3332 24.3882C74.888 24.3882 74.4804 24.2855 74.1105 24.08C73.7475 23.8745 73.4564 23.5663 73.2372 23.1553C73.0249 22.7375 72.9187 22.2101 72.9187 21.573C72.9187 20.9292 73.0215 20.4018 73.2269 19.9908C73.4393 19.5798 73.727 19.275 74.09 19.0764C74.453 18.8709 74.8674 18.7682 75.3332 18.7682C75.8743 18.7682 76.3503 18.8846 76.7613 19.1175C77.1791 19.3504 77.5079 19.6757 77.7476 20.0935C77.9942 20.5114 78.1175 21.0045 78.1175 21.573C78.1175 22.1416 77.9942 22.6381 77.7476 23.0628C77.5079 23.4806 77.1791 23.806 76.7613 24.0389C76.3503 24.2718 75.8743 24.3882 75.3332 24.3882ZM72.292 26.3095V18.8298H73.5146V20.1244L73.4735 21.5833L73.5763 23.0423V26.3095H72.292ZM75.1893 23.2889C75.4976 23.2889 75.7716 23.2204 76.0113 23.0834C76.2579 22.9464 76.4531 22.7477 76.5969 22.4875C76.7408 22.2272 76.8127 21.9224 76.8127 21.573C76.8127 21.2169 76.7408 20.9121 76.5969 20.6586C76.4531 20.3984 76.2579 20.1997 76.0113 20.0627C75.7716 19.9257 75.4976 19.8572 75.1893 19.8572C74.8811 19.8572 74.6037 19.9257 74.3571 20.0627C74.1105 20.1997 73.9153 20.3984 73.7715 20.6586C73.6276 20.9121 73.5557 21.2169 73.5557 21.573C73.5557 21.9224 73.6276 22.2272 73.7715 22.4875C73.9153 22.7477 74.1105 22.9464 74.3571 23.0834C74.6037 23.2204 74.8811 23.2889 75.1893 23.2889ZM78.6765 24.3163V18.8298H79.9608V22.4464L82.9917 18.8298H84.163V24.3163H82.8787V20.6997L79.858 24.3163H78.6765ZM88.5002 24.3163V23.2067L88.4283 22.9704V21.0285C88.4283 20.6518 88.3153 20.3607 88.0893 20.1552C87.8632 19.9429 87.5208 19.8367 87.0618 19.8367C86.7536 19.8367 86.4488 19.8846 86.1474 19.9805C85.8529 20.0764 85.6029 20.21 85.3974 20.3812L84.894 19.4463C85.1885 19.2202 85.5378 19.0524 85.9419 18.9428C86.3529 18.8264 86.7776 18.7682 87.216 18.7682C88.0105 18.7682 88.6235 18.96 89.0551 19.3435C89.4934 19.7202 89.7126 20.3059 89.7126 21.1004V24.3163H88.5002ZM86.7742 24.3882C86.3632 24.3882 86.0036 24.3197 85.6954 24.1827C85.3871 24.0389 85.1474 23.8437 84.9762 23.5971C84.8118 23.3437 84.7296 23.0594 84.7296 22.7443C84.7296 22.4361 84.8015 22.1587 84.9453 21.9121C85.096 21.6655 85.3392 21.4703 85.6748 21.3265C86.0104 21.1826 86.4557 21.1107 87.0105 21.1107H88.603V21.9635H87.1029C86.6646 21.9635 86.37 22.0354 86.2194 22.1792C86.0687 22.3162 85.9933 22.4875 85.9933 22.6929C85.9933 22.9258 86.0858 23.1108 86.2707 23.2478C86.4557 23.3847 86.7125 23.4532 87.0413 23.4532C87.3564 23.4532 87.6372 23.3813 87.8838 23.2375C88.1372 23.0936 88.3187 22.8813 88.4283 22.6005L88.6441 23.371C88.5208 23.693 88.2982 23.943 87.9763 24.1211C87.6612 24.2992 87.2605 24.3882 86.7742 24.3882ZM89.7813 24.306L89.8429 23.2272C89.8908 23.2341 89.9354 23.2409 89.9765 23.2478C90.0176 23.2546 90.0552 23.258 90.0895 23.258C90.3018 23.258 90.4662 23.193 90.5826 23.0628C90.6991 22.9327 90.7847 22.758 90.8395 22.5388C90.9011 22.3128 90.9422 22.0628 90.9628 21.7888C90.9902 21.508 91.0107 21.2271 91.0244 20.9463L91.1169 18.8298H95.5554V24.3163H94.2711V19.5696L94.5691 19.9189H91.9594L92.2368 19.5593L92.1649 21.008C92.1443 21.4943 92.1032 21.9463 92.0416 22.3642C91.9868 22.7751 91.8978 23.1347 91.7745 23.443C91.658 23.7512 91.4936 23.9909 91.2813 24.1622C91.0758 24.3334 90.8121 24.419 90.4902 24.419C90.3874 24.419 90.2744 24.4088 90.1511 24.3882C90.0347 24.3677 89.9114 24.3403 89.7813 24.306ZM96.9562 20.4737C96.7234 20.4737 96.5247 20.3949 96.3603 20.2374C96.1959 20.073 96.1137 19.8675 96.1137 19.6209C96.1137 19.3606 96.1959 19.1552 96.3603 19.0045C96.5247 18.8469 96.7234 18.7682 96.9562 18.7682C97.1891 18.7682 97.3878 18.8469 97.5521 19.0045C97.7165 19.1552 97.7987 19.3606 97.7987 19.6209C97.7987 19.8675 97.7165 20.073 97.5521 20.2374C97.3878 20.3949 97.1891 20.4737 96.9562 20.4737ZM96.9562 24.3882C96.7234 24.3882 96.5247 24.3094 96.3603 24.1519C96.1959 23.9875 96.1137 23.782 96.1137 23.5354C96.1137 23.2752 96.1959 23.0697 96.3603 22.919C96.5247 22.7614 96.7234 22.6827 96.9562 22.6827C97.1891 22.6827 97.3878 22.7614 97.5521 22.919C97.7165 23.0697 97.7987 23.2752 97.7987 23.5354C97.7987 23.782 97.7165 23.9875 97.5521 24.1519C97.3878 24.3094 97.1891 24.3882 96.9562 24.3882ZM38.0015 35.3163V29.8298H43.262V35.3163H41.9879V30.6209L42.2859 30.9189H38.9879L39.2858 30.6209V35.3163H38.0015ZM47.3169 35.3882C46.8716 35.3882 46.4641 35.2855 46.0942 35.08C45.7312 34.8745 45.4401 34.5663 45.2209 34.1553C45.0086 33.7375 44.9024 33.2101 44.9024 32.573C44.9024 31.9292 45.0051 31.4018 45.2106 30.9908C45.423 30.5798 45.7106 30.275 46.0737 30.0764C46.4367 29.8709 46.8511 29.7682 47.3169 29.7682C47.858 29.7682 48.334 29.8846 48.745 30.1175C49.1628 30.3504 49.4916 30.6757 49.7313 31.0935C49.9779 31.5114 50.1012 32.0045 50.1012 32.573C50.1012 33.1416 49.9779 33.6381 49.7313 34.0628C49.4916 34.4806 49.1628 34.806 48.745 35.0389C48.334 35.2718 47.858 35.3882 47.3169 35.3882ZM44.2757 37.3095V29.8298H45.4983V31.1244L45.4572 32.5833L45.56 34.0423V37.3095H44.2757ZM47.173 34.2889C47.4812 34.2889 47.7552 34.2204 47.995 34.0834C48.2415 33.9464 48.4368 33.7477 48.5806 33.4875C48.7244 33.2272 48.7964 32.9224 48.7964 32.573C48.7964 32.2169 48.7244 31.9121 48.5806 31.6586C48.4368 31.3984 48.2415 31.1997 47.995 31.0627C47.7552 30.9257 47.4812 30.8572 47.173 30.8572C46.8648 30.8572 46.5874 30.9257 46.3408 31.0627C46.0942 31.1997 45.899 31.3984 45.7552 31.6586C45.6113 31.9121 45.5394 32.2169 45.5394 32.573C45.5394 32.9224 45.6113 33.2272 45.7552 33.4875C45.899 33.7477 46.0942 33.9464 46.3408 34.0834C46.5874 34.2204 46.8648 34.2889 47.173 34.2889ZM53.2185 35.3882C52.6089 35.3882 52.0746 35.2683 51.6157 35.0286C51.1636 34.782 50.8109 34.4464 50.5574 34.0217C50.3109 33.5971 50.1876 33.1142 50.1876 32.573C50.1876 32.0251 50.3074 31.5422 50.5472 31.1244C50.7937 30.6997 51.1294 30.3675 51.554 30.1278C51.9856 29.888 52.4753 29.7682 53.0233 29.7682C53.5575 29.7682 54.0336 29.8846 54.4514 30.1175C54.8692 30.3504 55.198 30.6792 55.4377 31.1038C55.6775 31.5285 55.7973 32.0285 55.7973 32.6039C55.7973 32.6587 55.7939 32.7203 55.7871 32.7888C55.7871 32.8573 55.7836 32.9224 55.7768 32.984H51.2047V32.1313H55.0987L54.5952 32.3984C54.6021 32.0833 54.537 31.8059 54.4 31.5662C54.263 31.3264 54.0747 31.1381 53.8349 31.0011C53.6021 30.8641 53.3315 30.7956 53.0233 30.7956C52.7082 30.7956 52.4308 30.8641 52.191 31.0011C51.9582 31.1381 51.7732 31.3299 51.6362 31.5764C51.5061 31.8162 51.441 32.1004 51.441 32.4292V32.6347C51.441 32.9635 51.5164 33.2546 51.6671 33.508C51.8178 33.7614 52.0301 33.9567 52.3041 34.0936C52.578 34.2306 52.8931 34.2991 53.2493 34.2991C53.5575 34.2991 53.8349 34.2512 54.0815 34.1553C54.3281 34.0594 54.5473 33.9087 54.7391 33.7032L55.4275 34.4943C55.1809 34.782 54.8692 35.0046 54.4925 35.1622C54.1226 35.3129 53.6979 35.3882 53.2185 35.3882ZM56.4828 35.3163V29.8298H57.8287L60.0377 33.7238H59.5035L61.8254 29.8298H63.0275L63.0378 35.3163H61.8768V31.2066L62.0823 31.3401L60.0274 34.7409H59.4726L57.4075 31.2477L57.6541 31.186V35.3163H56.4828ZM64.0412 35.3163V29.8298H65.3255V33.4464L68.3565 29.8298H69.5277V35.3163H68.2434V31.6997L65.2228 35.3163H64.0412ZM73.865 35.3163V34.2067L73.7931 33.9704V32.0285C73.7931 31.6518 73.6801 31.3607 73.454 31.1552C73.228 30.9429 72.8855 30.8367 72.4266 30.8367C72.1184 30.8367 71.8136 30.8846 71.5122 30.9805C71.2177 31.0764 70.9676 31.21 70.7622 31.3812L70.2587 30.4463C70.5532 30.2202 70.9026 30.0524 71.3067 29.9428C71.7177 29.8264 72.1423 29.7682 72.5807 29.7682C73.3753 29.7682 73.9883 29.96 74.4198 30.3435C74.8582 30.7202 75.0774 31.3059 75.0774 32.1004V35.3163H73.865ZM72.1389 35.3882C71.7279 35.3882 71.3683 35.3197 71.0601 35.1827C70.7519 35.0389 70.5122 34.8437 70.3409 34.5971C70.1765 34.3437 70.0943 34.0594 70.0943 33.7443C70.0943 33.4361 70.1663 33.1587 70.3101 32.9121C70.4608 32.6655 70.7039 32.4703 71.0396 32.3265C71.3752 32.1826 71.8204 32.1107 72.3752 32.1107H73.9677V32.9635H72.4677C72.0293 32.9635 71.7348 33.0354 71.5841 33.1792C71.4334 33.3162 71.3581 33.4875 71.3581 33.6929C71.3581 33.9258 71.4505 34.1108 71.6355 34.2478C71.8204 34.3847 72.0773 34.4532 72.406 34.4532C72.7211 34.4532 73.002 34.3813 73.2485 34.2375C73.502 34.0936 73.6835 33.8813 73.7931 33.6005L74.0088 34.371C73.8855 34.693 73.6629 34.943 73.341 35.1211C73.0259 35.2992 72.6252 35.3882 72.1389 35.3882ZM75.146 35.306L75.2076 34.2272C75.2556 34.2341 75.3001 34.2409 75.3412 34.2478C75.3823 34.2546 75.42 34.258 75.4542 34.258C75.6666 34.258 75.8309 34.193 75.9474 34.0628C76.0638 33.9327 76.1495 33.758 76.2042 33.5388C76.2659 33.3128 76.307 33.0628 76.3275 32.7888C76.3549 32.508 76.3755 32.2271 76.3892 31.9463L76.4817 29.8298H80.9202V35.3163H79.6359V30.5696L79.9338 30.9189H77.3241L77.6016 30.5593L77.5296 32.008C77.5091 32.4943 77.468 32.9463 77.4063 33.3642C77.3515 33.7751 77.2625 34.1347 77.1392 34.443C77.0228 34.7512 76.8584 34.9909 76.646 35.1622C76.4406 35.3334 76.1769 35.419 75.8549 35.419C75.7522 35.419 75.6392 35.4088 75.5159 35.3882C75.3994 35.3677 75.2761 35.3403 75.146 35.306ZM84.6841 31.6381C85.3896 31.6381 85.9273 31.7956 86.2971 32.1107C86.667 32.4258 86.8519 32.871 86.8519 33.4464C86.8519 34.0423 86.6465 34.508 86.2355 34.8437C85.8245 35.1724 85.2457 35.3334 84.4991 35.3266L81.9306 35.3163V29.8298H83.2148V31.6278L84.6841 31.6381ZM84.3861 34.3813C84.7628 34.3882 85.0505 34.3094 85.2492 34.145C85.4478 33.9806 85.5471 33.7409 85.5471 33.4258C85.5471 33.1107 85.4478 32.8847 85.2492 32.7477C85.0574 32.6039 84.7697 32.5285 84.3861 32.5217L83.2148 32.5114V34.371L84.3861 34.3813ZM87.2616 35.3163V29.8298H88.5458V32.0593H91.3096V29.8298H92.5939V35.3163H91.3096V33.1484H88.5458V35.3163H87.2616ZM99.1338 35.3163V29.8298H100.418V35.3163H99.1338ZM96.2672 31.6381C96.9727 31.6381 97.507 31.7956 97.87 32.1107C98.2399 32.4258 98.4248 32.871 98.4248 33.4464C98.4248 34.0423 98.2193 34.508 97.8084 34.8437C97.4042 35.1724 96.8289 35.3334 96.0823 35.3266L93.5959 35.3163V29.8298H94.8802V31.6278L96.2672 31.6381ZM95.9693 34.3813C96.346 34.3882 96.6337 34.3094 96.8323 34.145C97.0309 33.9806 97.1303 33.7409 97.1303 33.4258C97.1303 33.1107 97.0309 32.8847 96.8323 32.7477C96.6405 32.6039 96.3528 32.5285 95.9693 32.5217L94.8802 32.5114V34.371L95.9693 34.3813ZM101.425 35.3163V29.8298H102.71V33.4464L105.74 29.8298H106.912V35.3163H105.627V31.6997L102.607 35.3163H101.425ZM104.086 29.1825C103.538 29.1825 103.117 29.0558 102.823 28.8024C102.528 28.5421 102.377 28.1654 102.37 27.6722H103.223C103.23 27.9188 103.305 28.114 103.449 28.2578C103.6 28.4017 103.809 28.4736 104.076 28.4736C104.336 28.4736 104.542 28.4017 104.692 28.2578C104.85 28.114 104.932 27.9188 104.939 27.6722H105.812C105.806 28.1654 105.651 28.5421 105.35 28.8024C105.055 29.0558 104.634 29.1825 104.086 29.1825ZM16.3163 46.3163V40.8298H17.6623L19.8712 44.7238H19.337L21.659 40.8298H22.8611L22.8713 46.3163H21.7103V42.2066L21.9158 42.3401L19.861 45.7409H19.3062L17.241 42.2477L17.4876 42.186V46.3163H16.3163ZM26.4331 46.3882C25.8235 46.3882 25.2892 46.2683 24.8303 46.0286C24.3782 45.782 24.0255 45.4464 23.772 45.0217C23.5254 44.5971 23.4021 44.1142 23.4021 43.573C23.4021 43.0251 23.522 42.5422 23.7617 42.1244C24.0083 41.6997 24.344 41.3675 24.7686 41.1278C25.2001 40.888 25.6899 40.7682 26.2379 40.7682C26.7721 40.7682 27.2482 40.8846 27.666 41.1175C28.0838 41.3504 28.4126 41.6792 28.6523 42.1038C28.892 42.5285 29.0119 43.0285 29.0119 43.6039C29.0119 43.6587 29.0085 43.7203 29.0016 43.7888C29.0016 43.8573 28.9982 43.9224 28.9914 43.984H24.4193V43.1313H28.3133L27.8098 43.3984C27.8167 43.0833 27.7516 42.8059 27.6146 42.5662C27.4776 42.3264 27.2893 42.1381 27.0495 42.0011C26.8166 41.8641 26.5461 41.7956 26.2379 41.7956C25.9228 41.7956 25.6454 41.8641 25.4056 42.0011C25.1728 42.1381 24.9878 42.3299 24.8508 42.5764C24.7207 42.8162 24.6556 43.1004 24.6556 43.4292V43.6347C24.6556 43.9635 24.731 44.2546 24.8816 44.508C25.0323 44.7614 25.2447 44.9567 25.5187 45.0936C25.7926 45.2306 26.1077 45.2991 26.4639 45.2991C26.7721 45.2991 27.0495 45.2512 27.2961 45.1553C27.5427 45.0594 27.7619 44.9087 27.9537 44.7032L28.642 45.4943C28.3955 45.782 28.0838 46.0046 27.7071 46.1622C27.3372 46.3129 26.9125 46.3882 26.4331 46.3882ZM33.3876 45.7204V41.9189H31.2813L31.2505 42.8025C31.2368 43.1176 31.2163 43.4224 31.1889 43.7169C31.1615 44.0046 31.1169 44.2717 31.0553 44.5183C30.9936 44.758 30.9046 44.9567 30.7882 45.1142C30.6717 45.2717 30.5176 45.3745 30.3258 45.4224L29.0518 45.2272C29.2573 45.2272 29.4217 45.1621 29.545 45.032C29.6751 44.895 29.7744 44.7101 29.8429 44.4772C29.9183 44.2375 29.9731 43.9669 30.0073 43.6655C30.0416 43.3573 30.0655 43.0388 30.0792 42.71L30.1512 40.8298H34.6718V45.7204H33.3876ZM28.8566 47.5389V45.2272H35.4835V47.5389H34.2814V46.3163H30.0484V47.5389H28.8566ZM35.9113 46.3163V40.8298H37.1956V44.4464L40.2265 40.8298H41.3978V46.3163H40.1135V42.6997L37.0929 46.3163H35.9113ZM42.4062 46.3163V40.8298H43.6905V45.2272H46.3105V40.8298H47.5947V46.3163H42.4062ZM47.2249 47.5389V46.2855L47.5228 46.3163H46.3105V45.2272H48.427V47.5389H47.2249ZM48.8509 46.3163V40.8298H50.1352V44.4464L53.1661 40.8298H54.3374V46.3163H53.0531V42.6997L50.0325 46.3163H48.8509ZM55.3458 46.3163V40.8298H56.6301V43.0593H59.3939V40.8298H60.6782V46.3163H59.3939V44.1484H56.6301V46.3163H55.3458ZM64.1768 46.3882C63.6015 46.3882 63.0877 46.2683 62.6357 46.0286C62.1905 45.782 61.8411 45.4464 61.5877 45.0217C61.3343 44.5971 61.2075 44.1142 61.2075 43.573C61.2075 43.0251 61.3343 42.5422 61.5877 42.1244C61.8411 41.6997 62.1905 41.3675 62.6357 41.1278C63.0877 40.888 63.6015 40.7682 64.1768 40.7682C64.7111 40.7682 65.1803 40.8778 65.5844 41.0969C65.9954 41.3093 66.307 41.6244 66.5194 42.0422L65.533 42.6175C65.3686 42.3573 65.1666 42.1655 64.9268 42.0422C64.694 41.9189 64.4405 41.8572 64.1665 41.8572C63.8515 41.8572 63.5672 41.9257 63.3138 42.0627C63.0603 42.1997 62.8617 42.3984 62.7179 42.6586C62.574 42.9121 62.5021 43.2169 62.5021 43.573C62.5021 43.9292 62.574 44.2375 62.7179 44.4977C62.8617 44.7512 63.0603 44.9464 63.3138 45.0834C63.5672 45.2204 63.8515 45.2889 64.1665 45.2889C64.4405 45.2889 64.694 45.2272 64.9268 45.1039C65.1666 44.9806 65.3686 44.7888 65.533 44.5286L66.5194 45.1039C66.307 45.5149 65.9954 45.8334 65.5844 46.0594C65.1803 46.2786 64.7111 46.3882 64.1768 46.3882ZM70.8659 46.3163L68.883 43.6861L69.931 43.0388L72.3763 46.3163H70.8659ZM66.9309 46.3163V40.8298H68.2152V46.3163H66.9309ZM67.835 44.1176V43.0491H69.6947V44.1176H67.835ZM70.0543 43.7272L68.8522 43.5833L70.8659 40.8298H72.2427L70.0543 43.7272ZM72.5629 46.3163V40.8298H73.8472V44.4464L76.8781 40.8298H78.0494V46.3163H76.7651V42.6997L73.7444 46.3163H72.5629ZM79.0578 46.3163V40.8298H80.3421V44.4464L83.373 40.8298H84.5442V46.3163H83.26V42.6997L80.2393 46.3163H79.0578ZM81.7188 40.1825C81.1709 40.1825 80.7496 40.0558 80.4551 39.8024C80.1605 39.5421 80.0099 39.1654 80.003 38.6722H80.8558C80.8626 38.9188 80.938 39.114 81.0818 39.2578C81.2325 39.4017 81.4414 39.4736 81.7085 39.4736C81.9688 39.4736 82.1743 39.4017 82.325 39.2578C82.4825 39.114 82.5647 38.9188 82.5716 38.6722H83.4449C83.438 39.1654 83.2839 39.5421 82.9826 39.8024C82.688 40.0558 82.2668 40.1825 81.7188 40.1825ZM90.1696 46.3882C89.5942 46.3882 89.0805 46.2683 88.6284 46.0286C88.1832 45.782 87.8339 45.4464 87.5805 45.0217C87.327 44.5971 87.2003 44.1142 87.2003 43.573C87.2003 43.0251 87.327 42.5422 87.5805 42.1244C87.8339 41.6997 88.1832 41.3675 88.6284 41.1278C89.0805 40.888 89.5942 40.7682 90.1696 40.7682C90.7038 40.7682 91.173 40.8778 91.5772 41.0969C91.9881 41.3093 92.2998 41.6244 92.5121 42.0422L91.5258 42.6175C91.3614 42.3573 91.1593 42.1655 90.9196 42.0422C90.6867 41.9189 90.4333 41.8572 90.1593 41.8572C89.8442 41.8572 89.56 41.9257 89.3065 42.0627C89.0531 42.1997 88.8545 42.3984 88.7106 42.6586C88.5668 42.9121 88.4949 43.2169 88.4949 43.573C88.4949 43.9292 88.5668 44.2375 88.7106 44.4977C88.8545 44.7512 89.0531 44.9464 89.3065 45.0834C89.56 45.2204 89.8442 45.2889 90.1593 45.2889C90.4333 45.2889 90.6867 45.2272 90.9196 45.1039C91.1593 44.9806 91.3614 44.7888 91.5258 44.5286L92.5121 45.1039C92.2998 45.5149 91.9881 45.8334 91.5772 46.0594C91.173 46.2786 90.7038 46.3882 90.1696 46.3882ZM92.9237 46.3163V40.8298H94.2079V44.4464L97.2389 40.8298H98.4101V46.3163H97.1258V42.6997L94.1052 46.3163H92.9237ZM98.6171 46.306L98.6788 45.2272C98.7267 45.2341 98.7713 45.2409 98.8124 45.2478C98.8535 45.2546 98.8911 45.258 98.9254 45.258C99.1377 45.258 99.3021 45.193 99.4185 45.0628C99.535 44.9327 99.6206 44.758 99.6754 44.5388C99.737 44.3128 99.7781 44.0628 99.7987 43.7888C99.8261 43.508 99.8466 43.2271 99.8603 42.9463L99.9528 40.8298H104.391V46.3163H103.107V41.5696L103.405 41.9189H100.795L101.073 41.5593L101.001 43.008C100.98 43.4943 100.939 43.9463 100.877 44.3642C100.823 44.7751 100.734 45.1347 100.61 45.443C100.494 45.7512 100.33 45.9909 100.117 46.1622C99.9117 46.3334 99.648 46.419 99.3261 46.419C99.2233 46.419 99.1103 46.4088 98.987 46.3882C98.8706 46.3677 98.7473 46.3403 98.6171 46.306ZM105.402 46.3163V40.8298H106.686V44.4464L109.717 40.8298H110.888V46.3163H109.604V42.6997L106.583 46.3163H105.402ZM115.832 46.3163L113.849 43.6861L114.897 43.0388L117.342 46.3163H115.832ZM111.897 46.3163V40.8298H113.181V46.3163H111.897ZM112.801 44.1176V43.0491H114.66V44.1176H112.801ZM115.02 43.7272L113.818 43.5833L115.832 40.8298H117.208L115.02 43.7272ZM119.793 46.3882C119.232 46.3882 118.732 46.2683 118.293 46.0286C117.855 45.782 117.509 45.4464 117.256 45.0217C117.002 44.5971 116.875 44.1142 116.875 43.573C116.875 43.0251 117.002 42.5422 117.256 42.1244C117.509 41.6997 117.855 41.3675 118.293 41.1278C118.732 40.888 119.232 40.7682 119.793 40.7682C120.362 40.7682 120.865 40.888 121.304 41.1278C121.749 41.3675 122.095 41.6963 122.341 42.1141C122.595 42.5319 122.721 43.0182 122.721 43.573C122.721 44.1142 122.595 44.5971 122.341 45.0217C122.095 45.4464 121.749 45.782 121.304 46.0286C120.865 46.2683 120.362 46.3882 119.793 46.3882ZM119.793 45.2889C120.108 45.2889 120.389 45.2204 120.636 45.0834C120.882 44.9464 121.074 44.7477 121.211 44.4875C121.355 44.2272 121.427 43.9224 121.427 43.573C121.427 43.2169 121.355 42.9121 121.211 42.6586C121.074 42.3984 120.882 42.1997 120.636 42.0627C120.389 41.9257 120.112 41.8572 119.804 41.8572C119.488 41.8572 119.208 41.9257 118.961 42.0627C118.721 42.1997 118.53 42.3984 118.386 42.6586C118.242 42.9121 118.17 43.2169 118.17 43.573C118.17 43.9224 118.242 44.2272 118.386 44.4875C118.53 44.7477 118.721 44.9464 118.961 45.0834C119.208 45.2204 119.485 45.2889 119.793 45.2889ZM123.271 46.3163V40.8298H124.555V43.0593H127.319V40.8298H128.603V46.3163H127.319V44.1484H124.555V46.3163H123.271Z" fill="#F6517C"/>
<path d="M88.4156 109.728L93.8714 100.581C94.1511 100.112 94.1787 99.5345 93.9449 99.0409L88.4156 87.3679L81.1232 93.2328L88.4156 109.728Z" fill="#D6A17D"/>
<path d="M82.3711 120.79C82.1841 121.132 81.7108 121.175 81.4684 120.87C76.816 115.01 68.414 104.01 66.0139 107.201C65.8973 107.356 65.9057 107.571 66.0073 107.736C67.9323 110.867 71.9414 117.427 73.8307 120.666C75.4877 123.507 77.5986 127.221 78.8313 129.404C79.1999 130.057 79.4517 130.767 79.5785 131.506L81.7049 143.894C83.0698 143.894 92.004 140.883 98.8334 140.073V130.154C98.8334 129.389 98.9407 128.627 99.1522 127.892L106.353 102.846C106.651 101.81 106.497 100.697 105.93 99.7802L90.4992 74.828L84.943 80.0369L88.4156 87.3679L93.9449 99.0409C94.1787 99.5345 94.1511 100.112 93.8714 100.581L88.4156 109.728L82.3711 120.79Z" fill="#D8A683"/>
<path d="M68.9665 108.859C70.7429 110.937 69.0375 111.869 68.6192 111.637C67.0117 110.744 63.8374 105.063 64.4514 104.349C65.0655 103.635 68.9665 108.859 68.9665 108.859Z" fill="#F6517C"/>
<path d="M79.6863 113.338C86.2891 108.194 95.8176 100.14 99.7883 93.6992C102.759 88.8872 103.726 82.9255 102.434 77.3824C99.6727 64.7558 84.3834 59.5963 74.8597 68.0579C74.324 68.5306 73.8303 69.0547 73.3235 69.5928C73.1167 69.8125 72.9076 70.0344 72.6925 70.2562C72.4774 70.0344 72.2683 69.8124 72.0615 69.5928C71.5547 69.0547 71.0609 68.5306 70.5253 68.0579C61.0016 59.5963 45.7123 64.7558 42.9512 77.3824C41.6589 82.9255 42.6255 88.8872 45.5967 93.6992C49.5674 100.14 59.0959 108.194 65.6987 113.338C67.5385 114.772 72.6925 118.506 72.6925 118.506C72.6925 118.506 77.8465 114.772 79.6863 113.338Z" fill="#FF6C92"/>
<path d="M72.6925 70.1872C72.1857 69.6491 71.0609 68.5306 70.5253 68.0579C61.0016 59.5963 45.7123 64.7558 42.9512 77.3824C41.6589 82.9255 42.6255 88.8872 45.5967 93.6992C49.5674 100.14 59.0959 108.194 65.6987 113.338C67.5385 114.772 72.6925 118.506 72.6925 118.506C30.6371 77.3824 53.5832 61.4515 72.6925 70.1872Z" fill="#EB577D"/>
<path d="M74.6617 85.9655L84.1064 85.9656L84.1063 89.3514L74.6617 89.3514L74.6617 98.7961L71.2758 98.7961L71.2758 89.3514L61.8311 89.3514L61.8311 85.9656L71.2758 85.9655L71.2758 76.5209L74.6617 76.5209L74.6617 85.9655Z" fill="#E4016A" stroke="#E4016A" stroke-width="3.27588"/>
<path d="M115.333 69.7269L119.804 69.7269L119.804 71.3298L115.333 71.3298L115.333 75.801L113.73 75.801L113.73 71.3298L109.259 71.3298L109.259 69.7269L113.73 69.7269L113.73 65.2558L115.333 65.2558L115.333 69.7269Z" fill="#E4016A" stroke="#E4016A" stroke-width="3.27588"/>
<path d="M24.1608 102.486L28.632 102.486L28.632 104.088L24.1608 104.088L24.1608 108.56L22.5579 108.56L22.5579 104.088L18.0868 104.088L18.0868 102.486L22.5579 102.486L22.5579 98.0144L24.1608 98.0144L24.1608 102.486Z" fill="#E4016A" stroke="#FF6C92" stroke-width="3.27588"/>
<path d="M128.335 86.4879L134.866 86.4879L134.866 88.8292L128.335 88.8291L128.335 95.3601L125.993 95.3601L125.993 88.8291L119.463 88.8292L119.463 86.4879L125.993 86.4879L125.993 79.957L128.335 79.957L128.335 86.4879Z" fill="#E4016A" stroke="#FF6C92" stroke-width="3.27588"/>
<path d="M47.53 119.656L54.0609 119.656L54.0609 121.997L47.53 121.997L47.53 128.528L45.1887 128.528L45.1887 121.997L38.6578 121.997L38.6578 119.656L45.1887 119.656L45.1887 113.125L47.53 113.125L47.53 119.656Z" fill="#E4016A" stroke="#E4016A" stroke-width="3.27588"/>
<path d="M88.4156 109.728L88.4909 109.601C89.4601 107.977 91.9553 109.016 91.4838 110.849L90.0298 116.499L88.4156 109.728Z" fill="#D8A683"/>
<path d="M82.3739 120.528C82.1847 120.867 81.7147 120.907 81.4732 120.604C76.8216 114.763 68.4142 103.995 66.0136 107.201C65.8973 107.356 65.9058 107.571 66.0067 107.737C67.6772 110.48 70.7387 115.908 72.3668 119.532C72.7855 120.464 73.3787 121.308 74.0591 122.07C76.1187 124.378 77.7999 127.466 78.8339 129.377C79.1973 130.049 79.4505 130.775 79.5748 131.529L81.7049 144.44C88.5296 143.622 95.0814 141.984 99.1762 139.8L98.8742 130.287C98.8472 129.434 98.9534 128.583 99.1889 127.764L103.096 114.175C104.16 110.473 99.6992 107.7 96.8504 110.292L90.0298 116.499L91.4838 110.849C91.9553 109.016 89.4601 107.977 88.4909 109.601L88.4156 109.728L82.3739 120.528Z" fill="#D8A683"/>
<path d="M68.9665 108.859C70.7429 110.937 69.0375 111.869 68.6192 111.637C67.0117 110.744 63.8374 105.063 64.4514 104.349C65.0655 103.635 68.9665 108.859 68.9665 108.859Z" fill="#E4016A"/>
<path d="M37.4137 89.1389C38.0725 88.8492 38.6909 88.7246 39.2691 88.7649C39.8445 88.8041 40.3497 88.9809 40.7849 89.2955C41.2191 89.608 41.554 90.032 41.7893 90.5674C42.0247 91.1028 42.1112 91.6371 42.0488 92.1704C41.9835 92.7026 41.7712 93.1949 41.412 93.6473C41.05 94.0986 40.5405 94.4686 39.8837 94.7573C39.225 95.047 38.6079 95.1722 38.0326 95.133C37.4544 95.0927 36.9482 94.9163 36.5139 94.6037C36.0787 94.2892 35.7435 93.8642 35.5081 93.3288C35.2727 92.7934 35.1867 92.2601 35.25 91.7288C35.3124 91.1955 35.5246 90.7032 35.8867 90.2519C36.2459 89.7995 36.7549 89.4285 37.4137 89.1389ZM37.9032 90.2524C37.4395 90.4563 37.0804 90.7009 36.8258 90.9861C36.5684 91.2703 36.414 91.5756 36.3628 91.9021C36.3096 92.2295 36.3561 92.5594 36.5022 92.8918C36.6484 93.2241 36.86 93.4814 37.1372 93.6635C37.4124 93.8465 37.7421 93.9402 38.1264 93.9447C38.5079 93.948 38.9305 93.8477 39.3942 93.6438C39.8579 93.4399 40.2185 93.1959 40.4759 92.9117C40.7305 92.6265 40.8844 92.3201 40.9376 91.9928C40.9888 91.6663 40.9413 91.3368 40.7952 91.0044C40.6491 90.6721 40.4384 90.4144 40.1632 90.2314C39.886 90.0493 39.5567 89.9565 39.1753 89.9532C38.791 89.9488 38.367 90.0485 37.9032 90.2524ZM34.8126 84.0827L39.7519 83.2492L39.9407 84.3683L35.0014 85.2018L34.8126 84.0827ZM37.1327 84.2303L38.0846 84.0696C38.1617 84.1867 38.2363 84.3219 38.3084 84.475C38.3781 84.6264 38.4408 84.7889 38.4965 84.9625C38.5519 85.134 38.5944 85.3076 38.6241 85.4834C38.7355 86.1437 38.6757 86.6907 38.4446 87.1243C38.211 87.5562 37.7791 87.8253 37.1488 87.9317L35.5024 88.2095L35.3146 87.0969L36.9611 86.819C37.1733 86.7832 37.3374 86.717 37.4534 86.6202C37.5693 86.5235 37.6445 86.3939 37.6788 86.2316C37.711 86.0696 37.7078 85.8739 37.6691 85.6446C37.6256 85.3873 37.5587 85.1473 37.4682 84.9244C37.3776 84.7016 37.2658 84.4702 37.1327 84.2303ZM39.8943 80.4937C39.8884 80.9959 39.779 81.4283 39.566 81.7911C39.3508 82.1517 39.0497 82.4275 38.6626 82.6186C38.2733 82.8097 37.8167 82.9022 37.2928 82.896C36.7776 82.8899 36.3266 82.7868 35.9397 82.5865C35.5508 82.3841 35.2497 82.1044 35.0364 81.7475C34.8211 81.3906 34.7162 80.973 34.7218 80.4947C34.7254 80.186 34.7789 79.8953 34.8821 79.6225C34.9832 79.3476 35.1382 79.1059 35.3472 78.8975C35.5563 78.6869 35.8213 78.5226 36.1423 78.4046C36.4611 78.2866 36.8401 78.2302 37.2793 78.2354L37.6412 78.2396L37.5928 82.3451L36.7972 82.3357L36.8322 79.3618C36.6061 79.3613 36.4044 79.4078 36.2272 79.5014C36.0478 79.595 35.906 79.727 35.8018 79.8976C35.6977 80.0659 35.6442 80.2631 35.6416 80.4892C35.6387 80.7305 35.6949 80.9432 35.8102 81.1272C35.9232 81.3112 36.0737 81.4553 36.2617 81.5597C36.4474 81.662 36.6523 81.7155 36.8762 81.7203L37.5708 81.7285C37.8621 81.7319 38.1127 81.6816 38.3226 81.5775C38.5304 81.4734 38.6909 81.3264 38.804 81.1364C38.915 80.9464 38.9719 80.7231 38.975 80.4666C38.977 80.2948 38.9549 80.1391 38.9087 79.9994C38.8604 79.8597 38.789 79.7382 38.6945 79.6349C38.6001 79.5316 38.4825 79.453 38.3418 79.3991L38.4787 78.2984C38.7692 78.3714 39.022 78.507 39.2371 78.7052C39.45 78.9013 39.6145 79.1511 39.7305 79.4546C39.8443 79.7582 39.8989 80.1046 39.8943 80.4937ZM37.6061 74.0012L38.5587 74.1761L38.077 76.7998L37.1243 76.6249L37.6061 74.0012ZM35.2081 75.9017L40.1348 76.8063L39.9293 77.9257L35.0025 77.0211L35.2081 75.9017ZM35.7634 72.877L40.6902 73.7816L40.4852 74.8978L35.5585 73.9932L35.7634 72.877ZM38.0908 71.2562L38.6536 69.8903C38.8972 69.2993 39.2293 68.9013 39.6502 68.6961C40.071 68.4909 40.515 68.4834 40.9821 68.6736C41.2848 68.8007 41.5235 68.9861 41.6982 69.2297C41.8738 69.4714 41.9717 69.7586 41.9921 70.0915C42.0113 70.4216 41.9397 70.7836 41.7773 71.1776L40.91 73.2821L36.2788 71.3736L36.7124 70.3213L40.4482 71.8608L40.8818 70.8085C40.9796 70.5713 40.9996 70.3515 40.942 70.149C40.8823 69.9458 40.757 69.8048 40.566 69.7261C40.365 69.6432 40.1697 69.6521 39.9801 69.7527C39.7905 69.8533 39.6469 70.0221 39.5491 70.2593L38.9862 71.6252L38.0908 71.2562ZM44.791 64.7112L43.2717 61.0884L43.9451 60.4151L46.0547 65.3893L45.4712 65.9726L40.5297 63.83L41.1962 63.1636L44.791 64.7112ZM40.9863 63.3734L44.528 66.9157L43.7231 67.7204L40.1814 64.1781L40.9863 63.3734ZM47.0302 64.4139L43.4885 60.8717L44.2864 60.0739L47.8281 63.6161L47.0302 64.4139ZM50.9819 62.1732L49.2587 58.5077L48.2906 58.9628C48.0447 59.0784 47.8826 59.2243 47.8045 59.4004C47.7263 59.5765 47.728 59.7486 47.8095 59.9169C47.8871 60.0871 48.0147 60.1976 48.1924 60.2486C48.3701 60.2996 48.5761 60.27 48.8102 60.16L50.1501 59.5301L50.5164 60.3092L49.1765 60.9391C48.8145 61.1093 48.4748 61.1993 48.1575 61.2091C47.8402 61.219 47.5617 61.1529 47.322 61.0109C47.0823 60.869 46.8968 60.6583 46.7654 60.3789C46.6285 60.0877 46.5815 59.8011 46.6243 59.5192C46.6682 59.2343 46.7961 58.9699 47.0082 58.7261C47.2213 58.4793 47.5128 58.269 47.8827 58.0951L49.8512 57.1697L51.9823 61.7029L50.9819 62.1732ZM48.0542 63.5496L48.227 60.6287L49.2806 60.1334L49.1048 63.0556L48.0542 63.5496ZM54.5302 55.9375L54.7606 56.8782L52.6636 57.3916L53.6245 61.3163L52.5031 61.5908L51.312 56.7254L54.5302 55.9375ZM56.0278 60.8527L55.8334 55.8474L57.013 55.8016L57.0915 57.822L57.5216 57.8052L58.9487 55.7264L60.3694 55.6712L58.6107 58.2003L60.5834 60.6758L59.1561 60.7312L57.7109 58.8977L57.1341 58.9201L57.2074 60.8069L56.0278 60.8527ZM62.0328 59.4998L64.7058 56.582L65.8923 56.8351L64.8475 61.734L63.7312 61.4959L64.4434 58.1566L61.7761 61.079L60.5864 60.8252L61.6312 55.9263L62.7443 56.1637L62.0328 59.4998ZM67.0842 61.1133L70.4397 59.016L71.5154 59.5769L69.1994 64.0184L68.1873 63.4907L69.766 60.4632L66.4148 62.5664L65.3362 62.004L67.6522 57.5624L68.6614 58.0887L67.0842 61.1133ZM70.9496 57.3399L71.7332 57.7485C71.5573 58.0859 71.2922 58.2958 70.9378 58.3783C70.5863 58.4598 70.2024 58.392 69.786 58.1749C69.3734 57.9598 69.099 57.6843 68.9628 57.3484C68.8295 57.0117 68.8517 56.6751 69.0296 56.3387L69.8074 56.7443C69.735 56.8831 69.7126 57.0296 69.7401 57.1837C69.7706 57.3369 69.8899 57.4678 70.0981 57.5763C70.3024 57.6829 70.4761 57.7048 70.6192 57.6421C70.7642 57.5804 70.8743 57.4796 70.9496 57.3399Z" fill="#F6517C"/>
<defs>
<clipPath id="clip0_2869_16">
<rect width="144" height="145" fill="white" transform="translate(0.71875)"/>
</clipPath>
</defs>
</svg>
