<svg width="145" height="144" viewBox="0 0 145 144" fill="none" xmlns="http://www.w3.org/2000/svg">
<g clip-path="url(#clip0_2869_18)">
<path d="M0.71875 72C0.71875 111.764 32.9543 144 72.7188 144C112.483 144 144.719 111.764 144.719 72C144.719 32.2355 112.483 0 72.7188 0C32.9543 0 0.71875 32.2355 0.71875 72Z" fill="white"/>
</g>
<path d="M19.0499 35.3163V28.1243H22.2657C23.074 28.1243 23.7041 28.2852 24.1562 28.6072C24.6083 28.9222 24.8343 29.3777 24.8343 29.9736C24.8343 30.5627 24.6185 31.0182 24.187 31.3401C23.7555 31.6552 23.187 31.8127 22.4815 31.8127L22.6664 31.4429C23.4678 31.4429 24.0877 31.6038 24.5261 31.9258C24.9644 32.2477 25.1836 32.7135 25.1836 33.3231C25.1836 33.9464 24.9542 34.4361 24.4952 34.7923C24.0363 35.1416 23.3582 35.3163 22.4609 35.3163H19.0499ZM20.365 34.2889H22.4198C22.8856 34.2889 23.2384 34.2032 23.4781 34.032C23.7178 33.8539 23.8377 33.5834 23.8377 33.2203C23.8377 32.8573 23.7178 32.5936 23.4781 32.4292C23.2384 32.258 22.8856 32.1723 22.4198 32.1723H20.365V34.2889ZM20.365 31.1963H22.1527C22.5842 31.1963 22.913 31.1107 23.139 30.9394C23.3651 30.7613 23.4781 30.5079 23.4781 30.1791C23.4781 29.8367 23.3651 29.5798 23.139 29.4086C22.913 29.2373 22.5842 29.1517 22.1527 29.1517H20.365V31.1963ZM28.2874 35.3882C27.7258 35.3882 27.2257 35.2683 26.7874 35.0286C26.349 34.782 26.0031 34.4464 25.7497 34.0217C25.4962 33.5971 25.3695 33.1142 25.3695 32.573C25.3695 32.0251 25.4962 31.5422 25.7497 31.1244C26.0031 30.6997 26.349 30.3675 26.7874 30.1278C27.2257 29.888 27.7258 29.7682 28.2874 29.7682C28.8559 29.7682 29.3594 29.888 29.7977 30.1278C30.243 30.3675 30.5889 30.6963 30.8355 31.1141C31.0889 31.5319 31.2156 32.0182 31.2156 32.573C31.2156 33.1142 31.0889 33.5971 30.8355 34.0217C30.5889 34.4464 30.243 34.782 29.7977 35.0286C29.3594 35.2683 28.8559 35.3882 28.2874 35.3882ZM28.2874 34.2889C28.6025 34.2889 28.8833 34.2204 29.1299 34.0834C29.3765 33.9464 29.5683 33.7477 29.7053 33.4875C29.8491 33.2272 29.921 32.9224 29.921 32.573C29.921 32.2169 29.8491 31.9121 29.7053 31.6586C29.5683 31.3984 29.3765 31.1997 29.1299 31.0627C28.8833 30.9257 28.6059 30.8572 28.2977 30.8572C27.9826 30.8572 27.7018 30.9257 27.4552 31.0627C27.2155 31.1997 27.0237 31.3984 26.8798 31.6586C26.736 31.9121 26.6641 32.2169 26.6641 32.573C26.6641 32.9224 26.736 33.2272 26.8798 33.4875C27.0237 33.7477 27.2155 33.9464 27.4552 34.0834C27.7018 34.2204 27.9792 34.2889 28.2874 34.2889ZM35.4653 34.7204V30.9189H33.3591L33.3283 31.8025C33.3146 32.1176 33.294 32.4224 33.2666 32.7169C33.2392 33.0046 33.1947 33.2717 33.133 33.5183C33.0714 33.758 32.9824 33.9567 32.8659 34.1142C32.7495 34.2717 32.5954 34.3745 32.4036 34.4224L31.1296 34.2272C31.335 34.2272 31.4994 34.1621 31.6227 34.032C31.7529 33.895 31.8522 33.7101 31.9207 33.4772C31.996 33.2375 32.0508 32.9669 32.0851 32.6655C32.1193 32.3573 32.1433 32.0388 32.157 31.71L32.2289 29.8298H36.7496V34.7204H35.4653ZM30.9343 36.5389V34.2272H37.5613V36.5389H36.3592V35.3163H32.1262V36.5389H30.9343ZM40.4344 35.3882C39.8727 35.3882 39.3727 35.2683 38.9343 35.0286C38.496 34.782 38.1501 34.4464 37.8966 34.0217C37.6432 33.5971 37.5165 33.1142 37.5165 32.573C37.5165 32.0251 37.6432 31.5422 37.8966 31.1244C38.1501 30.6997 38.496 30.3675 38.9343 30.1278C39.3727 29.888 39.8727 29.7682 40.4344 29.7682C41.0029 29.7682 41.5063 29.888 41.9447 30.1278C42.3899 30.3675 42.7358 30.6963 42.9824 31.1141C43.2358 31.5319 43.3625 32.0182 43.3625 32.573C43.3625 33.1142 43.2358 33.5971 42.9824 34.0217C42.7358 34.4464 42.3899 34.782 41.9447 35.0286C41.5063 35.2683 41.0029 35.3882 40.4344 35.3882ZM40.4344 34.2889C40.7495 34.2889 41.0303 34.2204 41.2769 34.0834C41.5234 33.9464 41.7152 33.7477 41.8522 33.4875C41.9961 33.2272 42.068 32.9224 42.068 32.573C42.068 32.2169 41.9961 31.9121 41.8522 31.6586C41.7152 31.3984 41.5234 31.1997 41.2769 31.0627C41.0303 30.9257 40.7529 30.8572 40.4446 30.8572C40.1296 30.8572 39.8487 30.9257 39.6022 31.0627C39.3624 31.1997 39.1706 31.3984 39.0268 31.6586C38.883 31.9121 38.811 32.2169 38.811 32.573C38.811 32.9224 38.883 33.2272 39.0268 33.4875C39.1706 33.7477 39.3624 33.9464 39.6022 34.0834C39.8487 34.2204 40.1261 34.2889 40.4344 34.2889ZM43.9121 35.3163V29.8298H45.1963V32.0593H47.9601V29.8298H49.2444V35.3163H47.9601V33.1484H45.1963V35.3163H43.9121ZM52.8047 35.3882C52.1951 35.3882 51.6608 35.2683 51.2019 35.0286C50.7498 34.782 50.3971 34.4464 50.1437 34.0217C49.8971 33.5971 49.7738 33.1142 49.7738 32.573C49.7738 32.0251 49.8937 31.5422 50.1334 31.1244C50.38 30.6997 50.7156 30.3675 51.1403 30.1278C51.5718 29.888 52.0615 29.7682 52.6095 29.7682C53.1438 29.7682 53.6198 29.8846 54.0376 30.1175C54.4554 30.3504 54.7842 30.6792 55.024 31.1038C55.2637 31.5285 55.3836 32.0285 55.3836 32.6039C55.3836 32.6587 55.3801 32.7203 55.3733 32.7888C55.3733 32.8573 55.3699 32.9224 55.363 32.984H50.7909V32.1313H54.6849L54.1815 32.3984C54.1883 32.0833 54.1232 31.8059 53.9863 31.5662C53.8493 31.3264 53.6609 31.1381 53.4212 31.0011C53.1883 30.8641 52.9177 30.7956 52.6095 30.7956C52.2944 30.7956 52.017 30.8641 51.7773 31.0011C51.5444 31.1381 51.3595 31.3299 51.2225 31.5764C51.0923 31.8162 51.0273 32.1004 51.0273 32.4292V32.6347C51.0273 32.9635 51.1026 33.2546 51.2533 33.508C51.404 33.7614 51.6163 33.9567 51.8903 34.0936C52.1643 34.2306 52.4794 34.2991 52.8355 34.2991C53.1438 34.2991 53.4212 34.2512 53.6677 34.1553C53.9143 34.0594 54.1335 33.9087 54.3253 33.7032L55.0137 34.4943C54.7671 34.782 54.4554 35.0046 54.0787 35.1622C53.7088 35.3129 53.2842 35.3882 52.8047 35.3882ZM56.069 35.3163V29.8298H61.3295V35.3163H60.0555V30.6209L60.3534 30.9189H57.0554L57.3533 30.6209V35.3163H56.069ZM65.3844 35.3882C64.9392 35.3882 64.5316 35.2855 64.1617 35.08C63.7987 34.8745 63.5076 34.5663 63.2884 34.1553C63.0761 33.7375 62.9699 33.2101 62.9699 32.573C62.9699 31.9292 63.0727 31.4018 63.2782 30.9908C63.4905 30.5798 63.7782 30.275 64.1412 30.0764C64.5042 29.8709 64.9186 29.7682 65.3844 29.7682C65.9255 29.7682 66.4015 29.8846 66.8125 30.1175C67.2303 30.3504 67.5591 30.6757 67.7988 31.0935C68.0454 31.5114 68.1687 32.0045 68.1687 32.573C68.1687 33.1416 68.0454 33.6381 67.7988 34.0628C67.5591 34.4806 67.2303 34.806 66.8125 35.0389C66.4015 35.2718 65.9255 35.3882 65.3844 35.3882ZM62.3432 37.3095V29.8298H63.5658V31.1244L63.5247 32.5833L63.6275 34.0423V37.3095H62.3432ZM65.2405 34.2889C65.5488 34.2889 65.8228 34.2204 66.0625 34.0834C66.3091 33.9464 66.5043 33.7477 66.6481 33.4875C66.792 33.2272 66.8639 32.9224 66.8639 32.573C66.8639 32.2169 66.792 31.9121 66.6481 31.6586C66.5043 31.3984 66.3091 31.1997 66.0625 31.0627C65.8228 30.9257 65.5488 30.8572 65.2405 30.8572C64.9323 30.8572 64.6549 30.9257 64.4083 31.0627C64.1617 31.1997 63.9665 31.3984 63.8227 31.6586C63.6788 31.9121 63.6069 32.2169 63.6069 32.573C63.6069 32.9224 63.6788 33.2272 63.8227 33.4875C63.9665 33.7477 64.1617 33.9464 64.4083 34.0834C64.6549 34.2204 64.9323 34.2889 65.2405 34.2889ZM71.173 35.3882C70.6113 35.3882 70.1113 35.2683 69.6729 35.0286C69.2346 34.782 68.8887 34.4464 68.6352 34.0217C68.3818 33.5971 68.2551 33.1142 68.2551 32.573C68.2551 32.0251 68.3818 31.5422 68.6352 31.1244C68.8887 30.6997 69.2346 30.3675 69.6729 30.1278C70.1113 29.888 70.6113 29.7682 71.173 29.7682C71.7415 29.7682 72.2449 29.888 72.6833 30.1278C73.1285 30.3675 73.4744 30.6963 73.721 31.1141C73.9744 31.5319 74.1012 32.0182 74.1012 32.573C74.1012 33.1142 73.9744 33.5971 73.721 34.0217C73.4744 34.4464 73.1285 34.782 72.6833 35.0286C72.2449 35.2683 71.7415 35.3882 71.173 35.3882ZM71.173 34.2889C71.4881 34.2889 71.7689 34.2204 72.0155 34.0834C72.2621 33.9464 72.4538 33.7477 72.5908 33.4875C72.7347 33.2272 72.8066 32.9224 72.8066 32.573C72.8066 32.2169 72.7347 31.9121 72.5908 31.6586C72.4538 31.3984 72.2621 31.1997 72.0155 31.0627C71.7689 30.9257 71.4915 30.8572 71.1833 30.8572C70.8682 30.8572 70.5873 30.9257 70.3408 31.0627C70.101 31.1997 69.9092 31.3984 69.7654 31.6586C69.6216 31.9121 69.5496 32.2169 69.5496 32.573C69.5496 32.9224 69.6216 33.2272 69.7654 33.4875C69.9092 33.7477 70.101 33.9464 70.3408 34.0834C70.5873 34.2204 70.8648 34.2889 71.173 34.2889ZM74.6507 35.3163V29.8298H75.935V32.0593H78.6987V29.8298H79.983V35.3163H78.6987V33.1484H75.935V35.3163H74.6507ZM80.985 35.3163V29.8298H82.2693V33.4464L85.3002 29.8298H86.4715V35.3163H85.1872V31.6997L82.1666 35.3163H80.985ZM87.4799 35.3163V29.8298H88.7642V34.2272H91.3841V29.8298H92.6684V35.3163H87.4799ZM92.2985 36.5389V35.2855L92.5965 35.3163H91.3841V34.2272H93.5006V36.5389H92.2985ZM97.2535 35.3163V34.2067L97.1816 33.9704V32.0285C97.1816 31.6518 97.0685 31.3607 96.8425 31.1552C96.6165 30.9429 96.274 30.8367 95.8151 30.8367C95.5069 30.8367 95.202 30.8846 94.9007 30.9805C94.6061 31.0764 94.3561 31.21 94.1506 31.3812L93.6472 30.4463C93.9417 30.2202 94.2911 30.0524 94.6952 29.9428C95.1062 29.8264 95.5308 29.7682 95.9692 29.7682C96.7637 29.7682 97.3768 29.96 97.8083 30.3435C98.2467 30.7202 98.4658 31.3059 98.4658 32.1004V35.3163H97.2535ZM95.5274 35.3882C95.1164 35.3882 94.7568 35.3197 94.4486 35.1827C94.1404 35.0389 93.9006 34.8437 93.7294 34.5971C93.565 34.3437 93.4828 34.0594 93.4828 33.7443C93.4828 33.4361 93.5547 33.1587 93.6986 32.9121C93.8493 32.6655 94.0924 32.4703 94.4281 32.3265C94.7637 32.1826 95.2089 32.1107 95.7637 32.1107H97.3562V32.9635H95.8562C95.4178 32.9635 95.1233 33.0354 94.9726 33.1792C94.8219 33.3162 94.7466 33.4875 94.7466 33.6929C94.7466 33.9258 94.839 34.1108 95.024 34.2478C95.2089 34.3847 95.4658 34.4532 95.7945 34.4532C96.1096 34.4532 96.3904 34.3813 96.637 34.2375C96.8905 34.0936 97.072 33.8813 97.1816 33.6005L97.3973 34.371C97.274 34.693 97.0514 34.943 96.7295 35.1211C96.4144 35.2992 96.0137 35.3882 95.5274 35.3882ZM101.894 35.3882C101.285 35.3882 100.75 35.2683 100.291 35.0286C99.8393 34.782 99.4866 34.4464 99.2331 34.0217C98.9865 33.5971 98.8633 33.1142 98.8633 32.573C98.8633 32.0251 98.9831 31.5422 99.2229 31.1244C99.4694 30.6997 99.8051 30.3675 100.23 30.1278C100.661 29.888 101.151 29.7682 101.699 29.7682C102.233 29.7682 102.709 29.8846 103.127 30.1175C103.545 30.3504 103.874 30.6792 104.113 31.1038C104.353 31.5285 104.473 32.0285 104.473 32.6039C104.473 32.6587 104.47 32.7203 104.463 32.7888C104.463 32.8573 104.459 32.9224 104.452 32.984H99.8804V32.1313H103.774L103.271 32.3984C103.278 32.0833 103.213 31.8059 103.076 31.5662C102.939 31.3264 102.75 31.1381 102.511 31.0011C102.278 30.8641 102.007 30.7956 101.699 30.7956C101.384 30.7956 101.106 30.8641 100.867 31.0011C100.634 31.1381 100.449 31.3299 100.312 31.5764C100.182 31.8162 100.117 32.1004 100.117 32.4292V32.6347C100.117 32.9635 100.192 33.2546 100.343 33.508C100.493 33.7614 100.706 33.9567 100.98 34.0936C101.254 34.2306 101.569 34.2991 101.925 34.2991C102.233 34.2991 102.511 34.2512 102.757 34.1553C103.004 34.0594 103.223 33.9087 103.415 33.7032L104.103 34.4943C103.857 34.782 103.545 35.0046 103.168 35.1622C102.798 35.3129 102.374 35.3882 101.894 35.3882ZM105.159 35.3163V29.8298H106.504L108.713 33.7238H108.179L110.501 29.8298H111.703L111.714 35.3163H110.553V31.2066L110.758 31.3401L108.703 34.7409H108.148L106.083 31.2477L106.33 31.186V35.3163H105.159ZM118.255 35.3163V29.8298H119.539V35.3163H118.255ZM115.388 31.6381C116.094 31.6381 116.628 31.7956 116.991 32.1107C117.361 32.4258 117.546 32.871 117.546 33.4464C117.546 34.0423 117.34 34.508 116.929 34.8437C116.525 35.1724 115.95 35.3334 115.203 35.3266L112.717 35.3163V29.8298H114.001V31.6278L115.388 31.6381ZM115.09 34.3813C115.467 34.3882 115.755 34.3094 115.953 34.145C116.152 33.9806 116.251 33.7409 116.251 33.4258C116.251 33.1107 116.152 32.8847 115.953 32.7477C115.762 32.6039 115.474 32.5285 115.09 32.5217L114.001 32.5114V34.371L115.09 34.3813ZM120.546 35.3163V29.8298H121.831V33.4464L124.861 29.8298H126.033V35.3163H124.748V31.6997L121.728 35.3163H120.546ZM123.207 29.1825C122.659 29.1825 122.238 29.0558 121.944 28.8024C121.649 28.5421 121.498 28.1654 121.492 27.6722H122.344C122.351 27.9188 122.426 28.114 122.57 28.2578C122.721 28.4017 122.93 28.4736 123.197 28.4736C123.457 28.4736 123.663 28.4017 123.814 28.2578C123.971 28.114 124.053 27.9188 124.06 27.6722H124.933C124.927 28.1654 124.772 28.5421 124.471 28.8024C124.177 29.0558 123.755 29.1825 123.207 29.1825ZM126.682 36.8677L127.277 34.5971L127.452 35.3574C127.212 35.3574 127.01 35.2855 126.846 35.1416C126.688 34.9909 126.61 34.7889 126.61 34.5354C126.61 34.2752 126.688 34.0697 126.846 33.919C127.01 33.7614 127.209 33.6827 127.442 33.6827C127.682 33.6827 127.88 33.7614 128.038 33.919C128.195 34.0765 128.274 34.282 128.274 34.5354C128.274 34.6039 128.267 34.6793 128.254 34.7615C128.24 34.8368 128.216 34.9259 128.182 35.0286C128.154 35.1313 128.106 35.2615 128.038 35.419L127.514 36.8677H126.682ZM42.1107 46.306L42.1724 45.2272C42.2203 45.2341 42.2648 45.2409 42.3059 45.2478C42.347 45.2546 42.3847 45.258 42.419 45.258C42.6313 45.258 42.7957 45.193 42.9121 45.0628C43.0286 44.9327 43.1142 44.758 43.169 44.5388C43.2306 44.3128 43.2717 44.0628 43.2923 43.7888C43.3197 43.508 43.3402 43.2271 43.3539 42.9463L43.4464 40.8298H47.8849V46.3163H46.6006V41.5696L46.8986 41.9189H44.2889L44.5663 41.5593L44.4944 43.008C44.4738 43.4943 44.4327 43.9463 44.3711 44.3642C44.3163 44.7751 44.2272 45.1347 44.1039 45.443C43.9875 45.7512 43.8231 45.9909 43.6108 46.1622C43.4053 46.3334 43.1416 46.419 42.8197 46.419C42.7169 46.419 42.6039 46.4088 42.4806 46.3882C42.3642 46.3677 42.2409 46.3403 42.1107 46.306ZM51.4536 46.3882C50.844 46.3882 50.3097 46.2683 49.8508 46.0286C49.3987 45.782 49.046 45.4464 48.7926 45.0217C48.546 44.5971 48.4227 44.1142 48.4227 43.573C48.4227 43.0251 48.5425 42.5422 48.7823 42.1244C49.0289 41.6997 49.3645 41.3675 49.7892 41.1278C50.2207 40.888 50.7104 40.7682 51.2584 40.7682C51.7926 40.7682 52.2687 40.8846 52.6865 41.1175C53.1043 41.3504 53.4331 41.6792 53.6728 42.1038C53.9126 42.5285 54.0324 43.0285 54.0324 43.6039C54.0324 43.6587 54.029 43.7203 54.0222 43.7888C54.0222 43.8573 54.0187 43.9224 54.0119 43.984H49.4398V43.1313H53.3338L52.8304 43.3984C52.8372 43.0833 52.7721 42.8059 52.6351 42.5662C52.4982 42.3264 52.3098 42.1381 52.0701 42.0011C51.8372 41.8641 51.5666 41.7956 51.2584 41.7956C50.9433 41.7956 50.6659 41.8641 50.4262 42.0011C50.1933 42.1381 50.0083 42.3299 49.8714 42.5764C49.7412 42.8162 49.6761 43.1004 49.6761 43.4292V43.6347C49.6761 43.9635 49.7515 44.2546 49.9022 44.508C50.0529 44.7614 50.2652 44.9567 50.5392 45.0936C50.8132 45.2306 51.1282 45.2991 51.4844 45.2991C51.7926 45.2991 52.0701 45.2512 52.3166 45.1553C52.5632 45.0594 52.7824 44.9087 52.9742 44.7032L53.6626 45.4943C53.416 45.782 53.1043 46.0046 52.7276 46.1622C52.3577 46.3129 51.9331 46.3882 51.4536 46.3882ZM54.7179 46.3163V40.8298H58.9304V41.9189H55.7043L56.0022 41.6312V46.3163H54.7179ZM63.081 46.3163L61.098 43.6861L62.146 43.0388L64.5913 46.3163H63.081ZM59.1459 46.3163V40.8298H60.4302V46.3163H59.1459ZM60.0501 44.1176V43.0491H61.9097V44.1176H60.0501ZM62.2693 43.7272L61.0672 43.5833L63.081 40.8298H64.4577L62.2693 43.7272ZM64.7779 46.3163V40.8298H66.0622V44.4464L69.0931 40.8298H70.2644V46.3163H68.9801V42.6997L65.9595 46.3163H64.7779ZM71.2728 46.3163V40.8298H72.5571V44.4464L75.588 40.8298H76.7593V46.3163H75.475V42.6997L72.4543 46.3163H71.2728ZM73.9338 40.1825C73.3859 40.1825 72.9646 40.0558 72.6701 39.8024C72.3756 39.5421 72.2249 39.1654 72.218 38.6722H73.0708C73.0776 38.9188 73.153 39.114 73.2968 39.2578C73.4475 39.4017 73.6564 39.4736 73.9236 39.4736C74.1838 39.4736 74.3893 39.4017 74.54 39.2578C74.6976 39.114 74.7798 38.9188 74.7866 38.6722H75.6599C75.6531 39.1654 75.499 39.5421 75.1976 39.8024C74.903 40.0558 74.4818 40.1825 73.9338 40.1825ZM80.3811 48.3814C80.114 48.3814 79.8469 48.3369 79.5797 48.2479C79.3126 48.1588 79.09 48.0355 78.9119 47.878L79.4256 46.9327C79.5558 47.0492 79.703 47.1417 79.8674 47.2101C80.0318 47.2786 80.1996 47.3129 80.3708 47.3129C80.6037 47.3129 80.7921 47.2547 80.9359 47.1382C81.0798 47.0218 81.2133 46.8266 81.3366 46.5526L81.6551 45.8334L81.7579 45.6793L83.8333 40.8298H85.0662L82.4976 46.7581C82.3264 47.1691 82.1346 47.4944 81.9223 47.7341C81.7168 47.9739 81.4839 48.1417 81.2236 48.2376C80.9702 48.3335 80.6893 48.3814 80.3811 48.3814ZM81.5113 46.5115L79.0352 40.8298H80.3708L82.3846 45.5663L81.5113 46.5115ZM84.1163 46.3163L86.5308 43.1723L86.5102 43.8607L84.2088 40.8298H85.6369L87.25 42.9874H86.7054L88.3288 40.8298H89.7158L87.3938 43.8607L87.4041 43.1723L89.8083 46.3163H88.3596L86.6643 44.0251L87.1986 44.097L85.5342 46.3163H84.1163ZM92.2728 46.3882C91.7112 46.3882 91.2111 46.2683 90.7728 46.0286C90.3344 45.782 89.9885 45.4464 89.7351 45.0217C89.4816 44.5971 89.3549 44.1142 89.3549 43.573C89.3549 43.0251 89.4816 42.5422 89.7351 42.1244C89.9885 41.6997 90.3344 41.3675 90.7728 41.1278C91.2111 40.888 91.7112 40.7682 92.2728 40.7682C92.8413 40.7682 93.3448 40.888 93.7831 41.1278C94.2284 41.3675 94.5743 41.6963 94.8208 42.1141C95.0743 42.5319 95.201 43.0182 95.201 43.573C95.201 44.1142 95.0743 44.5971 94.8208 45.0217C94.5743 45.4464 94.2284 45.782 93.7831 46.0286C93.3448 46.2683 92.8413 46.3882 92.2728 46.3882ZM92.2728 45.2889C92.5879 45.2889 92.8687 45.2204 93.1153 45.0834C93.3619 44.9464 93.5537 44.7477 93.6907 44.4875C93.8345 44.2272 93.9064 43.9224 93.9064 43.573C93.9064 43.2169 93.8345 42.9121 93.6907 42.6586C93.5537 42.3984 93.3619 42.1997 93.1153 42.0627C92.8687 41.9257 92.5913 41.8572 92.2831 41.8572C91.968 41.8572 91.6872 41.9257 91.4406 42.0627C91.2009 42.1997 91.0091 42.3984 90.8652 42.6586C90.7214 42.9121 90.6495 43.2169 90.6495 43.573C90.6495 43.9224 90.7214 44.2272 90.8652 44.4875C91.0091 44.7477 91.2009 44.9464 91.4406 45.0834C91.6872 45.2204 91.9646 45.2889 92.2728 45.2889ZM99.4507 45.7204V41.9189H97.3445L97.3136 42.8025C97.2999 43.1176 97.2794 43.4224 97.252 43.7169C97.2246 44.0046 97.1801 44.2717 97.1184 44.5183C97.0568 44.758 96.9677 44.9567 96.8513 45.1142C96.7349 45.2717 96.5807 45.3745 96.389 45.4224L95.1149 45.2272C95.3204 45.2272 95.4848 45.1621 95.6081 45.032C95.7383 44.895 95.8376 44.7101 95.9061 44.4772C95.9814 44.2375 96.0362 43.9669 96.0705 43.6655C96.1047 43.3573 96.1287 43.0388 96.1424 42.71L96.2143 40.8298H100.735V45.7204H99.4507ZM94.9197 47.5389V45.2272H101.547V47.5389H100.345V46.3163H96.1115V47.5389H94.9197ZM17.8778 57.3163V50.1243H18.9668L22.121 55.3744H21.5354L24.6382 50.1243H25.7273L25.7479 57.3163H24.4739L24.4636 52.1072H24.7307L22.1005 56.4943H21.5046L18.8333 52.1072H19.1415V57.3163H17.8778ZM29.3427 57.3882C28.7811 57.3882 28.2811 57.2683 27.8427 57.0286C27.4043 56.782 27.0584 56.4464 26.805 56.0217C26.5516 55.5971 26.4248 55.1142 26.4248 54.573C26.4248 54.0251 26.5516 53.5422 26.805 53.1244C27.0584 52.6997 27.4043 52.3675 27.8427 52.1278C28.2811 51.888 28.7811 51.7682 29.3427 51.7682C29.9113 51.7682 30.4147 51.888 30.8531 52.1278C31.2983 52.3675 31.6442 52.6963 31.8908 53.1141C32.1442 53.5319 32.2709 54.0182 32.2709 54.573C32.2709 55.1142 32.1442 55.5971 31.8908 56.0217C31.6442 56.4464 31.2983 56.782 30.8531 57.0286C30.4147 57.2683 29.9113 57.3882 29.3427 57.3882ZM29.3427 56.2889C29.6578 56.2889 29.9387 56.2204 30.1852 56.0834C30.4318 55.9464 30.6236 55.7477 30.7606 55.4875C30.9044 55.2272 30.9764 54.9224 30.9764 54.573C30.9764 54.2169 30.9044 53.9121 30.7606 53.6586C30.6236 53.3984 30.4318 53.1997 30.1852 53.0627C29.9387 52.9257 29.6612 52.8572 29.353 52.8572C29.0379 52.8572 28.7571 52.9257 28.5105 53.0627C28.2708 53.1997 28.079 53.3984 27.9352 53.6586C27.7913 53.9121 27.7194 54.2169 27.7194 54.573C27.7194 54.9224 27.7913 55.2272 27.9352 55.4875C28.079 55.7477 28.2708 55.9464 28.5105 56.0834C28.7571 56.2204 29.0345 56.2889 29.3427 56.2889ZM39.1846 57.3163L37.5818 54.6861L38.6297 54.0388L40.7154 57.3163H39.1846ZM36.5441 55.1176V54.0491H38.3832V55.1176H36.5441ZM38.753 54.7272L37.5407 54.5833L39.2051 51.8298H40.5716L38.753 54.7272ZM33.3899 57.3163H31.8693L33.9447 54.0388L34.9926 54.6861L33.3899 57.3163ZM36.9242 57.3163H35.6502V51.8298H36.9242V57.3163ZM36.0304 55.1176H34.2015V54.0491H36.0304V55.1176ZM33.8214 54.7272L32.0028 51.8298H33.3693L35.0235 54.5833L33.8214 54.7272ZM40.9508 57.3163V51.8298H42.2351V54.0593H44.9988V51.8298H46.2831V57.3163H44.9988V55.1484H42.2351V57.3163H40.9508ZM49.7304 57.3882C49.1687 57.3882 48.6687 57.2683 48.2304 57.0286C47.792 56.782 47.4461 56.4464 47.1927 56.0217C46.9392 55.5971 46.8125 55.1142 46.8125 54.573C46.8125 54.0251 46.9392 53.5422 47.1927 53.1244C47.4461 52.6997 47.792 52.3675 48.2304 52.1278C48.6687 51.888 49.1687 51.7682 49.7304 51.7682C50.2989 51.7682 50.8024 51.888 51.2407 52.1278C51.6859 52.3675 52.0318 52.6963 52.2784 53.1141C52.5319 53.5319 52.6586 54.0182 52.6586 54.573C52.6586 55.1142 52.5319 55.5971 52.2784 56.0217C52.0318 56.4464 51.6859 56.782 51.2407 57.0286C50.8024 57.2683 50.2989 57.3882 49.7304 57.3882ZM49.7304 56.2889C50.0455 56.2889 50.3263 56.2204 50.5729 56.0834C50.8195 55.9464 51.0113 55.7477 51.1483 55.4875C51.2921 55.2272 51.364 54.9224 51.364 54.573C51.364 54.2169 51.2921 53.9121 51.1483 53.6586C51.0113 53.3984 50.8195 53.1997 50.5729 53.0627C50.3263 52.9257 50.0489 52.8572 49.7407 52.8572C49.4256 52.8572 49.1448 52.9257 48.8982 53.0627C48.6585 53.1997 48.4667 53.3984 48.3228 53.6586C48.179 53.9121 48.1071 54.2169 48.1071 54.573C48.1071 54.9224 48.179 55.2272 48.3228 55.4875C48.4667 55.7477 48.6585 55.9464 48.8982 56.0834C49.1448 56.2204 49.4222 56.2889 49.7304 56.2889ZM55.3284 57.3163V51.8298H56.6127V55.4464L59.6436 51.8298H60.8148V57.3163H59.5306V53.6997L56.5099 57.3163H55.3284ZM64.3199 57.3882C63.7445 57.3882 63.2308 57.2683 62.7788 57.0286C62.3335 56.782 61.9842 56.4464 61.7308 56.0217C61.4773 55.5971 61.3506 55.1142 61.3506 54.573C61.3506 54.0251 61.4773 53.5422 61.7308 53.1244C61.9842 52.6997 62.3335 52.3675 62.7788 52.1278C63.2308 51.888 63.7445 51.7682 64.3199 51.7682C64.8542 51.7682 65.3234 51.8778 65.7275 52.0969C66.1385 52.3093 66.4501 52.6244 66.6624 53.0422L65.6761 53.6175C65.5117 53.3573 65.3097 53.1655 65.0699 53.0422C64.837 52.9189 64.5836 52.8572 64.3096 52.8572C63.9946 52.8572 63.7103 52.9257 63.4569 53.0627C63.2034 53.1997 63.0048 53.3984 62.861 53.6586C62.7171 53.9121 62.6452 54.2169 62.6452 54.573C62.6452 54.9292 62.7171 55.2375 62.861 55.4977C63.0048 55.7512 63.2034 55.9464 63.4569 56.0834C63.7103 56.2204 63.9946 56.2889 64.3096 56.2889C64.5836 56.2889 64.837 56.2272 65.0699 56.1039C65.3097 55.9806 65.5117 55.7888 65.6761 55.5286L66.6624 56.1039C66.4501 56.5149 66.1385 56.8334 65.7275 57.0594C65.3234 57.2786 64.8542 57.3882 64.3199 57.3882ZM67.074 57.3163V51.8298H72.3344V57.3163H71.0604V52.6209L71.3584 52.9189H68.0603L68.3583 52.6209V57.3163H67.074ZM75.7934 57.3882C75.2317 57.3882 74.7317 57.2683 74.2934 57.0286C73.855 56.782 73.5091 56.4464 73.2557 56.0217C73.0022 55.5971 72.8755 55.1142 72.8755 54.573C72.8755 54.0251 73.0022 53.5422 73.2557 53.1244C73.5091 52.6997 73.855 52.3675 74.2934 52.1278C74.7317 51.888 75.2317 51.7682 75.7934 51.7682C76.3619 51.7682 76.8654 51.888 77.3037 52.1278C77.7489 52.3675 78.0948 52.6963 78.3414 53.1141C78.5949 53.5319 78.7216 54.0182 78.7216 54.573C78.7216 55.1142 78.5949 55.5971 78.3414 56.0217C78.0948 56.4464 77.7489 56.782 77.3037 57.0286C76.8654 57.2683 76.3619 57.3882 75.7934 57.3882ZM75.7934 56.2889C76.1085 56.2889 76.3893 56.2204 76.6359 56.0834C76.8825 55.9464 77.0743 55.7477 77.2113 55.4875C77.3551 55.2272 77.427 54.9224 77.427 54.573C77.427 54.2169 77.3551 53.9121 77.2113 53.6586C77.0743 53.3984 76.8825 53.1997 76.6359 53.0627C76.3893 52.9257 76.1119 52.8572 75.8037 52.8572C75.4886 52.8572 75.2078 52.9257 74.9612 53.0627C74.7215 53.1997 74.5297 53.3984 74.3858 53.6586C74.242 53.9121 74.1701 54.2169 74.1701 54.573C74.1701 54.9224 74.242 55.2272 74.3858 55.4875C74.5297 55.7477 74.7215 55.9464 74.9612 56.0834C75.2078 56.2204 75.4852 56.2889 75.7934 56.2889ZM78.4095 57.306L78.4711 56.2272C78.5191 56.2341 78.5636 56.2409 78.6047 56.2478C78.6458 56.2546 78.6835 56.258 78.7177 56.258C78.9301 56.258 79.0944 56.193 79.2109 56.0628C79.3273 55.9327 79.413 55.758 79.4677 55.5388C79.5294 55.3128 79.5705 55.0628 79.591 54.7888C79.6184 54.508 79.639 54.2271 79.6527 53.9463L79.7452 51.8298H84.1837V57.3163H82.8994V52.5696L83.1973 52.9189H80.5876L80.8651 52.5593L80.7931 54.008C80.7726 54.4943 80.7315 54.9463 80.6698 55.3642C80.615 55.7751 80.526 56.1347 80.4027 56.443C80.2863 56.7512 80.1219 56.9909 79.9095 57.1622C79.7041 57.3334 79.4404 57.419 79.1184 57.419C79.0157 57.419 78.9027 57.4088 78.7794 57.3882C78.6629 57.3677 78.5396 57.3403 78.4095 57.306ZM87.9476 53.6381C88.6531 53.6381 89.1908 53.7956 89.5606 54.1107C89.9305 54.4258 90.1155 54.871 90.1155 55.4464C90.1155 56.0423 89.91 56.508 89.499 56.8437C89.088 57.1724 88.5092 57.3334 87.7626 57.3266L85.1941 57.3163V51.8298H86.4784V53.6278L87.9476 53.6381ZM87.6496 56.3813C88.0263 56.3882 88.314 56.3094 88.5127 56.145C88.7113 55.9806 88.8106 55.7409 88.8106 55.4258C88.8106 55.1107 88.7113 54.8847 88.5127 54.7477C88.3209 54.6039 88.0332 54.5285 87.6496 54.5217L86.4784 54.5114V56.371L87.6496 56.3813ZM92.151 57.4088C91.7332 57.4088 91.3188 57.3608 90.9079 57.2649C90.5037 57.1622 90.1373 57.0183 89.8085 56.8334L90.1681 55.8779C90.4352 56.0286 90.7366 56.145 91.0722 56.2272C91.4079 56.3094 91.7435 56.3505 92.0791 56.3505C92.3668 56.3505 92.6134 56.3231 92.8189 56.2683C93.0244 56.2067 93.1819 56.1176 93.2915 56.0012C93.4079 55.8847 93.4662 55.7512 93.4662 55.6005C93.4662 55.3813 93.3703 55.2169 93.1785 55.1073C92.9935 54.9909 92.7264 54.9326 92.3771 54.9326H91.3188V54.0696H92.2743C92.4935 54.0696 92.6785 54.0456 92.8292 53.9977C92.9867 53.9497 93.1066 53.8778 93.1888 53.7819C93.2709 53.686 93.312 53.573 93.312 53.4429C93.312 53.3127 93.2607 53.1997 93.1579 53.1038C93.062 53.0011 92.9216 52.9257 92.7367 52.8778C92.5517 52.823 92.3291 52.7956 92.0689 52.7956C91.7949 52.7956 91.5106 52.8298 91.2161 52.8983C90.9284 52.9668 90.6339 53.0661 90.3325 53.1963L90.0037 52.2511C90.353 52.0935 90.6921 51.9736 91.0209 51.8915C91.3565 51.8024 91.6887 51.7545 92.0175 51.7476C92.5175 51.7271 92.9627 51.7784 93.3531 51.9017C93.7436 52.025 94.0518 52.2031 94.2778 52.436C94.5039 52.6689 94.6169 52.9429 94.6169 53.2579C94.6169 53.5182 94.5347 53.7545 94.3703 53.9669C94.2128 54.1723 93.9936 54.3333 93.7127 54.4498C93.4388 54.5662 93.1237 54.6244 92.7675 54.6244L92.8086 54.347C93.4182 54.347 93.8977 54.4703 94.247 54.7169C94.5963 54.9566 94.771 55.2854 94.771 55.7032C94.771 56.0388 94.658 56.3368 94.4319 56.5971C94.2059 56.8505 93.8943 57.0492 93.497 57.193C93.1066 57.3368 92.6579 57.4088 92.151 57.4088ZM97.8197 57.3882C97.2581 57.3882 96.7581 57.2683 96.3197 57.0286C95.8813 56.782 95.5354 56.4464 95.282 56.0217C95.0286 55.5971 94.9018 55.1142 94.9018 54.573C94.9018 54.0251 95.0286 53.5422 95.282 53.1244C95.5354 52.6997 95.8813 52.3675 96.3197 52.1278C96.7581 51.888 97.2581 51.7682 97.8197 51.7682C98.3882 51.7682 98.8917 51.888 99.3301 52.1278C99.7753 52.3675 100.121 52.6963 100.368 53.1141C100.621 53.5319 100.748 54.0182 100.748 54.573C100.748 55.1142 100.621 55.5971 100.368 56.0217C100.121 56.4464 99.7753 56.782 99.3301 57.0286C98.8917 57.2683 98.3882 57.3882 97.8197 57.3882ZM97.8197 56.2889C98.1348 56.2889 98.4156 56.2204 98.6622 56.0834C98.9088 55.9464 99.1006 55.7477 99.2376 55.4875C99.3814 55.2272 99.4534 54.9224 99.4534 54.573C99.4534 54.2169 99.3814 53.9121 99.2376 53.6586C99.1006 53.3984 98.9088 53.1997 98.6622 53.0627C98.4156 52.9257 98.1382 52.8572 97.83 52.8572C97.5149 52.8572 97.2341 52.9257 96.9875 53.0627C96.7478 53.1997 96.556 53.3984 96.4122 53.6586C96.2683 53.9121 96.1964 54.2169 96.1964 54.573C96.1964 54.9224 96.2683 55.2272 96.4122 55.4875C96.556 55.7477 96.7478 55.9464 96.9875 56.0834C97.2341 56.2204 97.5115 56.2889 97.8197 56.2889ZM101.297 57.3163V51.8298H103.979C104.643 51.8298 105.164 51.9531 105.541 52.1997C105.924 52.4463 106.116 52.7956 106.116 53.2477C106.116 53.6929 105.938 54.0422 105.582 54.2956C105.226 54.5422 104.753 54.6655 104.164 54.6655L104.318 54.347C104.982 54.347 105.476 54.4703 105.798 54.7169C106.126 54.9566 106.291 55.3094 106.291 55.7751C106.291 56.2615 106.109 56.6416 105.746 56.9156C105.383 57.1827 104.832 57.3163 104.092 57.3163H101.297ZM102.52 56.3813H103.989C104.339 56.3813 104.602 56.3265 104.78 56.2169C104.958 56.1005 105.048 55.9258 105.048 55.6929C105.048 55.4464 104.965 55.2648 104.801 55.1484C104.637 55.032 104.38 54.9737 104.03 54.9737H102.52V56.3813ZM102.52 54.121H103.866C104.195 54.121 104.441 54.0628 104.606 53.9463C104.777 53.823 104.863 53.6518 104.863 53.4326C104.863 53.2066 104.777 53.0388 104.606 52.9292C104.441 52.8196 104.195 52.7648 103.866 52.7648H102.52V54.121ZM110.268 57.3163V56.2067L110.196 55.9704V54.0285C110.196 53.6518 110.083 53.3607 109.857 53.1552C109.631 52.9429 109.289 52.8367 108.83 52.8367C108.522 52.8367 108.217 52.8846 107.916 52.9805C107.621 53.0764 107.371 53.21 107.165 53.3812L106.662 52.4463C106.957 52.2202 107.306 52.0524 107.71 51.9428C108.121 51.8264 108.546 51.7682 108.984 51.7682C109.779 51.7682 110.392 51.96 110.823 52.3435C111.262 52.7202 111.481 53.3059 111.481 54.1004V57.3163H110.268ZM108.542 57.3882C108.131 57.3882 107.772 57.3197 107.463 57.1827C107.155 57.0389 106.915 56.8437 106.744 56.5971C106.58 56.3437 106.498 56.0594 106.498 55.7443C106.498 55.4361 106.57 55.1587 106.713 54.9121C106.864 54.6655 107.107 54.4703 107.443 54.3265C107.779 54.1826 108.224 54.1107 108.779 54.1107H110.371V54.9635H108.871C108.433 54.9635 108.138 55.0354 107.987 55.1792C107.837 55.3162 107.761 55.4875 107.761 55.6929C107.761 55.9258 107.854 56.1108 108.039 56.2478C108.224 56.3847 108.481 56.4532 108.809 56.4532C109.124 56.4532 109.405 56.3813 109.652 56.2375C109.905 56.0936 110.087 55.8813 110.196 55.6005L110.412 56.371C110.289 56.693 110.066 56.943 109.744 57.1211C109.429 57.2992 109.029 57.3882 108.542 57.3882ZM113.491 57.3163V52.6107L113.789 52.9189H111.56V51.8298H116.697V52.9189H114.477L114.775 52.6107V57.3163H113.491ZM119.663 53.6381C120.368 53.6381 120.906 53.7956 121.276 54.1107C121.646 54.4258 121.831 54.871 121.831 55.4464C121.831 56.0423 121.625 56.508 121.214 56.8437C120.803 57.1724 120.224 57.3334 119.478 57.3266L116.909 57.3163V51.8298H118.193V53.6278L119.663 53.6381ZM119.365 56.3813C119.741 56.3882 120.029 56.3094 120.228 56.145C120.426 55.9806 120.526 55.7409 120.526 55.4258C120.526 55.1107 120.426 54.8847 120.228 54.7477C120.036 54.6039 119.748 54.5285 119.365 54.5217L118.193 54.5114V56.371L119.365 56.3813ZM124.36 57.3163V51.8298H127.042C127.706 51.8298 128.227 51.9531 128.604 52.1997C128.987 52.4463 129.179 52.7956 129.179 53.2477C129.179 53.6929 129.001 54.0422 128.645 54.2956C128.289 54.5422 127.816 54.6655 127.227 54.6655L127.381 54.347C128.045 54.347 128.539 54.4703 128.861 54.7169C129.189 54.9566 129.354 55.3094 129.354 55.7751C129.354 56.2615 129.172 56.6416 128.809 56.9156C128.446 57.1827 127.895 57.3163 127.155 57.3163H124.36ZM125.583 56.3813H127.052C127.402 56.3813 127.665 56.3265 127.843 56.2169C128.021 56.1005 128.111 55.9258 128.111 55.6929C128.111 55.4464 128.028 55.2648 127.864 55.1484C127.7 55.032 127.443 54.9737 127.093 54.9737H125.583V56.3813ZM125.583 54.121H126.929C127.258 54.121 127.504 54.0628 127.669 53.9463C127.84 53.823 127.926 53.6518 127.926 53.4326C127.926 53.2066 127.84 53.0388 127.669 52.9292C127.504 52.8196 127.258 52.7648 126.929 52.7648H125.583V54.121ZM26.0543 67.7204V63.9189H23.9481L23.9172 64.8025C23.9035 65.1176 23.883 65.4224 23.8556 65.7169C23.8282 66.0046 23.7837 66.2717 23.722 66.5183C23.6604 66.758 23.5713 66.9567 23.4549 67.1142C23.3384 67.2717 23.1843 67.3745 22.9925 67.4224L21.7185 67.2272C21.924 67.2272 22.0884 67.1621 22.2117 67.032C22.3418 66.895 22.4412 66.7101 22.5097 66.4772C22.585 66.2375 22.6398 65.9669 22.674 65.6655C22.7083 65.3573 22.7323 65.0388 22.746 64.71L22.8179 62.8298H27.3386V67.7204H26.0543ZM21.5233 69.5389V67.2272H28.1502V69.5389H26.9482V68.3163H22.7151V69.5389H21.5233ZM29.0712 70.3814C28.8041 70.3814 28.537 70.3369 28.2698 70.2479C28.0027 70.1588 27.7801 70.0355 27.602 69.878L28.1157 68.9327C28.2459 69.0492 28.3931 69.1417 28.5575 69.2101C28.7219 69.2786 28.8897 69.3129 29.061 69.3129C29.2938 69.3129 29.4822 69.2547 29.6261 69.1382C29.7699 69.0218 29.9035 68.8266 30.0267 68.5526L30.3453 67.8334L30.448 67.6793L32.5234 62.8298H33.7563L31.1877 68.7581C31.0165 69.1691 30.8247 69.4944 30.6124 69.7341C30.4069 69.9739 30.174 70.1417 29.9137 70.2376C29.6603 70.3335 29.3795 70.3814 29.0712 70.3814ZM30.2014 68.5115L27.7253 62.8298H29.061L31.0747 67.5663L30.2014 68.5115ZM37.6176 67.2272L37.3402 67.5354V62.8298H38.6245V67.5354L38.3163 67.2272H41.0287L40.7307 67.5354V62.8298H42.015V68.3163H33.9291V62.8298H35.2134V67.5354L34.9155 67.2272H37.6176ZM45.581 68.3882C44.9714 68.3882 44.4371 68.2683 43.9782 68.0286C43.5261 67.782 43.1734 67.4464 42.9199 67.0217C42.6734 66.5971 42.5501 66.1142 42.5501 65.573C42.5501 65.0251 42.6699 64.5422 42.9097 64.1244C43.1563 63.6997 43.4919 63.3675 43.9166 63.1278C44.3481 62.888 44.8378 62.7682 45.3858 62.7682C45.92 62.7682 46.3961 62.8846 46.8139 63.1175C47.2317 63.3504 47.5605 63.6792 47.8002 64.1038C48.04 64.5285 48.1598 65.0285 48.1598 65.6039C48.1598 65.6587 48.1564 65.7203 48.1496 65.7888C48.1496 65.8573 48.1461 65.9224 48.1393 65.984H43.5672V65.1313H47.4612L46.9577 65.3984C46.9646 65.0833 46.8995 64.8059 46.7625 64.5662C46.6255 64.3264 46.4372 64.1381 46.1974 64.0011C45.9646 63.8641 45.694 63.7956 45.3858 63.7956C45.0707 63.7956 44.7933 63.8641 44.5536 64.0011C44.3207 64.1381 44.1357 64.3299 43.9987 64.5764C43.8686 64.8162 43.8035 65.1004 43.8035 65.4292V65.6347C43.8035 65.9635 43.8789 66.2546 44.0296 66.508C44.1803 66.7614 44.3926 66.9567 44.6666 67.0936C44.9406 67.2306 45.2556 67.2991 45.6118 67.2991C45.92 67.2991 46.1974 67.2512 46.444 67.1553C46.6906 67.0594 46.9098 66.9087 47.1016 66.7032L47.79 67.4943C47.5434 67.782 47.2317 68.0046 46.855 68.1622C46.4851 68.3129 46.0605 68.3882 45.581 68.3882ZM50.9656 68.3163V62.8298H52.2499V66.4464L55.2808 62.8298H56.4521V68.3163H55.1678V64.6997L52.1471 68.3163H50.9656ZM59.5808 68.3163V62.8298H60.9267L63.1357 66.7238H62.6014L64.9234 62.8298H66.1255L66.1358 68.3163H64.9748V64.2066L65.1803 64.3401L63.1254 67.7409H62.5706L60.5055 64.2477L60.752 64.186V68.3163H59.5808ZM72.677 68.3163V62.8298H73.9613V68.3163H72.677ZM69.8105 64.6381C70.516 64.6381 71.0503 64.7956 71.4133 65.1107C71.7832 65.4258 71.9681 65.871 71.9681 66.4464C71.9681 67.0423 71.7626 67.508 71.3517 67.8437C70.9475 68.1724 70.3722 68.3334 69.6256 68.3266L67.1392 68.3163V62.8298H68.4235V64.6278L69.8105 64.6381ZM69.5126 67.3813C69.8893 67.3882 70.177 67.3094 70.3756 67.145C70.5742 66.9806 70.6736 66.7409 70.6736 66.4258C70.6736 66.1107 70.5742 65.8847 70.3756 65.7477C70.1838 65.6039 69.8961 65.5285 69.5126 65.5217L68.4235 65.5114V67.371L69.5126 67.3813ZM76.109 68.3163V63.6107L76.4069 63.9189H74.1774V62.8298H79.3146V63.9189H77.0953L77.3933 63.6107V68.3163H76.109ZM82.2805 64.6381C82.986 64.6381 83.5236 64.7956 83.8935 65.1107C84.2634 65.4258 84.4483 65.871 84.4483 66.4464C84.4483 67.0423 84.2428 67.508 83.8319 67.8437C83.4209 68.1724 82.8421 68.3334 82.0955 68.3266L79.5269 68.3163V62.8298H80.8112V64.6278L82.2805 64.6381ZM81.9825 67.3813C82.3592 67.3882 82.6469 67.3094 82.8455 67.145C83.0442 66.9806 83.1435 66.7409 83.1435 66.4258C83.1435 66.1107 83.0442 65.8847 82.8455 65.7477C82.6538 65.6039 82.3661 65.5285 81.9825 65.5217L80.8112 65.5114V67.371L81.9825 67.3813ZM86.9782 68.3163V62.8298H89.6598C90.3242 62.8298 90.8448 62.9531 91.2215 63.1997C91.6051 63.4463 91.7969 63.7956 91.7969 64.2477C91.7969 64.6929 91.6188 65.0422 91.2626 65.2956C90.9064 65.5422 90.4338 65.6655 89.8448 65.6655L89.9989 65.347C90.6633 65.347 91.1564 65.4703 91.4784 65.7169C91.8071 65.9566 91.9715 66.3094 91.9715 66.7751C91.9715 67.2615 91.79 67.6416 91.427 67.9156C91.064 68.1827 90.5126 68.3163 89.7728 68.3163H86.9782ZM88.2009 67.3813H89.6701C90.0194 67.3813 90.2831 67.3265 90.4612 67.2169C90.6393 67.1005 90.7283 66.9258 90.7283 66.6929C90.7283 66.4464 90.6461 66.2648 90.4818 66.1484C90.3174 66.032 90.0605 65.9737 89.7112 65.9737H88.2009V67.3813ZM88.2009 65.121H89.5468C89.8756 65.121 90.1222 65.0628 90.2865 64.9463C90.4578 64.823 90.5434 64.6518 90.5434 64.4326C90.5434 64.2066 90.4578 64.0388 90.2865 63.9292C90.1222 63.8196 89.8756 63.7648 89.5468 63.7648H88.2009V65.121ZM94.7405 68.3163V62.8298H97.4221C98.0865 62.8298 98.6071 62.9531 98.9838 63.1997C99.3674 63.4463 99.5592 63.7956 99.5592 64.2477C99.5592 64.6929 99.3811 65.0422 99.0249 65.2956C98.6687 65.5422 98.1961 65.6655 97.6071 65.6655L97.7612 65.347C98.4256 65.347 98.9187 65.4703 99.2407 65.7169C99.5694 65.9566 99.7338 66.3094 99.7338 66.7751C99.7338 67.2615 99.5523 67.6416 99.1893 67.9156C98.8263 68.1827 98.2749 68.3163 97.5351 68.3163H94.7405ZM95.9632 67.3813H97.4324C97.7817 67.3813 98.0454 67.3265 98.2235 67.2169C98.4016 67.1005 98.4906 66.9258 98.4906 66.6929C98.4906 66.4464 98.4085 66.2648 98.2441 66.1484C98.0797 66.032 97.8228 65.9737 97.4735 65.9737H95.9632V67.3813ZM95.9632 65.121H97.3091C97.6379 65.121 97.8845 65.0628 98.0489 64.9463C98.2201 64.823 98.3057 64.6518 98.3057 64.4326C98.3057 64.2066 98.2201 64.0388 98.0489 63.9292C97.8845 63.8196 97.6379 63.7648 97.3091 63.7648H95.9632V65.121ZM102.828 68.3882C102.266 68.3882 101.766 68.2683 101.328 68.0286C100.889 67.782 100.544 67.4464 100.29 67.0217C100.037 66.5971 99.9099 66.1142 99.9099 65.573C99.9099 65.0251 100.037 64.5422 100.29 64.1244C100.544 63.6997 100.889 63.3675 101.328 63.1278C101.766 62.888 102.266 62.7682 102.828 62.7682C103.396 62.7682 103.9 62.888 104.338 63.1278C104.783 63.3675 105.129 63.6963 105.376 64.1141C105.629 64.5319 105.756 65.0182 105.756 65.573C105.756 66.1142 105.629 66.5971 105.376 67.0217C105.129 67.4464 104.783 67.782 104.338 68.0286C103.9 68.2683 103.396 68.3882 102.828 68.3882ZM102.828 67.2889C103.143 67.2889 103.424 67.2204 103.67 67.0834C103.917 66.9464 104.109 66.7477 104.246 66.4875C104.39 66.2272 104.461 65.9224 104.461 65.573C104.461 65.2169 104.39 64.9121 104.246 64.6586C104.109 64.3984 103.917 64.1997 103.67 64.0627C103.424 63.9257 103.146 63.8572 102.838 63.8572C102.523 63.8572 102.242 63.9257 101.996 64.0627C101.756 64.1997 101.564 64.3984 101.42 64.6586C101.276 64.9121 101.205 65.2169 101.205 65.573C101.205 65.9224 101.276 66.2272 101.42 66.4875C101.564 66.7477 101.756 66.9464 101.996 67.0834C102.242 67.2204 102.52 67.2889 102.828 67.2889ZM110.006 67.7204V63.9189H107.899L107.869 64.8025C107.855 65.1176 107.834 65.4224 107.807 65.7169C107.78 66.0046 107.735 66.2717 107.673 66.5183C107.612 66.758 107.523 66.9567 107.406 67.1142C107.29 67.2717 107.136 67.3745 106.944 67.4224L105.67 67.2272C105.875 67.2272 106.04 67.1621 106.163 67.032C106.293 66.895 106.393 66.7101 106.461 66.4772C106.536 66.2375 106.591 65.9669 106.625 65.6655C106.66 65.3573 106.684 65.0388 106.697 64.71L106.769 62.8298H111.29V67.7204H110.006ZM105.475 69.5389V67.2272H112.102V69.5389H110.9V68.3163H106.667V69.5389H105.475ZM115.088 68.3882C114.478 68.3882 113.944 68.2683 113.485 68.0286C113.033 67.782 112.68 67.4464 112.427 67.0217C112.18 66.5971 112.057 66.1142 112.057 65.573C112.057 65.0251 112.177 64.5422 112.416 64.1244C112.663 63.6997 112.999 63.3675 113.423 63.1278C113.855 62.888 114.345 62.7682 114.893 62.7682C115.427 62.7682 115.903 62.8846 116.321 63.1175C116.739 63.3504 117.067 63.6792 117.307 64.1038C117.547 64.5285 117.667 65.0285 117.667 65.6039C117.667 65.6587 117.663 65.7203 117.656 65.7888C117.656 65.8573 117.653 65.9224 117.646 65.984H113.074V65.1313H116.968L116.465 65.3984C116.471 65.0833 116.406 64.8059 116.269 64.5662C116.132 64.3264 115.944 64.1381 115.704 64.0011C115.471 63.8641 115.201 63.7956 114.893 63.7956C114.578 63.7956 114.3 63.8641 114.06 64.0011C113.828 64.1381 113.643 64.3299 113.506 64.5764C113.375 64.8162 113.31 65.1004 113.31 65.4292V65.6347C113.31 65.9635 113.386 66.2546 113.536 66.508C113.687 66.7614 113.899 66.9567 114.173 67.0936C114.447 67.2306 114.762 67.2991 115.119 67.2991C115.427 67.2991 115.704 67.2512 115.951 67.1553C116.197 67.0594 116.417 66.9087 116.608 66.7032L117.297 67.4943C117.05 67.782 116.739 68.0046 116.362 68.1622C115.992 68.3129 115.567 68.3882 115.088 68.3882Z" fill="#F6517C"/>
<path d="M103.118 101.569C101.324 101.842 86.6331 104.621 82.8876 105.44C82.8901 105.51 83.9726 106.429 86.6331 108.186C89.2937 109.943 91.4009 111.485 91.3161 111.611C91.231 111.737 89.281 114.212 86.9827 117.112C84.2745 120.528 82.1735 122.928 81.0134 123.929C77.6291 126.851 73.0775 129.144 68.5638 130.201C65.6073 130.893 60.9102 131.07 57.9689 130.599C56.7387 130.401 55.7021 130.268 55.6652 130.301C55.5447 130.412 63.6468 134.044 65.9394 134.908C68.5104 135.876 73.2139 136.827 75.4652 136.834C78.627 136.844 82.329 135.877 85.7462 134.148C90.6654 131.66 96.9069 126.15 101.253 120.458C101.853 119.673 102.433 118.817 102.541 118.817C102.649 118.817 104.449 120.251 106.544 121.742C108.639 123.233 111.16 124.972 111.199 124.822C111.362 117.607 110.716 109.303 110.381 102.474C110.326 101.365 109.753 100.609 108.647 100.714C106.598 100.91 103.359 101.532 103.118 101.569Z" fill="#E4016A"/>
<path fill-rule="evenodd" clip-rule="evenodd" d="M63.1008 77.88C61.155 81.4902 59.3297 85.0987 59.0443 85.8991C58.4875 87.4609 58.3769 89.4531 58.7791 90.684C59.8048 93.8236 63.0646 96.0051 66.7847 96.0411C70.7212 96.0795 73.8105 93.9355 74.9057 90.4053C75.4069 88.7901 75.2717 87.5134 74.3516 85.1726C73.5929 83.2428 67.1235 71.3164 66.8354 71.3164C66.7269 71.3164 65.0463 74.2702 63.1008 77.88ZM46.5639 92.7196C40.3309 104.239 39.4704 106.093 38.8502 109.348C38.2918 112.277 39.7331 116.105 42.2679 118.424C47.4298 123.148 56.0173 123.121 60.8776 118.366C62.8735 116.413 64.2898 113.203 64.2898 110.631C64.2898 109.201 63.584 106.519 62.6642 104.452C61.9304 102.803 51.622 83.8729 51.4578 83.8729C51.399 83.8729 49.1967 87.854 46.5639 92.7196Z" fill="#FF6C92"/>
<path d="M63.8107 121.547C61.4221 124.233 58.4364 124.822 55.9639 124.862C46.9684 125.007 36.6403 122.911 29.887 118.496C29.726 118.643 34.2967 122.142 34.8494 122.437C42.5666 127.897 55.5487 129.33 58.2543 129.262C61.6401 129.177 63.6735 128.866 65.7255 128.375C68.3504 127.748 72.6212 125.942 74.0333 124.862L74.8567 124.233L71.0395 122.197C68.9403 121.077 66.8856 119.989 66.474 119.781L65.7255 119.402L63.8107 121.547Z" fill="#C00159"/>
<path d="M55.6406 130.282C62.8203 134.104 69.3889 136.834 75.6588 136.834C80.4453 136.834 85.2135 135.598 92.3788 129.736C98.0516 125.095 100.924 120.818 102.516 118.817L111.175 124.822L110.89 111.992L110.33 102.003C110.307 101.598 110.062 101.24 109.694 101.071L109.587 101.022C109.316 100.898 109 101.007 108.868 101.275C104.493 110.174 92.7527 127.679 80.436 131.92C75.0617 134.377 60.1332 132.193 55.6406 130.282Z" fill="#C00159"/>
<path fill-rule="evenodd" clip-rule="evenodd" d="M77.1448 104.244C79.6765 108.392 81.0441 114.72 76.3797 116.084C75.768 116.263 75.1155 116.36 74.4382 116.36C72.9988 116.36 71.6652 115.908 70.6033 115.155C67.7946 113.163 69.0015 109.112 70.6244 106.075C71.9542 103.586 72.8379 102.201 74.4382 100.526C75.4458 101.643 76.3087 102.874 77.1448 104.244Z" fill="#FF6C92"/>
<path fill-rule="evenodd" clip-rule="evenodd" d="M30.9495 94.6894C33.4812 98.8376 34.8488 105.165 30.1844 106.529C29.5727 106.708 28.9202 106.805 28.2429 106.805C26.8035 106.805 25.4699 106.353 24.408 105.6C21.5993 103.608 22.8061 99.557 24.4291 96.52C25.7589 94.0315 26.6426 92.6465 28.2429 90.9716C29.2505 92.0882 30.1134 93.3194 30.9495 94.6894Z" fill="#FF6C92"/>
<path fill-rule="evenodd" clip-rule="evenodd" d="M39.5951 77.205C42.0999 80.8499 42.8349 87.1498 38.4123 87.1498C37.8877 87.1498 37.3827 87.0646 36.9131 86.9088C33.6834 85.8367 34.6598 81.4302 36.3563 78.4802C36.9872 77.3833 37.5562 76.5926 38.4123 75.6842C38.8368 76.1611 39.2253 76.6668 39.5951 77.205Z" fill="#FF6C92"/>
<path d="M65.5529 95.8852C59.0162 90.6984 60.8382 84.6926 66.7777 71.5891C60.1413 83.0547 58.6484 84.6926 58.6484 89.6064C58.947 91.7903 60.4399 95.0662 65.5529 95.8852Z" fill="#EB577D"/>
<path d="M49.5881 121.819C39.5048 113.893 42.3153 104.716 51.4775 84.6927C41.2403 102.213 38.9375 104.716 38.9375 112.225C39.3981 115.562 41.7009 120.568 49.5881 121.819Z" fill="#EB577D"/>
<path d="M73.8648 116.36C70.0235 112.979 70.2819 110.081 74.1633 100.799C71.1776 104.348 68.7891 108.79 68.7891 111.992C68.7891 113.903 70.5805 116.087 73.8648 116.36Z" fill="#EB577D"/>
<path d="M27.6773 106.805C23.836 103.425 24.0944 100.526 27.9758 91.2445C24.9901 94.7934 22.6016 99.2348 22.6016 102.437C22.6016 104.348 24.393 106.532 27.6773 106.805Z" fill="#EB577D"/>
<path d="M37.9229 87.1498C35.362 84.6591 35.5343 82.5233 38.1219 75.6842C36.1314 78.2992 34.5391 81.5718 34.5391 83.9314C34.5391 85.3394 35.7333 86.9486 37.9229 87.1498Z" fill="#EB577D"/>
<defs>
<clipPath id="clip0_2869_18">
<rect width="144" height="144" fill="white" transform="translate(0.71875)"/>
</clipPath>
</defs>
</svg>
