<svg width="146" height="144" viewBox="0 0 146 144" fill="none" xmlns="http://www.w3.org/2000/svg">
<g clip-path="url(#clip0_2869_15)">
<path d="M0.71875 72C0.71875 111.764 33.1781 144 73.2188 144C113.259 144 145.719 111.764 145.719 72C145.719 32.2355 113.259 0 73.2188 0C33.1781 0 0.71875 32.2355 0.71875 72Z" fill="white"/>
</g>
<path d="M37.8301 18.1243H39.1658V25.3163H37.8301V18.1243ZM34.1108 25.3163H32.7752V18.1243H34.1108V25.3163ZM37.9329 22.234H33.9978V21.0935H37.9329V22.234ZM42.8785 25.3882C42.2689 25.3882 41.7346 25.2683 41.2757 25.0286C40.8236 24.782 40.4709 24.4464 40.2175 24.0217C39.9709 23.5971 39.8476 23.1142 39.8476 22.573C39.8476 22.0251 39.9674 21.5422 40.2072 21.1244C40.4538 20.6997 40.7894 20.3675 41.2141 20.1278C41.6456 19.888 42.1353 19.7682 42.6833 19.7682C43.2175 19.7682 43.6936 19.8846 44.1114 20.1175C44.5292 20.3504 44.858 20.6792 45.0977 21.1038C45.3375 21.5285 45.4573 22.0285 45.4573 22.6039C45.4573 22.6587 45.4539 22.7203 45.4471 22.7888C45.4471 22.8573 45.4436 22.9224 45.4368 22.984H40.8647V22.1313H44.7587L44.2552 22.3984C44.2621 22.0833 44.197 21.8059 44.06 21.5662C43.923 21.3264 43.7347 21.1381 43.495 21.0011C43.2621 20.8641 42.9915 20.7956 42.6833 20.7956C42.3682 20.7956 42.0908 20.8641 41.8511 21.0011C41.6182 21.1381 41.4332 21.3299 41.2963 21.5764C41.1661 21.8162 41.101 22.1004 41.101 22.4292V22.6347C41.101 22.9635 41.1764 23.2546 41.3271 23.508C41.4778 23.7614 41.6901 23.9567 41.9641 24.0936C42.2381 24.2306 42.5531 24.2991 42.9093 24.2991C43.2175 24.2991 43.495 24.2512 43.7415 24.1553C43.9881 24.0594 44.2073 23.9087 44.3991 23.7032L45.0875 24.4943C44.8409 24.782 44.5292 25.0046 44.1525 25.1622C43.7826 25.3129 43.358 25.3882 42.8785 25.3882ZM48.5881 25.3882C48.0265 25.3882 47.5264 25.2683 47.0881 25.0286C46.6497 24.782 46.3038 24.4464 46.0504 24.0217C45.7969 23.5971 45.6702 23.1142 45.6702 22.573C45.6702 22.0251 45.7969 21.5422 46.0504 21.1244C46.3038 20.6997 46.6497 20.3675 47.0881 20.1278C47.5264 19.888 48.0265 19.7682 48.5881 19.7682C49.1566 19.7682 49.6601 19.888 50.0984 20.1278C50.5437 20.3675 50.8896 20.6963 51.1361 21.1141C51.3896 21.5319 51.5163 22.0182 51.5163 22.573C51.5163 23.1142 51.3896 23.5971 51.1361 24.0217C50.8896 24.4464 50.5437 24.782 50.0984 25.0286C49.6601 25.2683 49.1566 25.3882 48.5881 25.3882ZM48.5881 24.2889C48.9032 24.2889 49.184 24.2204 49.4306 24.0834C49.6772 23.9464 49.869 23.7477 50.006 23.4875C50.1498 23.2272 50.2217 22.9224 50.2217 22.573C50.2217 22.2169 50.1498 21.9121 50.006 21.6586C49.869 21.3984 49.6772 21.1997 49.4306 21.0627C49.184 20.9257 48.9066 20.8572 48.5984 20.8572C48.2833 20.8572 48.0025 20.9257 47.7559 21.0627C47.5162 21.1997 47.3244 21.3984 47.1805 21.6586C47.0367 21.9121 46.9648 22.2169 46.9648 22.573C46.9648 22.9224 47.0367 23.2272 47.1805 23.4875C47.3244 23.7477 47.5162 23.9464 47.7559 24.0834C48.0025 24.2204 48.2799 24.2889 48.5881 24.2889ZM52.0658 25.3163V19.8298H56.2783V20.9189H53.0521L53.3501 20.6312V25.3163H52.0658ZM59.535 25.3882C59.0898 25.3882 58.6822 25.2855 58.3123 25.08C57.9493 24.8745 57.6582 24.5663 57.439 24.1553C57.2267 23.7375 57.1205 23.2101 57.1205 22.573C57.1205 21.9292 57.2233 21.4018 57.4287 20.9908C57.6411 20.5798 57.9288 20.275 58.2918 20.0764C58.6548 19.8709 59.0692 19.7682 59.535 19.7682C60.0761 19.7682 60.5521 19.8846 60.9631 20.1175C61.3809 20.3504 61.7097 20.6757 61.9494 21.0935C62.196 21.5114 62.3193 22.0045 62.3193 22.573C62.3193 23.1416 62.196 23.6381 61.9494 24.0628C61.7097 24.4806 61.3809 24.806 60.9631 25.0389C60.5521 25.2718 60.0761 25.3882 59.535 25.3882ZM56.4938 27.3095V19.8298H57.7164V21.1244L57.6753 22.5833L57.7781 24.0423V27.3095H56.4938ZM59.3911 24.2889C59.6994 24.2889 59.9733 24.2204 60.2131 24.0834C60.4597 23.9464 60.6549 23.7477 60.7987 23.4875C60.9426 23.2272 61.0145 22.9224 61.0145 22.573C61.0145 22.2169 60.9426 21.9121 60.7987 21.6586C60.6549 21.3984 60.4597 21.1997 60.2131 21.0627C59.9733 20.9257 59.6994 20.8572 59.3911 20.8572C59.0829 20.8572 58.8055 20.9257 58.5589 21.0627C58.3123 21.1997 58.1171 21.3984 57.9733 21.6586C57.8294 21.9121 57.7575 22.2169 57.7575 22.573C57.7575 22.9224 57.8294 23.2272 57.9733 23.4875C58.1171 23.7477 58.3123 23.9464 58.5589 24.0834C58.8055 24.2204 59.0829 24.2889 59.3911 24.2889ZM66.1369 25.3163V24.2067L66.065 23.9704V22.0285C66.065 21.6518 65.952 21.3607 65.726 21.1552C65.4999 20.9429 65.1575 20.8367 64.6985 20.8367C64.3903 20.8367 64.0855 20.8846 63.7841 20.9805C63.4896 21.0764 63.2396 21.21 63.0341 21.3812L62.5307 20.4463C62.8252 20.2202 63.1745 20.0524 63.5786 19.9428C63.9896 19.8264 64.4143 19.7682 64.8526 19.7682C65.6472 19.7682 66.2602 19.96 66.6917 20.3435C67.1301 20.7202 67.3493 21.3059 67.3493 22.1004V25.3163H66.1369ZM64.4109 25.3882C63.9999 25.3882 63.6403 25.3197 63.3321 25.1827C63.0238 25.0389 62.7841 24.8437 62.6129 24.5971C62.4485 24.3437 62.3663 24.0594 62.3663 23.7443C62.3663 23.4361 62.4382 23.1587 62.582 22.9121C62.7327 22.6655 62.9759 22.4703 63.3115 22.3265C63.6471 22.1826 64.0924 22.1107 64.6472 22.1107H66.2397V22.9635H64.7396C64.3013 22.9635 64.0067 23.0354 63.856 23.1792C63.7054 23.3162 63.63 23.4875 63.63 23.6929C63.63 23.9258 63.7225 24.1108 63.9074 24.2478C64.0924 24.3847 64.3492 24.4532 64.678 24.4532C64.9931 24.4532 65.2739 24.3813 65.5205 24.2375C65.7739 24.0936 65.9554 23.8813 66.065 23.6005L66.2808 24.371C66.1575 24.693 65.9349 24.943 65.6129 25.1211C65.2979 25.2992 64.8972 25.3882 64.4109 25.3882ZM68.2193 25.3163V19.8298H69.5036V22.0593H72.2674V19.8298H73.5517V25.3163H72.2674V23.1484H69.5036V25.3163H68.2193ZM74.5537 25.3163V19.8298H75.838V23.4464L78.8689 19.8298H80.0401V25.3163H78.7559V21.6997L75.7352 25.3163H74.5537ZM84.511 23.1484C84.2507 23.2717 83.9733 23.3744 83.6788 23.4566C83.3911 23.532 83.0863 23.5697 82.7644 23.5697C82.0726 23.5697 81.5349 23.4087 81.1513 23.0868C80.7677 22.7648 80.5759 22.2648 80.5759 21.5867V19.8298H81.8602V21.5045C81.8602 21.8675 81.963 22.1313 82.1684 22.2956C82.3808 22.46 82.6719 22.5422 83.0418 22.5422C83.2883 22.5422 83.5349 22.5114 83.7815 22.4498C84.0281 22.3881 84.2713 22.3025 84.511 22.1929V23.1484ZM84.4185 25.3163V19.8298H85.7028V25.3163H84.4185ZM89.269 25.3882C88.6593 25.3882 88.1251 25.2683 87.6662 25.0286C87.2141 24.782 86.8613 24.4464 86.6079 24.0217C86.3613 23.5971 86.238 23.1142 86.238 22.573C86.238 22.0251 86.3579 21.5422 86.5976 21.1244C86.8442 20.6997 87.1798 20.3675 87.6045 20.1278C88.036 19.888 88.5258 19.7682 89.0737 19.7682C89.608 19.7682 90.084 19.8846 90.5019 20.1175C90.9197 20.3504 91.2485 20.6792 91.4882 21.1038C91.7279 21.5285 91.8478 22.0285 91.8478 22.6039C91.8478 22.6587 91.8444 22.7203 91.8375 22.7888C91.8375 22.8573 91.8341 22.9224 91.8273 22.984H87.2552V22.1313H91.1491L90.6457 22.3984C90.6526 22.0833 90.5875 21.8059 90.4505 21.5662C90.3135 21.3264 90.1251 21.1381 89.8854 21.0011C89.6525 20.8641 89.382 20.7956 89.0737 20.7956C88.7587 20.7956 88.4813 20.8641 88.2415 21.0011C88.0086 21.1381 87.8237 21.3299 87.6867 21.5764C87.5566 21.8162 87.4915 22.1004 87.4915 22.4292V22.6347C87.4915 22.9635 87.5668 23.2546 87.7175 23.508C87.8682 23.7614 88.0806 23.9567 88.3545 24.0936C88.6285 24.2306 88.9436 24.2991 89.2998 24.2991C89.608 24.2991 89.8854 24.2512 90.132 24.1553C90.3786 24.0594 90.5978 23.9087 90.7895 23.7032L91.4779 24.4943C91.2313 24.782 90.9197 25.0046 90.543 25.1622C90.1731 25.3129 89.7484 25.3882 89.269 25.3882ZM92.5333 25.3163V19.8298H93.8176V22.0593H96.5814V19.8298H97.8656V25.3163H96.5814V23.1484H93.8176V25.3163H92.5333ZM98.8676 25.3163V19.8298H100.152V22.0593H102.916V19.8298H104.2V25.3163H102.916V23.1484H100.152V25.3163H98.8676ZM108.531 25.3163V24.2067L108.459 23.9704V22.0285C108.459 21.6518 108.346 21.3607 108.12 21.1552C107.894 20.9429 107.551 20.8367 107.092 20.8367C106.784 20.8367 106.479 20.8846 106.178 20.9805C105.884 21.0764 105.633 21.21 105.428 21.3812L104.925 20.4463C105.219 20.2202 105.568 20.0524 105.973 19.9428C106.384 19.8264 106.808 19.7682 107.247 19.7682C108.041 19.7682 108.654 19.96 109.086 20.3435C109.524 20.7202 109.743 21.3059 109.743 22.1004V25.3163H108.531ZM106.805 25.3882C106.394 25.3882 106.034 25.3197 105.726 25.1827C105.418 25.0389 105.178 24.8437 105.007 24.5971C104.842 24.3437 104.76 24.0594 104.76 23.7443C104.76 23.4361 104.832 23.1587 104.976 22.9121C105.127 22.6655 105.37 22.4703 105.705 22.3265C106.041 22.1826 106.486 22.1107 107.041 22.1107H108.634V22.9635H107.134C106.695 22.9635 106.401 23.0354 106.25 23.1792C106.099 23.3162 106.024 23.4875 106.024 23.6929C106.024 23.9258 106.116 24.1108 106.301 24.2478C106.486 24.3847 106.743 24.4532 107.072 24.4532C107.387 24.4532 107.668 24.3813 107.914 24.2375C108.168 24.0936 108.349 23.8813 108.459 23.6005L108.675 24.371C108.551 24.693 108.329 24.943 108.007 25.1211C107.692 25.2992 107.291 25.3882 106.805 25.3882ZM114.096 25.3163V23.4464L114.281 23.6621H112.637C111.884 23.6621 111.291 23.5046 110.86 23.1895C110.435 22.8676 110.223 22.4052 110.223 21.8025C110.223 21.1586 110.449 20.6689 110.901 20.3333C111.36 19.9976 111.969 19.8298 112.73 19.8298H115.247V25.3163H114.096ZM110.151 25.3163L111.63 23.2203H112.946L111.528 25.3163H110.151ZM114.096 23.0354V20.5696L114.281 20.9086H112.771C112.374 20.9086 112.065 20.984 111.846 21.1346C111.634 21.2785 111.528 21.5148 111.528 21.8436C111.528 22.46 111.928 22.7683 112.73 22.7683H114.281L114.096 23.0354ZM29.4104 35.7204V31.9189H27.3042L27.2734 32.8025C27.2597 33.1176 27.2391 33.4224 27.2117 33.7169C27.1843 34.0046 27.1398 34.2717 27.0782 34.5183C27.0165 34.758 26.9275 34.9567 26.811 35.1142C26.6946 35.2717 26.5405 35.3745 26.3487 35.4224L25.0747 35.2272C25.2801 35.2272 25.4445 35.1621 25.5678 35.032C25.698 34.895 25.7973 34.7101 25.8658 34.4772C25.9411 34.2375 25.9959 33.9669 26.0302 33.6655C26.0644 33.3573 26.0884 33.0388 26.1021 32.71L26.174 30.8298H30.6947V35.7204H29.4104ZM24.8795 37.5389V35.2272H31.5064V37.5389H30.3043V36.3163H26.0713V37.5389H24.8795ZM35.2631 36.3163V35.2067L35.1912 34.9704V33.0285C35.1912 32.6518 35.0781 32.3607 34.8521 32.1552C34.6261 31.9429 34.2836 31.8367 33.8247 31.8367C33.5164 31.8367 33.2116 31.8846 32.9103 31.9805C32.6157 32.0764 32.3657 32.21 32.1602 32.3812L31.6568 31.4463C31.9513 31.2202 32.3007 31.0524 32.7048 30.9428C33.1157 30.8264 33.5404 30.7682 33.9788 30.7682C34.7733 30.7682 35.3864 30.96 35.8179 31.3435C36.2563 31.7202 36.4754 32.3059 36.4754 33.1004V36.3163H35.2631ZM33.537 36.3882C33.126 36.3882 32.7664 36.3197 32.4582 36.1827C32.15 36.0389 31.9102 35.8437 31.739 35.5971C31.5746 35.3437 31.4924 35.0594 31.4924 34.7443C31.4924 34.4361 31.5643 34.1587 31.7082 33.9121C31.8589 33.6655 32.102 33.4703 32.4376 33.3265C32.7733 33.1826 33.2185 33.1107 33.7733 33.1107H35.3658V33.9635H33.8658C33.4274 33.9635 33.1329 34.0354 32.9822 34.1792C32.8315 34.3162 32.7561 34.4875 32.7561 34.6929C32.7561 34.9258 32.8486 35.1108 33.0336 35.2478C33.2185 35.3847 33.4753 35.4532 33.8041 35.4532C34.1192 35.4532 34.4 35.3813 34.6466 35.2375C34.9 35.0936 35.0816 34.8813 35.1912 34.6005L35.4069 35.371C35.2836 35.693 35.061 35.943 34.7391 36.1211C34.424 36.2992 34.0233 36.3882 33.537 36.3882ZM36.5441 36.306L36.6057 35.2272C36.6537 35.2341 36.6982 35.2409 36.7393 35.2478C36.7804 35.2546 36.8181 35.258 36.8523 35.258C37.0646 35.258 37.229 35.193 37.3455 35.0628C37.4619 34.9327 37.5475 34.758 37.6023 34.5388C37.664 34.3128 37.7051 34.0628 37.7256 33.7888C37.753 33.508 37.7736 33.2271 37.7873 32.9463L37.8797 30.8298H42.3182V36.3163H41.0339V31.5696L41.3319 31.9189H38.7222L38.9996 31.5593L38.9277 33.008C38.9072 33.4943 38.8661 33.9463 38.8044 34.3642C38.7496 34.7751 38.6606 35.1347 38.5373 35.443C38.4208 35.7512 38.2565 35.9909 38.0441 36.1622C37.8386 36.3334 37.5749 36.419 37.253 36.419C37.1503 36.419 37.0372 36.4088 36.9139 36.3882C36.7975 36.3677 36.6742 36.3403 36.5441 36.306ZM46.0821 32.6381C46.7877 32.6381 47.3253 32.7956 47.6952 33.1107C48.0651 33.4258 48.25 33.871 48.25 34.4464C48.25 35.0423 48.0445 35.508 47.6336 35.8437C47.2226 36.1724 46.6438 36.3334 45.8972 36.3266L43.3286 36.3163V30.8298H44.6129V32.6278L46.0821 32.6381ZM45.7842 35.3813C46.1609 35.3882 46.4486 35.3094 46.6472 35.145C46.8459 34.9806 46.9452 34.7409 46.9452 34.4258C46.9452 34.1107 46.8459 33.8847 46.6472 33.7477C46.4554 33.6039 46.1678 33.5285 45.7842 33.5217L44.6129 33.5114V35.371L45.7842 35.3813ZM48.6596 36.3163V30.8298H49.9439V33.0593H52.7077V30.8298H53.992V36.3163H52.7077V34.1484H49.9439V36.3163H48.6596ZM57.4393 36.3882C56.8776 36.3882 56.3776 36.2683 55.9392 36.0286C55.5008 35.782 55.1549 35.4464 54.9015 35.0217C54.6481 34.5971 54.5214 34.1142 54.5214 33.573C54.5214 33.0251 54.6481 32.5422 54.9015 32.1244C55.1549 31.6997 55.5008 31.3675 55.9392 31.1278C56.3776 30.888 56.8776 30.7682 57.4393 30.7682C58.0078 30.7682 58.5112 30.888 58.9496 31.1278C59.3948 31.3675 59.7407 31.6963 59.9873 32.1141C60.2407 32.5319 60.3674 33.0182 60.3674 33.573C60.3674 34.1142 60.2407 34.5971 59.9873 35.0217C59.7407 35.4464 59.3948 35.782 58.9496 36.0286C58.5112 36.2683 58.0078 36.3882 57.4393 36.3882ZM57.4393 35.2889C57.7543 35.2889 58.0352 35.2204 58.2818 35.0834C58.5283 34.9464 58.7201 34.7477 58.8571 34.4875C59.001 34.2272 59.0729 33.9224 59.0729 33.573C59.0729 33.2169 59.001 32.9121 58.8571 32.6586C58.7201 32.3984 58.5283 32.1997 58.2818 32.0627C58.0352 31.9257 57.7578 31.8572 57.4495 31.8572C57.1345 31.8572 56.8536 31.9257 56.607 32.0627C56.3673 32.1997 56.1755 32.3984 56.0317 32.6586C55.8878 32.9121 55.8159 33.2169 55.8159 33.573C55.8159 33.9224 55.8878 34.2272 56.0317 34.4875C56.1755 34.7477 56.3673 34.9464 56.607 35.0834C56.8536 35.2204 57.131 35.2889 57.4393 35.2889ZM63.4136 36.3882C62.8382 36.3882 62.3245 36.2683 61.8725 36.0286C61.4272 35.782 61.0779 35.4464 60.8245 35.0217C60.571 34.5971 60.4443 34.1142 60.4443 33.573C60.4443 33.0251 60.571 32.5422 60.8245 32.1244C61.0779 31.6997 61.4272 31.3675 61.8725 31.1278C62.3245 30.888 62.8382 30.7682 63.4136 30.7682C63.9479 30.7682 64.4171 30.8778 64.8212 31.0969C65.2322 31.3093 65.5438 31.6244 65.7561 32.0422L64.7698 32.6175C64.6054 32.3573 64.4034 32.1655 64.1636 32.0422C63.9307 31.9189 63.6773 31.8572 63.4033 31.8572C63.0883 31.8572 62.804 31.9257 62.5506 32.0627C62.2971 32.1997 62.0985 32.3984 61.9547 32.6586C61.8108 32.9121 61.7389 33.2169 61.7389 33.573C61.7389 33.9292 61.8108 34.2375 61.9547 34.4977C62.0985 34.7512 62.2971 34.9464 62.5506 35.0834C62.804 35.2204 63.0883 35.2889 63.4033 35.2889C63.6773 35.2889 63.9307 35.2272 64.1636 35.1039C64.4034 34.9806 64.6054 34.7888 64.7698 34.5286L65.7561 35.1039C65.5438 35.5149 65.2322 35.8334 64.8212 36.0594C64.4171 36.2786 63.9479 36.3882 63.4136 36.3882ZM67.268 36.3163V31.6107L67.5659 31.9189H65.3364V30.8298H70.4736V31.9189H68.2543L68.5523 31.6107V36.3163H67.268ZM73.4395 32.6381C74.145 32.6381 74.6827 32.7956 75.0525 33.1107C75.4224 33.4258 75.6073 33.871 75.6073 34.4464C75.6073 35.0423 75.4019 35.508 74.9909 35.8437C74.5799 36.1724 74.0011 36.3334 73.2545 36.3266L70.686 36.3163V30.8298H71.9702V32.6278L73.4395 32.6381ZM73.1415 35.3813C73.5182 35.3882 73.8059 35.3094 74.0046 35.145C74.2032 34.9806 74.3025 34.7409 74.3025 34.4258C74.3025 34.1107 74.2032 33.8847 74.0046 33.7477C73.8128 33.6039 73.5251 33.5285 73.1415 33.5217L71.9702 33.5114V35.371L73.1415 35.3813ZM81.8976 35.7204V31.9189H79.7914L79.7606 32.8025C79.7469 33.1176 79.7263 33.4224 79.6989 33.7169C79.6715 34.0046 79.627 34.2717 79.5654 34.5183C79.5037 34.758 79.4147 34.9567 79.2982 35.1142C79.1818 35.2717 79.0277 35.3745 78.8359 35.4224L77.5619 35.2272C77.7674 35.2272 77.9317 35.1621 78.055 35.032C78.1852 34.895 78.2845 34.7101 78.353 34.4772C78.4283 34.2375 78.4831 33.9669 78.5174 33.6655C78.5516 33.3573 78.5756 33.0388 78.5893 32.71L78.6612 30.8298H83.1819V35.7204H81.8976ZM77.3667 37.5389V35.2272H83.9936V37.5389H82.7915V36.3163H78.5585V37.5389H77.3667ZM86.9797 36.3882C86.3701 36.3882 85.8358 36.2683 85.3769 36.0286C84.9248 35.782 84.5721 35.4464 84.3187 35.0217C84.0721 34.5971 83.9488 34.1142 83.9488 33.573C83.9488 33.0251 84.0687 32.5422 84.3084 32.1244C84.555 31.6997 84.8906 31.3675 85.3153 31.1278C85.7468 30.888 86.2365 30.7682 86.7845 30.7682C87.3188 30.7682 87.7948 30.8846 88.2126 31.1175C88.6304 31.3504 88.9592 31.6792 89.199 32.1038C89.4387 32.5285 89.5586 33.0285 89.5586 33.6039C89.5586 33.6587 89.5551 33.7203 89.5483 33.7888C89.5483 33.8573 89.5449 33.9224 89.538 33.984H84.9659V33.1313H88.8599L88.3565 33.3984C88.3633 33.0833 88.2982 32.8059 88.1612 32.5662C88.0243 32.3264 87.8359 32.1381 87.5962 32.0011C87.3633 31.8641 87.0927 31.7956 86.7845 31.7956C86.4694 31.7956 86.192 31.8641 85.9523 32.0011C85.7194 32.1381 85.5345 32.3299 85.3975 32.5764C85.2673 32.8162 85.2023 33.1004 85.2023 33.4292V33.6347C85.2023 33.9635 85.2776 34.2546 85.4283 34.508C85.579 34.7614 85.7913 34.9567 86.0653 35.0936C86.3393 35.2306 86.6544 35.2991 87.0105 35.2991C87.3188 35.2991 87.5962 35.2512 87.8427 35.1553C88.0893 35.0594 88.3085 34.9087 88.5003 34.7032L89.1887 35.4943C88.9421 35.782 88.6304 36.0046 88.2537 36.1622C87.8838 36.3129 87.4592 36.3882 86.9797 36.3882ZM90.2441 36.3163V30.8298H91.5283V34.4464L94.5593 30.8298H95.7305V36.3163H94.4462V32.6997L91.4256 36.3163H90.2441ZM92.9051 30.1825C92.3571 30.1825 91.9359 30.0558 91.6414 29.8024C91.3468 29.5421 91.1961 29.1654 91.1893 28.6722H92.0421C92.0489 28.9188 92.1242 29.114 92.2681 29.2578C92.4188 29.4017 92.6277 29.4736 92.8948 29.4736C93.1551 29.4736 93.3606 29.4017 93.5113 29.2578C93.6688 29.114 93.751 28.9188 93.7579 28.6722H94.6312C94.6243 29.1654 94.4702 29.5421 94.1688 29.8024C93.8743 30.0558 93.4531 30.1825 92.9051 30.1825ZM99.2356 36.3882C98.6602 36.3882 98.1465 36.2683 97.6944 36.0286C97.2492 35.782 96.8999 35.4464 96.6465 35.0217C96.393 34.5971 96.2663 34.1142 96.2663 33.573C96.2663 33.0251 96.393 32.5422 96.6465 32.1244C96.8999 31.6997 97.2492 31.3675 97.6944 31.1278C98.1465 30.888 98.6602 30.7682 99.2356 30.7682C99.7698 30.7682 100.239 30.8778 100.643 31.0969C101.054 31.3093 101.366 31.6244 101.578 32.0422L100.592 32.6175C100.427 32.3573 100.225 32.1655 99.9856 32.0422C99.7527 31.9189 99.4993 31.8572 99.2253 31.8572C98.9102 31.8572 98.626 31.9257 98.3725 32.0627C98.1191 32.1997 97.9205 32.3984 97.7766 32.6586C97.6328 32.9121 97.5609 33.2169 97.5609 33.573C97.5609 33.9292 97.6328 34.2375 97.7766 34.4977C97.9205 34.7512 98.1191 34.9464 98.3725 35.0834C98.626 35.2204 98.9102 35.2889 99.2253 35.2889C99.4993 35.2889 99.7527 35.2272 99.9856 35.1039C100.225 34.9806 100.427 34.7888 100.592 34.5286L101.578 35.1039C101.366 35.5149 101.054 35.8334 100.643 36.0594C100.239 36.2786 99.7698 36.3882 99.2356 36.3882ZM103.09 36.3163V31.6107L103.388 31.9189H101.158V30.8298H106.296V31.9189H104.076L104.374 31.6107V36.3163H103.09ZM106.508 36.3163V30.8298H109.19C109.854 30.8298 110.374 30.9531 110.751 31.1997C111.135 31.4463 111.327 31.7956 111.327 32.2477C111.327 32.6929 111.148 33.0422 110.792 33.2956C110.436 33.5422 109.964 33.6655 109.374 33.6655L109.529 33.347C110.193 33.347 110.686 33.4703 111.008 33.7169C111.337 33.9566 111.501 34.3094 111.501 34.7751C111.501 35.2615 111.32 35.6416 110.957 35.9156C110.594 36.1827 110.042 36.3163 109.303 36.3163H106.508ZM107.731 35.3813H109.2C109.549 35.3813 109.813 35.3265 109.991 35.2169C110.169 35.1005 110.258 34.9258 110.258 34.6929C110.258 34.4464 110.176 34.2648 110.011 34.1484C109.847 34.032 109.59 33.9737 109.241 33.9737H107.731V35.3813ZM107.731 33.121H109.077C109.405 33.121 109.652 33.0628 109.816 32.9463C109.988 32.823 110.073 32.6518 110.073 32.4326C110.073 32.2066 109.988 32.0388 109.816 31.9292C109.652 31.8196 109.405 31.7648 109.077 31.7648H107.731V33.121ZM112.15 36.3163V30.8298H113.434V34.4464L116.465 30.8298H117.636V36.3163H116.352V32.6997L113.332 36.3163H112.15ZM122.128 36.3163V34.4464L122.313 34.6621H120.669C119.915 34.6621 119.323 34.5046 118.891 34.1895C118.467 33.8676 118.254 33.4052 118.254 32.8025C118.254 32.1586 118.48 31.6689 118.933 31.3333C119.391 30.9976 120.001 30.8298 120.761 30.8298H123.279V36.3163H122.128ZM118.183 36.3163L119.662 34.2203H120.977L119.559 36.3163H118.183ZM122.128 34.0354V31.5696L122.313 31.9086H120.802C120.405 31.9086 120.097 31.984 119.878 32.1346C119.665 32.2785 119.559 32.5148 119.559 32.8436C119.559 33.46 119.96 33.7683 120.761 33.7683H122.313L122.128 34.0354ZM123.927 37.8677L124.523 35.5971L124.698 36.3574C124.458 36.3574 124.256 36.2855 124.092 36.1416C123.934 35.9909 123.855 35.7889 123.855 35.5354C123.855 35.2752 123.934 35.0697 124.092 34.919C124.256 34.7614 124.455 34.6827 124.688 34.6827C124.927 34.6827 125.126 34.7614 125.283 34.919C125.441 35.0765 125.52 35.282 125.52 35.5354C125.52 35.6039 125.513 35.6793 125.499 35.7615C125.486 35.8368 125.462 35.9259 125.427 36.0286C125.4 36.1313 125.352 36.2615 125.283 36.419L124.76 37.8677H123.927ZM20.8569 47.3163L23.2713 44.1723L23.2508 44.8607L20.9493 41.8298H22.3775L23.9905 43.9874H23.446L25.0693 41.8298H26.4564L24.1344 44.8607L24.1446 44.1723L26.5488 47.3163H25.1001L23.4049 45.0251L23.9392 45.097L22.2747 47.3163H20.8569ZM29.0134 47.3882C28.4517 47.3882 27.9517 47.2683 27.5133 47.0286C27.075 46.782 26.7291 46.4464 26.4756 46.0217C26.2222 45.5971 26.0955 45.1142 26.0955 44.573C26.0955 44.0251 26.2222 43.5422 26.4756 43.1244C26.7291 42.6997 27.075 42.3675 27.5133 42.1278C27.9517 41.888 28.4517 41.7682 29.0134 41.7682C29.5819 41.7682 30.0853 41.888 30.5237 42.1278C30.9689 42.3675 31.3148 42.6963 31.5614 43.1141C31.8148 43.5319 31.9415 44.0182 31.9415 44.573C31.9415 45.1142 31.8148 45.5971 31.5614 46.0217C31.3148 46.4464 30.9689 46.782 30.5237 47.0286C30.0853 47.2683 29.5819 47.3882 29.0134 47.3882ZM29.0134 46.2889C29.3284 46.2889 29.6093 46.2204 29.8559 46.0834C30.1024 45.9464 30.2942 45.7477 30.4312 45.4875C30.5751 45.2272 30.647 44.9224 30.647 44.573C30.647 44.2169 30.5751 43.9121 30.4312 43.6586C30.2942 43.3984 30.1024 43.1997 29.8559 43.0627C29.6093 42.9257 29.3319 42.8572 29.0236 42.8572C28.7086 42.8572 28.4277 42.9257 28.1812 43.0627C27.9414 43.1997 27.7496 43.3984 27.6058 43.6586C27.462 43.9121 27.39 44.2169 27.39 44.573C27.39 44.9224 27.462 45.2272 27.6058 45.4875C27.7496 45.7477 27.9414 45.9464 28.1812 46.0834C28.4277 46.2204 28.7051 46.2889 29.0134 46.2889ZM33.4308 47.3163V42.6107L33.7288 42.9189H31.4993V41.8298H36.6364V42.9189H34.4172L34.7151 42.6107V47.3163H33.4308ZM39.6023 43.6381C40.3078 43.6381 40.8455 43.7956 41.2154 44.1107C41.5853 44.4258 41.7702 44.871 41.7702 45.4464C41.7702 46.0423 41.5647 46.508 41.1537 46.8437C40.7428 47.1724 40.164 47.3334 39.4174 47.3266L36.8488 47.3163V41.8298H38.1331V43.6278L39.6023 43.6381ZM39.3044 46.3813C39.6811 46.3882 39.9688 46.3094 40.1674 46.145C40.366 45.9806 40.4654 45.7409 40.4654 45.4258C40.4654 45.1107 40.366 44.8847 40.1674 44.7477C39.9756 44.6039 39.6879 44.5285 39.3044 44.5217L38.1331 44.5114V46.371L39.3044 46.3813ZM44.3001 47.3163V41.8298H45.5844V45.4464L48.6153 41.8298H49.7866V47.3163H48.5023V43.6997L45.4816 47.3163H44.3001ZM52.4611 47.4088C52.0433 47.4088 51.6289 47.3608 51.2179 47.2649C50.8138 47.1622 50.4473 47.0183 50.1185 46.8334L50.4781 45.8779C50.7453 46.0286 51.0467 46.145 51.3823 46.2272C51.7179 46.3094 52.0535 46.3505 52.3892 46.3505C52.6768 46.3505 52.9234 46.3231 53.1289 46.2683C53.3344 46.2067 53.4919 46.1176 53.6015 46.0012C53.718 45.8847 53.7762 45.7512 53.7762 45.6005C53.7762 45.3813 53.6803 45.2169 53.4885 45.1073C53.3036 44.9909 53.0364 44.9326 52.6871 44.9326H51.6289V44.0696H52.5844C52.8036 44.0696 52.9885 44.0456 53.1392 43.9977C53.2967 43.9497 53.4166 43.8778 53.4988 43.7819C53.581 43.686 53.6221 43.573 53.6221 43.4429C53.6221 43.3127 53.5707 43.1997 53.468 43.1038C53.3721 43.0011 53.2317 42.9257 53.0467 42.8778C52.8618 42.823 52.6392 42.7956 52.3789 42.7956C52.1049 42.7956 51.8207 42.8298 51.5261 42.8983C51.2384 42.9668 50.9439 43.0661 50.6425 43.1963L50.3138 42.2511C50.6631 42.0935 51.0021 41.9736 51.3309 41.8915C51.6665 41.8024 51.9987 41.7545 52.3275 41.7476C52.8275 41.7271 53.2728 41.7784 53.6632 41.9017C54.0536 42.025 54.3618 42.2031 54.5879 42.436C54.8139 42.6689 54.9269 42.9429 54.9269 43.2579C54.9269 43.5182 54.8447 43.7545 54.6803 43.9669C54.5228 44.1723 54.3036 44.3333 54.0228 44.4498C53.7488 44.5662 53.4337 44.6244 53.0775 44.6244L53.1186 44.347C53.7282 44.347 54.2077 44.4703 54.557 44.7169C54.9064 44.9566 55.081 45.2854 55.081 45.7032C55.081 46.0388 54.968 46.3368 54.742 46.5971C54.5159 46.8505 54.2043 47.0492 53.807 47.193C53.4166 47.3368 52.9679 47.4088 52.4611 47.4088ZM61.5652 46.7204V42.9189H59.4589L59.4281 43.8025C59.4144 44.1176 59.3939 44.4224 59.3665 44.7169C59.3391 45.0046 59.2945 45.2717 59.2329 45.5183C59.1712 45.758 59.0822 45.9567 58.9658 46.1142C58.8493 46.2717 58.6952 46.3745 58.5034 46.4224L57.2294 46.2272C57.4349 46.2272 57.5993 46.1621 57.7226 46.032C57.8527 45.895 57.952 45.7101 58.0205 45.4772C58.0959 45.2375 58.1507 44.9669 58.1849 44.6655C58.2192 44.3573 58.2431 44.0388 58.2568 43.71L58.3287 41.8298H62.8494V46.7204H61.5652ZM57.0342 48.5389V46.2272H63.6611V48.5389H62.459V47.3163H58.226V48.5389H57.0342ZM67.1301 47.3882C66.6849 47.3882 66.2774 47.2855 65.9075 47.08C65.5445 46.8745 65.2534 46.5663 65.0342 46.1553C64.8218 45.7375 64.7157 45.2101 64.7157 44.573C64.7157 43.9292 64.8184 43.4018 65.0239 42.9908C65.2362 42.5798 65.5239 42.275 65.8869 42.0764C66.25 41.8709 66.6644 41.7682 67.1301 41.7682C67.6712 41.7682 68.1473 41.8846 68.5583 42.1175C68.9761 42.3504 69.3049 42.6757 69.5446 43.0935C69.7912 43.5114 69.9145 44.0045 69.9145 44.573C69.9145 45.1416 69.7912 45.6381 69.5446 46.0628C69.3049 46.4806 68.9761 46.806 68.5583 47.0389C68.1473 47.2718 67.6712 47.3882 67.1301 47.3882ZM64.0889 49.3095V41.8298H65.3116V43.1244L65.2705 44.5833L65.3732 46.0423V49.3095H64.0889ZM66.9863 46.2889C67.2945 46.2889 67.5685 46.2204 67.8082 46.0834C68.0548 45.9464 68.25 45.7477 68.3939 45.4875C68.5377 45.2272 68.6096 44.9224 68.6096 44.573C68.6096 44.2169 68.5377 43.9121 68.3939 43.6586C68.25 43.3984 68.0548 43.1997 67.8082 43.0627C67.5685 42.9257 67.2945 42.8572 66.9863 42.8572C66.6781 42.8572 66.4007 42.9257 66.1541 43.0627C65.9075 43.1997 65.7123 43.3984 65.5684 43.6586C65.4246 43.9121 65.3527 44.2169 65.3527 44.573C65.3527 44.9224 65.4246 45.2272 65.5684 45.4875C65.7123 45.7477 65.9075 45.9464 66.1541 46.0834C66.4007 46.2204 66.6781 46.2889 66.9863 46.2889ZM70.8161 49.3814C70.549 49.3814 70.2819 49.3369 70.0147 49.2479C69.7476 49.1588 69.525 49.0355 69.3469 48.878L69.8606 47.9327C69.9907 48.0492 70.138 48.1417 70.3024 48.2101C70.4668 48.2786 70.6346 48.3129 70.8058 48.3129C71.0387 48.3129 71.2271 48.2547 71.3709 48.1382C71.5148 48.0218 71.6483 47.8266 71.7716 47.5526L72.0901 46.8334L72.1929 46.6793L74.2683 41.8298H75.5012L72.9326 47.7581C72.7614 48.1691 72.5696 48.4944 72.3573 48.7341C72.1518 48.9739 71.9189 49.1417 71.6586 49.2376C71.4052 49.3335 71.1243 49.3814 70.8161 49.3814ZM71.9463 47.5115L69.4702 41.8298H70.8058L72.8196 46.5663L71.9463 47.5115ZM75.674 47.3163V41.8298H79.8865V42.9189H76.6603L76.9583 42.6312V47.3163H75.674ZM82.3065 47.3882C81.7448 47.3882 81.2448 47.2683 80.8064 47.0286C80.3681 46.782 80.0222 46.4464 79.7687 46.0217C79.5153 45.5971 79.3886 45.1142 79.3886 44.573C79.3886 44.0251 79.5153 43.5422 79.7687 43.1244C80.0222 42.6997 80.3681 42.3675 80.8064 42.1278C81.2448 41.888 81.7448 41.7682 82.3065 41.7682C82.875 41.7682 83.3784 41.888 83.8168 42.1278C84.262 42.3675 84.6079 42.6963 84.8545 43.1141C85.1079 43.5319 85.2346 44.0182 85.2346 44.573C85.2346 45.1142 85.1079 45.5971 84.8545 46.0217C84.6079 46.4464 84.262 46.782 83.8168 47.0286C83.3784 47.2683 82.875 47.3882 82.3065 47.3882ZM82.3065 46.2889C82.6215 46.2889 82.9024 46.2204 83.149 46.0834C83.3955 45.9464 83.5873 45.7477 83.7243 45.4875C83.8682 45.2272 83.9401 44.9224 83.9401 44.573C83.9401 44.2169 83.8682 43.9121 83.7243 43.6586C83.5873 43.3984 83.3955 43.1997 83.149 43.0627C82.9024 42.9257 82.625 42.8572 82.3167 42.8572C82.0017 42.8572 81.7208 42.9257 81.4743 43.0627C81.2345 43.1997 81.0427 43.3984 80.8989 43.6586C80.7551 43.9121 80.6831 44.2169 80.6831 44.573C80.6831 44.9224 80.7551 45.2272 80.8989 45.4875C81.0427 45.7477 81.2345 45.9464 81.4743 46.0834C81.7208 46.2204 81.9982 46.2889 82.3065 46.2889ZM85.7842 47.3163V41.8298H87.0684V45.4464L90.0994 41.8298H91.2706V47.3163H89.9863V43.6997L86.9657 47.3163H85.7842ZM88.4452 41.1825C87.8972 41.1825 87.476 41.0558 87.1815 40.8024C86.8869 40.5421 86.7362 40.1654 86.7294 39.6722H87.5822C87.589 39.9188 87.6643 40.114 87.8082 40.2578C87.9589 40.4017 88.1678 40.4736 88.4349 40.4736C88.6952 40.4736 88.9007 40.4017 89.0514 40.2578C89.2089 40.114 89.2911 39.9188 89.298 39.6722H90.1713C90.1644 40.1654 90.0103 40.5421 89.7089 40.8024C89.4144 41.0558 88.9932 41.1825 88.4452 41.1825ZM96.896 47.3882C96.3206 47.3882 95.8069 47.2683 95.3548 47.0286C94.9096 46.782 94.5603 46.4464 94.3068 46.0217C94.0534 45.5971 93.9267 45.1142 93.9267 44.573C93.9267 44.0251 94.0534 43.5422 94.3068 43.1244C94.5603 42.6997 94.9096 42.3675 95.3548 42.1278C95.8069 41.888 96.3206 41.7682 96.896 41.7682C97.4302 41.7682 97.8994 41.8778 98.3035 42.0969C98.7145 42.3093 99.0262 42.6244 99.2385 43.0422L98.2522 43.6175C98.0878 43.3573 97.8857 43.1655 97.646 43.0422C97.4131 42.9189 97.1597 42.8572 96.8857 42.8572C96.5706 42.8572 96.2864 42.9257 96.0329 43.0627C95.7795 43.1997 95.5809 43.3984 95.437 43.6586C95.2932 43.9121 95.2213 44.2169 95.2213 44.573C95.2213 44.9292 95.2932 45.2375 95.437 45.4977C95.5809 45.7512 95.7795 45.9464 96.0329 46.0834C96.2864 46.2204 96.5706 46.2889 96.8857 46.2889C97.1597 46.2889 97.4131 46.2272 97.646 46.1039C97.8857 45.9806 98.0878 45.7888 98.2522 45.5286L99.2385 46.1039C99.0262 46.5149 98.7145 46.8334 98.3035 47.0594C97.8994 47.2786 97.4302 47.3882 96.896 47.3882ZM100.75 47.3163V42.6107L101.048 42.9189H98.8188V41.8298H103.956V42.9189H101.737L102.035 42.6107V47.3163H100.75ZM107.21 47.3882C106.764 47.3882 106.357 47.2855 105.987 47.08C105.624 46.8745 105.333 46.5663 105.114 46.1553C104.901 45.7375 104.795 45.2101 104.795 44.573C104.795 43.9292 104.898 43.4018 105.103 42.9908C105.316 42.5798 105.603 42.275 105.966 42.0764C106.329 41.8709 106.744 41.7682 107.21 41.7682C107.751 41.7682 108.227 41.8846 108.638 42.1175C109.055 42.3504 109.384 42.6757 109.624 43.0935C109.871 43.5114 109.994 44.0045 109.994 44.573C109.994 45.1416 109.871 45.6381 109.624 46.0628C109.384 46.4806 109.055 46.806 108.638 47.0389C108.227 47.2718 107.751 47.3882 107.21 47.3882ZM104.168 49.3095V41.8298H105.391V43.1244L105.35 44.5833L105.453 46.0423V49.3095H104.168ZM107.066 46.2889C107.374 46.2889 107.648 46.2204 107.888 46.0834C108.134 45.9464 108.329 45.7477 108.473 45.4875C108.617 45.2272 108.689 44.9224 108.689 44.573C108.689 44.2169 108.617 43.9121 108.473 43.6586C108.329 43.3984 108.134 43.1997 107.888 43.0627C107.648 42.9257 107.374 42.8572 107.066 42.8572C106.757 42.8572 106.48 42.9257 106.233 43.0627C105.987 43.1997 105.792 43.3984 105.648 43.6586C105.504 43.9121 105.432 44.2169 105.432 44.573C105.432 44.9224 105.504 45.2272 105.648 45.4875C105.792 45.7477 105.987 45.9464 106.233 46.0834C106.48 46.2204 106.757 46.2889 107.066 46.2889ZM113.811 47.3163V46.2067L113.74 45.9704V44.0285C113.74 43.6518 113.627 43.3607 113.401 43.1552C113.174 42.9429 112.832 42.8367 112.373 42.8367C112.065 42.8367 111.76 42.8846 111.459 42.9805C111.164 43.0764 110.914 43.21 110.709 43.3812L110.205 42.4463C110.5 42.2202 110.849 42.0524 111.253 41.9428C111.664 41.8264 112.089 41.7682 112.527 41.7682C113.322 41.7682 113.935 41.96 114.366 42.3435C114.805 42.7202 115.024 43.3059 115.024 44.1004V47.3163H113.811ZM112.085 47.3882C111.674 47.3882 111.315 47.3197 111.007 47.1827C110.698 47.0389 110.459 46.8437 110.287 46.5971C110.123 46.3437 110.041 46.0594 110.041 45.7443C110.041 45.4361 110.113 45.1587 110.257 44.9121C110.407 44.6655 110.65 44.4703 110.986 44.3265C111.322 44.1826 111.767 44.1107 112.322 44.1107H113.914V44.9635H112.414C111.976 44.9635 111.681 45.0354 111.531 45.1792C111.38 45.3162 111.305 45.4875 111.305 45.6929C111.305 45.9258 111.397 46.1108 111.582 46.2478C111.767 46.3847 112.024 46.4532 112.353 46.4532C112.668 46.4532 112.948 46.3813 113.195 46.2375C113.448 46.0936 113.63 45.8813 113.74 45.6005L113.955 46.371C113.832 46.693 113.609 46.943 113.287 47.1211C112.972 47.2992 112.572 47.3882 112.085 47.3882ZM115.894 47.3163V41.8298H117.178V44.0593H119.942V41.8298H121.226V47.3163H119.942V45.1484H117.178V47.3163H115.894ZM127.766 47.3163V41.8298H129.05V47.3163H127.766ZM124.9 43.6381C125.605 43.6381 126.139 43.7956 126.502 44.1107C126.872 44.4258 127.057 44.871 127.057 45.4464C127.057 46.0423 126.852 46.508 126.441 46.8437C126.037 47.1724 125.461 47.3334 124.715 47.3266L122.228 47.3163V41.8298H123.513V43.6278L124.9 43.6381ZM124.602 46.3813C124.978 46.3882 125.266 46.3094 125.465 46.145C125.663 45.9806 125.763 45.7409 125.763 45.4258C125.763 45.1107 125.663 44.8847 125.465 44.7477C125.273 44.6039 124.985 44.5285 124.602 44.5217L123.513 44.5114V46.371L124.602 46.3813Z" fill="#F6517C"/>
<path d="M78.3672 60.0107C81.4627 59.5622 88.6954 60.2055 92.8618 66.3676" stroke="#E4016A" stroke-width="1.63794" stroke-linecap="round" stroke-linejoin="round"/>
<path d="M84.75 126.6C82.0923 128.653 74.6837 131.961 66.3107 128.765" stroke="#E4016A" stroke-width="1.63794" stroke-linecap="round" stroke-linejoin="round"/>
<path d="M80.6641 57.0264C83.9719 56.5715 91.3643 57.4693 94.4708 64.6992" stroke="#F6517C" stroke-width="1.63794" stroke-linecap="round" stroke-linejoin="round"/>
<path d="M84.6484 130.461C81.7911 132.633 74.0486 135.803 65.9376 131.098" stroke="#F6517C" stroke-width="1.63794" stroke-linecap="round" stroke-linejoin="round"/>
<path d="M82.5859 53.8397C86.0223 52.9977 93.4994 53.3005 95.9166 61.2479" stroke="#E4016A" stroke-width="1.63794" stroke-linecap="round" stroke-linejoin="round"/>
<path d="M132.708 94.6618C134.021 92.918 135.873 90.2435 136.434 88.3551C136.854 86.9439 136.69 85.382 135.986 84.0802C134.427 81.1022 130.221 80.8575 128.398 83.6341C128.295 83.7894 128.207 83.9548 128.116 84.1246C128.078 84.1939 128.041 84.2639 128.002 84.3343C127.932 84.2935 127.865 84.2521 127.797 84.2112C127.633 84.111 127.473 84.0135 127.305 83.9316C124.327 82.4628 120.825 84.8068 120.992 88.1639C121.045 89.6432 121.696 91.0724 122.773 92.0755C124.214 93.4187 127.166 94.7849 129.182 95.6221C129.744 95.8555 131.298 96.4385 131.298 96.4385C131.298 96.4385 132.342 95.1478 132.708 94.6618Z" fill="#E4016A"/>
<path d="M131.112 73.953C132.004 72.7882 133.262 71.0009 133.65 69.735C133.939 68.789 133.838 67.7386 133.371 66.86C132.34 64.8505 129.515 64.6636 128.275 66.5195C128.205 66.6234 128.145 66.734 128.083 66.8477C128.057 66.894 128.032 66.9409 128.005 66.988C127.959 66.9601 127.913 66.932 127.868 66.9042C127.758 66.836 127.651 66.7695 127.539 66.7136C125.545 65.7106 123.18 67.267 123.274 69.5238C123.301 70.5181 123.731 71.4819 124.45 72.1618C125.411 73.0721 127.388 74.006 128.738 74.5794C129.114 74.7392 130.155 75.1393 130.155 75.1393C130.155 75.1393 130.864 74.2776 131.112 73.953Z" fill="#F6517C"/>
<path d="M48.8863 133.072C47.5005 132.592 45.4655 131.793 44.445 130.95C43.6819 130.32 43.188 129.388 43.0932 128.397C42.8469 126.152 45.1019 124.44 47.159 125.306C47.2745 125.354 47.3859 125.413 47.5003 125.473C47.5469 125.498 47.5941 125.523 47.6423 125.548C47.6657 125.499 47.6881 125.451 47.7102 125.403C47.7644 125.285 47.8173 125.171 47.8799 125.062C48.9913 123.127 51.8229 123.122 52.9878 125.058C53.5125 125.903 53.6848 126.944 53.4595 127.907C53.1589 129.196 52.0239 131.065 51.213 132.287C50.9871 132.628 50.3385 133.535 50.3385 133.535C50.3385 133.535 49.2724 133.206 48.8863 133.072Z" fill="#F6517C"/>
<path d="M113.646 68.1753C114.745 66.7161 116.294 64.4781 116.763 62.898C117.115 61.7172 116.978 60.4102 116.389 59.3208C115.084 56.8289 111.564 56.6242 110.039 58.9475C109.953 59.0775 109.879 59.2159 109.803 59.358C109.772 59.416 109.74 59.4746 109.708 59.5335C109.65 59.4993 109.593 59.4647 109.537 59.4305C109.399 59.3466 109.265 59.265 109.125 59.1965C106.632 57.9674 103.702 59.9288 103.842 62.738C103.886 63.9758 104.431 65.1717 105.333 66.0112C106.538 67.1351 109.009 68.2783 110.696 68.9789C111.166 69.1741 112.466 69.662 112.466 69.662C112.466 69.662 113.34 68.582 113.646 68.1753Z" fill="#F6517C"/>
<path d="M29.2464 119.226C27.2066 118.442 24.2156 117.154 22.7376 115.848C21.6323 114.873 20.9425 113.46 20.85 111.981C20.5934 108.626 24.0349 106.187 27.0553 107.577C27.2249 107.654 27.3879 107.748 27.5552 107.844C27.6235 107.883 27.6925 107.922 27.7631 107.961C27.8003 107.89 27.836 107.819 27.8713 107.748C27.9578 107.576 28.0421 107.408 28.1407 107.25C29.8904 104.423 34.1068 104.555 35.7463 107.493C36.4861 108.777 36.6917 110.336 36.3089 111.759C35.7982 113.664 34.0166 116.39 32.7493 118.171C32.3962 118.667 31.3859 119.986 31.3859 119.986C31.3859 119.986 29.8148 119.444 29.2464 119.226Z" fill="#E4016A"/>
<path d="M68.3389 125.701C86.21 127.288 101.984 114.087 103.57 96.2154C105.157 78.3443 91.9561 62.5706 74.085 60.9839C56.2139 59.3971 40.4403 72.5982 38.8535 90.4693C37.2668 108.34 50.4678 124.114 68.3389 125.701Z" fill="#FF6C92"/>
<path d="M89.5297 66.4857C83.5656 62.4186 76.7303 60.6215 70.037 60.8972C73.9248 61.7619 77.7177 63.3648 81.2112 65.7473C95.9941 75.8283 99.8255 96.0289 89.7689 110.866C83.7696 119.718 74.183 124.66 64.2858 125.068C76.8492 127.862 90.4075 122.936 98.0874 111.605C108.144 96.7673 104.313 76.5669 89.5297 66.4857Z" fill="#EB577D"/>
<path d="M69.2725 103.985C66.1245 101.736 68.1175 89.6215 59.7571 88.5502C57.0813 88.2072 52.5723 80.0904 53.8894 78.777C57.0858 75.5893 54.1258 72.8918 56.8122 71.3317C58.2734 70.4831 60.0214 69.5978 61.0847 71.5533C62.1481 73.5089 59.6537 75.5112 60.9676 76.3319C62.2813 77.1526 63.9557 74.9736 65.6361 73.5599C67.3165 72.1463 68.9847 74.0919 70.1619 73.4804C71.339 72.8688 73.4453 71.6904 76.2747 71.9281C79.1041 72.1659 78.1861 70.2365 79.2483 70.0341C80.3104 69.8317 82.909 72.2363 84.2602 71.7012C87.2063 70.5344 89.0218 68.3723 89.38 66.4275C78.9855 59.405 65.9775 59.2036 55.6595 64.8125C55.6584 64.8131 55.6573 64.8137 55.6562 64.8143C52.6226 66.4639 49.5163 69.7295 48.3487 72.9792C46.1536 79.0892 50.0173 85.805 51.9228 88.5856C52.4111 89.2984 52.2694 90.267 51.591 90.8022C49.6676 92.3193 46.5404 95.6488 48.9517 99.9588C52.2904 105.927 51.2284 107.489 47.9264 111.226C47.1421 112.114 46.475 112.957 45.9334 113.764C46.1075 113.98 46.2849 114.193 46.4649 114.404C46.4713 114.412 46.4777 114.419 46.4841 114.426C46.6585 114.631 46.8356 114.833 47.0156 115.033C47.0265 115.045 47.0374 115.057 47.0485 115.07C47.2248 115.265 47.4036 115.459 47.5852 115.651C47.5994 115.666 47.6138 115.681 47.628 115.696C47.8074 115.885 47.9894 116.072 48.1741 116.257C48.1905 116.273 48.2068 116.29 48.2232 116.306C48.4074 116.49 48.5945 116.672 48.784 116.852C48.8006 116.868 48.8172 116.884 48.8338 116.9C49.0255 117.081 49.2196 117.261 49.4164 117.438C49.431 117.451 49.4453 117.464 49.46 117.478C49.662 117.659 49.8666 117.838 50.0738 118.015C50.0833 118.023 50.0928 118.032 50.1023 118.04C50.3185 118.224 50.5377 118.406 50.7597 118.585C50.76 118.586 50.7604 118.586 50.7607 118.586C53.8428 118.496 58.1398 118.859 60.0719 117.199C62.687 114.953 71.8611 117.057 73.933 112.81C74.6041 111.433 72.4205 106.234 69.2725 103.985Z" fill="#E4016A"/>
<path d="M98.0627 111.603C106.266 99.5374 105.249 83.9208 96.6021 73.0849C96.8751 76.4992 97.1228 81.5414 96.2984 82.3349C95.04 83.5459 95.0592 86.0777 95.0592 86.0777C95.0592 86.0777 90.2593 88.0182 88.2842 91.2435C86.3091 94.4687 85.9319 102.146 87.2231 103.366C88.5144 104.587 93.7477 103.339 94.2658 105.643C95.3882 110.633 84.2891 120.602 79.1324 124.838C86.5837 122.964 93.4031 118.457 98.0627 111.603Z" fill="#E4016A"/>
<path d="M103.586 95.9364C103.592 95.8547 103.6 95.773 103.606 95.6912C103.623 95.4555 103.638 95.2195 103.65 94.9836C103.653 94.9289 103.655 94.8743 103.657 94.8196C103.666 94.6333 103.674 94.4472 103.679 94.261C103.682 94.1694 103.684 94.0778 103.686 93.986C103.689 93.835 103.692 93.684 103.693 93.533C103.693 93.4353 103.694 93.3375 103.694 93.2397C103.694 93.09 103.692 92.9406 103.69 92.7909C103.689 92.6976 103.688 92.6045 103.686 92.5114C103.681 92.3263 103.675 92.1412 103.668 91.9564C103.665 91.9012 103.664 91.846 103.662 91.791C103.651 91.5585 103.638 91.326 103.623 91.0939C103.617 91.0036 103.609 90.9135 103.603 90.8233C103.591 90.6735 103.58 90.5237 103.567 90.3741C103.558 90.2739 103.548 90.1737 103.538 90.0736C103.525 89.9313 103.51 89.7892 103.494 89.6471C103.483 89.5478 103.472 89.4484 103.46 89.3492C103.442 89.195 103.422 89.0411 103.401 88.8871C103.39 88.8029 103.38 88.7184 103.368 88.6343C103.335 88.4069 103.301 88.18 103.264 87.9533C103.25 87.8676 103.234 87.7823 103.22 87.6969C103.194 87.5464 103.168 87.3958 103.14 87.2456C103.121 87.1444 103.101 87.0432 103.082 86.9423C103.055 86.8066 103.028 86.671 103 86.5358C102.978 86.4329 102.957 86.33 102.935 86.2274C102.904 86.0887 102.873 85.9502 102.841 85.8118C102.818 85.7159 102.797 85.62 102.774 85.5242C102.726 85.3271 102.677 85.1307 102.626 84.9345C102.6 84.8375 102.574 84.741 102.548 84.6443C102.505 84.4863 102.462 84.3286 102.417 84.1713C102.388 84.0708 102.358 83.9705 102.328 83.8701C102.29 83.7403 102.251 83.6108 102.211 83.4814C102.178 83.377 102.146 83.2727 102.112 83.1688C102.071 83.0414 102.029 82.9142 101.987 82.7872C101.953 82.6857 101.919 82.5842 101.884 82.483C101.835 82.3397 101.783 82.1971 101.732 82.0544C101.696 81.9552 101.661 81.8557 101.624 81.7568C101.552 81.5619 101.477 81.3678 101.401 81.1742C101.363 81.0771 101.323 80.9804 101.284 80.8836C101.233 80.7582 101.183 80.633 101.13 80.5081C101.087 80.4049 101.043 80.3022 100.999 80.1994C100.947 80.0798 100.895 79.9607 100.842 79.8417C100.796 79.7397 100.751 79.6379 100.705 79.5363C100.647 79.4116 100.589 79.2873 100.53 79.1633C100.486 79.07 100.443 78.9766 100.398 78.8837C100.3 78.681 100.199 78.4794 100.097 78.2787C100.051 78.1893 100.004 78.1006 99.9573 78.0115C99.8925 77.8875 99.8277 77.7634 99.7614 77.6402C99.7079 77.5407 99.6532 77.4418 99.5986 77.3427C99.5365 77.2302 99.4738 77.1178 99.4102 77.0058C99.3536 76.9058 99.2963 76.806 99.2385 76.7065C99.1728 76.5934 99.1059 76.4808 99.0386 76.3685C98.9817 76.2732 98.9251 76.1777 98.8671 76.0829C98.7811 75.9425 98.6933 75.803 98.6051 75.6638C98.5256 75.5381 98.445 75.4129 98.3637 75.2882C98.2795 75.1591 98.1952 75.0302 98.1092 74.9022C98.0464 74.809 97.9823 74.7166 97.9186 74.624C97.8446 74.5164 97.7703 74.409 97.6948 74.3022C97.6278 74.2072 97.56 74.1127 97.4919 74.0183C97.416 73.9132 97.3392 73.8086 97.2621 73.7044C97.1939 73.6123 97.1259 73.5202 97.0566 73.4287C96.97 73.3142 96.8816 73.2007 96.7932 73.0871C96.732 73.0084 96.6716 72.9289 96.6096 72.8507C96.8813 76.2913 97.1268 81.3721 96.3005 82.1721C95.0391 83.393 95.057 85.9443 95.057 85.9443C95.057 85.9443 94.9257 85.9981 94.7005 86.1004C95.8998 92.1504 95.4085 98.5376 93.0783 104.484C93.6802 104.711 94.1199 105.069 94.2517 105.661C95.3736 110.689 84.249 120.74 79.0804 125.011C81.6459 124.361 84.1366 123.397 86.4907 122.133C86.4924 122.132 86.494 122.131 86.4957 122.13C87.3422 121.675 88.1707 121.181 88.9788 120.648C88.9988 120.635 89.0188 120.622 89.0387 120.609C89.2189 120.489 89.3979 120.368 89.576 120.245C89.5968 120.231 89.6175 120.216 89.638 120.202C90.226 119.794 90.8022 119.365 91.3658 118.915C91.3924 118.893 91.4189 118.872 91.4454 118.85C91.6003 118.726 91.7541 118.6 91.907 118.472C91.9469 118.439 91.9868 118.406 92.0267 118.372C92.1711 118.25 92.3144 118.127 92.4569 118.003C92.4939 117.97 92.531 117.938 92.5679 117.906C92.7345 117.759 92.9 117.61 93.0641 117.46C93.0726 117.452 93.0814 117.444 93.0899 117.436C93.2691 117.272 93.4465 117.104 93.6223 116.935C93.6391 116.919 93.6556 116.902 93.6725 116.886C93.8223 116.741 93.9709 116.595 94.1183 116.446C94.1641 116.401 94.2094 116.354 94.2549 116.308C94.3747 116.186 94.4938 116.063 94.6119 115.939C94.6624 115.886 94.7129 115.833 94.7631 115.779C94.88 115.655 94.9957 115.529 95.1109 115.403C95.1561 115.353 95.2017 115.304 95.2468 115.254C95.3905 115.094 95.533 114.932 95.6742 114.769C95.6876 114.754 95.7015 114.738 95.7149 114.723C95.8703 114.542 96.0239 114.359 96.176 114.175C96.215 114.128 96.2532 114.079 96.2919 114.032C96.4028 113.896 96.513 113.759 96.6222 113.62C96.6728 113.556 96.723 113.491 96.7731 113.426C96.8707 113.301 96.9677 113.174 97.0637 113.046C97.1147 112.979 97.1656 112.911 97.2162 112.843C97.3154 112.709 97.4135 112.574 97.5111 112.438C97.5542 112.378 97.5979 112.318 97.6409 112.258C97.7797 112.062 97.9171 111.864 98.0522 111.664C98.0538 111.662 98.0554 111.66 98.0571 111.657C98.2003 111.445 98.3401 111.231 98.4779 111.017C98.5226 110.948 98.5661 110.878 98.6103 110.808C98.7049 110.658 98.7986 110.508 98.8906 110.358C98.9392 110.278 98.9871 110.198 99.0349 110.119C99.123 109.971 99.2096 109.824 99.2951 109.676C99.3391 109.6 99.3835 109.524 99.4269 109.447C99.5266 109.271 99.6243 109.095 99.7206 108.918C99.746 108.871 99.7721 108.825 99.7973 108.778C99.9169 108.556 100.034 108.332 100.148 108.107C100.179 108.045 100.209 107.983 100.241 107.92C100.323 107.756 100.404 107.591 100.483 107.426C100.522 107.344 100.56 107.263 100.599 107.181C100.669 107.031 100.739 106.88 100.807 106.729C100.844 106.646 100.881 106.563 100.918 106.481C100.99 106.317 101.06 106.152 101.13 105.988C101.158 105.921 101.187 105.855 101.214 105.788C101.309 105.559 101.401 105.329 101.491 105.098C101.508 105.053 101.524 105.008 101.541 104.963C101.613 104.776 101.683 104.587 101.752 104.398C101.781 104.318 101.809 104.237 101.837 104.156C101.892 104 101.946 103.844 101.999 103.688C102.027 103.601 102.056 103.515 102.084 103.429C102.136 103.271 102.186 103.112 102.235 102.953C102.26 102.873 102.284 102.794 102.308 102.715C102.372 102.503 102.434 102.291 102.493 102.078C102.5 102.054 102.507 102.03 102.514 102.006C102.578 101.771 102.64 101.536 102.699 101.3C102.719 101.222 102.737 101.144 102.757 101.066C102.796 100.904 102.834 100.743 102.871 100.582C102.892 100.492 102.912 100.402 102.932 100.312C102.966 100.157 102.998 100.002 103.03 99.8468C103.048 99.7593 103.066 99.6721 103.083 99.5845C103.118 99.4073 103.151 99.2298 103.182 99.0524C103.194 98.9894 103.206 98.9265 103.217 98.8634C103.257 98.6272 103.295 98.3908 103.331 98.1539C103.342 98.0827 103.351 98.0116 103.361 97.9403C103.386 97.7709 103.409 97.6012 103.431 97.4316C103.442 97.3397 103.453 97.2476 103.464 97.1558C103.482 97.0035 103.499 96.8512 103.515 96.6989C103.525 96.6052 103.535 96.5114 103.544 96.4178C103.559 96.2578 103.573 96.097 103.586 95.9364Z" fill="#D43C63"/>
<path d="M81.0578 65.6821C83.069 67.0482 84.8746 68.603 86.4699 70.3053C88.0235 69.1602 88.9826 67.7091 89.2307 66.3622C88.5985 65.9355 87.9562 65.5348 87.3057 65.1589C87.2871 65.1482 87.2685 65.1373 87.2498 65.1266C86.9347 64.9452 86.6175 64.7697 86.2983 64.6002C86.28 64.5905 86.2616 64.5809 86.2435 64.5713C85.5887 64.2251 84.9264 63.9032 84.2574 63.6063C84.2507 63.6032 84.2438 63.6 84.2371 63.5971C83.9134 63.4537 83.5877 63.3168 83.261 63.1848C83.2293 63.1721 83.1977 63.1591 83.166 63.1466C82.8453 63.0183 82.5233 62.8952 82.2 62.7778C82.1728 62.7679 82.1454 62.7583 82.118 62.7486C81.4585 62.5112 80.7938 62.2966 80.1254 62.1047C80.0924 62.0953 80.0596 62.0854 80.0266 62.076C79.7093 61.986 79.391 61.9015 79.0721 61.8216C79.0214 61.8089 78.9707 61.7964 78.9202 61.784C78.6044 61.7065 78.288 61.6335 77.9708 61.5657C77.9289 61.5568 77.8867 61.5485 77.8447 61.5397C77.5266 61.4731 77.208 61.4109 76.8888 61.3541C76.8737 61.3514 76.8588 61.3483 76.8437 61.3458C76.5246 61.2896 76.2048 61.2397 75.8848 61.1934C75.8254 61.1848 75.7658 61.1757 75.7064 61.1674C75.4013 61.125 75.0959 61.0873 74.7901 61.0537C74.721 61.0461 74.6521 61.039 74.583 61.0318C74.2765 61 73.9701 60.972 73.6634 60.9493C73.609 60.9453 73.5547 60.9422 73.5002 60.9384C73.213 60.9185 72.9257 60.9024 72.6383 60.8903C72.5891 60.8882 72.5399 60.8852 72.4907 60.8835C72.187 60.872 71.8833 60.8661 71.5797 60.8634C71.5034 60.8627 71.4272 60.8619 71.351 60.8618C71.0554 60.8611 70.7598 60.8645 70.4646 60.8719C70.3875 60.874 70.3105 60.8765 70.2333 60.8791C70.1501 60.8818 70.0671 60.887 69.984 60.8904C73.8368 61.7464 77.5952 63.3301 81.0578 65.6821Z" fill="#D43C63"/>
<path d="M33.9897 87.7091C27.915 78.7611 31.3866 58.2725 51.3624 60.3149M33.9897 87.7091L29.2369 85.2235M33.9897 87.7091L35.616 83.0402M51.3624 60.3149L45.2114 63.9504M51.3624 60.3149L47.0958 55.7002" stroke="url(#paint0_linear_2869_15)" stroke-width="1.63794" stroke-linecap="round" stroke-linejoin="round"/>
<path d="M108.785 90.024C114.599 98.0708 117.202 118.644 95.2796 122.17M108.785 90.024L112.97 91.8524M108.785 90.024L107.797 94.8594M95.2796 122.17L99.5924 117.586M95.2796 122.17L100.027 124.826" stroke="url(#paint1_linear_2869_15)" stroke-width="1.63794" stroke-linecap="round" stroke-linejoin="round"/>
<defs>
<linearGradient id="paint0_linear_2869_15" x1="44.2638" y1="55.0533" x2="36.6654" y2="88.3203" gradientUnits="userSpaceOnUse">
<stop offset="0.495192" stop-color="#E4016A"/>
<stop offset="0.495292" stop-color="#FF6C92"/>
</linearGradient>
<linearGradient id="paint1_linear_2869_15" x1="102.807" y1="123.701" x2="106.497" y2="89.7772" gradientUnits="userSpaceOnUse">
<stop offset="0.495192" stop-color="#E4016A"/>
<stop offset="0.495292" stop-color="#FF6C92"/>
</linearGradient>
<clipPath id="clip0_2869_15">
<rect width="145" height="144" fill="white" transform="translate(0.71875)"/>
</clipPath>
</defs>
</svg>
