<svg width="248" height="94" viewBox="0 0 248 94" fill="none" xmlns="http://www.w3.org/2000/svg">
<g filter="url(#filter0_d_2970_19)">
<path d="M23.5 38C23.5 19.7746 38.2746 5 56.5 5H209.5C227.725 5 242.5 19.7746 242.5 38C242.5 56.2254 227.725 71 209.5 71H56.5C38.2746 71 23.5 56.2254 23.5 38Z" fill="#E4016A"/>
</g>
<path d="M71.2764 34.2376C70.2072 34.2376 69.2106 34.066 68.2866 33.7228C67.3758 33.3664 66.5838 32.8648 65.9106 32.218C65.2374 31.5712 64.7094 30.8122 64.3266 29.941C63.957 29.0698 63.7722 28.1128 63.7722 27.07C63.7722 26.0272 63.957 25.0702 64.3266 24.199C64.7094 23.3278 65.2374 22.5688 65.9106 21.922C66.597 21.2752 67.3956 20.7802 68.3064 20.437C69.2172 20.0806 70.2138 19.9024 71.2962 19.9024C72.4974 19.9024 73.5798 20.1136 74.5434 20.536C75.5202 20.9452 76.3386 21.5524 76.9986 22.3576L74.9394 24.2584C74.4642 23.7172 73.9362 23.3146 73.3554 23.0506C72.7746 22.7734 72.141 22.6348 71.4546 22.6348C70.8078 22.6348 70.2138 22.7404 69.6726 22.9516C69.1314 23.1628 68.6628 23.4664 68.2668 23.8624C67.8708 24.2584 67.5606 24.727 67.3362 25.2682C67.125 25.8094 67.0194 26.41 67.0194 27.07C67.0194 27.73 67.125 28.3306 67.3362 28.8718C67.5606 29.413 67.8708 29.8816 68.2668 30.2776C68.6628 30.6736 69.1314 30.9772 69.6726 31.1884C70.2138 31.3996 70.8078 31.5052 71.4546 31.5052C72.141 31.5052 72.7746 31.3732 73.3554 31.1092C73.9362 30.832 74.4642 30.4162 74.9394 29.8618L76.9986 31.7626C76.3386 32.5678 75.5202 33.1816 74.5434 33.604C73.5798 34.0264 72.4908 34.2376 71.2764 34.2376ZM79.0892 34V20.14H85.544C87.1544 20.14 88.4084 20.4502 89.306 21.0706C90.2036 21.691 90.6524 22.5754 90.6524 23.7238C90.6524 24.859 90.23 25.7434 89.3852 26.377C88.5404 26.9974 87.4184 27.3076 86.0192 27.3076L86.3954 26.476C87.953 26.476 89.1608 26.7862 90.0188 27.4066C90.8768 28.027 91.3058 28.9246 91.3058 30.0994C91.3058 31.3138 90.8438 32.2708 89.9198 32.9704C89.009 33.6568 87.6758 34 85.9202 34H79.0892ZM82.277 31.624H85.8014C86.5406 31.624 87.1016 31.4788 87.4844 31.1884C87.8672 30.898 88.0586 30.4492 88.0586 29.842C88.0586 29.2612 87.8672 28.8322 87.4844 28.555C87.1016 28.2646 86.5406 28.1194 85.8014 28.1194H82.277V31.624ZM82.277 25.882H85.2668C85.9664 25.882 86.4944 25.7434 86.8508 25.4662C87.2072 25.1758 87.3854 24.7534 87.3854 24.199C87.3854 23.6446 87.2072 23.2288 86.8508 22.9516C86.4944 22.6612 85.9664 22.516 85.2668 22.516H82.277V25.882ZM101.549 34V29.6242L102.341 30.3172H98.5398C97.3386 30.3172 96.3024 30.1192 95.4312 29.7232C94.56 29.3272 93.8934 28.753 93.4314 28.0006C92.9694 27.2482 92.7384 26.3506 92.7384 25.3078C92.7384 24.2254 92.9826 23.3014 93.471 22.5358C93.9726 21.757 94.6722 21.163 95.5698 20.7538C96.4674 20.3446 97.5234 20.14 98.7378 20.14H104.717V34H101.549ZM92.778 34L96.2232 29.0302H99.4704L96.1638 34H92.778ZM101.549 28.5946V21.922L102.341 22.7536H98.817C97.9062 22.7536 97.2066 22.9648 96.7182 23.3872C96.243 23.8096 96.0054 24.4366 96.0054 25.2682C96.0054 26.0734 96.2364 26.6938 96.6984 27.1294C97.1604 27.565 97.8402 27.7828 98.7378 27.7828H102.341L101.549 28.5946ZM106.942 32.7724L107.932 30.4756C108.526 30.832 109.16 31.1092 109.833 31.3072C110.52 31.492 111.186 31.5976 111.833 31.624C112.493 31.6372 113.087 31.5712 113.615 31.426C114.156 31.2808 114.585 31.063 114.902 30.7726C115.232 30.4822 115.397 30.1126 115.397 29.6638C115.397 29.1358 115.179 28.7464 114.744 28.4956C114.308 28.2316 113.727 28.0996 113.001 28.0996H109.615V25.684H112.764C113.41 25.684 113.912 25.552 114.268 25.288C114.638 25.024 114.823 24.661 114.823 24.199C114.823 23.803 114.691 23.4862 114.427 23.2486C114.163 22.9978 113.8 22.813 113.338 22.6942C112.889 22.5754 112.381 22.5226 111.813 22.5358C111.246 22.549 110.658 22.6414 110.051 22.813C109.444 22.9846 108.863 23.2222 108.309 23.5258L107.338 21.0508C108.236 20.5888 109.18 20.272 110.17 20.1004C111.173 19.9156 112.137 19.8694 113.061 19.9618C113.998 20.041 114.843 20.2522 115.595 20.5954C116.347 20.9254 116.948 21.361 117.397 21.9022C117.846 22.4434 118.07 23.0836 118.07 23.8228C118.07 24.4828 117.898 25.0702 117.555 25.585C117.212 26.0998 116.73 26.4958 116.11 26.773C115.503 27.0502 114.803 27.1888 114.011 27.1888L114.09 26.476C115.014 26.476 115.813 26.6344 116.486 26.9512C117.172 27.2548 117.7 27.6838 118.07 28.2382C118.453 28.7794 118.644 29.4064 118.644 30.1192C118.644 30.7792 118.466 31.3732 118.11 31.9012C117.766 32.416 117.291 32.8516 116.684 33.208C116.077 33.5644 115.384 33.8284 114.605 34C113.826 34.1716 112.995 34.2442 112.11 34.2178C111.239 34.1914 110.361 34.066 109.477 33.8416C108.592 33.604 107.748 33.2476 106.942 32.7724ZM119.619 34L125.797 20.14H128.965L135.162 34H131.796L126.728 21.7636H127.995L122.906 34H119.619ZM122.708 31.03L123.56 28.5946H130.688L131.559 31.03H122.708ZM139.294 34V22.021L140.027 22.7536H134.879V20.14H146.897V22.7536H141.749L142.462 22.021V34H139.294ZM155.623 24.694C157.3 24.694 158.593 25.0702 159.504 25.8226C160.415 26.5618 160.87 27.6772 160.87 29.1688C160.87 30.7528 160.362 31.954 159.346 32.7724C158.343 33.5908 156.95 34 155.168 34H148.911V20.14H152.099V24.694H155.623ZM154.99 31.624C155.808 31.624 156.455 31.4194 156.93 31.0102C157.405 30.601 157.643 30.007 157.643 29.2282C157.643 28.4626 157.405 27.9148 156.93 27.5848C156.468 27.2416 155.821 27.07 154.99 27.07H152.099V31.624H154.99ZM169.735 34.2376C168.666 34.2376 167.669 34.066 166.745 33.7228C165.834 33.3664 165.042 32.8648 164.369 32.218C163.696 31.5712 163.168 30.8122 162.785 29.941C162.416 29.0698 162.231 28.1128 162.231 27.07C162.231 26.0272 162.416 25.0702 162.785 24.199C163.168 23.3278 163.696 22.5688 164.369 21.922C165.056 21.2752 165.854 20.7802 166.765 20.437C167.676 20.0806 168.672 19.9024 169.755 19.9024C170.956 19.9024 172.038 20.1136 173.002 20.536C173.979 20.9452 174.797 21.5524 175.457 22.3576L173.398 24.2584C172.923 23.7172 172.395 23.3146 171.814 23.0506C171.233 22.7734 170.6 22.6348 169.913 22.6348C169.266 22.6348 168.672 22.7404 168.131 22.9516C167.59 23.1628 167.121 23.4664 166.725 23.8624C166.329 24.2584 166.019 24.727 165.795 25.2682C165.584 25.8094 165.478 26.41 165.478 27.07C165.478 27.73 165.584 28.3306 165.795 28.8718C166.019 29.413 166.329 29.8816 166.725 30.2776C167.121 30.6736 167.59 30.9772 168.131 31.1884C168.672 31.3996 169.266 31.5052 169.913 31.5052C170.6 31.5052 171.233 31.3732 171.814 31.1092C172.395 30.832 172.923 30.4162 173.398 29.8618L175.457 31.7626C174.797 32.5678 173.979 33.1816 173.002 33.604C172.038 34.0264 170.949 34.2376 169.735 34.2376ZM185.197 34V29.6242L185.989 30.3172H182.187C180.986 30.3172 179.95 30.1192 179.078 29.7232C178.207 29.3272 177.541 28.753 177.079 28.0006C176.617 27.2482 176.386 26.3506 176.386 25.3078C176.386 24.2254 176.63 23.3014 177.118 22.5358C177.62 21.757 178.319 21.163 179.217 20.7538C180.115 20.3446 181.171 20.14 182.385 20.14H188.365V34H185.197ZM176.425 34L179.87 29.0302H183.118L179.811 34H176.425ZM185.197 28.5946V21.922L185.989 22.7536H182.464C181.553 22.7536 180.854 22.9648 180.365 23.3872C179.89 23.8096 179.653 24.4366 179.653 25.2682C179.653 26.0734 179.884 26.6938 180.346 27.1294C180.808 27.565 181.487 27.7828 182.385 27.7828H185.989L185.197 28.5946ZM203.998 34.2376C202.929 34.2376 201.932 34.066 201.008 33.7228C200.098 33.3664 199.306 32.8648 198.632 32.218C197.959 31.5712 197.431 30.8122 197.048 29.941C196.679 29.0698 196.494 28.1128 196.494 27.07C196.494 26.0272 196.679 25.0702 197.048 24.199C197.431 23.3278 197.959 22.5688 198.632 21.922C199.319 21.2752 200.117 20.7802 201.028 20.437C201.939 20.0806 202.936 19.9024 204.018 19.9024C205.219 19.9024 206.302 20.1136 207.265 20.536C208.242 20.9452 209.06 21.5524 209.72 22.3576L207.661 24.2584C207.186 23.7172 206.658 23.3146 206.077 23.0506C205.496 22.7734 204.863 22.6348 204.176 22.6348C203.53 22.6348 202.936 22.7404 202.394 22.9516C201.853 23.1628 201.385 23.4664 200.989 23.8624C200.593 24.2584 200.282 24.727 200.058 25.2682C199.847 25.8094 199.741 26.41 199.741 27.07C199.741 27.73 199.847 28.3306 200.058 28.8718C200.282 29.413 200.593 29.8816 200.989 30.2776C201.385 30.6736 201.853 30.9772 202.394 31.1884C202.936 31.3996 203.53 31.5052 204.176 31.5052C204.863 31.5052 205.496 31.3732 206.077 31.1092C206.658 30.832 207.186 30.4162 207.661 29.8618L209.72 31.7626C209.06 32.5678 208.242 33.1816 207.265 33.604C206.302 34.0264 205.213 34.2376 203.998 34.2376ZM67.6728 46.7236H74.3454V49.2184H67.6728V46.7236ZM67.9104 52.426H75.4542V55H64.7226V41.14H75.1968V43.714H67.9104V52.426ZM78.0451 55V41.14H84.4999C86.1103 41.14 87.3643 41.4502 88.2619 42.0706C89.1595 42.691 89.6083 43.5754 89.6083 44.7238C89.6083 45.859 89.1859 46.7434 88.3411 47.377C87.4963 47.9974 86.3743 48.3076 84.9751 48.3076L85.3513 47.476C86.9089 47.476 88.1167 47.7862 88.9747 48.4066C89.8327 49.027 90.2617 49.9246 90.2617 51.0994C90.2617 52.3138 89.7997 53.2708 88.8757 53.9704C87.9649 54.6568 86.6317 55 84.8761 55H78.0451ZM81.2329 52.624H84.7573C85.4965 52.624 86.0575 52.4788 86.4403 52.1884C86.8231 51.898 87.0145 51.4492 87.0145 50.842C87.0145 50.2612 86.8231 49.8322 86.4403 49.555C86.0575 49.2646 85.4965 49.1194 84.7573 49.1194H81.2329V52.624ZM81.2329 46.882H84.2227C84.9223 46.882 85.4503 46.7434 85.8067 46.4662C86.1631 46.1758 86.3413 45.7534 86.3413 45.199C86.3413 44.6446 86.1631 44.2288 85.8067 43.9516C85.4503 43.6612 84.9223 43.516 84.2227 43.516H81.2329V46.882ZM99.4314 55.2376C98.3358 55.2376 97.3194 55.0594 96.3822 54.703C95.4582 54.3466 94.653 53.845 93.9666 53.1982C93.2934 52.5514 92.7654 51.7924 92.3826 50.9212C92.013 50.05 91.8282 49.0996 91.8282 48.07C91.8282 47.0404 92.013 46.09 92.3826 45.2188C92.7654 44.3476 93.3 43.5886 93.9864 42.9418C94.6728 42.295 95.478 41.7934 96.402 41.437C97.326 41.0806 98.3292 40.9024 99.4116 40.9024C100.507 40.9024 101.51 41.0806 102.421 41.437C103.345 41.7934 104.144 42.295 104.817 42.9418C105.503 43.5886 106.038 44.3476 106.421 45.2188C106.804 46.0768 106.995 47.0272 106.995 48.07C106.995 49.0996 106.804 50.0566 106.421 50.941C106.038 51.8122 105.503 52.5712 104.817 53.218C104.144 53.8516 103.345 54.3466 102.421 54.703C101.51 55.0594 100.514 55.2376 99.4314 55.2376ZM99.4116 52.5052C100.032 52.5052 100.6 52.3996 101.114 52.1884C101.642 51.9772 102.104 51.6736 102.5 51.2776C102.896 50.8816 103.2 50.413 103.411 49.8718C103.636 49.3306 103.748 48.73 103.748 48.07C103.748 47.41 103.636 46.8094 103.411 46.2682C103.2 45.727 102.896 45.2584 102.5 44.8624C102.118 44.4664 101.662 44.1628 101.134 43.9516C100.606 43.7404 100.032 43.6348 99.4116 43.6348C98.7912 43.6348 98.217 43.7404 97.689 43.9516C97.1742 44.1628 96.7188 44.4664 96.3228 44.8624C95.9268 45.2584 95.6166 45.727 95.3922 46.2682C95.181 46.8094 95.0754 47.41 95.0754 48.07C95.0754 48.7168 95.181 49.3174 95.3922 49.8718C95.6166 50.413 95.9202 50.8816 96.303 51.2776C96.699 51.6736 97.161 51.9772 97.689 52.1884C98.217 52.3996 98.7912 52.5052 99.4116 52.5052ZM109.466 55V41.14H112.654V50.1688L119.267 41.14H122.277V55H119.109V45.991L112.495 55H109.466ZM115.861 40.249C114.541 40.249 113.571 39.985 112.951 39.457C112.344 38.929 112.033 38.1832 112.02 37.2196H114.218C114.231 37.6948 114.37 38.0578 114.634 38.3086C114.911 38.5462 115.32 38.665 115.861 38.665C116.389 38.665 116.792 38.5462 117.069 38.3086C117.346 38.0578 117.492 37.6948 117.505 37.2196H119.703C119.689 38.1832 119.373 38.929 118.752 39.457C118.132 39.985 117.168 40.249 115.861 40.249ZM131.335 55V41.14H134.523V50.1688L141.136 41.14H144.146V55H140.978V45.991L134.364 55H131.335ZM153.204 55V41.14H159.659C161.269 41.14 162.523 41.4502 163.421 42.0706C164.318 42.691 164.767 43.5754 164.767 44.7238C164.767 45.859 164.345 46.7434 163.5 47.377C162.655 47.9974 161.533 48.3076 160.134 48.3076L160.51 47.476C162.068 47.476 163.275 47.7862 164.133 48.4066C164.991 49.027 165.42 49.9246 165.42 51.0994C165.42 52.3138 164.958 53.2708 164.034 53.9704C163.124 54.6568 161.79 55 160.035 55H153.204ZM156.392 52.624H159.916C160.655 52.624 161.216 52.4788 161.599 52.1884C161.982 51.898 162.173 51.4492 162.173 50.842C162.173 50.2612 161.982 49.8322 161.599 49.555C161.216 49.2646 160.655 49.1194 159.916 49.1194H156.392V52.624ZM156.392 46.882H159.381C160.081 46.882 160.609 46.7434 160.965 46.4662C161.322 46.1758 161.5 45.7534 161.5 45.199C161.5 44.6446 161.322 44.2288 160.965 43.9516C160.609 43.6612 160.081 43.516 159.381 43.516H156.392V46.882ZM167.957 55V41.14H171.145V50.1688L177.758 41.14H180.768V55H177.6V45.991L170.987 55H167.957ZM193.188 55L188.872 48.3274L191.465 46.7632L196.831 55H193.188ZM184.179 55V41.14H187.367V55H184.179ZM186.436 49.4164V46.7434H191.267V49.4164H186.436ZM191.762 48.4264L188.812 48.07L193.307 41.14H196.693L191.762 48.4264ZM204.909 55.2376C203.813 55.2376 202.797 55.0594 201.86 54.703C200.936 54.3466 200.131 53.845 199.444 53.1982C198.771 52.5514 198.243 51.7924 197.86 50.9212C197.491 50.05 197.306 49.0996 197.306 48.07C197.306 47.0404 197.491 46.09 197.86 45.2188C198.243 44.3476 198.778 43.5886 199.464 42.9418C200.15 42.295 200.956 41.7934 201.88 41.437C202.804 41.0806 203.807 40.9024 204.889 40.9024C205.985 40.9024 206.988 41.0806 207.899 41.437C208.823 41.7934 209.621 42.295 210.295 42.9418C210.981 43.5886 211.516 44.3476 211.898 45.2188C212.281 46.0768 212.473 47.0272 212.473 48.07C212.473 49.0996 212.281 50.0566 211.898 50.941C211.516 51.8122 210.981 52.5712 210.295 53.218C209.621 53.8516 208.823 54.3466 207.899 54.703C206.988 55.0594 205.991 55.2376 204.909 55.2376ZM204.889 52.5052C205.51 52.5052 206.077 52.3996 206.592 52.1884C207.12 51.9772 207.582 51.6736 207.978 51.2776C208.374 50.8816 208.678 50.413 208.889 49.8718C209.113 49.3306 209.225 48.73 209.225 48.07C209.225 47.41 209.113 46.8094 208.889 46.2682C208.678 45.727 208.374 45.2584 207.978 44.8624C207.595 44.4664 207.14 44.1628 206.612 43.9516C206.084 43.7404 205.51 43.6348 204.889 43.6348C204.269 43.6348 203.695 43.7404 203.167 43.9516C202.652 44.1628 202.196 44.4664 201.8 44.8624C201.404 45.2584 201.094 45.727 200.87 46.2682C200.659 46.8094 200.553 47.41 200.553 48.07C200.553 48.7168 200.659 49.3174 200.87 49.8718C201.094 50.413 201.398 50.8816 201.781 51.2776C202.177 51.6736 202.639 51.9772 203.167 52.1884C203.695 52.3996 204.269 52.5052 204.889 52.5052ZM214.943 55V41.14H218.131V50.1688L224.744 41.14H227.754V55H224.586V45.991L217.973 55H214.943ZM221.339 40.249C220.019 40.249 219.049 39.985 218.428 39.457C217.821 38.929 217.511 38.1832 217.498 37.2196H219.695C219.709 37.6948 219.847 38.0578 220.111 38.3086C220.388 38.5462 220.798 38.665 221.339 38.665C221.867 38.665 222.269 38.5462 222.547 38.3086C222.824 38.0578 222.969 37.6948 222.982 37.2196H225.18C225.167 38.1832 224.85 38.929 224.23 39.457C223.609 39.985 222.646 40.249 221.339 40.249Z" fill="white"/>
<g clip-path="url(#clip0_2970_19)">
<path d="M46 27C43.0126 27 42.638 27.0132 41.4647 27.0688C40.2939 27.1244 39.4943 27.3178 38.7946 27.6006C38.0712 27.8929 37.4578 28.2841 36.8463 28.9201C36.2347 29.556 35.8586 30.1941 35.5775 30.9464C35.3055 31.674 35.1196 32.5056 35.0662 33.7233C35.0126 34.9435 35 35.3331 35 38.44C35 41.5469 35.0126 41.9365 35.0662 43.1567C35.1196 44.3744 35.3055 45.206 35.5775 45.9336C35.8586 46.6859 36.2347 47.3239 36.8463 47.9599C37.4578 48.5959 38.0712 48.9871 38.7946 49.2795C39.4943 49.5622 40.2939 49.7556 41.4647 49.8112C42.638 49.8668 43.0126 49.88 46 49.88C48.9874 49.88 49.362 49.8668 50.5353 49.8112C51.7061 49.7556 52.5057 49.5622 53.2054 49.2795C53.9287 48.9871 54.5422 48.5959 55.1538 47.9599C55.7653 47.3239 56.1414 46.6859 56.4226 45.9336C56.6944 45.206 56.8804 44.3744 56.9338 43.1567C56.9873 41.9365 57 41.5469 57 38.44C57 35.3331 56.9873 34.9435 56.9338 33.7233C56.8804 32.5056 56.6944 31.674 56.4226 30.9464C56.1414 30.1941 55.7653 29.556 55.1538 28.9201C54.5422 28.2841 53.9287 27.8929 53.2054 27.6006C52.5057 27.3178 51.7061 27.1244 50.5353 27.0688C49.362 27.0132 48.9874 27 46 27ZM46 29.0612C48.9371 29.0612 49.285 29.0729 50.445 29.128C51.5175 29.1788 52.0999 29.3652 52.4875 29.5219C53.0009 29.7294 53.3674 29.9773 53.7523 30.3776C54.1372 30.7779 54.3756 31.1591 54.5751 31.693C54.7258 32.0961 54.905 32.7019 54.9539 33.8172C55.0068 35.0236 55.018 35.3854 55.018 38.44C55.018 41.4946 55.0068 41.8564 54.9539 43.0628C54.905 44.1782 54.7258 44.7839 54.5751 45.187C54.3756 45.721 54.1372 46.1021 53.7523 46.5024C53.3674 46.9027 53.0009 47.1506 52.4875 47.3582C52.0999 47.5148 51.5174 47.7012 50.445 47.752C49.2852 47.8071 48.9373 47.8187 46 47.8187C43.0627 47.8187 42.7148 47.8071 41.555 47.752C40.4825 47.7012 39.9001 47.5148 39.5125 47.3582C38.9991 47.1506 38.6326 46.9027 38.2477 46.5024C37.8628 46.1021 37.6244 45.7209 37.4249 45.187C37.2742 44.7839 37.095 44.1781 37.0461 43.0628C36.9932 41.8564 36.982 41.4946 36.982 38.44C36.982 35.3854 36.9932 35.0236 37.0461 33.8172C37.095 32.7018 37.2742 32.0961 37.4249 31.693C37.6244 31.159 37.8628 30.7779 38.2477 30.3776C38.6326 29.9773 38.9991 29.7294 39.5125 29.5219C39.9001 29.3652 40.4826 29.1788 41.555 29.128C42.715 29.0729 43.0629 29.0612 46 29.0612Z" fill="white"/>
</g>
<g clip-path="url(#clip1_2970_19)">
<path d="M46.088 41.6825C44.0063 41.6825 42.3187 39.9949 42.3187 37.9132C42.3187 35.8314 44.0063 34.1438 46.088 34.1438C48.1697 34.1438 49.8573 35.8314 49.8573 37.9132C49.8573 39.9949 48.1697 41.6825 46.088 41.6825ZM46.088 32.1064C42.881 32.1064 40.2812 34.7062 40.2812 37.9132C40.2812 41.1202 42.881 43.7199 46.088 43.7199C49.295 43.7199 51.8948 41.1202 51.8948 37.9132C51.8948 34.7062 49.295 32.1064 46.088 32.1064ZM53.4812 31.877C53.4812 32.6264 52.8736 33.2339 52.1242 33.2339C51.3748 33.2339 50.7672 32.6264 50.7672 31.877C50.7672 31.1276 51.3748 30.52 52.1242 30.52C52.8736 30.52 53.4812 31.1276 53.4812 31.877Z" fill="white"/>
</g>
<defs>
<filter id="filter0_d_2970_19" x="0.5" y="0" width="247" height="94" filterUnits="userSpaceOnUse" color-interpolation-filters="sRGB">
<feFlood flood-opacity="0" result="BackgroundImageFix"/>
<feColorMatrix in="SourceAlpha" type="matrix" values="0 0 0 0 0 0 0 0 0 0 0 0 0 0 0 0 0 0 127 0" result="hardAlpha"/>
<feOffset dx="-9" dy="9"/>
<feGaussianBlur stdDeviation="7"/>
<feComposite in2="hardAlpha" operator="out"/>
<feColorMatrix type="matrix" values="0 0 0 0 0.552941 0 0 0 0 0 0 0 0 0 0.176471 0 0 0 0.45 0"/>
<feBlend mode="normal" in2="BackgroundImageFix" result="effect1_dropShadow_2970_19"/>
<feBlend mode="normal" in="SourceGraphic" in2="effect1_dropShadow_2970_19" result="shape"/>
</filter>
<clipPath id="clip0_2970_19">
<rect width="22" height="22.88" fill="white" transform="translate(35 27)"/>
</clipPath>
<clipPath id="clip1_2970_19">
<rect width="13.2" height="13.2" fill="white" transform="translate(40.2812 30.52)"/>
</clipPath>
</defs>
</svg>
