<svg width="341" height="2" viewBox="0 0 341 2" fill="none" xmlns="http://www.w3.org/2000/svg">
<path d="M210.515 0.0161742C224.341 0.0110426 239.477 -0.0198006 253.358 0.0203283C255.062 0.0252311 254.945 0.0923962 255.423 0.101261C256.73 0.125723 257.517 0.0464973 258.47 0.0523113C263.101 0.0803066 267.433 0.0917042 271.976 0.117132C276.656 0.143262 274.442 0.35204 276.069 0.4029C279.246 0.502505 276.543 0.230259 277.792 0.169135C281.435 0.185465 285.109 0.214959 288.758 0.24482C287.867 0.270239 286.976 0.295118 286.076 0.318672C287.666 0.324274 289.942 0.366296 287.279 0.437447C287.868 0.457044 288.417 0.479962 289.022 0.499093C289.188 0.39995 292.004 0.391975 292.261 0.333199C292.518 0.274407 290.935 0.287916 290.945 0.282784C291.05 0.209557 297.544 0.309654 298.012 0.317819C299.25 0.339544 298.165 0.462453 299.218 0.454538C301.029 0.441007 299.823 0.190931 302.275 0.523386C303.25 0.415385 303.335 0.471472 304.571 0.478953C304.733 0.479886 304.607 0.417353 304.679 0.41572C306.548 0.369307 305.111 0.485593 305.121 0.491892C305.291 0.598901 307.297 0.551331 307.72 0.561595C313.024 0.689437 316.911 0.775987 322.508 0.805616C323.718 0.811913 327.403 0.768498 328.573 0.786695C329.728 0.804654 329.109 0.881756 329.713 0.918776C330.682 0.733296 331.606 0.712839 333.78 0.835036C334.59 0.699736 334.486 0.808875 336.037 0.781813C337.329 0.759394 339.579 0.59709 341 0.735427C339.371 0.722828 339.539 0.789293 337.705 0.829421C337.094 0.84271 330.727 0.845549 331.201 0.98384C331.448 1.05593 333.558 0.989718 333.64 1.00301C334.115 1.08046 332.937 1.17565 331.893 1.14229C332.153 1.12666 332.467 1.1108 332.746 1.09517C330.402 0.998349 332.014 1.37021 330.232 1.04524C330.012 1.00538 330.097 0.963819 329.734 0.921461C329.659 0.93898 330.103 0.982408 329.721 0.990187C329.33 0.998028 328.589 0.91557 328.478 0.98506C328.313 1.08611 329.931 1.04629 330.052 1.0522C330.054 1.05159 330.055 1.05098 330.056 1.05037C331.132 1.10402 328.885 1.11014 328.778 1.1197C328.082 1.18267 328.556 1.23115 327.513 1.28316C326.918 1.31279 325.402 1.29532 324.843 1.30489C324.287 1.31469 325.152 1.36249 324.778 1.37276C324.404 1.38302 323.938 1.3467 323.499 1.3586C323.311 1.36384 323.32 1.41716 323.23 1.41902C322.254 1.43954 322.894 1.32864 322.009 1.3354C321.436 1.3399 319.513 1.44328 320.839 1.47408C320.201 1.4848 319.58 1.49266 318.946 1.50105C319.346 1.51691 319.759 1.52769 320.149 1.54634C318.956 1.52095 318.416 1.61218 317.669 1.61897C316.921 1.62574 316.25 1.51625 315.427 1.56966C313.671 1.68327 318.02 1.63078 318.56 1.65108C318.77 1.65906 317.962 1.74482 317.838 1.74727C317.285 1.758 316.631 1.69667 316.205 1.69942C314.68 1.70968 313.746 1.79062 312.292 1.80696C307.342 1.86249 301.202 1.90752 296.512 1.92525C294.766 1.93178 293.715 1.84077 292.931 1.84334C291.097 1.84941 290.873 1.92872 289.273 1.93294C286.892 1.93947 283.539 1.87023 281.552 1.8553C280.176 1.84503 278.93 1.92179 278.573 1.92366C273.6 1.95119 267.551 1.94946 263.43 1.95039C261.492 1.95086 260.572 1.86461 260.171 1.86714C258.451 1.87787 258.912 1.95161 257.518 1.94416C256.764 1.9402 256.623 1.86941 256.523 1.86665C255.635 1.84332 255.458 1.93576 254.765 1.93879C250.781 1.95628 246.944 1.89578 242.999 1.88691C242.713 1.88621 242.739 1.84526 242.553 1.84736C241.757 1.85741 242.127 1.9219 241.295 1.92658C239.565 1.93662 237.788 1.92596 235.954 1.91779C235.772 1.91699 235.691 1.86435 235.275 1.86433C234.859 1.86433 234.543 1.91423 233.89 1.91145C232.182 1.90421 230.497 1.84452 228.689 1.84126C228.39 1.84079 228.019 1.9042 227.57 1.90351C226.162 1.90141 224.077 1.84384 222.871 1.84174C218.89 1.83521 215.217 1.87131 211.468 1.87177C210.587 1.87174 209.806 1.81299 209.347 1.81159C208.314 1.80858 209.094 1.86409 208.047 1.86433C199.493 1.86572 190.907 1.84048 182.253 1.84491C178.854 1.84655 174.717 1.90399 171.433 1.88813C170.067 1.88135 169.819 1.8046 168.853 1.8039C167.13 1.80299 166.817 1.90139 165 1.9112C163.549 1.9189 161.887 1.82066 160.378 1.82672C158.869 1.83279 158.173 1.92821 156.439 1.93964C155.012 1.94896 153.018 1.90566 151.464 1.91266C137.219 1.97705 123.192 2.01624 108.86 1.94159C103.802 1.91522 98.1913 1.92893 92.9649 1.83514C92.474 1.82626 93.2249 1.73412 91.6511 1.75347C90.8055 1.76397 89.625 1.84337 87.6706 1.84735C76.0502 1.87068 63.6552 1.70083 51.8397 1.73443C34.141 1.78506 15.7984 2.44078 0.418535 1.48125C-0.33587 1.43413 0.073223 1.20322 0.525202 1.13762C0.944648 1.1845 1.33243 1.24019 1.77138 1.29314C2.32413 1.00462 2.22666 1.07974 4.27545 1.10564C5.53679 1.12172 4.52927 0.998326 5.20162 0.963303C6.07323 0.918043 10.1656 0.775526 9.37854 0.9666C9.6322 0.933473 9.86633 0.901736 10.1135 0.869309C13.0762 0.84038 15.9547 0.792541 18.8524 0.737718C19.3529 0.728134 19.376 0.668179 19.893 0.658616C21.2816 0.632497 22.3841 0.671883 23.815 0.665819C24.5923 0.662552 24.7001 0.59327 25.718 0.597703C26.7354 0.602164 26.7131 0.69569 28.1011 0.594041C27.197 0.476693 31.2301 0.561841 32.6644 0.554613C32.8725 0.55368 34.5797 0.448257 35.4872 0.460374C36.3977 0.472271 37.7799 0.539618 39.188 0.501391C39.8481 0.483427 40.2488 0.401324 40.961 0.396654C41.4618 0.393388 42.0634 0.466366 42.6976 0.469408C43.3315 0.47244 44.7031 0.412534 44.9545 0.411547C45.8617 0.407582 44.8609 0.45889 45.4813 0.461474C48.4765 0.473139 51.9566 0.500635 54.9096 0.466113C55.2727 0.461928 54.7703 0.401477 54.8185 0.399463C57.2831 0.325292 55.9676 0.404054 56.6332 0.458179C57.2778 0.510516 61.9955 0.481967 62.0302 0.37688C62.1752 0.508473 63.2239 0.407965 63.4963 0.404102C64.5563 0.389186 64.3484 0.503039 65.3759 0.467823C65.753 0.454998 65.0188 0.378043 65.4241 0.380299C66.4257 0.385898 67.3272 0.509527 68.6605 0.521901C68.9825 0.524934 69.0871 0.469864 69.6595 0.47173C70.2326 0.473625 72.6347 0.540997 71.5262 0.424855C72.983 0.517927 73.2764 0.466845 74.9707 0.469411C75.3999 0.470193 75.9526 0.55894 76.866 0.531423C77.1749 0.522085 77.1658 0.436542 77.6309 0.435842C78.6942 0.434 79.696 0.522553 81.0455 0.526052C83.5693 0.532816 86.2558 0.470564 88.8868 0.492728C89.6019 0.49881 89.4234 0.584816 90.4634 0.586478C90.6163 0.586478 91.8689 0.512102 92.5876 0.519095C93.0202 0.523295 95.2614 0.575565 95.7135 0.579765C96.461 0.586497 96.5945 0.503316 97.0039 0.519584C98.1877 0.566477 97.238 0.688918 98.6624 0.521415C99.1308 0.614268 99.9632 0.604979 100.23 0.719292C100.714 0.59402 101.343 0.71438 102.283 0.672417C103.223 0.630423 103.993 0.387793 104.221 0.648858C104.66 0.617129 106.53 0.56298 106.846 0.559014C107.776 0.547826 107.278 0.620039 107.98 0.610284C108.104 0.608651 107.974 0.559272 108.767 0.564141C109.288 0.567407 113.1 0.570437 113.328 0.577203C115.925 0.654511 111.912 0.626175 111.351 0.67962C111.251 0.665583 111.153 0.6515 111.047 0.637628C109.9 0.614311 110.553 0.725869 111.073 0.751764C111.594 0.777652 112.566 0.727955 112.999 0.764582C113.214 0.782972 113.081 0.916721 112.429 0.900568C113.126 0.941766 112.174 0.985265 112.45 1.02398C112.753 1.06643 115.887 1.07949 115.903 1.00579C115.318 1.00323 114.59 1.00577 113.998 1.00274C113.224 0.874659 115.575 0.43725 117.731 0.611994C119.295 0.738435 116.717 0.838979 120.417 0.732844C119.848 0.72771 119.367 0.715748 118.85 0.710383C118.795 0.614327 119.634 0.719945 120.066 0.689387C120.274 0.674445 118.993 0.606428 120.105 0.583795C121.061 0.721155 121.797 0.582987 123.4 0.581354C122.954 0.605851 122.508 0.630222 122.063 0.654719C124.772 0.754336 118.479 0.787195 123.747 0.842952C123.113 0.84738 122.483 0.846202 121.846 0.852962C122.154 0.903364 121.66 1.05132 121.937 1.08258C122.662 1.16463 123.735 1.11517 124.619 1.12237C125.006 1.1254 124.766 1.16535 124.798 1.16559C125.328 1.17001 125.211 1.11146 125.676 1.10772C126.262 1.10306 127.952 1.15999 128.226 1.1535C128.935 1.13694 127.754 1.02138 127.823 1.01275C128.275 0.956785 129.198 1.0032 129.15 0.929989C126.928 0.98037 120.526 0.91569 126.318 0.794612C124.721 0.67633 125.182 0.513257 127.478 0.500422C129.377 0.48969 128.152 0.55503 129.14 0.626887C129.268 0.635883 131.812 0.67024 131.942 0.619441C131.841 0.736437 132.668 0.840043 132.113 0.960751C132.032 0.978482 130.988 0.971486 131.352 1.06854C131.534 1.11729 132.057 1.2234 131.972 1.28546C132.187 1.24231 132.411 1.19376 132.629 1.14874C134.194 1.13614 134.416 1.18263 135.271 1.26312C135.232 1.22953 134.442 1.08836 135.642 1.13128C135.704 1.13385 135.757 1.18452 136.367 1.20965C137.599 1.26004 137.856 1.27571 136.91 1.4245C139.463 1.33963 140.012 1.50546 142.63 1.45697C142.11 1.2657 141.189 1.31305 138.793 1.34991C138.688 1.30442 138.64 1.25939 138.532 1.21344C141.723 1.31655 140.146 1.30604 141.953 1.21368C142.396 1.19105 144.754 1.21527 143.967 1.08648C143.781 1.05618 142.316 1.05967 142.484 1.0119C142.517 1.0028 144.298 0.979662 144.455 0.992002C146.426 1.14434 142.904 1.25052 148.331 1.19501C148.481 1.19337 148.533 1.13769 148.826 1.12994C149.375 1.11548 149.382 1.17999 149.873 1.1651C150.364 1.15017 151.044 1.06341 151.782 1.14361C153.132 1.28966 149.948 1.37366 148.53 1.2962C147.955 1.48704 158.085 1.49125 158.713 1.47492C161.454 1.40377 156.893 1.44484 156.658 1.39191C156.56 1.36951 156.609 1.08563 155.455 1.26984C155.113 1.32442 156.54 1.39635 155.689 1.42645C154.837 1.45655 155.174 1.37296 155.113 1.36713C154.901 1.34714 153.994 1.37813 153.877 1.36627C152.068 1.1864 152.234 0.914589 154.631 1.3161C155.675 1.22535 153.279 1.08069 154.577 1.0191C156.154 0.944243 157.305 1.0737 157.503 1.07953C159.88 1.14856 157.14 0.95958 160.043 1.01996C161.659 1.05355 157.624 1.14572 161.315 1.13336C164.404 1.12286 162.736 1.05708 162.96 0.907531C163.013 0.872541 164.706 0.829637 162.401 0.845031C162.336 0.883984 162.213 0.935324 162.067 0.971252C161.501 0.942811 160.559 0.747843 160.259 0.741026C158.792 0.708599 158.863 0.809794 157.998 0.690611C158.615 0.820995 157.61 0.742429 157.233 0.769957C155.832 0.871414 157.669 0.909135 154.525 0.778745C154.934 0.83987 155.305 0.899861 155.702 0.960753C155.325 0.962852 154.947 0.965002 154.57 0.967101C154.007 0.83249 152.004 0.849704 153.818 0.71417C151.636 0.675682 150.754 0.705027 150.276 0.809751C150.185 0.829743 149.857 0.837734 149.472 0.839658C149.545 0.869106 149.638 0.960091 149.578 0.971251C149.035 1.06938 148.193 0.899852 148.48 0.835142C148.21 0.832045 147.997 0.828413 147.922 0.826841C147.444 0.81679 148.38 0.758277 147.993 0.738217C147.866 0.731698 146.521 0.744429 146.495 0.720639C146.333 0.568133 148.546 0.678163 144.101 0.589535C143.994 0.728349 146.058 0.697827 145.528 0.845273C144.959 1.00367 143.798 0.791195 143.544 0.985532C143.45 0.953581 143.408 0.926936 143.327 0.890561C141.529 0.975235 141.505 0.813378 140.956 0.777646C139.889 0.707888 134.985 0.718364 139.388 0.858578C138.744 0.872576 138.087 0.87905 137.446 0.891415C137.3 0.601252 137.69 0.716743 134.604 0.67242C133.924 0.662622 133.703 0.535004 133.036 0.68658C133.127 0.537896 131.117 0.627719 130.929 0.609675C129.726 0.492332 134.194 0.328992 134.767 0.591853C135.521 0.48951 135.518 0.624801 136.36 0.606868C137.576 0.580972 137.745 0.554624 139.189 0.654476C140.611 0.513795 133.625 0.592581 137.86 0.40594C142.096 0.219314 166.759 0.115212 172.512 0.087216C182.936 0.0365909 188.416 0.00350162 197.779 0.0119006C198.703 0.0126005 205.675 -0.000887652 204.226 0.161682C204.018 0.185012 201.019 0.24684 203.591 0.374451C203.068 0.299105 204.58 0.25018 204.707 0.242249C207.618 0.0621456 205.933 0.0180402 210.515 0.0161742ZM224.1 1.46613C218.119 1.42904 222.513 1.53772 221.271 1.78315C222.038 1.78385 222.803 1.78452 223.57 1.78522C223.369 1.76983 223.17 1.75448 222.968 1.73908C222.967 1.73908 222.966 1.73908 222.966 1.73908C223.343 1.64811 223.723 1.55711 224.1 1.46613ZM321.868 1.63045C321.634 1.66276 321.404 1.69514 321.151 1.72676C320.361 1.71673 319.574 1.70688 318.783 1.69685C318.878 1.67493 318.969 1.65274 319.063 1.63081C319.998 1.63175 320.93 1.63276 321.868 1.63045ZM147.694 1.33173C146.575 1.24192 146.676 1.40218 145.19 1.32916C145.372 1.44743 145.574 1.56313 145.766 1.68024C146.897 1.66274 147.155 1.61776 148.383 1.64667C148.24 1.60865 148.094 1.57041 147.954 1.53217C147.749 1.54032 147.532 1.5496 147.334 1.55682C147.018 1.45045 148.982 1.43458 147.698 1.33148C147.697 1.33156 147.695 1.33164 147.694 1.33173ZM136.23 1.37933C135.628 1.36393 133.245 1.30605 132.919 1.35504C131.817 1.52115 138.542 1.41574 133.585 1.56341C133.608 1.58672 133.585 1.60956 133.585 1.63263C134.489 1.64079 135.391 1.64783 136.301 1.65436C136.253 1.56245 136.285 1.47171 136.23 1.37933ZM202.469 1.47638C201.544 1.46359 197.136 1.54172 198.573 1.64692C198.996 1.67771 200.963 1.52722 201.712 1.53376C202.196 1.53797 201.653 1.62048 202.609 1.59015C202.567 1.55379 202.541 1.51346 202.466 1.47663C202.467 1.47655 202.468 1.47647 202.469 1.47638ZM204.203 0.99628C203.247 1.01098 202.277 1.0296 201.315 1.04523C202.017 1.13923 203.399 1.07885 203.481 1.21112C203.217 1.22115 202.957 1.23113 202.694 1.24115C202.492 1.21223 202.294 1.18328 202.095 1.15436C201.269 1.22622 201.77 1.26192 200.231 1.24115C201.161 1.44109 201.334 1.54841 203.968 1.34613C203.471 1.45461 203.939 1.80809 205.399 1.55549C205.673 1.50859 204.532 1.47726 204.519 1.46979C204.343 1.37697 204.976 1.31773 204.788 1.23005C204.703 1.19038 204.008 1.19099 203.903 1.13593C203.855 1.10907 204.517 1.03244 204.203 0.99628ZM206.108 1.46698C205.812 1.52321 206.824 1.65663 207.702 1.62958C209.071 1.58759 206.912 1.46069 206.108 1.46698ZM321.873 1.63033C321.871 1.63037 321.869 1.63041 321.868 1.63045C321.868 1.63033 321.869 1.6302 321.87 1.63008C321.871 1.63016 321.872 1.63024 321.873 1.63033ZM139.332 1.4444C138.624 1.49219 137.574 1.48523 137.652 1.56122C137.307 1.54629 136.958 1.53159 136.614 1.51666C136.617 1.53951 136.623 1.56241 136.627 1.58502C137.664 1.59925 138.698 1.61353 139.736 1.62799C139.606 1.56687 139.485 1.50552 139.332 1.4444ZM128.031 1.39117C126.727 1.38348 127.82 1.48688 127.534 1.5368C127.248 1.58673 126.086 1.54611 126.223 1.61774C126.99 1.62054 127.791 1.62335 128.568 1.62591C128.363 1.54799 128.22 1.46863 128.028 1.39117C128.029 1.39117 128.03 1.39117 128.031 1.39117ZM248.508 1.54756C247.624 1.52515 247.985 1.44626 246.238 1.53864C246.24 1.53864 246.241 1.53864 246.242 1.53864C247.904 1.60326 250.043 1.66084 251.877 1.59834C250.756 1.5151 249.9 1.58255 248.508 1.54756ZM150.787 1.56451C151.161 1.502 149.421 1.44979 149.038 1.50787C148.417 1.60189 150.218 1.65946 150.787 1.56451ZM284.235 0.993845C285.581 0.801388 283.031 0.585358 280.361 0.678658C280.13 0.686824 281.854 0.748031 281.343 0.785592C281.292 0.789291 280.346 0.784707 280.112 0.811471C279.877 0.838301 280.123 0.900576 279.74 0.926706C279.066 0.972373 277.544 0.887755 277.04 0.947702C276.974 0.955736 277.918 1.03902 277.977 1.04218C278.946 1.09257 279.88 0.983703 280.03 0.982981C280.8 0.979248 280.684 1.0646 280.879 1.08467C281.247 1.1224 281.894 1.08467 281.939 1.08747C283.109 1.16233 280.436 1.14091 280.075 1.1717C279.103 1.25475 280.003 1.33196 277.671 1.37886C277.45 1.38327 274.799 1.37826 278.14 1.47383C271.581 1.67304 281.435 1.58715 282.505 1.54329C282.998 1.52295 282.251 1.44159 282.551 1.40498C283.234 1.32124 284.398 1.30647 284.294 1.18843C284.069 0.94025 282.54 1.10287 281.487 1.06111C281.597 1.00721 281.639 0.954652 281.844 0.901926C281.529 0.97285 284.138 1.00833 284.235 0.994334C284.235 0.994171 284.235 0.994008 284.235 0.993845ZM267.632 1.27741C266.158 1.20252 266.263 1.35919 264.913 1.2696C263.723 1.41027 266.07 1.40083 266.344 1.40876C267.592 1.44422 267.564 1.59718 268.841 1.55012C268.402 1.45961 268.044 1.36816 267.632 1.27741ZM280.446 1.34199C279.461 1.42131 281.224 1.41997 281.295 1.43513C282.074 1.59603 276.794 1.56476 280.446 1.34199ZM196.729 1.1612C196.229 1.15583 196.546 1.23178 196.105 1.25421C195.663 1.27684 194.151 1.21184 194.189 1.2591C194.228 1.30646 196.998 1.42928 194.218 1.45588C194.312 1.48246 194.28 1.50229 194.326 1.52631C195.09 1.52701 195.861 1.52817 196.625 1.52887C196.206 1.45236 195.776 1.37187 195.373 1.29792C195.802 1.23702 196.043 1.31513 196.066 1.31513C196.066 1.31505 196.066 1.31497 196.066 1.31488C196.866 1.30876 197.854 1.17313 196.729 1.1612ZM236.143 1.3996C236.292 1.20946 235.112 1.42182 234.627 1.44538C234.143 1.46886 233.477 1.39847 233.727 1.48029C234.511 1.53675 236.126 1.42082 236.143 1.39936C236.143 1.39944 236.143 1.39952 236.143 1.3996ZM259.628 1.27778C258.393 1.32393 258.589 1.37337 257.078 1.31696C257.137 1.36292 257.195 1.40989 257.254 1.45515C258.454 1.45608 258.369 1.32266 259.758 1.37629C259.985 1.38516 259.498 1.49173 260.525 1.45747C260.226 1.40059 259.923 1.33746 259.628 1.27778ZM253.507 1.44819C254.925 1.44117 256.05 1.06927 253.438 1.23701C253.051 1.26208 252.441 1.45355 253.507 1.44819ZM209.809 1.1518C207.397 1.14108 210.137 1.20109 210.765 1.25824C205.15 1.30396 211.399 1.2426 211.959 1.43268C212.645 1.37856 213.93 1.25477 212.503 1.22162C211.908 1.20786 212.125 1.26446 212.089 1.26423C210.994 1.25022 211.126 1.15763 209.809 1.1518ZM270.192 1.26826C270.1 1.27106 270.243 1.33526 269.953 1.34809C269.664 1.36083 269.008 1.3159 268.943 1.3553C268.878 1.39494 270.194 1.42569 270.597 1.3968C271.001 1.36764 271.014 1.24354 270.192 1.26826ZM260.935 1.11005C259.73 1.15625 261.701 1.39278 261.963 1.39167C264.265 1.37931 260.867 1.18494 260.935 1.11005ZM215.41 0.750064C212.503 0.870214 214.63 1.079 216.451 1.20405C216.692 1.17863 216.938 1.15318 217.176 1.128C216.083 1.28244 214.168 1.4351 218.428 1.30048C216.096 1.26414 218.049 1.22264 218.064 1.21393C218.321 0.930238 214.867 1.06199 215.413 0.750064C215.412 0.750064 215.411 0.750064 215.41 0.750064ZM274.111 1.33589C275.376 1.33494 278.666 1.28594 277.131 1.1623C276.123 1.22015 275.119 1.27804 274.111 1.33589ZM167.81 0.766662C166.776 0.695971 165.822 0.697176 164.547 0.701842C165.695 0.80472 164.941 0.816539 164.554 0.841735C163.967 0.879663 165.389 0.876554 165.393 0.883483C165.367 0.981229 164.46 0.996409 166.525 0.994079C166.014 1.02813 165.51 1.06244 165 1.09625C166.574 1.10069 166.944 1.16446 167.942 1.24237C166.973 1.052 168.249 1.1712 169.407 1.07648C169.985 1.02905 168.336 0.802816 167.806 0.766662C167.807 0.766662 167.808 0.766662 167.81 0.766662ZM212.406 0.711856C212.106 0.746147 211.832 0.792537 211.543 0.831729C211.228 0.835462 210.912 0.838738 210.596 0.842471C210.557 0.812153 210.525 0.780438 210.479 0.751284C210.063 0.742459 210.225 0.784673 210.102 0.788638C210.102 0.788475 210.102 0.788312 210.102 0.78815C208.33 0.844114 207.604 0.83782 206.216 0.744082C206.216 0.836978 206.216 0.929874 206.216 1.02277C206.528 1.01391 206.844 1.00527 207.155 0.996646C207.321 0.94673 207.488 0.896782 207.654 0.846866C208.015 0.874395 208.372 0.901734 208.733 0.929263C209.023 0.911314 209.37 0.892427 209.62 0.874942C211.061 1.13459 207.787 0.958199 207.758 1.06598C207.738 1.13527 211.036 1.13224 211.511 1.08442C211.579 1.07742 210.866 0.884071 212.073 0.984806C212.261 1.00067 212.328 1.41896 213.628 1.08027C213.814 1.03222 213.166 0.772356 212.406 0.711856ZM200.433 0.576966C202.287 0.844555 195.445 0.561602 198.397 0.781801C197.555 0.904732 197.711 0.903133 198.56 1.01227C198.634 1.02205 198.048 1.05583 198.098 1.06012C198.891 1.12031 199.847 1.0884 199.854 1.19782C200.068 1.19199 200.27 1.1868 200.485 1.18097C199.591 1.07787 201.012 1.00858 201.562 0.921572C201.812 0.882163 201.237 0.870004 201.447 0.835512C201.525 0.822918 202.329 0.848061 202.362 0.811953C202.43 0.730297 201.926 0.619946 201.07 0.559755C201.07 0.559673 201.07 0.559592 201.07 0.55951C200.856 0.564874 200.647 0.571372 200.433 0.576966ZM240.053 0.799261C240.368 0.947174 241.633 0.989512 239.204 1.06183C239.324 1.09097 239.448 1.11986 239.568 1.14899C239.978 1.14643 240.374 1.14388 240.791 1.14155C242.039 0.705785 244.319 1.19755 242.859 0.888495C242.7 0.854899 241.728 0.892435 242.687 0.801214C242.686 0.801133 242.685 0.801051 242.683 0.80097C241.344 0.828968 241.175 0.881374 240.053 0.799261ZM231.087 0.90241C227.997 1.21363 235.356 1.07606 234.127 0.993475C234.016 0.98601 230.846 1.05289 231.087 0.90241ZM255.879 0.631537C254.494 0.626172 254.402 0.794092 254.541 0.85456C254.681 0.915212 255.64 0.853922 255.764 0.863471C256.168 0.894967 255.312 0.91577 255.836 0.958931C256.009 0.972947 258.422 1.03281 258.532 1.02558C259.146 0.985417 258.249 0.846861 258.424 0.831001C258.997 0.779003 259.774 0.851081 259.94 0.777412C260.297 0.620221 258.849 0.785231 258.604 0.78791C257.866 0.795375 257.93 0.706885 257.377 0.689154C256.825 0.671458 256.464 0.701772 255.976 0.695502C255.814 0.693408 255.949 0.632097 255.879 0.631537ZM251.299 0.986152C252.745 0.859039 249.223 0.720792 248.805 0.750555C247.576 0.838976 250.606 1.04681 251.299 0.986152ZM205.074 0.980777C206.397 0.888629 203.315 0.814044 202.434 0.851138C202.597 0.88943 204.619 1.0125 205.074 0.980777ZM216.217 0.750552C215.001 0.779248 216.614 0.986852 217.628 0.983586C218.223 0.847152 217.663 0.874194 217 0.868595C216.337 0.862944 217.166 0.7282 216.217 0.750552ZM270.903 0.783272C270.641 0.781106 266.411 0.893879 268.841 0.940743C269.027 0.944243 271.987 0.924387 272.212 0.90339C272.663 0.860927 271.579 0.789337 270.903 0.783272ZM222.051 0.549014C221.407 0.667036 220.774 0.66545 221.366 0.80402C221.366 0.80402 221.367 0.80402 221.368 0.80402C219.739 0.846458 219.667 0.562968 219.315 0.569033C218.087 0.590309 219.251 0.792086 218.48 0.858341C220.272 0.796058 219.758 0.932106 221.121 0.940739C221.427 0.942606 222.65 0.86136 222.829 0.810734C223.007 0.760085 222.383 0.608273 222.051 0.549014ZM276.878 0.753854C275.45 0.708633 274.143 0.899909 276.123 0.930246C277.089 0.945177 277.749 0.781383 276.878 0.753854ZM134.171 0.705989C134.389 0.756142 134.613 0.806084 134.847 0.85577C134.32 0.867897 133.793 0.880275 133.267 0.892636C133.683 0.876771 134.1 0.861147 134.519 0.845516C133.531 0.828019 133.079 0.736785 134.168 0.705989C134.169 0.705989 134.17 0.705989 134.171 0.705989ZM98.972 0.667778C98.5297 0.619485 97.6582 0.769028 97.7688 0.780694C98.6011 0.867621 99.5859 0.734738 98.972 0.667778ZM203.119 0.526551C201.475 0.505631 202.605 0.74878 203.613 0.765444C202.997 0.718943 204.052 0.538446 203.119 0.526551ZM111.351 0.67962C111.498 0.700523 111.647 0.721429 111.812 0.742365C111.292 0.713296 111.202 0.693747 111.351 0.67962ZM270.231 0.56855C269.979 0.549893 268.123 0.534484 267.872 0.557563C267.352 0.606089 268.8 0.740332 269.652 0.699043C269.746 0.694611 270.48 0.587214 270.227 0.56855C270.228 0.56855 270.229 0.56855 270.231 0.56855ZM131.946 0.612849C131.949 0.615177 131.948 0.617397 131.942 0.619441C131.944 0.617272 131.944 0.615028 131.946 0.612849ZM62.0159 0.365772C62.0261 0.369544 62.0314 0.373287 62.0302 0.37688C62.0264 0.373352 62.0185 0.36964 62.0159 0.365772ZM257.137 0.362127C256.519 0.130458 255.094 0.253679 256.22 0.36823C256.283 0.374251 256.987 0.361671 257.137 0.362127Z" fill="white"/>
</svg>
