<svg width="104" height="19" viewBox="0 0 104 19" fill="none" xmlns="http://www.w3.org/2000/svg">
<path fill-rule="evenodd" clip-rule="evenodd" d="M100.95 3.05836e-08C101.267 0.000931184 101.283 0.342644 101.36 0.591504C101.549 1.20649 101.648 1.88355 101.776 2.56486C101.791 2.69298 101.806 2.82116 101.821 2.94929C101.853 3.15372 101.849 3.33106 101.705 3.42813C101.483 3.57705 101.293 3.46435 101.22 3.25082C101.189 3.15925 101.195 3.04137 101.183 2.936C101.135 2.47374 101.058 2.01498 100.951 1.56243C100.934 1.49027 100.932 1.37212 100.89 1.32055C100.862 1.3355 100.716 1.75708 100.695 1.82091L100.545 2.21363C100.44 2.47407 100.286 3.10049 100.085 3.22598C99.9471 3.31232 99.731 3.26603 99.6588 3.15641C99.365 2.58096 99.0715 2.00546 98.7777 1.4299L98.7708 1.4299C98.743 1.44718 98.7205 1.8714 98.713 1.94521L98.6443 2.75542C98.6254 2.93202 98.6388 3.12408 98.5832 3.27074C98.5254 3.42447 98.3342 3.59755 98.1188 3.47763C97.9145 3.36421 97.9436 3.13738 97.9825 2.86622C97.9864 2.80601 97.99 2.7458 97.9943 2.68564C98.0923 2.06584 98.1139 1.40652 98.1835 0.770221C98.2208 0.427941 98.1907 0.0691596 98.527 0.0229669C98.7973 -0.0141732 98.8927 0.315229 98.9833 0.473669C99.2052 0.913765 99.4268 1.35395 99.6487 1.79422C99.6843 1.85753 99.832 2.1964 99.8774 2.21011C99.8784 2.20897 99.8801 2.20788 99.881 2.2068C100.082 1.68104 100.283 1.15525 100.485 0.629421C100.604 0.327643 100.6 0.0847812 100.95 3.05836e-08ZM95.7604 0.04971L97.0168 0.0612968C97.1452 0.0612968 97.4825 0.0275193 97.5694 0.0664701C97.6854 0.118197 97.8315 0.262672 97.8113 0.44408C97.7809 0.719011 97.3194 0.730857 96.9949 0.702716L96.768 0.704374C96.7674 1.40904 96.7667 2.11377 96.7661 2.81858C96.7661 3.12015 96.8203 3.39517 96.5935 3.48633C96.5491 3.50692 96.4997 3.51549 96.451 3.51114C96.0588 3.45461 96.1255 3.13355 96.1255 2.70261C96.1245 2.04049 96.1235 1.37828 96.1226 0.715961C96.1144 0.6887 95.8722 0.70934 95.817 0.70934C95.5509 0.70934 95.2725 0.695115 95.1231 0.574846C95.0976 0.545499 95.0793 0.510509 95.0699 0.472747C95.0604 0.434984 95.0601 0.395521 95.0689 0.357592C95.1009 0.21736 95.1816 0.101179 95.3205 0.0693145L95.5532 0.0610382L95.7604 0.04971Z" fill="#E4016A"/>
<path fill-rule="evenodd" clip-rule="evenodd" d="M64.131 3.25879C65.3562 3.3216 66.3439 4.61226 65.4781 5.79346C64.8915 6.59367 63.6793 6.09674 62.8877 5.89691C62.8707 5.91414 62.8531 5.9314 62.8361 5.94863C62.8707 6.05208 62.9047 6.15553 62.9397 6.25901C65.0464 6.80213 66.0481 9.46383 64.4937 11.38C63.3966 12.7327 61.1363 12.3582 59.2613 12.1559L59.1057 12.3111C59.0887 12.5353 59.0714 12.7594 59.0541 12.9836C59.5773 13.6064 61.4285 13.3335 62.5249 13.3457C64.5937 13.3686 66.6325 14.5755 65.6853 16.9666C64.9206 18.8973 62.0713 19.2715 59.5205 18.777C58.3468 18.5494 56.2359 18.0866 56.93 16.4493C57.1366 15.962 57.6857 15.8261 58.0181 15.4665C57.8056 15.1199 57.3889 14.9559 57.2409 14.5354C56.8026 13.2903 57.8563 12.2257 58.3805 11.6904C58.2066 11.1133 57.6853 10.8134 57.4997 10.1903C56.816 7.89065 58.5024 6.5493 60.1421 6.15553C60.6859 6.02488 61.4811 6.13391 61.9033 5.89691C62.2266 4.37094 62.8028 3.80417 64.131 3.25879ZM42.1132 3.51744C44.7601 3.71034 46.4017 4.70933 47.242 6.67283C49.085 10.9796 46.6697 14.73 42.8384 15.3113C38.7067 15.9382 36.0176 11.3068 37.2435 7.29354C37.7707 5.56698 38.9302 4.24627 40.6627 3.72433L42.1132 3.51744ZM41.7507 4.552C39.5139 5.96652 40.2251 14.1483 42.8904 14.3285C45.2559 13.0398 44.5768 4.53726 41.7507 4.552ZM54.3913 6.05208C56.4071 5.97672 57.434 7.77337 56.3084 9.36264C56.1388 9.60219 55.8643 9.68583 55.5312 9.77646C53.9641 10.2031 54.0164 8.92763 53.2 8.37983C52.9366 8.41752 52.8451 8.44708 52.7336 8.63844C52.4928 9.22862 52.6036 13.7236 52.8372 14.1216L53.9252 14.5871C53.9393 14.8902 53.9465 14.9866 53.7697 15.1044C53.2464 15.3216 48.5107 15.1161 48.382 14.9492C48.2679 14.6663 48.4088 14.5538 48.5372 14.3802C48.7791 14.2595 49.0209 14.1388 49.2624 14.0181C49.434 13.1081 49.4507 7.7275 49.2108 7.24181C48.9232 7.17198 47.9349 6.65118 48.5372 6.25901L52.4745 6.25901C52.567 6.55136 52.5859 7.04483 52.7853 7.24181C53.3402 6.81652 53.736 6.45325 54.3913 6.05208ZM70.089 6.1038C72.8993 6.06611 74.2854 6.6621 74.6998 9.00054C74.9619 10.4806 74.5148 12.2657 74.8034 13.6043L75.0622 13.7078C75.3358 13.5596 75.4508 13.3709 75.6322 13.1387C75.9296 13.1523 76.01 13.1896 76.1502 13.3457C76.0068 14.7672 74.404 15.9759 72.6794 15.2596C72.245 15.0792 72.029 14.7061 71.695 14.432C71.0037 14.6792 70.5044 15.1788 69.6746 15.363C67.6048 15.8222 65.8582 14.3914 66.307 12.3111C66.6619 10.6659 67.96 10.3637 69.7262 10.0868C70.2903 9.99839 70.9488 10.2295 71.3842 10.0868C71.4456 8.54105 71.5028 6.67587 69.7782 6.98317L69.7782 7.19009C70.8717 9.64434 67.7826 10.2979 66.9805 8.84537C65.888 6.86667 69.0327 6.50729 70.089 6.1038ZM80.2947 6.1038C81.9429 6.33368 84.5212 6.73079 83.2995 8.6902C82.4965 9.05671 80.9728 9.27129 80.7094 8.1729C80.5928 7.68869 80.8594 7.35831 80.7094 6.98317C80.0574 6.96064 79.86 7.0992 79.5178 7.34526C78.8096 10.0273 84.6829 9.34289 83.6623 13.2422C83.1233 15.3017 79.8845 16.0242 77.601 15.0527C77.1291 14.8518 76.1398 13.88 76.7719 13.1387C77.1869 12.2472 78.6946 12.5358 79.3106 12.9836C79.4028 13.3227 79.3257 14.3821 79.5178 14.5354C80.0793 14.7999 80.7607 14.4261 80.9166 14.0699C81.3176 12.4607 78.7138 11.9186 77.8599 11.2766C76.4186 10.1926 76.4823 7.70876 77.9635 6.72455C78.6338 6.27928 79.4172 6.43559 80.2947 6.1038ZM91.1224 6.15553C92.5973 6.19303 92.7607 6.81162 93.5056 7.50046L93.6092 7.50046C93.919 7.04525 94.2667 6.70529 94.8008 6.4659C99.3214 4.4396 98.1595 11.5297 98.8936 14.2767C99.24 14.3813 99.9277 14.6572 99.7224 15.1561C99.6878 15.2078 99.6535 15.2596 99.6188 15.3113C98.5017 15.3275 96.3234 15.6204 95.526 15.1561C95.4832 13.7536 95.2583 9.1612 94.7488 8.27638C94.5619 8.20913 94.3579 8.11274 94.1791 8.1729C93.8435 8.21341 93.7173 8.33481 93.5056 8.48327L93.5056 14.1216L94.438 14.794C94.4315 15.1038 94.3899 15.1409 94.2827 15.3113C93.5154 15.329 90.4377 15.4574 90.1899 15.1044C89.5801 13.5048 90.7266 9.61524 89.9308 8.22462C89.3791 8.06978 89.0549 8.20782 88.6875 8.48327C88.6705 10.3281 88.6532 12.173 88.6359 14.0181C88.7506 14.3679 89.2294 14.4319 89.4127 14.7423L89.4127 15.2078L84.4911 15.2078L84.3359 15.1044C84.3388 14.7903 84.3872 14.7135 84.4911 14.5354C84.8506 14.4589 85.0702 14.2543 85.3199 14.0699C85.332 12.7952 85.57 8.04552 85.1647 7.34526L84.3875 6.93144C84.3836 6.6573 84.415 6.51654 84.4911 6.36245L88.4803 6.41418C88.5493 6.75904 88.6182 7.10388 88.6875 7.44874L88.8947 7.44874C89.4863 6.59652 90.0661 6.58788 91.1224 6.15553ZM61.0225 6.93144C60.9019 7.01769 60.7807 7.10388 60.6601 7.19009C60.4032 8.41903 60.4689 12.2758 61.9553 11.38C62.2583 10.0461 62.2877 7.18617 61.0225 6.93144ZM70.6586 11.0179C70.3272 11.1731 70.0458 11.25 69.7782 11.4317C69.3621 12.3945 69.7703 14.3078 71.2286 13.656L71.3842 13.5526C71.3979 12.818 71.5339 11.6149 71.2806 11.0696L70.6586 11.0179ZM101.639 12.6732C103.536 12.5777 104.789 14.3492 103.194 15.3113C101.181 16.5244 99.0237 13.9088 101.639 12.6732ZM58.5877 15.7251C58.7619 16.9918 62.2318 18.9967 63.5613 17.639L63.5613 17.1218C63.0534 16.3826 59.8032 15.8169 58.5877 15.7251Z" fill="#E4016A"/>
<path fill-rule="evenodd" clip-rule="evenodd" d="M0.204797 3.5174L2.43249 3.82777L7.04331 3.82777C7.98852 3.82626 9.20747 3.3467 9.94449 3.67257C9.9272 5.00024 9.90995 6.32792 9.89266 7.65559L9.78905 7.70731C9.40876 7.70695 9.3685 7.64245 9.16737 7.50042C8.94895 6.80163 7.74663 4.42383 6.73247 4.91402C6.71518 7.08637 6.69792 9.25895 6.68067 11.4317C6.68067 12.3106 6.52938 13.6254 6.88787 14.1733L7.924 14.5871C7.97479 14.8302 7.96508 14.9699 7.8722 15.1561C6.82234 15.3572 2.65754 15.4032 1.96623 15.0009C1.9835 14.8974 2.00077 14.794 2.01803 14.6905C2.26624 14.2691 2.95108 14.3651 3.20959 13.9663C3.46727 13.4912 3.3132 12.3565 3.3132 11.6903C3.3132 10.287 3.62875 5.73025 3.20959 4.81058L2.43249 4.81058C1.94416 5.74634 1.30642 6.98312 0.567446 7.70731L0.101184 7.55214C0.0877657 6.3799 -0.175465 4.47434 0.204797 3.5174ZM13.4155 6.10376C14.9766 6.0417 17.9503 6.55825 17.0938 8.27634C16.7769 9.10064 15.0682 9.26085 14.5035 8.53495C14.1609 8.09475 14.4694 7.51075 14.3481 6.98312C13.8276 6.89177 13.3716 6.98374 13.1565 7.34522C12.4698 8.39436 13.8135 8.9253 14.3999 9.25915C15.7119 10.0061 18.1886 11.0513 17.1456 13.5525C16.175 15.8803 9.47439 16.2912 10.3071 13.087C11.0457 12.5006 12.0224 12.3585 12.8975 12.9318C13.0265 13.3691 12.9112 14.1905 13.0529 14.5354C13.7901 14.6154 14.1879 14.4387 14.5553 14.0181C14.4949 11.1997 9.57946 12.1337 10.4107 8.48323C10.5697 7.78539 10.8151 7.24632 11.2915 6.87967C11.9124 6.40181 12.5773 6.43529 13.4155 6.10376ZM21.7046 6.10376C22.967 6.16258 26.2697 6.91031 24.8649 8.48323C24.4349 9.38545 22.5198 9.03577 22.2227 8.27634C22.0548 7.84699 22.3252 7.3667 22.1709 6.98312C21.3858 6.95589 21.2115 7.15778 20.8757 7.55214C20.9217 10.201 26.4246 9.5553 25.0721 13.4491C24.2889 15.7037 18.0356 16.5406 18.0782 13.3973C18.4141 12.6707 20.121 12.075 20.7721 12.9835C21.0674 13.3956 20.7898 14.1125 20.8757 14.5354L20.9793 14.5354C21.5354 14.7854 22.1027 14.3887 22.3781 14.1733C22.5251 12.2693 20.368 12.0576 19.2697 11.2248C17.9694 10.2383 17.9483 7.80409 19.2697 6.82795C19.97 6.31069 20.7518 6.4652 21.7046 6.10376ZM27.0407 12.6214C28.8807 12.5265 30.2079 14.2437 28.6468 15.2078C26.6107 16.4651 24.3493 13.7815 27.0407 12.6214ZM31.4961 12.6214C33.5365 12.5314 34.316 14.7109 32.6877 15.363C30.4986 16.2396 28.7254 13.6789 31.4961 12.6214Z" fill="#E4016A"/>
</svg>
