<svg width="108" height="21" viewBox="0 0 108 21" fill="none" xmlns="http://www.w3.org/2000/svg">
<g clip-path="url(#clip0_2736_172)">
<path fill-rule="evenodd" clip-rule="evenodd" d="M104.941 0.345108C105.268 0.346067 105.284 0.698032 105.363 0.95436C105.558 1.5878 105.66 2.28517 105.792 2.98692C105.808 3.11889 105.823 3.25092 105.838 3.38289C105.871 3.59345 105.867 3.77611 105.718 3.87609C105.49 4.02949 105.295 3.91341 105.219 3.69347C105.187 3.59914 105.193 3.47773 105.181 3.3692C105.132 2.89307 105.052 2.42054 104.942 1.95442C104.925 1.88009 104.923 1.7584 104.879 1.70528C104.85 1.72068 104.7 2.1549 104.679 2.22065L104.523 2.62515C104.415 2.89341 104.257 3.53863 104.05 3.66787C103.908 3.75681 103.685 3.70913 103.611 3.59622C103.308 3.0035 103.005 2.41074 102.703 1.81791H102.696C102.667 1.83571 102.644 2.27265 102.636 2.34868L102.565 3.1832C102.546 3.36509 102.56 3.56292 102.502 3.71398C102.443 3.87232 102.246 4.0506 102.024 3.92708C101.813 3.81026 101.843 3.57662 101.884 3.29733C101.888 3.23531 101.891 3.17329 101.896 3.11133C101.997 2.47293 102.019 1.79383 102.091 1.13844C102.129 0.785889 102.098 0.416343 102.444 0.368764C102.723 0.33051 102.821 0.669795 102.915 0.832988C103.143 1.28629 103.371 1.73968 103.6 2.19316C103.637 2.25837 103.789 2.60741 103.836 2.62153C103.837 2.62036 103.839 2.61923 103.84 2.61812C104.047 2.07658 104.254 1.53502 104.462 0.993413C104.585 0.682582 104.58 0.432433 104.941 0.345108ZM99.5941 0.39631L100.888 0.408244C101.021 0.408244 101.368 0.373453 101.458 0.413572C101.577 0.466852 101.728 0.615661 101.707 0.802512C101.676 1.08569 101.2 1.09789 100.866 1.06891L100.632 1.07062C100.632 1.79642 100.631 2.5223 100.63 3.24825C100.63 3.55887 100.686 3.84215 100.452 3.93604C100.407 3.95725 100.356 3.96607 100.306 3.9616C99.9015 3.90337 99.9702 3.57267 99.9702 3.1288C99.9692 2.44682 99.9682 1.76474 99.9672 1.08255C99.9588 1.05447 99.7093 1.07573 99.6523 1.07573C99.3782 1.07573 99.0914 1.06108 98.9375 0.937202C98.9112 0.906974 98.8923 0.870934 98.8826 0.832039C98.8728 0.793143 98.8725 0.752496 98.8816 0.713429C98.9146 0.56899 98.9977 0.449322 99.1409 0.416502L99.3806 0.407978L99.5941 0.39631Z" fill="white"/>
<path fill-rule="evenodd" clip-rule="evenodd" d="M67.0223 3.70174C68.2846 3.76643 69.3021 5.09582 68.4102 6.31246C67.8058 7.13668 66.557 6.62484 65.7415 6.41901C65.724 6.43676 65.7059 6.45454 65.6883 6.47228C65.724 6.57884 65.7591 6.68539 65.7951 6.79197C67.9654 7.35139 68.9974 10.0929 67.3961 12.0666C66.2658 13.4599 63.9372 13.0741 62.0056 12.8658L61.8453 13.0256C61.8278 13.2565 61.81 13.4874 61.7921 13.7183C62.3312 14.3598 64.2382 14.0787 65.3678 14.0912C67.4991 14.1149 69.5994 15.358 68.6236 17.8208C67.8358 19.8094 64.9005 20.1949 62.2726 19.6856C61.0635 19.4512 58.8888 18.9744 59.6039 17.288C59.8167 16.7861 60.3824 16.6461 60.7248 16.2757C60.5059 15.9187 60.0767 15.7498 59.9241 15.3167C59.4726 14.0342 60.5581 12.9377 61.0982 12.3863C60.9191 11.7919 60.382 11.483 60.1908 10.8412C59.4864 8.47256 61.2238 7.09098 62.913 6.68539C63.4732 6.55082 64.2924 6.66313 64.7274 6.41901C65.0604 4.84725 65.654 4.26348 67.0223 3.70174ZM44.3396 3.96815C47.0664 4.16683 48.7577 5.1958 49.6233 7.21821C51.5219 11.6542 49.0338 15.5172 45.0867 16.1159C40.8302 16.7615 38.0599 11.9912 39.3228 7.85754C39.8659 6.07919 41.0605 4.71885 42.8453 4.18125L44.3396 3.96815ZM43.9662 5.03375C41.6618 6.49071 42.3945 14.918 45.1402 15.1035C47.5772 13.7762 46.8776 5.01856 43.9662 5.03375ZM56.9885 6.57884C59.0652 6.50121 60.1231 8.35177 58.9635 9.98872C58.7888 10.2355 58.506 10.3216 58.1629 10.415C56.5484 10.8544 56.6023 9.54066 55.7612 8.97642C55.4899 9.01525 55.3956 9.04569 55.2808 9.2428C55.0326 9.85068 55.1468 14.4805 55.3875 14.8904L56.5084 15.37C56.5228 15.6821 56.5303 15.7814 56.3481 15.9027C55.8091 16.1265 50.9303 15.9148 50.7977 15.7429C50.6802 15.4515 50.8253 15.3356 50.9576 15.1568C51.2068 15.0325 51.4559 14.9082 51.7047 14.7839C51.8815 13.8465 51.8987 8.30452 51.6516 7.80427C51.3553 7.73233 50.3371 7.19591 50.9576 6.79197H55.0138C55.1091 7.0931 55.1286 7.60137 55.334 7.80427C55.9057 7.36621 56.3134 6.99204 56.9885 6.57884ZM73.1603 6.63211C76.0555 6.59328 77.4834 7.20716 77.9104 9.61576C78.1804 11.1402 77.7198 12.9789 78.0171 14.3576L78.2838 14.4642C78.5656 14.3116 78.6841 14.1172 78.8709 13.8781C79.1773 13.8921 79.2602 13.9305 79.4046 14.0912C79.2568 15.5554 77.6057 16.8004 75.8289 16.0626C75.3814 15.8768 75.1589 15.4925 74.8148 15.2101C74.1027 15.4648 73.5882 15.9794 72.7333 16.1692C70.6011 16.6421 68.8018 15.1683 69.264 13.0256C69.6297 11.331 70.967 11.0198 72.7865 10.7346C73.3677 10.6435 74.0461 10.8816 74.4946 10.7346C74.5579 9.14248 74.6168 7.22134 72.8401 7.53786V7.75099C73.9667 10.2789 70.7842 10.9521 69.958 9.45593C68.8324 7.41787 72.0721 7.0477 73.1603 6.63211ZM83.6742 6.63211C85.3722 6.86889 88.0284 7.27791 86.7698 9.29611C85.9425 9.67361 84.3729 9.89463 84.1015 8.76329C83.9813 8.26455 84.256 7.92425 84.1015 7.53786C83.4298 7.51465 83.2264 7.65737 82.8739 7.91082C82.1443 10.6734 88.195 9.96838 87.1435 13.9847C86.5883 16.1059 83.2517 16.8501 80.8992 15.8495C80.413 15.6426 79.3938 14.6416 80.045 13.8781C80.4726 12.9598 82.0258 13.2571 82.6604 13.7183C82.7554 14.0676 82.6759 15.1587 82.8739 15.3167C83.4523 15.5892 84.1544 15.2041 84.315 14.8372C84.7281 13.1797 82.0456 12.6213 81.1659 11.9601C79.681 10.8435 79.7467 8.28523 81.2726 7.27148C81.9632 6.81285 82.7702 6.97385 83.6742 6.63211ZM94.8289 6.68539C96.3484 6.72401 96.5168 7.36116 97.2841 8.07068H97.3908C97.71 7.60181 98.0683 7.25165 98.6184 7.00507C103.276 4.91797 102.079 12.2208 102.835 15.0503C103.192 15.158 103.9 15.4421 103.689 15.956C103.653 16.0093 103.618 16.0626 103.582 16.1159C102.431 16.1326 100.187 16.4342 99.3655 15.956C99.3214 14.5114 99.0898 9.78124 98.5649 8.86987C98.3723 8.8006 98.1622 8.70132 97.978 8.76329C97.6322 8.80501 97.5023 8.93005 97.2841 9.08297V14.8904L98.2447 15.5831C98.2379 15.9021 98.1952 15.9404 98.0848 16.1159C97.2942 16.1341 94.1235 16.2664 93.8683 15.9027C93.2401 14.2552 94.4212 10.2489 93.6013 8.81656C93.033 8.65707 92.699 8.79925 92.3205 9.08297C92.303 10.9831 92.2852 12.8834 92.2673 14.7839C92.3855 15.1442 92.8788 15.2101 93.0677 15.5298V16.0093H87.9974L87.8375 15.9027C87.8405 15.5792 87.8903 15.5001 87.9974 15.3167C88.3677 15.2379 88.594 15.0271 88.8512 14.8372C88.8637 13.5242 89.1088 8.63209 88.6913 7.91082L87.8907 7.48458C87.8866 7.20221 87.9189 7.05723 87.9974 6.89852L92.1071 6.95179C92.1781 7.30701 92.2492 7.66219 92.3205 8.0174H92.534C93.1434 7.13961 93.7407 7.13072 94.8289 6.68539ZM63.82 7.48458C63.6958 7.57342 63.5709 7.66219 63.4466 7.75099C63.182 9.0168 63.2497 12.9893 64.781 12.0666C65.0931 10.6927 65.1234 7.74695 63.82 7.48458ZM73.7471 11.6937C73.4057 11.8535 73.1158 11.9327 72.8401 12.1199C72.4115 13.1116 72.832 15.0822 74.3343 14.4109L74.4946 14.3044C74.5087 13.5478 74.6488 12.3085 74.3879 11.7469L73.7471 11.6937ZM105.663 13.3986C107.617 13.3003 108.908 15.1249 107.265 16.1159C105.192 17.3653 102.969 14.6713 105.663 13.3986ZM61.3117 16.5421C61.4911 17.8468 65.0658 19.9118 66.4355 18.5134V17.9806C65.9122 17.2193 62.5638 16.6367 61.3117 16.5421Z" fill="white"/>
<path fill-rule="evenodd" clip-rule="evenodd" d="M1.1563 3.96806L3.45127 4.28775H8.20134C9.17509 4.2862 10.4309 3.79224 11.1901 4.12789C11.1723 5.4954 11.1546 6.86291 11.1367 8.23042L11.03 8.2837C10.6382 8.28332 10.5968 8.21688 10.3896 8.07059C10.1645 7.35084 8.92591 4.90169 7.88111 5.4066C7.8633 7.64412 7.84552 9.88188 7.82774 12.1198C7.82774 13.0251 7.67189 14.3794 8.04121 14.9436L9.10863 15.3699C9.16095 15.6203 9.15095 15.7642 9.05526 15.9559C7.9737 16.1631 3.68312 16.2105 2.97093 15.7961C2.98872 15.6896 3.00651 15.583 3.0243 15.4764C3.28 15.0424 3.98552 15.1412 4.25184 14.7305C4.5173 14.2411 4.35858 13.0724 4.35858 12.3862C4.35858 10.9408 4.68366 6.24731 4.25184 5.30005H3.45127C2.94819 6.26388 2.29119 7.53777 1.5299 8.2837L1.04955 8.12387C1.03573 6.91645 0.764548 4.95372 1.1563 3.96806ZM14.766 6.63203C16.3742 6.56811 19.4377 7.10016 18.5554 8.86979C18.2289 9.71883 16.4686 9.88384 15.8868 9.13617C15.5339 8.68275 15.8517 8.08124 15.7267 7.53777C15.1905 7.44368 14.7208 7.53841 14.4992 7.91073C13.7917 8.99136 15.176 9.53822 15.7801 9.88209C17.1318 10.6515 19.6832 11.728 18.6088 14.3043C17.6089 16.7019 10.7058 17.1252 11.5637 13.8248C12.3246 13.2207 13.3308 13.0744 14.2323 13.6649C14.3652 14.1153 14.2465 14.9614 14.3924 15.3166C15.1519 15.399 15.5618 15.2171 15.9402 14.7838C15.878 11.8808 10.8141 12.8429 11.6705 9.08289C11.8342 8.36411 12.087 7.80887 12.5778 7.43122C13.2175 6.93902 13.9024 6.9735 14.766 6.63203ZM23.3055 6.63203C24.6059 6.69261 28.0084 7.46278 26.5611 9.08289C26.1181 10.0122 24.1452 9.65201 23.8392 8.86979C23.6662 8.42756 23.9447 7.93286 23.7858 7.53777C22.977 7.50972 22.7974 7.71767 22.4515 8.12387C22.4989 10.8522 28.168 10.1871 26.7746 14.1977C25.9678 16.52 19.5256 17.382 19.5695 14.1444C19.9155 13.396 21.674 12.7824 22.3448 13.7182C22.649 14.1427 22.363 14.881 22.4515 15.3166H22.5583C23.1311 15.5742 23.7155 15.1655 23.9993 14.9436C24.1507 12.9826 21.9285 12.7645 20.797 11.9067C19.4574 10.8906 19.4357 8.38338 20.797 7.37795C21.5184 6.84516 22.3239 7.00431 23.3055 6.63203ZM28.8027 13.3452C30.6983 13.2475 32.0655 15.0162 30.4573 16.0092C28.3597 17.3043 26.03 14.5401 28.8027 13.3452ZM33.3927 13.3452C35.4947 13.2525 36.2977 15.4974 34.6203 16.1691C32.365 17.072 30.5383 14.4345 33.3927 13.3452Z" fill="white"/>
</g>
<defs>
<clipPath id="clip0_2736_172">
<rect width="107.069" height="19.8688" fill="white" transform="translate(0.929688 0.22998)"/>
</clipPath>
</defs>
</svg>
