<svg width="146" height="35" viewBox="0 0 146 35" fill="none" xmlns="http://www.w3.org/2000/svg">
<g clip-path="url(#clip0_2895_26)">
<path fill-rule="evenodd" clip-rule="evenodd" d="M141.693 9.46362C142.069 9.46472 142.087 9.86851 142.178 10.1626C142.401 10.8893 142.518 11.6893 142.67 12.4944C142.688 12.6458 142.705 12.7973 142.723 12.9487C142.76 13.1902 142.756 13.3998 142.585 13.5145C142.324 13.6905 142.099 13.5573 142.013 13.305C141.975 13.1968 141.983 13.0575 141.969 12.933C141.912 12.3867 141.821 11.8446 141.695 11.3099C141.675 11.2246 141.673 11.085 141.622 11.0241C141.589 11.0417 141.417 11.5399 141.393 11.6153L141.214 12.0794C141.09 12.3871 140.909 13.1273 140.671 13.2756C140.508 13.3776 140.253 13.3229 140.167 13.1934C139.82 12.5134 139.473 11.8334 139.126 11.1533H139.118C139.085 11.1737 139.058 11.675 139.049 11.7622L138.968 12.7196C138.946 12.9282 138.962 13.1552 138.896 13.3285C138.827 13.5102 138.601 13.7147 138.347 13.573C138.105 13.439 138.14 13.1709 138.186 12.8505C138.19 12.7794 138.195 12.7082 138.2 12.6371C138.316 11.9047 138.341 11.1256 138.423 10.3738C138.467 9.9693 138.432 9.54535 138.829 9.49076C139.149 9.44688 139.262 9.83611 139.369 10.0233C139.631 10.5434 139.893 11.0635 140.155 11.5838C140.197 11.6586 140.372 12.059 140.426 12.0752C140.427 12.0739 140.429 12.0726 140.43 12.0713C140.667 11.45 140.905 10.8287 141.144 10.2074C141.285 9.85078 141.279 9.56381 141.693 9.46362ZM135.559 9.52236L137.044 9.53605C137.196 9.53605 137.595 9.49614 137.698 9.54217C137.835 9.60329 138.007 9.77401 137.983 9.98837C137.947 10.3132 137.402 10.3272 137.018 10.294L136.75 10.2959C136.75 11.1286 136.749 11.9614 136.748 12.7942C136.748 13.1506 136.812 13.4755 136.544 13.5833C136.491 13.6076 136.433 13.6177 136.376 13.6126C135.912 13.5458 135.991 13.1664 135.991 12.6572C135.99 11.8748 135.989 11.0923 135.987 10.3096C135.978 10.2774 135.691 10.3018 135.626 10.3018C135.312 10.3018 134.983 10.285 134.806 10.1429C134.776 10.1082 134.754 10.0669 134.743 10.0222C134.732 9.97762 134.731 9.93099 134.742 9.88617C134.78 9.72047 134.875 9.58318 135.039 9.54553L135.314 9.53575L135.559 9.52236Z" fill="white"/>
<path fill-rule="evenodd" clip-rule="evenodd" d="M98.1849 13.3145C99.633 13.3887 100.8 14.9138 99.7771 16.3096C99.0837 17.2551 97.6511 16.6679 96.7155 16.4318C96.6954 16.4522 96.6746 16.4726 96.6545 16.4929C96.6954 16.6152 96.7356 16.7374 96.7769 16.8597C99.2668 17.5015 100.451 20.6467 98.6136 22.9109C97.3169 24.5094 94.6455 24.0668 92.4295 23.8278L92.2456 24.0111C92.2256 24.276 92.2051 24.5409 92.1846 24.8058C92.803 25.5417 94.9908 25.2193 96.2868 25.2336C98.7318 25.2608 101.141 26.6869 100.022 29.5123C99.1181 31.7937 95.7506 32.236 92.7358 31.6516C91.3487 31.3827 88.8538 30.8358 89.6743 28.9011C89.9184 28.3253 90.5673 28.1647 90.9602 27.7397C90.7091 27.3302 90.2166 27.1364 90.0416 26.6395C89.5236 25.1682 90.769 23.9102 91.3885 23.2777C91.183 22.5958 90.5669 22.2414 90.3475 21.5051C89.5395 18.7877 91.5326 17.2027 93.4705 16.7374C94.1133 16.583 95.053 16.7119 95.5521 16.4318C95.9341 14.6286 96.6151 13.9589 98.1849 13.3145ZM72.1625 13.6201C75.2908 13.848 77.2311 15.0285 78.2242 17.3487C80.4023 22.4378 77.5478 26.8695 73.0196 27.5564C68.1364 28.2971 64.9582 22.8244 66.4071 18.0821C67.0301 16.0419 68.4006 14.4813 70.4482 13.8646L72.1625 13.6201ZM71.7341 14.8426C69.0905 16.514 69.931 26.1821 73.081 26.395C75.8768 24.8723 75.0742 14.8252 71.7341 14.8426ZM86.6737 16.6152C89.0562 16.5261 90.2699 18.6491 88.9396 20.5271C88.7391 20.8102 88.4147 20.909 88.021 21.0161C86.1689 21.5202 86.2307 20.0131 85.2658 19.3657C84.9545 19.4103 84.8463 19.4452 84.7146 19.6713C84.4299 20.3687 84.5609 25.6803 84.837 26.1505L86.1229 26.7006C86.1395 27.0588 86.148 27.1726 85.9391 27.3118C85.3207 27.5686 79.7236 27.3257 79.5715 27.1285C79.4366 26.7942 79.6031 26.6612 79.7549 26.4561C80.0408 26.3135 80.3266 26.1709 80.6121 26.0283C80.8148 24.9529 80.8346 18.5949 80.551 18.021C80.2111 17.9385 79.043 17.3231 79.7549 16.8597H84.4083C84.5176 17.2051 84.54 17.7882 84.7756 18.021C85.4315 17.5185 85.8993 17.0892 86.6737 16.6152ZM105.227 16.6763C108.548 16.6317 110.186 17.336 110.676 20.0992C110.986 21.8481 110.457 23.9576 110.798 25.5392L111.104 25.6615C111.428 25.4865 111.564 25.2635 111.778 24.9891C112.13 25.0052 112.225 25.0492 112.39 25.2336C112.221 26.9134 110.326 28.3417 108.288 27.4952C107.775 27.2821 107.519 26.8412 107.125 26.5173C106.308 26.8094 105.717 27.3998 104.737 27.6175C102.291 28.1601 100.226 26.4693 100.757 24.0111C101.176 22.067 102.71 21.7099 104.798 21.3828C105.464 21.2783 106.243 21.5515 106.757 21.3828C106.83 19.5563 106.898 17.3523 104.859 17.7154V17.9599C106.152 20.86 102.501 21.6323 101.553 19.9159C100.261 17.5777 103.978 17.1531 105.227 16.6763ZM117.288 16.6763C119.236 16.9479 122.284 17.4172 120.84 19.7325C119.891 20.1656 118.09 20.4191 117.779 19.1212C117.641 18.5491 117.956 18.1587 117.779 17.7154C117.008 17.6888 116.775 17.8525 116.37 18.1432C115.533 21.3125 122.475 20.5038 121.269 25.1114C120.632 27.545 116.804 28.3987 114.105 27.2507C113.547 27.0134 112.378 25.865 113.125 24.9891C113.615 23.9357 115.397 24.2767 116.125 24.8058C116.234 25.2066 116.143 26.4583 116.37 26.6395C117.034 26.9521 117.839 26.5104 118.024 26.0894C118.498 24.1879 115.42 23.5473 114.411 22.7887C112.707 21.5078 112.783 18.5728 114.533 17.4098C115.325 16.8836 116.251 17.0683 117.288 16.6763ZM130.086 16.7374C131.829 16.7817 132.022 17.5127 132.902 18.3266H133.025C133.391 17.7887 133.802 17.387 134.433 17.1041C139.776 14.7098 138.403 23.0878 139.27 26.3339C139.68 26.4575 140.492 26.7834 140.25 27.373C140.209 27.4341 140.168 27.4952 140.127 27.5564C138.807 27.5755 136.233 27.9216 135.29 27.373C135.239 25.7157 134.974 20.2891 134.372 19.2435C134.151 19.164 133.91 19.0501 133.698 19.1212C133.302 19.1691 133.152 19.3125 132.902 19.488V26.1505L134.004 26.9451C133.996 27.3111 133.947 27.355 133.821 27.5564C132.914 27.5773 129.276 27.729 128.984 27.3118C128.263 25.4217 129.618 20.8256 128.677 19.1824C128.025 18.9994 127.642 19.1625 127.208 19.488C127.188 21.6679 127.167 23.848 127.147 26.0283C127.282 26.4416 127.848 26.5172 128.065 26.884V27.4341H122.248L122.065 27.3118C122.068 26.9406 122.125 26.8499 122.248 26.6395C122.673 26.5491 122.933 26.3073 123.228 26.0894C123.242 24.5832 123.523 18.9707 123.044 18.1432L122.126 17.6543C122.121 17.3303 122.158 17.164 122.248 16.9819L126.963 17.043C127.044 17.4505 127.126 17.858 127.208 18.2655H127.453C128.152 17.2585 128.837 17.2483 130.086 16.7374ZM94.5111 17.6543C94.3686 17.7562 94.2253 17.858 94.0827 17.9599C93.7791 19.4121 93.8568 23.9695 95.6135 22.9109C95.9716 21.3347 96.0063 17.9553 94.5111 17.6543ZM105.9 22.4831C105.508 22.6664 105.176 22.7573 104.859 22.972C104.367 24.1097 104.85 26.3705 106.573 25.6004L106.757 25.4781C106.774 24.6102 106.934 23.1885 106.635 22.5442L105.9 22.4831ZM142.515 24.439C144.757 24.3262 146.238 26.4194 144.352 27.5564C141.974 28.9898 139.424 25.8991 142.515 24.439ZM91.6334 28.0454C91.8393 29.5421 95.9403 31.9112 97.5116 30.3069V29.6957C96.9114 28.8222 93.0699 28.1538 91.6334 28.0454Z" fill="white"/>
<path fill-rule="evenodd" clip-rule="evenodd" d="M22.6249 13.62L25.2577 13.9867H30.7072C31.8243 13.985 33.2649 13.4183 34.136 13.8034C34.1156 15.3722 34.0952 16.9411 34.0748 18.5099L33.9523 18.571C33.5028 18.5706 33.4553 18.4944 33.2176 18.3266C32.9594 17.5008 31.5384 14.6911 30.3398 15.2703C30.3194 17.8373 30.299 20.4045 30.2786 22.972C30.2786 24.0105 30.0998 25.5642 30.5235 26.2115L31.748 26.7005C31.8081 26.9878 31.7966 27.1529 31.6868 27.3729C30.446 27.6106 25.5237 27.6649 24.7067 27.1895C24.7271 27.0673 24.7475 26.945 24.7679 26.8228C25.0612 26.3248 25.8706 26.4382 26.1762 25.967C26.4807 25.4055 26.2986 24.0648 26.2986 23.2776C26.2986 21.6193 26.6716 16.2348 26.1762 15.1481H25.2577C24.6806 16.2538 23.9268 17.7153 23.0535 18.571L22.5024 18.3877C22.4865 17.0025 22.1754 14.7508 22.6249 13.62ZM38.2384 16.6762C40.0833 16.6029 43.5979 17.2132 42.5857 19.2434C42.2111 20.2175 40.1916 20.4068 39.5242 19.549C39.1194 19.0288 39.484 18.3388 39.3405 17.7153C38.7254 17.6073 38.1865 17.716 37.9322 18.1432C37.1206 19.3829 38.7088 20.0103 39.4017 20.4048C40.9524 21.2874 43.8796 22.5224 42.6469 25.478C41.4998 28.2286 33.5804 28.7142 34.5646 24.9279C35.4375 24.235 36.5919 24.0671 37.6261 24.7446C37.7786 25.2613 37.6424 26.2319 37.8098 26.6394C38.6811 26.7339 39.1513 26.5252 39.5854 26.0281C39.5141 22.6978 33.7046 23.8015 34.6871 19.4879C34.8749 18.6633 35.165 18.0263 35.728 17.593C36.4619 17.0284 37.2476 17.0679 38.2384 16.6762ZM48.0351 16.6762C49.527 16.7457 53.4305 17.6292 51.7701 19.4879C51.2619 20.554 48.9985 20.1408 48.6474 19.2434C48.4489 18.7361 48.7685 18.1685 48.5861 17.7153C47.6583 17.6831 47.4523 17.9217 47.0554 18.3877C47.1098 21.5176 53.6135 20.7547 52.015 25.3558C51.0894 28.02 43.6987 29.0089 43.749 25.2947C44.146 24.4361 46.1634 23.7321 46.933 24.8057C47.282 25.2927 46.9539 26.1397 47.0554 26.6394H47.1779C47.8351 26.9349 48.5056 26.4661 48.8311 26.2115C49.0048 23.9618 46.4554 23.7116 45.1573 22.7275C43.6205 21.5618 43.5956 18.6854 45.1573 17.5319C45.9849 16.9207 46.909 17.1033 48.0351 16.6762ZM54.3418 24.3778C56.5164 24.2657 58.085 26.2948 56.2399 27.434C53.8335 28.9197 51.1607 25.7486 54.3418 24.3778ZM59.6075 24.3778C62.019 24.2714 62.9402 26.8468 61.0158 27.6174C58.4285 28.6532 56.3328 25.6274 59.6075 24.3778Z" fill="white"/>
</g>
<path d="M8.19429 28.0212C6.72647 28.0212 5.46605 27.6989 4.41305 27.0543C3.36642 26.4098 2.55912 25.5195 1.99114 24.3835C1.42953 23.2412 1.14873 21.9265 1.14873 20.4396C1.14873 18.9462 1.43592 17.6284 2.01028 16.486C2.58465 15.3373 3.39514 14.4438 4.44176 13.8056C5.49477 13.1611 6.73923 12.8388 8.17514 12.8388C9.36855 12.8388 10.4247 13.059 11.3437 13.4993C12.2691 13.9333 13.0062 14.5491 13.555 15.3468C14.1039 16.1382 14.4166 17.0636 14.4932 18.1229H11.181C11.047 17.4146 10.7279 16.8242 10.2237 16.352C9.72593 15.8733 9.05903 15.634 8.22301 15.634C7.51462 15.634 6.89239 15.8255 6.35632 16.2084C5.82024 16.5849 5.40223 17.1274 5.10229 17.8358C4.80872 18.5442 4.66194 19.3929 4.66194 20.3821C4.66194 21.3841 4.80872 22.2456 5.10229 22.9668C5.39585 23.6815 5.80748 24.2336 6.33717 24.6229C6.87325 25.0058 7.50186 25.1972 8.22301 25.1972C8.73356 25.1972 9.18986 25.1015 9.59191 24.91C10.0004 24.7122 10.3418 24.4282 10.6162 24.0581C10.8906 23.6879 11.0789 23.238 11.181 22.7083H14.4932C14.4102 23.7485 14.1039 24.6707 13.5742 25.4748C13.0445 26.2726 12.3233 26.898 11.4107 27.3511C10.4981 27.7978 9.42599 28.0212 8.19429 28.0212Z" fill="white"/>
<defs>
<clipPath id="clip0_2895_26">
<rect width="122.833" height="22.7941" fill="white" transform="translate(22.3672 9.33154)"/>
</clipPath>
</defs>
</svg>
