<svg width="375" height="53" viewBox="0 0 375 53" fill="none" xmlns="http://www.w3.org/2000/svg">
<path fill-rule="evenodd" clip-rule="evenodd" d="M0 43.5C3.5 46 8.52583 49.8768 26.0892 51.3437C44.0517 52.8107 63.6384 52.1841 81.6009 46.3163C99.1642 40.4484 115.798 40.3737 134 45.3932C151.5 50.2191 162 51.4904 180 51.4904C198.024 51.4904 221.282 41.7596 239.244 43.2265C256.808 44.6935 274.77 52.8107 292.333 52.8107C309.897 52.8107 327.859 42.1944 345.422 39.2605C363.385 36.3265 368.5 48 375 47.5V0C357.038 0 363.385 0 345.422 0C327.859 0 309.897 0 292.333 0C274.77 0 256.808 0 239.244 0C221.282 0 203.718 0 185.756 0C168.192 0 150.23 0 132.667 0C115.103 0 97.1408 0 79.5775 0C61.615 0 44.0517 0 26.0892 0C8.52583 0 8.78167 0 0 0L0 43.5Z" fill="#F6517C"/>
</svg>
