<svg width="1358" height="106" viewBox="0 0 1358 106" fill="none" xmlns="http://www.w3.org/2000/svg">
<path fill-rule="evenodd" clip-rule="evenodd" d="M0 73.8463C12.6747 82.3929 30.8749 95.6464 94.4776 100.661C159.526 105.676 230.456 103.534 295.504 83.4741C359.107 63.4138 419.342 63.1584 485.259 80.3186C548.632 96.8165 586.656 101.163 651.84 101.163C717.11 101.163 801.335 67.8963 866.383 72.9114C929.986 77.9265 995.034 105.676 1058.64 105.676C1122.24 105.676 1187.29 69.3828 1250.89 59.3527C1315.94 49.3225 1334.46 89.2303 1358 87.5209V0C1292.95 0 1315.94 0 1250.89 0C1187.29 0 1122.24 0 1058.64 0C995.034 0 929.986 0 866.383 0C801.335 0 737.732 0 672.684 0C609.081 0 544.033 0 480.43 0C416.828 0 351.779 0 288.177 0C223.128 0 159.526 0 94.4776 0C30.8749 0 31.8013 0 0 0L0 73.8463Z" fill="#F6517C"/>
</svg>
