<svg width="375" height="179" viewBox="0 0 375 179" fill="none" xmlns="http://www.w3.org/2000/svg">
<path fill-rule="evenodd" clip-rule="evenodd" d="M-39.6129 63.4649L-39.6484 133.589C-32.4168 148.568 -28.0113 146.73 -12.9453 144.59C-8.90057 156.233 6.88756 161.883 21.5073 153.227C29.0203 148.778 35.7409 141.044 44.3899 142.24C58.4705 144.187 64.069 162.517 76.0382 164.217C91.1042 166.357 105.338 140.009 120.404 148.568C135.47 157.127 154.989 174.29 170.055 176.429C185.121 178.569 212.434 157.127 227.5 154.987C242.566 152.847 260.505 174.299 276.772 174.299C291.561 174.299 297.434 167.826 312.5 154.987C327.566 142.148 337.94 141.527 348 145.299C359.5 149.612 378.555 189.607 378.555 164.217C378.555 164.217 427.432 50.6262 412.366 50.6262C397.3 50.6262 382.234 50.6262 367.168 50.6262C352.102 50.6262 337.036 50.6262 321.97 50.6262C306.904 50.6262 291.838 50.6262 276.772 50.6262C261.706 50.6262 246.64 50.6262 231.574 50.6262C216.508 50.6262 201.442 50.6262 186.376 50.6262C171.311 50.6262 156.245 50.6262 141.179 50.6262C126.113 50.6262 111.047 50.6262 95.9807 50.6262C80.9148 50.6262 65.8488 50.6262 50.7829 50.6262C35.7169 50.6262 20.651 50.6262 5.58501 50.6262C-9.48095 50.6262 -24.5469 50.6262 -31.7786 50.6262H-39.6129V63.4649Z" fill="white" stroke="#E4016A" stroke-width="4"/>
<path fill-rule="evenodd" clip-rule="evenodd" d="M-47.4453 53.6792L-39.611 38.7007C-32.3794 23.7222 -21.0113 0.18459 -5.94531 2.32437C9.12064 4.46416 12.934 15.2154 28 23.7745C43.0659 32.3337 63.1924 11.085 78.2583 8.94519C93.3243 6.8054 112.934 32.3337 128 23.7745C143.066 15.2154 163.478 2.32445 178.544 0.18467C193.61 -1.95511 208.676 15.1631 223.742 17.3029C238.808 19.4426 253.874 -1.95519 268.94 0.184589C284.006 2.32437 294.055 9.38142 310.373 20.7606C328.12 30.3561 329.489 17.9816 344.555 11.5622C359.621 5.14286 387.064 32.7288 402.13 22.0299L390 66.5179C374.934 66.5179 329.203 66.5179 314.138 66.5179C299.072 66.5179 284.006 66.5179 268.94 66.5179C253.874 66.5179 238.808 66.5179 223.742 66.5179C208.676 66.5179 193.61 66.5179 178.544 66.5179C163.478 66.5179 148.412 66.5179 133.346 66.5179C118.28 66.5179 103.214 66.5179 88.1483 66.5179C73.0823 66.5179 58.0164 66.5179 42.9504 66.5179C27.8844 66.5179 12.8185 66.5179 -2.24746 66.5179C-17.3134 66.5179 -32.3794 66.5179 -39.611 66.5179H-47.4453V53.6792Z" fill="white"/>
</svg>
