<svg width="375" height="179" viewBox="0 0 375 179" fill="none" xmlns="http://www.w3.org/2000/svg">
<path fill-rule="evenodd" clip-rule="evenodd" d="M-39.1675 63.4649L-39.2031 133.589C-31.9715 148.568 -27.566 146.73 -12.5 144.59C-8.45526 156.233 7.33288 161.883 21.9526 153.227C29.4657 148.778 36.1862 141.044 44.8352 142.24C58.9158 144.187 64.5143 162.517 76.4835 164.217C91.5495 166.357 105.784 140.009 120.85 148.568C135.915 157.127 155.434 174.29 170.5 176.429C185.566 178.569 212.879 157.127 227.945 154.987C243.011 152.847 260.95 174.299 277.217 174.299C292.006 174.299 297.879 167.826 312.945 154.987C328.011 142.148 338.385 141.527 348.445 145.299C359.945 149.612 379 189.607 379 164.217C379 164.217 427.877 50.6262 412.811 50.6262C397.745 50.6262 382.679 50.6262 367.613 50.6262C352.547 50.6262 337.481 50.6262 322.415 50.6262C307.349 50.6262 292.283 50.6262 277.217 50.6262C262.152 50.6262 247.086 50.6262 232.02 50.6262C216.954 50.6262 201.888 50.6262 186.822 50.6262C171.756 50.6262 156.69 50.6262 141.624 50.6262C126.558 50.6262 111.492 50.6262 96.426 50.6262C81.3601 50.6262 66.2941 50.6262 51.2282 50.6262C36.1622 50.6262 21.0963 50.6262 6.03032 50.6262C-9.03563 50.6262 -24.1016 50.6262 -31.3332 50.6262H-39.1675V63.4649Z" fill="white" stroke="#E4016A" stroke-width="4"/>
<path fill-rule="evenodd" clip-rule="evenodd" d="M-47 53.6792L-39.1657 38.7007C-31.934 23.7222 -20.566 0.18459 -5.5 2.32437C9.56595 4.46416 13.3794 15.2154 28.4453 23.7745C43.5113 32.3337 63.6377 11.085 78.7037 8.94519C93.7696 6.8054 113.379 32.3337 128.445 23.7745C143.511 15.2154 163.923 2.32445 178.989 0.18467C194.055 -1.95511 209.121 15.1631 224.187 17.3029C239.253 19.4426 254.319 -1.95519 269.385 0.184589C284.451 2.32437 294.5 9.38142 310.819 20.7606C328.565 30.3561 329.934 17.9816 345 11.5622C360.066 5.14286 387.509 32.7288 402.575 22.0299L390.445 66.5179C375.379 66.5179 329.649 66.5179 314.583 66.5179C299.517 66.5179 284.451 66.5179 269.385 66.5179C254.319 66.5179 239.253 66.5179 224.187 66.5179C209.121 66.5179 194.055 66.5179 178.989 66.5179C163.923 66.5179 148.857 66.5179 133.791 66.5179C118.725 66.5179 103.66 66.5179 88.5936 66.5179C73.5276 66.5179 58.4617 66.5179 43.3957 66.5179C28.3298 66.5179 13.2638 66.5179 -1.80214 66.5179C-16.8681 66.5179 -31.934 66.5179 -39.1657 66.5179H-47V53.6792Z" fill="white"/>
<path d="M97.186 82.4585V50.2058L100.014 53.1333H89.8423V47.7248H103.637V82.4585H97.186ZM110.08 82.4585V78.1416L123.874 65.042C125.032 63.9504 125.892 62.9911 126.455 62.1641C127.017 61.3371 127.381 60.5763 127.546 59.8816C127.745 59.1538 127.844 58.4757 127.844 57.8472C127.844 56.2594 127.298 55.0354 126.206 54.1753C125.115 53.2822 123.51 52.8356 121.393 52.8356C119.706 52.8356 118.168 53.1333 116.779 53.7288C115.422 54.3242 114.248 55.2339 113.256 56.4578L108.74 52.9845C110.097 51.1651 111.916 49.7592 114.199 48.7668C116.514 47.7413 119.094 47.2286 121.939 47.2286C124.453 47.2286 126.636 47.6421 128.489 48.4691C130.374 49.263 131.813 50.4042 132.806 51.8928C133.831 53.3814 134.344 55.1512 134.344 57.2021C134.344 58.3268 134.195 59.4515 133.897 60.5763C133.6 61.6679 133.037 62.8257 132.21 64.0496C131.383 65.2736 130.176 66.6464 128.588 68.1681L116.729 79.4317L115.389 77.0003H135.684V82.4585H110.08ZM167.609 82.9547C164.863 82.9547 162.382 82.26 160.166 80.8707C157.983 79.4813 156.263 77.4635 155.006 74.8171C153.749 72.1376 153.12 68.8958 153.12 65.0916C153.12 61.2875 153.749 58.0622 155.006 55.4158C156.263 52.7364 157.983 50.702 160.166 49.3126C162.382 47.9233 164.863 47.2286 167.609 47.2286C170.388 47.2286 172.869 47.9233 175.052 49.3126C177.235 50.702 178.955 52.7364 180.212 55.4158C181.502 58.0622 182.147 61.2875 182.147 65.0916C182.147 68.8958 181.502 72.1376 180.212 74.8171C178.955 77.4635 177.235 79.4813 175.052 80.8707C172.869 82.26 170.388 82.9547 167.609 82.9547ZM167.609 77.3477C169.23 77.3477 170.636 76.9176 171.827 76.0576C173.017 75.1644 173.944 73.8081 174.605 71.9888C175.3 70.1694 175.647 67.8703 175.647 65.0916C175.647 62.2799 175.3 59.9808 174.605 58.1945C173.944 56.3751 173.017 55.0354 171.827 54.1753C170.636 53.2822 169.23 52.8356 167.609 52.8356C166.054 52.8356 164.665 53.2822 163.441 54.1753C162.25 55.0354 161.307 56.3751 160.613 58.1945C159.951 59.9808 159.62 62.2799 159.62 65.0916C159.62 67.8703 159.951 70.1694 160.613 71.9888C161.307 73.8081 162.25 75.1644 163.441 76.0576C164.665 76.9176 166.054 77.3477 167.609 77.3477ZM200.996 82.9547C198.25 82.9547 195.769 82.26 193.553 80.8707C191.369 79.4813 189.649 77.4635 188.392 74.8171C187.135 72.1376 186.507 68.8958 186.507 65.0916C186.507 61.2875 187.135 58.0622 188.392 55.4158C189.649 52.7364 191.369 50.702 193.553 49.3126C195.769 47.9233 198.25 47.2286 200.996 47.2286C203.774 47.2286 206.255 47.9233 208.438 49.3126C210.622 50.702 212.342 52.7364 213.599 55.4158C214.889 58.0622 215.534 61.2875 215.534 65.0916C215.534 68.8958 214.889 72.1376 213.599 74.8171C212.342 77.4635 210.622 79.4813 208.438 80.8707C206.255 82.26 203.774 82.9547 200.996 82.9547ZM200.996 77.3477C202.616 77.3477 204.022 76.9176 205.213 76.0576C206.404 75.1644 207.33 73.8081 207.992 71.9888C208.687 70.1694 209.034 67.8703 209.034 65.0916C209.034 62.2799 208.687 59.9808 207.992 58.1945C207.33 56.3751 206.404 55.0354 205.213 54.1753C204.022 53.2822 202.616 52.8356 200.996 52.8356C199.441 52.8356 198.051 53.2822 196.828 54.1753C195.637 55.0354 194.694 56.3751 193.999 58.1945C193.338 59.9808 193.007 62.2799 193.007 65.0916C193.007 67.8703 193.338 70.1694 193.999 71.9888C194.694 73.8081 195.637 75.1644 196.828 76.0576C198.051 76.9176 199.441 77.3477 200.996 77.3477ZM234.382 82.9547C231.637 82.9547 229.156 82.26 226.939 80.8707C224.756 79.4813 223.036 77.4635 221.779 74.8171C220.522 72.1376 219.893 68.8958 219.893 65.0916C219.893 61.2875 220.522 58.0622 221.779 55.4158C223.036 52.7364 224.756 50.702 226.939 49.3126C229.156 47.9233 231.637 47.2286 234.382 47.2286C237.161 47.2286 239.642 47.9233 241.825 49.3126C244.008 50.702 245.729 52.7364 246.986 55.4158C248.276 58.0622 248.921 61.2875 248.921 65.0916C248.921 68.8958 248.276 72.1376 246.986 74.8171C245.729 77.4635 244.008 79.4813 241.825 80.8707C239.642 82.26 237.161 82.9547 234.382 82.9547ZM234.382 77.3477C236.003 77.3477 237.409 76.9176 238.6 76.0576C239.791 75.1644 240.717 73.8081 241.379 71.9888C242.073 70.1694 242.421 67.8703 242.421 65.0916C242.421 62.2799 242.073 59.9808 241.379 58.1945C240.717 56.3751 239.791 55.0354 238.6 54.1753C237.409 53.2822 236.003 52.8356 234.382 52.8356C232.827 52.8356 231.438 53.2822 230.214 54.1753C229.023 55.0354 228.08 56.3751 227.386 58.1945C226.724 59.9808 226.393 62.2799 226.393 65.0916C226.393 67.8703 226.724 70.1694 227.386 71.9888C228.08 73.8081 229.023 75.1644 230.214 76.0576C231.438 76.9176 232.827 77.3477 234.382 77.3477ZM255.959 82.4585V47.7248H270.25C273.326 47.7248 275.956 48.221 278.139 49.2134C280.356 50.2058 282.059 51.6282 283.25 53.4807C284.441 55.3331 285.036 57.5329 285.036 60.0801C285.036 62.6272 284.441 64.827 283.25 66.6795C282.059 68.5319 280.356 69.9544 278.139 70.9468C275.956 71.9391 273.326 72.4353 270.25 72.4353H259.532L262.41 69.4085V82.4585H255.959ZM262.41 70.1032L259.532 66.9772H269.952C272.797 66.9772 274.931 66.3818 276.353 65.1909C277.808 63.9669 278.536 62.2633 278.536 60.0801C278.536 57.8637 277.808 56.1601 276.353 54.9692C274.931 53.7784 272.797 53.1829 269.952 53.1829H259.532L262.41 50.0073V70.1032Z" fill="#E4016A"/>
<path d="M117.368 133.788L129.795 105.924L131.257 108.418H114.186L116.852 105.709V113.535H111.649V103.688H135.041V107.429L123.345 133.788H117.368ZM162.465 134.218C159.971 134.218 157.807 133.845 155.972 133.1C154.138 132.354 152.719 131.308 151.715 129.961C150.712 128.585 150.21 126.979 150.21 125.145C150.21 123.31 150.698 121.762 151.672 120.501C152.647 119.239 154.052 118.279 155.886 117.62C157.721 116.96 159.914 116.631 162.465 116.631C165.017 116.631 167.21 116.96 169.044 117.62C170.908 118.279 172.327 119.254 173.301 120.544C174.305 121.805 174.806 123.339 174.806 125.145C174.806 126.979 174.29 128.585 173.258 129.961C172.255 131.308 170.822 132.354 168.958 133.1C167.124 133.845 164.959 134.218 162.465 134.218ZM162.465 129.832C164.529 129.832 166.163 129.402 167.367 128.542C168.571 127.682 169.173 126.492 169.173 124.973C169.173 123.482 168.571 122.307 167.367 121.447C166.163 120.587 164.529 120.157 162.465 120.157C160.401 120.157 158.782 120.587 157.606 121.447C156.431 122.307 155.843 123.482 155.843 124.973C155.843 126.492 156.431 127.682 157.606 128.542C158.782 129.402 160.401 129.832 162.465 129.832ZM162.465 119.555C160.143 119.555 158.151 119.254 156.488 118.652C154.826 118.021 153.536 117.118 152.618 115.943C151.73 114.739 151.285 113.305 151.285 111.643C151.285 109.923 151.744 108.446 152.661 107.214C153.607 105.952 154.926 104.978 156.617 104.29C158.309 103.602 160.258 103.258 162.465 103.258C164.701 103.258 166.665 103.602 168.356 104.29C170.048 104.978 171.366 105.952 172.312 107.214C173.258 108.446 173.731 109.923 173.731 111.643C173.731 113.305 173.273 114.739 172.355 115.943C171.467 117.118 170.177 118.021 168.485 118.652C166.794 119.254 164.787 119.555 162.465 119.555ZM162.465 116.115C164.243 116.115 165.647 115.742 166.679 114.997C167.711 114.223 168.227 113.191 168.227 111.901C168.227 110.553 167.697 109.507 166.636 108.762C165.576 108.016 164.185 107.644 162.465 107.644C160.745 107.644 159.369 108.016 158.337 108.762C157.305 109.507 156.789 110.553 156.789 111.901C156.789 113.191 157.291 114.223 158.294 114.997C159.326 115.742 160.717 116.115 162.465 116.115ZM190.989 134.218C188.61 134.218 186.46 133.616 184.539 132.412C182.647 131.208 181.156 129.459 180.067 127.166C178.978 124.844 178.433 122.034 178.433 118.738C178.433 115.441 178.978 112.646 180.067 110.353C181.156 108.031 182.647 106.268 184.539 105.064C186.46 103.86 188.61 103.258 190.989 103.258C193.397 103.258 195.547 103.86 197.439 105.064C199.331 106.268 200.822 108.031 201.911 110.353C203.029 112.646 203.588 115.441 203.588 118.738C203.588 122.034 203.029 124.844 201.911 127.166C200.822 129.459 199.331 131.208 197.439 132.412C195.547 133.616 193.397 134.218 190.989 134.218ZM190.989 129.359C192.394 129.359 193.612 128.986 194.644 128.241C195.676 127.467 196.479 126.291 197.052 124.715C197.654 123.138 197.955 121.146 197.955 118.738C197.955 116.301 197.654 114.309 197.052 112.761C196.479 111.184 195.676 110.023 194.644 109.278C193.612 108.504 192.394 108.117 190.989 108.117C189.642 108.117 188.438 108.504 187.377 109.278C186.345 110.023 185.528 111.184 184.926 112.761C184.353 114.309 184.066 116.301 184.066 118.738C184.066 121.146 184.353 123.138 184.926 124.715C185.528 126.291 186.345 127.467 187.377 128.241C188.438 128.986 189.642 129.359 190.989 129.359ZM219.922 134.218C217.542 134.218 215.392 133.616 213.472 132.412C211.58 131.208 210.089 129.459 209 127.166C207.91 124.844 207.366 122.034 207.366 118.738C207.366 115.441 207.91 112.646 209 110.353C210.089 108.031 211.58 106.268 213.472 105.064C215.392 103.86 217.542 103.258 219.922 103.258C222.33 103.258 224.48 103.86 226.372 105.064C228.264 106.268 229.754 108.031 230.844 110.353C231.962 112.646 232.521 115.441 232.521 118.738C232.521 122.034 231.962 124.844 230.844 127.166C229.754 129.459 228.264 131.208 226.372 132.412C224.48 133.616 222.33 134.218 219.922 134.218ZM219.922 129.359C221.326 129.359 222.545 128.986 223.577 128.241C224.609 127.467 225.411 126.291 225.985 124.715C226.587 123.138 226.888 121.146 226.888 118.738C226.888 116.301 226.587 114.309 225.985 112.761C225.411 111.184 224.609 110.023 223.577 109.278C222.545 108.504 221.326 108.117 219.922 108.117C218.574 108.117 217.37 108.504 216.31 109.278C215.278 110.023 214.461 111.184 213.859 112.761C213.285 114.309 212.999 116.301 212.999 118.738C212.999 121.146 213.285 123.138 213.859 124.715C214.461 126.291 215.278 127.467 216.31 128.241C217.37 128.986 218.574 129.359 219.922 129.359ZM238.62 133.788V103.688H251.004C253.67 103.688 255.949 104.118 257.841 104.978C259.762 105.838 261.238 107.07 262.27 108.676C263.302 110.281 263.818 112.187 263.818 114.395C263.818 116.602 263.302 118.508 262.27 120.114C261.238 121.719 259.762 122.952 257.841 123.812C255.949 124.672 253.67 125.102 251.004 125.102H241.716L244.21 122.479V133.788H238.62ZM244.21 123.081L241.716 120.372H250.746C253.212 120.372 255.061 119.856 256.293 118.824C257.555 117.763 258.185 116.287 258.185 114.395C258.185 112.474 257.555 110.998 256.293 109.966C255.061 108.934 253.212 108.418 250.746 108.418H241.716L244.21 105.666V123.081Z" fill="#2AC07F"/>
<path d="M66.4453 83.4877L309.445 46.259" stroke="#E4016A" stroke-width="5.0979" stroke-linecap="round"/>
</svg>
