<svg width="375" height="219" viewBox="0 0 375 219" fill="none" xmlns="http://www.w3.org/2000/svg">
<path fill-rule="evenodd" clip-rule="evenodd" d="M-24.7025 82.5L-24.7266 162.889C-19.8366 180.06 -9.64906 214.402 0.538437 211.949C10.7259 209.496 20.9134 170.248 31.1009 160.436C41.2884 150.624 43.3125 195.547 53.5 198C63.6875 200.453 73.3125 170.248 83.5 180.06C93.6875 189.872 112.601 214.402 122.788 216.855C132.976 219.308 143.163 189.872 153.351 187.419C163.538 184.966 173.5 212 184.5 212C194.5 212 195.812 206.718 206 192C216.188 177.282 228.236 176.484 235.5 176C243 175.5 249 177 264 187.419C277 196.449 295.976 209.496 306.163 204.59C316.351 199.684 326.538 180.06 336.726 170.248C346.913 160.436 357.101 160.436 367.288 165.342C377.476 170.248 387.663 180.06 397.851 192.325C408.038 204.59 418.226 219.308 428.413 211.949C438.601 204.59 448.788 175.154 454.086 160.436L464.297 82.5V67.782H459.407C454.11 67.782 443.922 67.782 433.735 67.782C423.547 67.782 413.36 67.782 403.172 67.782C392.985 67.782 382.797 67.782 372.61 67.782C362.422 67.782 352.235 67.782 342.047 67.782C331.86 67.782 321.672 67.782 311.485 67.782C301.297 67.782 291.11 67.782 280.922 67.782C270.735 67.782 260.547 67.782 250.36 67.782C240.172 67.782 229.985 67.782 219.798 67.782C209.61 67.782 199.423 67.782 189.235 67.782C179.048 67.782 168.86 67.782 158.673 67.782C148.485 67.782 138.298 67.782 128.11 67.782C117.923 67.782 107.735 67.782 97.5475 67.782C87.36 67.782 77.1725 67.782 66.985 67.782C56.7975 67.782 46.61 67.782 36.4225 67.782C26.235 67.782 16.0475 67.782 5.86 67.782C-4.3275 67.782 -14.515 67.782 -19.405 67.782H-24.7025V82.5Z" fill="white" stroke="#E4016A" stroke-width="4"/>
<path fill-rule="evenodd" clip-rule="evenodd" d="M-30 71.282L-24.7025 54.111C-19.8125 36.94 -9.625 2.59806 0.5625 5.05106C10.75 7.50406 15.3125 22.688 25.5 32.5C35.6875 42.312 44.8125 22.453 55 20C65.1875 17.547 82.0625 56.564 92.25 46.752C102.438 36.94 112.625 2.59806 122.812 0.145061C133 -2.30794 143.188 27.128 153.375 29.581C163.562 32.034 173.75 7.50406 183.938 9.95705C194.125 12.4101 200.312 28.282 210.5 43C222.5 54 223.312 39.859 233.5 32.5C243.688 25.141 263.812 47.265 274 35C284.188 22.735 294.5 12.4101 306.188 12.4101C324 12.4101 326.562 27.188 336.75 37C346.938 46.812 369.812 9.95705 380 5.05106C390.188 0.145061 387.688 36.94 397.875 24.675C408.062 12.4101 418.25 -2.30794 428.438 5.05106C438.625 12.4101 448.812 41.846 454.11 56.564L459 71.282V86H454.11C448.812 86 438.625 86 428.438 86C418.25 86 408.062 86 397.875 86C387.688 86 377.5 86 367.312 86C357.125 86 346.938 86 336.75 86C326.562 86 316.375 86 306.188 86C296 86 285.812 86 275.625 86C265.438 86 255.25 86 245.062 86C234.875 86 224.688 86 214.5 86C204.312 86 194.125 86 183.938 86C173.75 86 163.562 86 153.375 86C143.188 86 133 86 122.812 86C112.625 86 102.438 86 92.25 86C82.0625 86 71.875 86 61.6875 86C51.5 86 41.3125 86 31.125 86C20.9375 86 10.75 86 0.5625 86C-9.625 86 -19.8125 86 -24.7025 86H-30V71.282Z" fill="white"/>
</svg>
