<svg width="71" height="110" viewBox="0 0 71 110" fill="none" xmlns="http://www.w3.org/2000/svg">
<path d="M11.8887 4.34746C11.8975 3.97789 12.4367 3.94831 12.4859 4.31469L12.8188 6.79155C13.329 10.5871 15.6047 13.4799 18.3024 13.7624L19.0197 13.8374C19.6979 13.9084 19.751 14.8758 19.0847 15.0205L18.3798 15.1736C15.7292 15.7495 13.7837 18.8736 13.6919 22.7026L13.632 25.201C13.6232 25.5705 13.084 25.6001 13.0348 25.2338L12.7019 22.7569C12.1916 18.9614 9.9163 16.0685 7.21833 15.7861L6.50094 15.711C5.82273 15.6401 5.76965 14.6727 6.43602 14.5279L7.14089 14.3748C9.79146 13.7989 11.7369 10.6749 11.8288 6.84587L11.8887 4.34746Z" fill="white"/>
<path d="M56.0519 29.4998C56.0133 29.1321 56.5442 29.0337 56.64 29.3908L57.2873 31.8046C58.2795 35.5035 60.9069 38.0811 63.6185 38.0158L64.3396 37.9983C65.0213 37.9818 65.1978 38.9345 64.5555 39.1634L63.876 39.4055C61.321 40.3161 59.7917 43.6636 60.1909 47.4728L60.4515 49.9583C60.4901 50.326 59.9592 50.4244 59.8634 50.0673L59.2161 47.6535C58.2239 43.9546 55.5968 41.3769 52.8849 41.4423L52.1638 41.4598C51.4821 41.4763 51.3056 40.5236 51.9479 40.2948L52.6274 40.0527C55.1824 39.142 56.7117 35.7945 56.3125 31.9853L56.0519 29.4998Z" fill="white"/>
<path d="M6.57292 64.5901C6.67899 64.3828 6.99305 64.5134 6.92082 64.7348C6.46945 66.1185 6.7714 67.4843 7.64845 68.026C7.91147 68.1885 7.7428 68.594 7.44218 68.522C6.43967 68.282 5.25825 69.0307 4.59519 70.3265C4.48912 70.5338 4.17506 70.4032 4.24729 70.1818C4.69866 68.7981 4.39681 67.4323 3.51966 66.8906C3.25664 66.7282 3.42531 66.3226 3.72593 66.3946C4.72844 66.6347 5.90986 65.8859 6.57292 64.5901Z" fill="white"/>
<path d="M28.9922 87L31.9922 88.5" stroke="white" stroke-linecap="round"/>
<path d="M48.4922 74L46.9922 77" stroke="white" stroke-linecap="round"/>
<path d="M58.9922 97.5L55.9922 96" stroke="white" stroke-linecap="round"/>
<path d="M36.9922 109L38.4922 106" stroke="white" stroke-linecap="round"/>
</svg>
