<svg width="72" height="110" viewBox="0 0 72 110" fill="none" xmlns="http://www.w3.org/2000/svg">
<path d="M12.4902 4.34844C12.4991 3.97887 13.0382 3.94929 13.0875 4.31567L13.4203 6.79252C13.9306 10.588 16.2062 13.4809 18.9039 13.7634L19.6213 13.8384C20.2995 13.9094 20.3526 14.8768 19.6862 15.0215L18.9814 15.1746C16.3308 15.7505 14.3853 18.8746 14.2934 22.7035L14.2336 25.202C14.2247 25.5715 13.6856 25.6011 13.6363 25.2347L13.3035 22.7579C12.7932 18.9623 10.5179 16.0695 7.81989 15.787L7.1025 15.712C6.4243 15.641 6.37121 14.6736 7.03758 14.5289L7.74245 14.3758C10.393 13.7999 12.3385 10.6758 12.4304 6.84684L12.4902 4.34844Z" fill="white"/>
<path d="M56.6534 29.501C56.6149 29.1334 57.1458 29.035 57.2415 29.392L57.8889 31.8059C58.881 35.5048 61.5084 38.0824 64.22 38.017L64.9411 37.9996C65.6228 37.9831 65.7994 38.9357 65.157 39.1646L64.4776 39.4067C61.9226 40.3173 60.3932 43.6648 60.7925 47.474L61.0531 49.9595C61.0917 50.3272 60.5607 50.4256 60.465 50.0685L59.8177 47.6547C58.8255 43.9558 56.1984 41.3781 53.4865 41.4435L52.7654 41.461C52.0837 41.4775 51.9071 40.5249 52.5495 40.296L53.2289 40.0539C55.7839 39.1432 57.3133 35.7957 56.914 31.9865L56.6534 29.501Z" fill="white"/>
<path d="M7.17448 64.5913C7.28055 64.384 7.59462 64.5147 7.52238 64.736C7.07101 66.1197 7.37297 67.4856 8.25001 68.0273C8.51303 68.1897 8.34436 68.5952 8.04374 68.5232C7.04123 68.2832 5.85981 69.0319 5.19675 70.3277C5.09068 70.535 4.77662 70.4044 4.84885 70.183C5.30023 68.7993 4.99837 67.4335 4.12123 66.8918C3.8582 66.7294 4.02687 66.3238 4.3275 66.3958C5.33001 66.6359 6.51142 65.8872 7.17448 64.5913Z" fill="white"/>
<path d="M29.5938 87.0012L32.5938 88.5012" stroke="white" stroke-linecap="round"/>
<path d="M49.0938 74.0012L47.5938 77.0012" stroke="white" stroke-linecap="round"/>
<path d="M59.5938 97.5012L56.5938 96.0012" stroke="white" stroke-linecap="round"/>
<path d="M37.5938 109.001L39.0938 106.001" stroke="white" stroke-linecap="round"/>
</svg>
