<svg width="126" height="140" viewBox="0 0 126 140" fill="none" xmlns="http://www.w3.org/2000/svg">
<path d="M11.4903 37.6214C11.308 37.2998 11.7553 36.9974 11.9858 37.2864L13.5441 39.2402C15.9321 42.2341 19.3708 43.5466 21.8303 42.4027L22.4843 42.0985C23.1025 41.8108 23.6452 42.6135 23.1479 43.0801L22.6218 43.5736C20.6439 45.4296 20.5801 49.1094 22.4688 52.4414L23.7012 54.6155C23.8835 54.9371 23.4362 55.2395 23.2057 54.9505L21.6475 52.9967C19.2594 50.0028 15.821 48.6902 13.3613 49.8342L12.7073 50.1384C12.089 50.4261 11.5464 49.6234 12.0437 49.1569L12.5697 48.6633C14.5477 46.8073 14.6114 43.1275 12.7227 39.7955L11.4903 37.6214Z" fill="white"/>
<path d="M66.8007 30.5182C66.5787 30.2226 66.9837 29.8654 67.2493 30.1225L69.0449 31.8607C71.7967 34.5242 75.3752 35.3854 77.6679 33.936L78.2775 33.5505C78.8539 33.186 79.4949 33.9126 79.0614 34.439L78.6029 34.9958C76.8789 37.0899 77.287 40.7475 79.5868 43.8102L81.0876 45.8086C81.3095 46.1042 80.9046 46.4614 80.639 46.2043L78.8434 44.4661C76.0916 41.8027 72.5133 40.9413 70.2204 42.3909L69.6107 42.7764C69.0344 43.1408 68.3934 42.4143 68.8269 41.8879L69.2854 41.331C71.0093 39.2369 70.6013 35.5793 68.3015 32.5166L66.8007 30.5182Z" fill="white"/>
<path d="M56.1602 66.1002C56.1446 65.8679 56.4812 65.8186 56.533 66.0456C56.8567 67.4646 57.8176 68.4811 58.8484 68.4952C59.1574 68.4994 59.2211 68.934 58.9262 69.0267C57.9429 69.3359 57.3141 70.5852 57.4111 72.0376C57.4266 72.27 57.09 72.3193 57.0383 72.0922C56.7145 70.6733 55.7537 69.6567 54.7229 69.6426C54.4138 69.6384 54.3501 69.2039 54.645 69.1112C55.6284 68.802 56.2572 67.5526 56.1602 66.1002Z" fill="white"/>
<path d="M74.4688 105.571L77.8132 105.317" stroke="white" stroke-linecap="round"/>
<path d="M84.5156 84.3987L84.7703 87.7431" stroke="white" stroke-linecap="round"/>
<path d="M105.602 99.1637L102.257 99.4184" stroke="white" stroke-linecap="round"/>
<path d="M92.6406 120.334L92.3859 116.989" stroke="white" stroke-linecap="round"/>
</svg>
