<svg width="110" height="85" viewBox="0 0 110 85" fill="none" xmlns="http://www.w3.org/2000/svg">
<path d="M7.35254 10.5681C6.99349 10.4801 6.82408 10.9928 7.16487 11.1361L9.46876 12.1044C12.9992 13.5885 15.197 16.5409 14.7649 19.2187L14.65 19.9308C14.5413 20.604 15.4612 20.9079 15.775 20.3025L16.1069 19.6621C17.3553 17.2541 20.8791 16.1923 24.5991 17.1039L27.0264 17.6989C27.3854 17.7869 27.5549 17.2742 27.2141 17.1309L24.9102 16.1625C21.3798 14.6784 19.1818 11.7263 19.614 9.04828L19.729 8.3362C19.8377 7.66301 18.9177 7.35904 18.604 7.96446L18.272 8.60486C17.0236 11.0129 13.4998 12.0747 9.77981 11.163L7.35254 10.5681Z" fill="white"/>
<path d="M20.0948 59.7686C19.75 59.6354 19.5163 60.1222 19.836 60.3079L21.9969 61.5633C25.3081 63.4874 27.1098 66.6969 26.3383 69.2973L26.1331 69.9888C25.939 70.6425 26.8125 71.0618 27.2012 70.5015L27.6124 69.9089C29.1589 67.6806 32.7897 67.0789 36.3623 68.4594L38.6934 69.3603C39.0383 69.4936 39.2719 69.0068 38.9523 68.8211L36.7914 67.5656C33.4801 65.6416 31.6783 62.4323 32.45 59.8317L32.6552 59.1402C32.8492 58.4864 31.9758 58.0672 31.587 58.6274L31.1758 59.22C29.6293 61.4484 25.9985 62.0501 22.4259 60.6695L20.0948 59.7686Z" fill="white"/>
<path d="M62.2638 31.5772C62.036 31.6254 62.08 31.9627 62.3126 31.9508C63.7661 31.8766 65.0056 32.5249 65.2994 33.513C65.3875 33.8093 65.823 33.7524 65.832 33.4434C65.8622 32.413 66.8936 31.4682 68.3176 31.1667C68.5454 31.1185 68.5014 30.7812 68.2688 30.7931C66.8153 30.8673 65.5758 30.2192 65.282 29.2309C65.1939 28.9346 64.7584 28.9915 64.7494 29.3005C64.7192 30.3309 63.6878 31.2757 62.2638 31.5772Z" fill="white"/>
<path d="M89.8672 52.6987L90.5313 55.9864" stroke="white" stroke-linecap="round"/>
<path d="M72.2188 68.1252L75.5064 67.461" stroke="white" stroke-linecap="round"/>
<path d="M92.1641 84.3998L91.4999 81.1122" stroke="white" stroke-linecap="round"/>
<path d="M109.008 66.1682L105.72 66.8324" stroke="white" stroke-linecap="round"/>
</svg>
