<svg width="26" height="26" viewBox="0 0 26 26" fill="none" xmlns="http://www.w3.org/2000/svg">
<g clip-path="url(#clip0_2748_254)">
<path fill-rule="evenodd" clip-rule="evenodd" d="M25.7422 17.94C25.7422 18.6333 25.7422 19.3267 25.7422 20.02C24.8124 19.8717 23.9457 20.045 23.1422 20.54C21.0622 23.3133 18.9822 23.3133 16.9022 20.54C14.4939 19.936 12.0672 19.8493 9.62219 20.28C7.36887 23.4 5.11552 23.4 2.86219 20.28C1.83638 20.0224 0.796383 19.9357 -0.257812 20.02C-0.257812 19.3267 -0.257812 18.6333 -0.257812 17.94C0.162928 17.0081 0.422928 15.9681 0.522187 14.82C3.59106 13.8435 3.50439 13.1501 0.262187 12.74C0.173805 12.0525 0.347139 11.4459 0.782187 10.92C7.02219 10.4 7.02219 9.88003 0.782187 9.36003C0.347139 8.83415 0.173805 8.22752 0.262187 7.54003C2.69502 7.62624 5.12169 7.53961 7.54219 7.28003C7.78004 7.06475 7.95335 6.80475 8.06219 6.50003C5.65381 6.06931 3.22713 5.80931 0.782187 5.72003C0.0888543 5.20003 0.0888543 4.68003 0.782187 4.16003C5.46219 3.81336 10.1422 3.81336 14.8222 4.16003C15.3022 5.22124 15.4755 6.34793 15.3422 7.54003C17.775 7.45381 20.2017 7.54044 22.6222 7.80003C23.0572 8.3259 23.2306 8.93253 23.1422 9.62003C22.1022 9.62003 21.0622 9.62003 20.0222 9.62003C20.0222 10.8333 20.0222 12.0467 20.0222 13.26C21.7555 13.26 23.4889 13.26 25.2222 13.26C25.061 14.9308 25.2343 16.4908 25.7422 17.94ZM5.46219 18.46C5.98219 18.46 6.50219 18.46 7.02219 18.46C7.02219 18.98 7.02219 19.5 7.02219 20.02C6.50219 20.02 5.98219 20.02 5.46219 20.02C5.46219 19.5 5.46219 18.98 5.46219 18.46ZM19.5022 18.46C20.0222 18.46 20.5422 18.46 21.0622 18.46C21.0622 18.98 21.0622 19.5 21.0622 20.02C19.5056 20.2043 18.9856 19.6843 19.5022 18.46Z" fill="white"/>
</g>
<defs>
<clipPath id="clip0_2748_254">
<rect width="26" height="26" fill="white"/>
</clipPath>
</defs>
</svg>
