<svg width="26" height="26" viewBox="0 0 26 26" fill="none" xmlns="http://www.w3.org/2000/svg">
<path opacity="0.963" fill-rule="evenodd" clip-rule="evenodd" d="M4.31685 6.00479C10.6927 5.99202 17.0679 6.00479 23.4421 6.04312C23.9253 6.4073 24.4084 7.53962 23.4421 7.99815C22.1472 8.00455 9.19779 7.99175 7.90284 7.99815C6.40028 8.00256 4.90612 7.98339 3.42035 7.94065C1.03576 7.60025 0.413183 7.10831 1.55265 6.46479C2.25011 6.21903 3.17151 6.0657 4.31685 6.00479Z" fill="white"/>
<path opacity="0.949" fill-rule="evenodd" clip-rule="evenodd" d="M0.784416 8.35352C1.05335 8.66384 1.3919 8.85848 1.80004 8.9375C9.14855 8.9378 16.4949 8.97168 23.8391 9.03906C24.0198 9.13514 24.1467 9.279 24.22 9.4707C24.2454 11.4003 24.2538 13.33 24.2454 15.2598C23.856 15.2598 23.4667 15.2598 23.0774 15.2598C23.0859 13.6178 23.0774 11.9758 23.052 10.334C23.033 10.2875 23.0076 10.2451 22.9758 10.207C16.0188 10.1901 9.06176 10.1732 2.10473 10.1562C1.5994 10.1193 1.16776 9.92464 0.809807 9.57227C0.784431 9.16637 0.775966 8.76012 0.784416 8.35352Z" fill="white"/>
<path opacity="0.989" fill-rule="evenodd" clip-rule="evenodd" d="M0.784425 10.0293C1.14538 10.2937 1.55163 10.4545 2.00317 10.5117C8.90942 10.5371 15.8157 10.5456 22.7219 10.5371C22.7219 12.1113 22.7219 13.6855 22.7219 15.2598C20.6568 15.2513 18.5916 15.2598 16.5266 15.2852C15.314 15.5667 14.6708 16.3285 14.5969 17.5703C14.6661 18.6734 15.2247 19.4012 16.2727 19.7539C18.42 19.829 20.5698 19.8544 22.7219 19.8301C22.7219 21.3704 22.7219 22.9108 22.7219 24.4512C15.7649 24.4597 8.80786 24.4512 1.85083 24.4258C1.3763 24.3619 1.02929 24.1165 0.809815 23.6895C0.784425 19.1361 0.775959 14.5827 0.784425 10.0293Z" fill="white"/>
<path opacity="0.977" fill-rule="evenodd" clip-rule="evenodd" d="M16.5263 15.6152C19.0992 15.6152 21.6721 15.6152 24.245 15.6152C24.245 16.9017 24.245 18.1882 24.245 19.4746C21.672 19.4831 19.0992 19.4746 16.5263 19.4492C15.3756 19.1381 14.8593 18.3848 14.9774 17.1895C15.1644 16.3339 15.6806 15.8092 16.5263 15.6152Z" fill="white"/>
<path opacity="0.992" fill-rule="evenodd" clip-rule="evenodd" d="M23.791 25.9746C16.4277 25.9746 9.06446 25.9746 1.70118 25.9746C0.93786 25.65 0.641633 25.0745 0.812507 24.248C1.0862 24.5669 1.43321 24.7446 1.85352 24.7812C8.86133 24.8151 15.8691 24.8151 22.877 24.7812C22.97 24.7559 23.0293 24.6966 23.0547 24.6035C23.0801 23.0124 23.0886 21.4213 23.0801 19.8301C23.4694 19.8301 23.8587 19.8301 24.2481 19.8301C24.2565 21.726 24.2481 23.6218 24.2227 25.5176C24.1369 25.7301 23.9931 25.8824 23.791 25.9746Z" fill="white"/>
</svg>
