<svg width="465" height="179" viewBox="0 0 465 179" fill="none" xmlns="http://www.w3.org/2000/svg">
<path fill-rule="evenodd" clip-rule="evenodd" d="M7.83246 63.4649L7.79688 133.589C15.0285 148.568 19.434 146.73 34.5 144.59C38.5447 156.233 54.3329 161.883 68.9526 153.227C76.4657 148.778 83.1862 141.044 91.8352 142.24C105.916 144.187 111.514 162.517 123.484 164.217C138.549 166.357 152.784 140.009 167.85 148.568C182.915 157.127 202.434 174.29 217.5 176.429C232.566 178.569 259.879 157.127 274.945 154.987C290.011 152.847 307.95 174.299 324.217 174.299C339.006 174.299 344.879 167.826 359.945 154.987C375.011 142.148 385.385 141.527 395.445 145.299C406.945 149.612 426 189.607 426 164.217C426 164.217 474.877 50.6262 459.811 50.6262C444.745 50.6262 429.679 50.6262 414.613 50.6262C399.547 50.6262 384.481 50.6262 369.415 50.6262C354.349 50.6262 339.283 50.6262 324.217 50.6262C309.152 50.6262 294.086 50.6262 279.02 50.6262C263.954 50.6262 248.888 50.6262 233.822 50.6262C218.756 50.6262 203.69 50.6262 188.624 50.6262C173.558 50.6262 158.492 50.6262 143.426 50.6262C128.36 50.6262 113.294 50.6262 98.2282 50.6262C83.1622 50.6262 68.0963 50.6262 53.0303 50.6262C37.9644 50.6262 22.8984 50.6262 15.6668 50.6262H7.83246V63.4649Z" fill="white" stroke="#E4016A" stroke-width="4"/>
<path fill-rule="evenodd" clip-rule="evenodd" d="M0 53.6792L7.8343 38.7007C15.066 23.7222 26.434 0.18459 41.5 2.32437C56.566 4.46416 60.3794 15.2154 75.4453 23.7745C90.5113 32.3337 110.638 11.085 125.704 8.94519C140.77 6.8054 160.379 32.3337 175.445 23.7745C190.511 15.2154 210.923 2.32445 225.989 0.18467C241.055 -1.95511 256.121 15.1631 271.187 17.3029C286.253 19.4426 301.319 -1.95519 316.385 0.184589C331.451 2.32437 341.5 9.38142 357.819 20.7606C375.565 30.3561 376.934 17.9816 392 11.5622C407.066 5.14286 434.509 32.7288 449.575 22.0299L437.445 66.5179C422.379 66.5179 376.649 66.5179 361.583 66.5179C346.517 66.5179 331.451 66.5179 316.385 66.5179C301.319 66.5179 286.253 66.5179 271.187 66.5179C256.121 66.5179 241.055 66.5179 225.989 66.5179C210.923 66.5179 195.857 66.5179 180.791 66.5179C165.725 66.5179 150.66 66.5179 135.594 66.5179C120.528 66.5179 105.462 66.5179 90.3957 66.5179C75.3298 66.5179 60.2638 66.5179 45.1979 66.5179C30.1319 66.5179 15.066 66.5179 7.8343 66.5179H0L0 53.6792Z" fill="white"/>
</svg>
