<svg width="274" height="177" viewBox="0 0 274 177" fill="none" xmlns="http://www.w3.org/2000/svg">
<path fill-rule="evenodd" clip-rule="evenodd" d="M130.492 89.972C133.267 89.9381 134.988 91.1524 135.677 93.1961C136.342 95.1642 135.743 98.1373 134.57 99.0395C134.136 99.3736 133.662 99.7433 133.11 99.9469C132.076 100.328 130.252 100.287 129.183 99.9469C128.319 99.6713 127.404 99.1727 126.565 98.9895C126.35 98.9429 126.222 99.0565 126.062 99.0904C126.025 99.2447 125.881 99.4474 125.961 99.695C126.172 100.352 128.051 100.675 128.68 101.055C130.992 102.454 132.897 104.118 133.764 106.949C134.018 107.776 134.36 109.61 134.167 110.576V111.836C133.913 112.996 133.772 114.04 133.362 115.009C132.154 117.869 129.576 119.802 126.464 120.752C125.211 121.135 123.833 121.113 122.486 121.407H121.077C120.747 121.475 119.91 121.442 119.516 121.357C119.03 121.323 118.542 121.289 118.056 121.256C117.388 121.107 116.734 121.028 116.042 120.853C115.583 120.736 114.263 120.187 113.877 120.449C113.184 120.677 112.712 122.29 113.072 123.221C113.267 123.722 113.874 124.091 114.381 124.278C115.252 124.601 116.604 124.48 117.755 124.48C120.758 124.496 123.762 124.513 126.766 124.53C127.857 124.768 128.915 124.736 129.888 125.034C132.362 125.791 134.772 127.453 135.728 129.719C135.892 130.107 135.893 130.44 136.03 130.878C136.284 131.686 136.525 133.118 136.281 134.202C136.124 134.906 136.103 135.638 135.879 136.319C134.716 139.862 131.749 141.875 128.176 143.019L127.118 143.169C126.591 143.309 125.875 143.443 125.306 143.572C124.971 143.589 124.635 143.606 124.3 143.623C123.293 143.841 121.936 143.732 120.876 143.723C120.054 143.707 119.231 143.69 118.409 143.673C117.194 143.402 115.73 143.394 114.582 143.119C113.853 142.944 113.274 143.002 112.618 142.817C110.147 142.115 107.491 141.162 106.174 139.291C104.57 137.01 106.034 134.151 107.685 132.994C108.154 132.664 109.519 132.245 109.598 131.634C108.815 130.742 107.751 130.174 107.181 129.064C106.652 128.033 106.554 125.89 106.93 124.581C107.326 123.2 108.131 122 108.893 120.953C109.107 120.659 109.479 120.438 109.699 120.148C110.037 119.697 110.363 119.189 110.756 118.787C110.763 117.811 109.642 117.104 109.196 116.47C108.426 115.38 107.949 114.034 107.584 112.54C107.151 110.765 107.53 108.467 107.987 107.1C108.054 106.815 108.121 106.529 108.188 106.244C109.353 103.494 111.743 101.519 114.582 100.451C115.369 100.155 116.299 100.005 117.1 99.7951C118.57 99.4092 120.693 99.5135 122.336 99.3923C122.473 99.2108 122.731 99.0963 122.839 98.8886C123.173 98.2467 123.114 97.3546 123.393 96.672C124.011 95.1591 124.716 93.8142 125.609 92.5915C126.189 91.796 127.649 90.7835 128.629 90.3748C129.056 90.1976 129.576 90.1323 130.039 90.022C130.207 89.9822 130.382 90.0399 130.492 89.972ZM54.5691 90.8785C65.0575 90.6792 70.931 96.03 73.3987 103.876C73.6664 104.727 73.9143 105.812 74.154 106.748C74.3317 107.44 74.2541 108.199 74.4057 108.863V109.82C74.5316 110.406 74.5376 111.552 74.4057 112.137C74.2899 112.651 74.4021 113.223 74.305 113.649C74.1408 114.369 74.301 115.016 74.1037 115.714C73.5599 117.639 73.232 119.46 72.4925 121.155C70.8902 124.828 67.636 128.196 63.9336 129.77C62.7606 130.268 61.4648 130.557 60.1576 130.878C59.641 131.004 59.1456 130.975 58.6976 131.079H57.6403C57.1423 131.186 56.1743 131.192 55.6768 131.079C55.1397 131.063 54.6027 131.046 54.0656 131.029C53.5761 130.913 52.9412 130.928 52.4042 130.777C51.4659 130.512 50.4608 130.26 49.6351 129.921C49.3498 129.854 49.0646 129.787 48.7792 129.719C44.6823 128.005 41.3954 124.689 39.5658 120.701C38.9507 119.361 38.6851 118.013 38.2568 116.47C38.0353 115.673 37.9564 114.672 37.7533 113.8C37.7365 113.33 37.7198 112.86 37.703 112.389C37.5485 111.673 37.5453 110.369 37.703 109.669V108.712C37.8269 108.167 37.7684 107.586 37.9044 107C38.2708 105.418 38.442 103.848 39.012 102.465C41.0664 97.4809 43.7375 94.1789 48.6785 92.0877C49.7033 91.6544 50.9063 91.4043 52.0518 91.1304C52.5424 91.0134 52.9958 91.0261 53.4111 90.9294C53.7616 90.8471 54.3048 91.0439 54.5691 90.8785ZM54.267 94.3044C53.8978 94.4214 53.5286 94.5393 53.1594 94.6571C52.4875 95.0667 51.8795 95.7697 51.4476 96.4201C50.9402 97.185 50.7565 98.0109 50.4407 98.9895C49.0171 103.398 49.1189 111.705 50.34 116.319L50.491 117.679C50.8133 118.904 51.19 120.237 51.649 121.357C52.5487 123.551 53.3172 125.628 55.1229 126.898C55.695 127.299 56.6478 128.049 57.8417 127.754C61.2708 126.907 61.6473 123.178 62.4232 119.644V118.888C62.5543 118.292 62.6218 117.684 62.6246 117.074V115.815C62.7241 115.338 62.7284 114.429 62.6246 113.951C62.501 113.383 62.6843 112.644 62.5742 112.137V111.231C62.5051 110.78 62.541 110.173 62.4232 109.669C62.3011 109.147 62.3673 108.459 62.2218 107.856C62.0373 107.09 61.9025 106.183 61.7184 105.438C61.668 105.001 61.6176 104.564 61.5673 104.127C60.8936 101.76 60.2092 99.4016 59.0499 97.5284C58.005 95.8401 57.038 94.284 54.267 94.3044ZM98.6225 99.3923C101.314 99.3618 103.426 100.468 104.211 102.314C105.251 104.759 104.971 108.821 103.657 110.727C102.124 112.952 97.1876 113.197 95.501 110.928C94.8973 110.117 94.1053 107.821 93.2354 107.503C92.8578 107.365 92.2888 107.567 91.9767 107.704C90.9259 108.171 91.2719 110.504 91.2719 111.987C91.2553 115.479 91.2385 118.972 91.2215 122.465C91.2215 123.374 91.0573 126.081 91.3725 126.596C91.6837 127.104 93.767 127.834 94.4437 128.107C94.9235 128.301 95.3293 128.326 95.501 128.812C95.6606 129.019 95.6757 129.48 95.6017 129.77C95.5498 129.971 95.5962 130.08 95.501 130.222C95.069 130.869 93.2766 130.626 92.2284 130.626C88.4862 130.609 84.7437 130.592 81.0011 130.575H78.2321C77.8459 130.559 77.4599 130.542 77.0741 130.525C76.7917 130.427 76.6623 130.16 76.4699 129.971C76.4619 129.388 76.3873 128.852 76.6713 128.46C76.8466 128.217 77.1466 128.152 77.4265 128.006C78.1737 127.617 79.5592 127.058 79.7928 126.193C79.8094 125.554 79.8262 124.917 79.8431 124.278V120.449C79.8598 116.42 79.8766 112.39 79.8935 108.36V105.388C79.8935 104.887 79.9438 104.294 79.7425 103.976C79.1448 103.037 77.0379 102.823 76.6209 101.811C76.4629 101.427 76.5978 100.724 76.6713 100.4C76.8223 100.283 76.9734 100.165 77.1244 100.047C77.6253 99.851 79.4066 99.9969 80.0949 99.9969C82.5115 100.014 84.9281 100.03 87.3448 100.047C88.3447 100.047 90.4386 99.7629 90.718 100.501C91.2286 101.186 90.6813 103.435 91.725 103.524C91.868 103.388 92.1086 103.326 92.2284 103.171C93.038 102.119 93.9417 100.879 95.1989 100.299C95.851 99.9986 96.5241 99.7467 97.2128 99.5432L98.6225 99.3923ZM153.5 99.5941C159.762 99.4974 163.865 101.675 165.684 106.042C166.146 107.152 166.248 108.398 166.54 109.669C166.651 110.151 166.542 110.772 166.641 111.231V121.205C166.636 122.235 166.4 123.684 166.691 124.631C166.829 125.077 167.115 125.295 167.396 125.588C168.334 125.655 168.729 125.286 169.108 124.682C169.28 124.404 169.342 124.05 169.661 123.925C170.057 123.593 170.771 123.874 171.172 123.976C171.275 124.138 171.393 124.29 171.525 124.429C171.542 125.674 170.95 126.659 170.467 127.452C169.336 129.309 168.126 130.591 165.835 131.281C165.306 131.44 164.872 131.354 164.275 131.482C163.624 131.622 162.412 131.641 161.707 131.482C161.085 131.342 160.452 131.261 159.894 131.029C158.811 130.578 157.769 129.908 157.125 129.014C156.915 128.721 156.62 128.009 155.967 128.208C155.3 128.41 154.812 129.065 154.256 129.417C153.396 129.96 152.368 130.382 151.386 130.777C150.63 131.081 149.742 131.179 148.919 131.382C148.279 131.539 146.813 131.578 146.149 131.432H145.495C144.991 131.32 144.5 131.329 143.985 131.18C142.028 130.611 140.266 129.531 139.202 128.057C138.674 127.325 137.972 125.944 137.893 124.833C137.375 117.525 140.731 115.038 146.402 113.599C146.912 113.469 147.365 113.616 147.912 113.498C148.639 113.341 149.864 113.29 150.58 113.397C151.268 113.414 151.956 113.431 152.644 113.448C153.021 113.529 154.042 113.638 154.407 113.599C154.539 113.584 154.729 113.51 154.91 113.498C155.015 113.353 155.133 113.218 155.262 113.095C155.432 109.827 155.707 105.173 153.803 103.725C153.048 103.151 152.306 102.812 151.185 102.566C150.674 102.454 149.917 102.496 149.775 102.868C149.535 103.259 150.161 104.278 150.278 104.581C150.746 105.789 151.113 107.381 150.53 108.763C150.04 109.924 148.885 110.806 147.61 111.18C147.267 111.281 146.944 111.314 146.653 111.382H145.898C145.599 111.446 145.039 111.447 144.74 111.382C144.053 111.233 143.514 111.347 142.927 111.13C141.45 110.583 140.434 109.617 139.907 108.108C139.89 107.923 139.873 107.738 139.857 107.553C139.509 106.025 140.194 104.82 140.763 104.027C142.616 101.442 145.649 100.818 149.221 99.9469C149.832 99.7976 150.501 99.8154 151.034 99.695C151.47 99.5958 152.067 99.7255 152.443 99.6441C152.767 99.5737 153.26 99.7442 153.5 99.5941ZM184.917 99.745C189.491 99.6696 193.389 100.361 195.641 102.616C196.461 103.438 197.431 105.23 196.849 106.949C196.406 108.258 195.392 109.03 194.08 109.468C191.783 110.235 188.711 109.23 187.787 107.956C187.471 107.522 187.269 107.008 187.132 106.395C186.881 105.278 187.551 104.141 187.434 103.019C187.297 102.928 187.255 102.829 187.082 102.767C186.518 102.336 184.837 102.749 184.413 102.969C183.256 103.569 182.04 104.99 182.751 106.899C182.884 107.255 183.175 107.706 183.406 108.007C183.541 108.108 183.675 108.208 183.809 108.309C184.875 109.366 186.22 110.118 187.686 110.777C188.255 111.033 188.84 111.446 189.397 111.735C192.385 113.286 195.271 114.718 196.647 117.881C197.139 119.01 197.659 120.931 197.302 122.565C197.285 122.868 197.268 123.17 197.251 123.472C196.985 124.627 196.687 125.62 196.144 126.495C194.721 128.789 192.549 129.992 189.801 130.978C188.936 131.288 187.897 131.326 186.981 131.533C186.512 131.549 186.041 131.566 185.571 131.583C184.863 131.731 182.983 131.682 182.299 131.533C181.56 131.371 180.898 131.505 180.184 131.331C177.352 130.641 174.446 129.752 173.388 127.301C173.168 126.794 172.988 125.907 173.135 125.235C173.273 124.609 173.205 124.209 173.488 123.774C174.711 121.897 178.522 120.973 181.09 122.313C182.222 122.904 183.306 124.32 182.852 126.294C182.705 126.937 182.476 127.587 182.551 128.309C183.16 128.757 184.205 128.841 185.169 128.61C185.571 128.515 185.917 128.594 186.276 128.46C187.375 128.047 188.431 126.791 187.988 125.034C187.924 124.792 187.839 124.556 187.736 124.329C187.088 122.901 185.536 121.971 184.262 121.155C183.725 120.811 183.139 120.677 182.601 120.349C179.967 118.744 176.988 117.553 175.25 115.06C175.053 114.776 174.98 114.449 174.797 114.152C174.254 113.276 173.915 112.208 173.639 111.029V110.123C173.532 109.614 173.519 108.745 173.639 108.208C173.816 107.397 174.068 106.604 174.394 105.84C174.957 104.548 175.798 103.307 176.861 102.515C178.242 101.489 179.774 100.763 181.644 100.199C182.229 100.022 182.895 99.9774 183.456 99.846C183.888 99.7442 184.574 99.9604 184.917 99.745ZM222.576 99.896C225.397 99.8714 227.987 100.54 229.172 102.113C229.541 102.603 229.903 103.085 230.229 103.624C230.408 103.919 230.445 104.298 230.782 104.43C230.86 104.483 230.988 104.482 231.135 104.48C232.314 103.193 233.248 101.816 234.861 100.954C235.781 100.462 236.831 100.25 237.982 99.9969H238.687C240.182 99.6764 242.034 100.356 242.967 100.803C243.191 100.911 243.422 100.882 243.621 101.004C244.749 101.7 245.898 103.099 246.44 104.379C246.873 105.402 246.975 106.602 247.246 107.805C247.28 108.343 247.313 108.88 247.347 109.417C247.544 110.315 247.448 111.461 247.648 112.389V113.196C248.155 115.499 247.9 118.288 248.404 120.601V121.357C248.669 122.576 248.538 124 248.807 125.235C248.841 125.689 248.874 126.142 248.907 126.596C249.39 128.508 251.879 128.161 252.28 129.618C252.347 129.86 252.288 130.362 252.23 130.525C251.903 131.46 250.91 131.23 249.713 131.23C246.994 131.214 244.276 131.197 241.557 131.18C240.604 131.18 238.239 131.41 237.982 130.777C237.718 130.483 237.837 130.102 237.731 129.618C237.533 128.73 237.621 127.679 237.428 126.797V126.193C237.314 125.679 237.403 125.055 237.277 124.48C236.899 122.764 237.1 120.742 236.723 119.039V118.284C236.614 117.788 236.63 117.168 236.522 116.672C236.505 116.134 236.488 115.596 236.472 115.06C236.236 113.985 236.355 112.745 236.119 111.684C236.103 111.298 236.086 110.911 236.069 110.525C235.664 108.69 236.078 107.344 234.307 106.798C234.013 106.707 233.455 106.532 232.998 106.647C232.346 106.81 231.365 107.155 231.035 107.654C230.614 108.288 230.833 110.733 230.833 111.785C230.816 115.194 230.799 118.603 230.782 122.011V125.487C230.782 126.037 230.703 126.749 230.883 127.149C231.385 128.272 234.517 128.337 234.105 130.222C234.055 130.39 234.005 130.558 233.954 130.726C233.785 130.839 233.653 131.06 233.451 131.13C233.115 131.146 232.779 131.163 232.444 131.18C231.538 131.163 230.631 131.147 229.726 131.13H223.785C222.478 131.13 221.008 131.165 219.858 131.029C219.715 130.843 219.495 130.719 219.404 130.474C219.263 130.094 219.354 129.432 219.354 128.963V125.638C219.354 121.259 219.404 116.787 219.404 112.339C219.404 110.248 219.833 107.669 218.448 106.848C218.245 106.728 218.052 106.772 217.793 106.697C217.572 106.632 217.05 106.506 216.686 106.596C215.866 106.799 214.7 107.162 214.42 107.906C214.137 108.66 214.319 110.822 214.319 111.836V118.485C214.319 119.627 214.427 120.958 214.268 122.011V125.235C214.268 125.832 214.197 126.545 214.369 126.998C214.775 128.068 216.384 128.171 216.937 129.114C217.057 129.318 217.147 130.217 216.987 130.474C216.686 131.405 214.209 131.079 212.959 131.079C209.805 131.063 206.65 131.046 203.495 131.029H200.222C199.904 130.938 199.773 130.675 199.568 130.474C199.529 129.884 199.487 129.3 199.769 128.913C200.312 128.166 202.405 127.878 202.79 126.948C202.97 126.512 202.891 125.804 202.891 125.235V121.81C202.907 117.864 202.924 113.917 202.941 109.972V106.092C202.941 105.635 203.04 104.869 202.84 104.581C202.645 104.004 201.988 103.848 201.481 103.574C201.012 103.32 200.379 103.014 199.97 102.667C199.842 102.558 199.786 102.336 199.669 102.214C199.652 101.679 199.658 101.284 199.769 100.853C199.922 100.752 200.088 100.559 200.273 100.501H210.543C211.574 100.501 213.536 100.241 213.816 101.004C214.431 101.848 213.455 104.296 214.923 104.279V104.228C215.406 104.06 215.79 103.357 216.082 102.969C216.595 102.285 218.019 101.36 218.8 100.903C219.49 100.501 220.713 100.216 221.569 99.9969C221.866 99.9214 222.34 100.046 222.576 99.896ZM119.718 102.566C119.409 102.801 119.03 102.852 118.812 103.171C118.326 103.877 118.274 104.786 118.056 105.79V106.546C117.941 107.105 117.981 108.386 118.107 108.964C118.123 109.484 118.14 110.005 118.157 110.525C118.335 111.313 118.294 112.227 118.509 113.044C118.68 113.691 118.865 114.498 119.064 115.11C119.458 116.324 119.737 117.335 120.674 117.981C120.951 118.173 121.407 118.513 122.034 118.334C123.707 117.857 123.612 114.832 123.595 112.591C123.575 110.06 123.177 106.693 122.336 104.934C121.774 103.759 121.481 102.541 119.718 102.566ZM153.048 116.521C152.861 116.631 152.463 116.555 152.242 116.621C151.581 116.817 150.885 117.011 150.379 117.376C148.495 118.738 148.561 123.082 150.278 124.581C150.987 125.199 152.061 125.682 153.349 125.689C154.099 125.693 154.935 125.827 155.162 125.185C155.408 124.834 155.313 123.574 155.313 122.969C155.313 121.157 155.543 118.429 155.162 116.924C154.487 116.479 154.167 116.514 153.048 116.521ZM259.48 122.162C262.397 122.123 264.433 122.72 265.522 124.48C265.744 124.858 265.914 125.264 266.025 125.689C266.141 126.113 266.126 126.573 266.126 127.099C266.125 129.508 264.892 130.775 263.206 131.482C262.708 131.691 262.1 131.764 261.544 131.885C261.127 131.976 260.271 131.958 259.934 131.885C259.514 131.868 259.094 131.851 258.675 131.834C256.756 131.349 255.697 130.742 254.898 129.114C254.419 128.136 254.271 126.335 254.748 125.185C255.318 123.809 256.431 122.86 257.92 122.414C258.23 122.321 259.279 122.285 259.48 122.162ZM111.662 132.54C111.519 132.69 111.465 132.676 111.461 132.994C111.607 133.182 111.587 133.481 111.713 133.698C112.027 134.241 112.445 134.759 112.82 135.26C113.237 135.816 113.871 136.302 114.432 136.721C115.469 137.498 116.551 138.314 117.755 138.938C119.098 139.634 120.621 139.942 122.185 140.399C122.436 140.415 122.688 140.432 122.94 140.449C124.975 140.912 127.769 140.734 128.427 139.19C129.151 137.496 127.77 136.208 126.716 135.764C125.112 135.087 123.063 134.945 121.329 134.454C121.127 134.438 120.926 134.421 120.725 134.404C120.012 134.2 119.128 134.035 118.409 133.85C117.619 133.647 116.945 133.712 116.194 133.497C115.337 133.253 114.413 133.189 113.475 132.943C112.929 132.8 112.29 132.593 111.662 132.54ZM44.3337 42.3887C45.146 42.3796 46.0035 42.5462 46.715 42.7119L47.3609 42.7522C48.2232 42.9602 49.2506 42.9931 50.1058 43.1965L63.5882 43.2368C64.6204 43.2368 65.4898 43.1505 66.3331 42.9541C67.0504 42.7871 67.8121 42.8779 68.5131 42.7117C68.8184 42.6393 70.1742 42.3818 70.4507 42.5502C70.5182 42.569 70.5796 42.605 70.6291 42.6545C70.6786 42.704 70.7145 42.7655 70.7333 42.8329C70.9386 43.1046 70.8139 44.7896 70.8139 45.2967C70.8139 47.2618 70.7735 49.2906 70.7735 51.1938C70.7735 51.7177 70.8997 53.2265 70.693 53.5362C70.5632 53.9227 69.8075 54.1454 69.3206 53.8999C68.9637 53.7202 68.6809 53.1842 68.4728 52.8496C67.4328 51.1766 66.4747 49.4539 65.4453 47.8009C65.1066 47.2568 64.8673 46.4306 64.3555 46.0641C64.1653 45.9281 62.9512 45.7674 62.539 45.9025C61.9382 46.0995 61.9737 46.7937 61.9739 47.5989V51.5977C61.947 56.3362 61.9202 61.0752 61.8933 65.815V69.571C61.8933 70.0007 61.7855 70.782 61.9739 71.0657C62.2292 71.7956 64.0067 72.1543 64.7188 72.5196C65.131 72.7311 65.2575 72.7623 65.405 73.2465C65.4359 73.3482 65.5227 73.4767 65.4856 73.6505C65.4481 73.8273 65.3681 74.0117 65.3241 74.1759C64.4306 74.7582 62.3231 74.4586 60.9646 74.4586H55.0711C54.1548 74.4586 53.0007 74.5981 52.1647 74.4182H51.2764C50.584 74.4182 49.8191 74.4173 49.2985 74.2969C49.2044 74.1759 49.1101 74.0547 49.0159 73.9331C48.9978 73.445 48.9651 73.0284 49.2177 72.7216C49.4121 72.4858 49.7988 72.447 50.1058 72.3176C50.406 72.1911 50.7701 71.9875 51.0746 71.8732C51.7707 71.6128 52.3782 71.5786 52.5682 70.8233C52.5951 64.954 52.6219 59.084 52.6488 53.2133C52.6488 51.431 52.689 49.6041 52.689 47.8817C52.689 46.9925 52.7809 46.0903 52.1239 45.8621L51.3166 45.8219C49.8515 45.8223 49.7312 46.8561 49.1772 47.7605C48.307 49.1812 47.3939 50.6255 46.513 52.0422C46.213 52.5243 45.8119 53.5182 45.3423 53.7786C44.9938 53.9721 44.4014 53.8123 44.0909 53.7383C43.6957 53.1132 43.8084 52.0467 43.8084 51.0321C43.8218 49.0802 43.8352 47.128 43.8487 45.1755C43.8487 44.4854 43.7116 42.9315 44.0102 42.5502C44.0775 42.4648 44.2453 42.4543 44.3337 42.3887ZM81.1476 49.4975C84.7827 49.4361 88.3533 50.037 89.8672 52.0825C90.4834 52.9158 91.0378 54.4462 90.3918 55.7177C89.8435 56.7957 88.6181 57.4134 87.001 57.4139C86.5906 57.4139 86.0992 57.4733 85.7493 57.3735C84.4463 57.0023 83.3669 56.5293 82.8836 55.354C82.5936 54.6487 82.8464 53.5974 83.0045 52.9712C83.1026 52.5828 83.1313 52.0911 82.8031 51.9611C82.3267 51.5863 81.1391 51.8579 80.7036 52.0423C79.2435 52.6588 78.6776 54.3621 79.6543 55.9198C80.2972 56.9454 82.508 58.0637 83.7314 58.5851C84.3835 58.8632 85.0717 59.311 85.6687 59.6757C86.0181 59.8888 86.4103 59.981 86.7588 60.2007C88.3976 61.2339 89.988 62.5468 90.6742 64.5225C91.3534 66.4781 90.9708 69.1969 90.1094 70.6215C89.9991 70.8034 89.9824 71.0124 89.8672 71.1868C88.7515 72.8733 86.9712 73.7948 84.902 74.5393C84.254 74.7725 83.5517 74.7892 82.8433 74.9433H82.1974C81.4371 75.104 80.2711 75.1529 79.4928 74.9836H78.8065C78.2009 74.9161 77.5954 74.8487 76.99 74.7816C75.2022 74.305 73.09 73.6562 72.1864 72.3177C71.721 71.6286 71.2122 70.2527 71.6617 69.1677C71.925 68.5319 72.4302 68.0141 72.9938 67.673C73.383 67.4373 73.8212 67.396 74.3256 67.269C76.6024 66.6977 78.8825 67.5687 79.3714 69.3289C79.5411 69.9389 79.3417 71.0235 79.2103 71.5505C79.1484 71.7973 78.9968 72.1807 79.1701 72.4391C79.4258 72.8214 80.4458 72.8084 80.9866 72.6814C81.1748 72.668 81.3631 72.6546 81.5514 72.6411C82.722 72.3414 83.2909 71.7963 83.5295 70.541C83.7158 69.5581 82.6898 68.2871 82.1974 67.9154C81.7901 67.608 81.3913 67.2267 80.9457 66.9461C80.2958 66.5365 79.603 66.3017 78.9278 65.8957C77.5493 65.0681 76.0692 64.3301 74.81 63.3915C73.8393 62.6681 72.6092 61.0153 72.2268 59.7161C71.2408 56.3676 72.6313 53.2014 74.568 51.7591C74.8181 51.5732 75.0593 51.2609 75.3352 51.1128C76.4645 50.5077 77.6074 50.0676 79.0085 49.6994L81.1476 49.4975ZM102.623 49.578C105.101 49.5377 107.468 49.7504 109.202 50.5072C109.61 50.6845 110.296 51.0552 110.656 51.3147L111.06 51.7589C111.825 52.3419 112.596 53.7826 112.19 55.2325C111.958 56.0581 111.32 56.8223 110.575 57.1311C109.118 57.7346 106.733 57.5583 105.61 56.8077C104.872 56.3145 104.088 55.2858 104.399 53.8999C104.524 53.3438 104.633 52.9252 104.641 52.2436C104.465 52.1247 104.36 51.9882 104.116 51.9207C103.678 51.7988 103.054 51.9035 102.704 52.0013C102.448 52.0728 102.274 52.0517 102.058 52.163C101.224 52.5927 100.4 53.77 100.806 55.1518C100.906 55.4898 101.135 55.8516 101.331 56.1211C102.045 57.1029 103.473 57.7149 104.601 58.3023C106.135 59.1013 107.785 59.8953 109.202 60.8469C109.375 60.9632 109.52 61.1688 109.687 61.2911C110.073 61.5753 110.574 61.8806 110.858 62.2604C111.27 62.8065 111.636 63.3877 111.947 63.9974C112.499 65.0659 112.855 67.0769 112.473 68.6824C112.255 69.5952 111.978 70.4067 111.544 71.106C110.21 73.2535 107.914 74.2731 105.085 74.9432C104.666 75.0424 104.318 74.93 103.874 75.0237C103.146 75.1774 101.823 75.2238 101.089 75.064H100.403C99.9018 74.9542 99.35 75.0258 98.8284 74.9028C96.5144 74.3558 94.1965 73.6238 93.3386 71.6309C91.7799 68.0118 96.378 66.3308 99.3933 67.5923C100.4 68.0129 101.32 69.2829 100.927 70.9443C100.807 71.4531 100.62 71.9936 100.725 72.5196C101.179 72.8113 102.095 72.8878 102.784 72.7216C102.959 72.708 103.134 72.6948 103.309 72.6813C104.223 72.3719 104.676 72.11 104.964 71.1463C105.055 70.842 105.144 70.4108 105.045 70.0154C104.998 69.8304 104.965 69.5438 104.883 69.3287C104.435 68.1474 102.753 67.1787 101.654 66.5822C98.7679 65.0165 95.5402 63.677 94.1859 60.5643C93.9154 59.9378 93.6994 59.289 93.5405 58.6253V57.8177C93.4685 57.4802 93.4589 56.7719 93.5405 56.4042C93.6791 55.7398 93.8817 55.0904 94.1457 54.4652C94.5993 53.4244 95.3474 52.3448 96.2043 51.7187C97.3588 50.8759 98.6693 50.3031 100.241 49.8608C100.8 49.7036 101.462 49.7487 102.058 49.6185C102.245 49.5775 102.491 49.6605 102.623 49.578ZM118.809 67.3499C120.854 67.3403 122.387 67.9837 123.169 69.2481C123.356 69.5488 123.468 69.9327 123.573 70.2984C124.257 72.6948 122.592 74.4586 120.95 74.9835C120.473 75.1356 119.967 75.0283 119.415 75.1452C119.032 75.2262 118.473 75.1815 118.123 75.1049C117.705 75.0126 117.365 75.1094 116.993 74.9835C115.885 74.6076 115.16 73.9543 114.652 72.9639C114.251 72.1835 114.15 70.6924 114.531 69.773C114.97 68.7131 115.887 67.9056 117.074 67.5923C117.35 67.5192 117.573 67.484 117.8 67.4306C118.128 67.3542 118.559 67.5036 118.809 67.3499ZM130.193 67.4306C132.309 67.4023 133.99 67.8149 134.794 69.0864C134.996 69.4022 135.16 69.7414 135.279 70.0965C136.045 72.4929 134.555 74.3099 132.979 74.9432C132.439 75.1593 131.012 75.3371 130.314 75.1855C129.61 75.0323 129.009 75.1522 128.417 74.9028C127.184 74.3829 125.635 72.91 126.075 70.904C126.172 70.4652 126.129 70.1735 126.277 69.8133C126.687 68.826 127.578 67.9837 128.66 67.6728C129.02 67.5691 129.342 67.5439 129.669 67.4708C129.846 67.4317 130.069 67.5061 130.193 67.4306ZM253.647 71.1176C254.851 71.1211 254.909 72.4193 255.201 73.3638C255.919 75.6998 256.292 78.271 256.779 80.8583C256.835 81.345 256.892 81.8316 256.949 82.3183C257.07 83.0945 257.056 83.7681 256.509 84.1368C255.668 84.7026 254.95 84.2738 254.672 83.4638C254.553 83.1157 254.576 82.6678 254.533 82.2678C254.349 80.5123 254.055 78.7701 253.654 77.0514C253.589 76.7774 253.582 76.329 253.421 76.1331C253.313 76.1895 252.762 77.7909 252.685 78.0332C252.494 78.5299 252.303 79.027 252.113 79.5243C251.714 80.5138 251.132 82.8925 250.371 83.3691C249.846 83.697 249.029 83.5212 248.754 83.1051C247.642 80.9193 246.528 78.7336 245.415 76.5482H245.39C245.285 76.6136 245.199 78.2246 245.169 78.5052C245.084 79.5304 244.998 80.5561 244.912 81.5822C244.838 82.2527 244.889 82.9822 244.679 83.5389C244.459 84.1227 243.735 84.7802 242.918 84.3257C242.144 83.895 242.256 83.0336 242.402 82.0039C242.418 81.7751 242.432 81.5464 242.447 81.3177C242.819 78.9642 242.901 76.46 243.164 74.0434C243.305 72.7437 243.191 71.3811 244.465 71.2058C245.491 71.0647 245.852 72.3155 246.195 72.9175C247.036 74.589 247.876 76.2606 248.717 77.9325C248.852 78.1727 249.412 79.4599 249.584 79.5118C249.589 79.5077 249.593 79.5037 249.597 79.4992C250.36 77.5027 251.123 75.506 251.886 73.5089C252.339 72.3625 252.32 71.4405 253.647 71.1176ZM233.982 71.3065L238.742 71.3503C239.228 71.3503 240.508 71.2224 240.837 71.3694C241.276 71.5654 241.831 72.1146 241.755 72.8041C241.639 73.8484 239.888 73.8933 238.661 73.7855C238.374 73.7881 238.086 73.7902 237.799 73.7921C237.797 76.468 237.795 79.1444 237.793 81.821C237.793 82.9666 237.997 84.0109 237.139 84.357C237.005 84.4109 236.807 84.4819 236.598 84.4516C235.112 84.2366 235.366 83.0169 235.366 81.3808C235.361 78.866 235.357 76.351 235.353 73.8359C235.323 73.7326 234.405 73.8107 234.196 73.8107C233.188 73.8112 232.133 73.7568 231.567 73.3014C231.391 73.1589 231.294 72.7608 231.359 72.4767C231.482 71.9443 231.789 71.503 232.316 71.3821L233.196 71.3503L233.982 71.3065Z" fill="white"/>
<path d="M13.0854 52.7345C15.464 53.4157 18.1547 53.8998 20.7563 55.4127C20.2431 55.1215 19.6648 55.3253 19.4394 55.855C19.5873 55.5043 19.7547 55.1667 19.9294 54.8487C20.1399 54.4708 20.2149 54.5525 20.285 54.4544C20.4808 54.1877 20.4753 53.9708 20.6085 53.7748C21.2484 52.8423 21.8668 52.043 22.5356 51.2327C23.2254 50.4048 23.1604 51.0017 23.4497 50.7544C24.0124 50.2788 23.3124 50.5097 23.4155 50.2298C23.9465 49.5933 24.494 48.9722 25.0223 48.3524C24.9323 48.5335 24.8405 48.7141 24.7449 48.8955C24.9698 48.6189 25.3285 48.2521 25.0507 48.7906C25.1545 48.7039 25.2566 48.627 25.3616 48.5363C25.2668 48.4166 25.634 47.908 25.5964 47.809C25.5596 47.7108 25.3661 48.0051 25.361 47.9985C25.2924 47.9157 26.2548 46.8445 26.3165 46.7636C26.4972 46.5575 26.5149 46.8587 26.6355 46.66C26.8404 46.3168 26.3804 46.3357 27.0917 46.1544C27.0697 45.887 27.1502 45.918 27.3014 45.6921C27.321 45.6624 27.2265 45.6374 27.2325 45.6228C27.381 45.2395 27.3711 45.5957 27.3801 45.5992C27.5378 45.6507 27.6978 45.2342 27.7548 45.1606C28.4749 44.2417 28.966 43.5019 29.2974 42.321C29.3776 42.0639 29.4222 41.2632 29.4461 41.0137C29.4801 40.7652 29.5921 40.9012 29.6488 40.7678C29.3671 40.5515 29.3415 40.3783 29.4582 39.8862C29.2295 39.7459 29.4006 39.7414 29.2881 39.4222C29.2405 39.2924 29.1251 39.1289 29.0275 38.9593C28.9325 38.7967 28.8545 38.6355 28.884 38.459C28.9879 38.7186 29.0543 38.7129 29.1833 38.9078C29.2086 38.948 29.2357 38.9964 29.2642 39.0568C29.3632 39.1685 29.5678 40.5376 29.7373 40.4322C29.8471 40.3701 29.6989 39.8977 29.712 39.8805C29.8105 39.7549 29.9955 40.0061 29.9639 40.2578C29.9358 40.1989 29.9053 40.1282 29.8748 40.0662C29.7769 40.6146 30.3074 40.2176 29.8373 40.6488C29.7783 40.7001 29.716 40.6819 29.6528 40.7632C29.6792 40.7801 29.7439 40.6796 29.7559 40.7659C29.7684 40.8553 29.6398 41.0177 29.7425 41.0465C29.8944 41.091 29.8426 40.717 29.8484 40.6897C29.8475 40.6895 29.8465 40.6892 29.8456 40.6889C29.9227 40.4389 29.938 40.9592 29.9469 40.9852C30.0346 41.1512 30.1143 41.0424 30.176 41.2967C30.2122 41.4428 30.1428 41.8053 30.134 41.9379C30.1272 42.0722 30.2311 41.8779 30.2321 41.9695C30.2329 42.0619 30.1595 42.1634 30.1562 42.2711C30.155 42.3173 30.2337 42.3311 30.2319 42.3535C30.2118 42.5933 30.0834 42.4049 30.045 42.6136C30.0227 42.7465 30.0429 43.2404 30.1754 42.9406C30.1491 43.0971 30.1175 43.243 30.0817 43.3944C30.1345 43.3089 30.1796 43.2173 30.2333 43.1336C30.1141 43.4017 30.2002 43.5697 30.1479 43.7493C30.0954 43.9265 29.8845 44.0191 29.8832 44.2346C29.8794 44.6985 30.2046 43.6816 30.2657 43.5552C30.2941 43.5088 30.3511 43.7421 30.3435 43.7735C30.3124 43.9109 30.1696 44.0293 30.1349 44.129C30.0099 44.4879 30.0303 44.7426 29.8982 45.081C29.4561 46.2218 28.7148 47.5088 28.0996 48.422C27.8703 48.7641 27.6145 48.8815 27.5099 49.0307C27.2637 49.3798 27.3276 49.492 27.1089 49.7917C26.7833 50.238 26.2281 50.7803 25.9314 51.1215C25.7256 51.3588 25.6427 51.6503 25.5944 51.7164C24.9289 52.6272 24.1076 53.6844 23.6026 54.4151C23.3657 54.7554 23.1506 54.8498 23.1068 54.9228C22.9228 55.2354 23.0672 55.2156 22.9042 55.4568C22.8178 55.5867 22.7128 55.5567 22.6985 55.5725C22.5736 55.7148 22.6752 55.817 22.6104 55.9414C22.4307 56.2888 22.249 56.6223 22.0964 56.9422C21.6293 58.0404 20.2829 58.4541 19.2909 57.8391C19.2042 57.7815 19.113 57.7251 19.0171 57.6703C18.9681 57.6423 19.0015 57.5907 18.9672 57.5758C18.8196 57.5149 18.8419 57.6353 18.6922 57.5672C18.3759 57.4255 18.0488 57.264 17.7007 57.1124C17.6658 57.0973 17.6791 57.0175 17.5966 56.9854C17.5134 56.9532 17.425 56.9994 17.2979 56.9478C16.9617 56.812 16.6479 56.6105 16.2723 56.4852C16.2107 56.4647 16.1052 56.5311 16.0119 56.5009C15.7164 56.4048 15.3031 56.1925 15.0452 56.1154C14.1974 55.8616 13.3822 55.7007 12.5579 55.4759C12.3645 55.4231 12.2157 55.2907 12.1152 55.2607C11.8883 55.1932 12.0381 55.3212 11.8067 55.2571C9.91731 54.7261 7.98648 54.118 6.08491 53.1566C5.34055 52.7817 4.40005 52.2933 3.75595 51.7103C3.4907 51.4696 3.52009 51.3366 3.33961 51.1613C3.02214 50.8405 2.85441 50.8792 2.52881 50.5045C2.27011 50.1996 2.13696 49.7409 1.93125 49.3874C1.7297 49.0351 1.51284 48.9187 1.32182 48.4775C1.28236 48.3837 1.24582 48.2771 1.21247 48.163C1.14361 47.9304 1.09312 47.6689 1.05536 47.4196C1.03575 47.2915 1.01907 47.167 1.00226 47.0509C0.544705 42.7387 3.99693 39.7391 7.34226 38.7381C7.44269 38.7079 7.54286 38.6795 7.64383 38.6524C8.90318 38.3087 10.3908 38.1142 11.7427 38.404C11.8684 38.4323 11.6596 38.543 12.0666 38.5677C12.2844 38.5846 12.6114 38.5114 13.118 38.6386C13.8631 38.8289 14.6065 39.145 15.2872 39.606C15.0858 39.4844 14.8947 39.4968 14.7711 39.5445C14.6471 39.5915 14.5007 39.7034 14.4269 39.9153C15.2109 38.0306 16.6965 36.6918 18.2409 35.7314C18.8995 35.3235 19.5937 34.965 20.3195 34.6722C23.5421 33.1225 29.1346 33.8291 29.8406 37.8706C29.867 38.0815 29.5055 38.1306 29.3705 38.0836C29.3868 37.9629 29.4137 37.8399 29.4249 37.705C28.9813 37.8176 29.1108 37.7768 28.8485 37.3692C28.6797 37.1256 28.6872 37.4247 28.5487 37.3429C28.3782 37.2154 27.5671 36.8115 27.8711 36.6985C27.7957 36.7028 27.7259 36.7099 27.6536 36.7174C27.1042 36.3717 26.4984 36.1662 25.8842 36.0582C25.7775 36.0401 25.7465 36.1246 25.6387 36.109C25.3469 36.0692 25.134 35.9628 24.8311 35.9239C24.6673 35.9045 24.6306 36.0035 24.42 35.9744C24.2085 35.9483 24.2201 35.8065 23.9201 35.946C24.1025 36.124 23.2664 35.979 22.9633 36.0279C22.918 36.0316 22.5813 36.2246 22.3954 36.2369C22.2075 36.2471 21.9019 36.2 21.6283 36.3263C21.4997 36.3858 21.4526 36.5256 21.3133 36.5728C21.219 36.6049 21.0742 36.5411 20.9482 36.5722C20.9446 36.5731 20.941 36.5741 20.9374 36.5752C20.8089 36.6117 20.5735 36.7948 20.5269 36.8157C20.355 36.8903 20.5187 36.7422 20.3978 36.7865C19.8149 37.0004 19.1504 37.3137 18.6838 37.7106C18.6266 37.7588 18.7631 37.7732 18.7566 37.7815C18.4179 38.1648 18.5651 37.9135 18.4061 37.931C18.2417 37.9377 17.5527 38.6318 17.6768 38.7516C17.513 38.6363 17.4792 38.8958 17.4495 38.9402C17.3295 39.1144 17.2237 38.9743 17.1361 39.1703C17.1052 39.2417 17.286 39.1969 17.234 39.2583C17.1082 39.4083 16.8512 39.4467 16.6923 39.6678C16.6544 39.7213 16.714 39.7813 16.6553 39.8783C16.5921 39.972 16.2958 40.3576 16.5475 40.2354C16.3687 40.377 16.3454 40.4669 16.302 40.617C16.2486 40.7732 16.1559 40.9534 15.9841 41.1223C15.8177 41.2763 15.5443 41.3303 15.156 41.4391C15.0194 41.4691 15.0327 41.6069 14.7886 41.5919C14.5702 41.5713 14.3522 41.4787 14.1721 41.3321C14.0869 41.2315 13.9943 41.1176 13.8516 41.038C13.4082 40.79 12.8644 40.6917 12.3532 40.5422C12.2133 40.5022 12.2759 40.3821 12.0629 40.3399C12.0307 40.3332 11.7579 40.4018 11.6124 40.3757C11.5265 40.3555 11.0667 40.2432 10.9704 40.2377C10.8132 40.2234 10.7845 40.3488 10.6997 40.3243C10.4531 40.2573 10.6435 40.0683 10.3546 40.3301C10.2503 40.195 10.075 40.2214 10.0031 40.0559C9.91624 40.2521 9.76481 40.085 9.57159 40.1747C9.37738 40.2649 9.28537 40.652 9.16719 40.2756C9.08152 40.3374 8.71288 40.5017 8.65049 40.5258C8.465 40.5906 8.53877 40.4595 8.39829 40.5129C8.37369 40.5225 8.41995 40.5853 8.25698 40.6256C8.22207 40.6344 8.11894 40.6636 7.99265 40.7037C7.72713 40.7854 7.37316 40.9239 7.34079 40.9311C6.78712 41.0425 7.58756 40.7433 7.67841 40.6346C7.70562 40.6471 7.73256 40.6598 7.76086 40.6718C8.00422 40.6242 7.81874 40.5109 7.6981 40.5125C7.57821 40.5133 7.40576 40.6595 7.29905 40.6443C7.24536 40.6367 7.19506 40.4394 7.33981 40.4083C7.17196 40.4083 7.34659 40.269 7.26778 40.2377C7.1797 40.1964 6.51171 40.473 6.56122 40.5787C6.68158 40.5238 6.83078 40.4506 6.95521 40.4016C7.18285 40.5138 6.98733 41.3032 6.47653 41.2876C6.09345 41.2882 6.49367 40.8721 5.8881 41.4244C5.99572 41.3651 6.09549 41.3257 6.19508 41.277C6.27807 41.3951 6.04215 41.35 5.98683 41.4392C5.9614 41.4811 6.24621 41.4255 6.06365 41.578C5.78255 41.5121 5.7601 41.7718 5.49336 41.9727C5.54594 41.8875 5.60154 41.8022 5.65865 41.7177C5.09312 41.936 6.18458 41.0989 5.19716 41.7047C5.30393 41.6149 5.41824 41.5343 5.52812 41.4464C5.42863 41.4232 5.39395 41.1775 5.31578 41.1745C5.10746 41.1683 4.94925 41.3766 4.78381 41.4958C4.71136 41.5482 4.71684 41.467 4.71079 41.4714C4.611 41.544 4.68744 41.595 4.60894 41.6683C4.50977 41.758 4.16392 41.9611 4.1253 42.0156C4.02533 42.1486 4.34171 42.0811 4.33901 42.1027C4.32197 42.2339 4.12745 42.3324 4.21409 42.4014C4.49647 41.9681 5.68314 41.1731 4.80693 42.1178C5.1884 42.0273 5.25338 42.2799 4.92106 42.6099C4.65086 42.8923 4.76406 42.6461 4.54169 42.7167C4.50992 42.7229 4.11259 43.09 4.1586 43.1622C4.03759 43.0324 3.80186 43.0771 3.73841 42.8673C3.72885 42.8354 3.88835 42.6628 3.72447 42.6311C3.64196 42.6148 3.44131 42.608 3.38154 42.5342C3.39884 42.6153 3.42232 42.7024 3.44406 42.7841C3.23607 43.085 3.15539 43.0877 2.94014 43.1919C2.98836 43.2106 3.26477 43.1741 3.05885 43.3726C3.0481 43.3829 2.97664 43.3513 2.86899 43.456C2.65614 43.6678 2.60349 43.7219 2.52429 43.4063C2.33326 44.0197 2.04622 44.0412 1.89956 44.7047C2.2168 44.6639 2.19891 44.4299 2.40402 43.8706C2.4766 43.8775 2.54241 43.8968 2.61557 43.9046C2.154 44.5332 2.32118 44.2072 2.29849 44.6583C2.28862 44.7677 2.11219 45.3036 2.34679 45.1685C2.39858 45.1364 2.48868 44.8117 2.54707 44.871C2.55414 44.8819 2.48068 45.279 2.459 45.3097C2.16113 45.7133 2.08986 44.8553 2.03997 46.1656C2.04114 46.2018 2.12394 46.2171 2.13445 46.2861C2.15522 46.4155 2.05876 46.4187 2.08489 46.5357C2.11196 46.6545 2.25239 46.7986 2.15714 46.9864C1.98823 47.3516 1.74151 46.5683 1.88663 46.2093C1.75746 46.1334 1.64545 46.672 1.72834 47.293C1.75631 47.5134 1.80686 47.7401 1.86969 47.9456C1.99997 48.3774 2.16602 48.7076 2.19941 48.7575C2.60157 49.3288 2.03653 48.3251 2.10935 48.2364C2.13218 48.1995 2.53194 48.0658 2.1802 47.8957C2.07429 47.8414 2.09039 48.2128 1.97695 48.0271C1.94873 47.9803 1.93701 47.9471 1.9351 47.9239C1.92904 47.8524 2.01236 47.8743 2.01487 47.8608C2.02548 47.8012 1.91778 47.5918 1.92882 47.5574C1.98092 47.3769 2.07358 47.2613 2.14487 47.2142C2.18346 47.1888 2.21609 47.1829 2.23505 47.1973C2.28277 47.2345 2.24115 47.3796 2.05197 47.7218C2.2538 47.9243 2.30319 47.3161 2.47566 47.5835C2.50666 47.6301 2.53134 47.6757 2.55107 47.7201C2.66488 47.9766 2.61086 48.2066 2.61927 48.2466C2.75283 48.789 2.73627 48.1034 2.95217 48.7323C3.08792 49.0821 2.512 48.3304 2.95007 49.0716C3.35213 49.6717 3.22496 49.2832 3.43741 49.2031C3.48817 49.1839 3.74983 49.4499 3.44678 49.0489C3.39019 49.0692 3.31082 49.0886 3.24767 49.0899C3.21271 48.9579 3.36146 48.6314 3.34208 48.5734C3.23961 48.2794 3.11182 48.3538 3.19727 48.1127C3.07319 48.3131 3.09171 48.0694 3.02445 48.012C2.79604 47.809 2.84325 48.1145 2.81974 47.6312C2.81883 47.5855 2.81822 47.5327 2.81864 47.4718C2.77929 47.5379 2.74126 47.6028 2.70466 47.6693C2.68184 47.7121 2.65941 47.7553 2.63751 47.7998C2.62505 47.768 2.6128 47.7359 2.60078 47.7036C2.58306 47.6562 2.56615 47.6083 2.55011 47.5602C2.70366 47.3803 2.59366 46.9855 2.87412 47.3056C2.86432 47.2214 2.85606 47.1473 2.84734 47.0818C2.81161 46.8005 2.75517 46.6749 2.62174 46.6002C2.59065 46.5829 2.57457 46.5133 2.57019 46.4307C2.5263 46.4469 2.39042 46.4712 2.37334 46.4581C2.22208 46.3353 2.48337 46.1498 2.57827 46.2181C2.58469 46.1605 2.59277 46.1151 2.59606 46.0992C2.61717 45.9993 2.69331 46.2014 2.72792 46.1218C2.73671 46.0964 2.74433 45.8159 2.78248 45.8155C3.02225 45.8157 2.76539 46.2212 3.06393 45.3739C2.86303 45.3004 2.82456 45.7318 2.62826 45.5855C2.41458 45.4174 2.78388 45.2389 2.51762 45.1125C2.56943 45.1043 2.61045 45.1059 2.66782 45.1032C2.65846 44.6844 2.90117 44.7597 2.99022 44.6703C3.15177 44.4933 3.62863 43.5593 3.01059 44.3114C3.05024 44.1751 3.10699 44.0414 3.15898 43.9087C3.56025 44.0943 3.34622 44.0692 3.75987 43.5603C3.85413 43.4501 4.03358 43.5288 3.93675 43.2801C4.10013 43.429 4.25609 43.0216 4.3064 43.0102C4.58912 42.9445 4.2162 43.7743 3.84049 43.6565C3.88202 43.8706 3.71336 43.7569 3.64438 43.9211C3.55091 44.1575 3.57083 44.199 3.30599 44.4023C3.35696 44.7396 3.92314 43.4593 3.75851 44.3308C3.68955 44.7107 3.27751 45.8694 3.5821 46.9429C3.61691 47.0756 3.66051 47.207 3.71249 47.3358C4.17531 48.5775 5.21966 49.4651 5.65834 49.7773C7.32347 50.9238 8.48108 51.2669 10.3839 51.9335C10.5699 52.0028 12.0469 52.4215 11.674 52.5639C11.6197 52.5853 10.9547 52.4847 11.4488 52.8306C11.3689 52.6894 11.7126 52.7136 11.7431 52.7099C12.4424 52.6287 12.0943 52.4633 13.0854 52.7345ZM15.4655 55.6507C14.1919 55.2271 15.0945 55.6556 14.7266 55.9333C14.892 55.981 15.0547 56.0286 15.2174 56.0769C15.1805 56.0422 15.1452 56.008 15.1085 55.9734C15.1083 55.9733 15.1082 55.9733 15.108 55.9732C15.2257 55.8651 15.3456 55.7578 15.4655 55.6507ZM30.4667 42.7523C30.4998 42.8208 30.5324 42.8894 30.5617 42.9639C30.495 43.1561 30.4246 43.3399 30.3485 43.5237C30.3246 43.491 30.3 43.4591 30.2758 43.4267C30.3478 43.2072 30.4137 42.9822 30.4667 42.7523ZM1.84368 45.998C2.00204 45.7333 1.75627 45.7285 1.92833 45.3779C1.74556 45.3893 1.56546 45.4107 1.3836 45.4345C1.36333 45.7466 1.42204 45.8201 1.36244 46.1539C1.42083 46.1167 1.47999 46.0797 1.53938 46.0459C1.53024 45.991 1.52057 45.9322 1.5144 45.8785C1.67713 45.8132 1.67004 46.316 1.84398 45.999C1.84388 45.9986 1.84378 45.9983 1.84368 45.998ZM2.66837 43.2959C2.76115 43.1753 3.16354 42.752 3.15737 42.6487C3.11376 42.263 2.27813 43.7481 2.80806 42.593C2.77648 42.5769 2.75233 42.5519 2.72448 42.5314C2.57676 42.7113 2.43778 42.899 2.30624 43.0975C2.43072 43.1581 2.54284 43.2357 2.66837 43.2959ZM10.7362 54.3434C10.5382 54.2676 9.53261 54.0718 9.80089 54.3224C9.88198 54.3975 10.3824 54.3172 10.5445 54.3757C10.6495 54.4139 10.4943 54.4967 10.7183 54.5162C10.7246 54.4611 10.7361 54.4015 10.7355 54.3436C10.7357 54.3436 10.7359 54.3435 10.7362 54.3434ZM11.3189 53.7645C11.1046 53.725 10.8866 53.6894 10.6702 53.6481C10.7823 53.8299 11.1092 53.8322 11.071 54.0277C11.0092 54.0252 10.9481 54.0227 10.8863 54.02C10.8546 53.9653 10.8239 53.9108 10.7929 53.8562C10.5815 53.9049 10.6747 53.9898 10.3481 53.8566C10.4616 54.2051 10.4575 54.3745 11.1208 54.2533C10.9655 54.3772 10.9206 54.9174 11.3484 54.6461C11.4279 54.5958 11.1896 54.4783 11.1899 54.4666C11.1902 54.3217 11.3539 54.2766 11.349 54.1383C11.347 54.0758 11.1945 54.0325 11.195 53.9465C11.1959 53.9048 11.3723 53.8365 11.3189 53.7645ZM11.5409 54.563C11.4525 54.6255 11.6208 54.8817 11.8255 54.8967C12.1438 54.9203 11.7199 54.6045 11.5409 54.563ZM30.4668 42.751C30.4668 42.7514 30.4667 42.7518 30.4667 42.7523C30.4666 42.752 30.4664 42.7518 30.4663 42.7515C30.4665 42.7513 30.4667 42.7512 30.4668 42.751ZM2.21832 43.9311C2.22717 43.7378 2.36279 43.5071 2.25364 43.4703C2.3156 43.4029 2.37876 43.336 2.44234 43.2724C2.41241 43.2557 2.38198 43.2397 2.35233 43.2231C2.1985 43.442 2.05505 43.6719 1.92469 43.9118C2.02249 43.9175 2.11897 43.9275 2.21832 43.9311ZM3.91027 41.7275C4.1479 41.5176 3.84878 41.5874 3.84809 41.485C3.84772 41.3806 4.10654 41.2317 4.01014 41.1744C3.86132 41.2987 3.71105 41.4328 3.56825 41.5698C3.6875 41.616 3.79626 41.6761 3.91072 41.727C3.91057 41.7272 3.91042 41.7273 3.91027 41.7275ZM21.4317 56.9907C21.2711 57.1815 21.1835 57.192 21.0774 57.2562C20.9621 57.3072 20.8463 57.4495 20.3915 57.5755C20.3922 57.5755 20.3929 57.5754 20.3936 57.5753C20.841 57.5952 21.4197 57.3303 21.6701 56.7677C21.7605 56.6014 21.843 56.4141 21.883 56.228C21.6983 56.36 21.6837 56.5386 21.5866 56.7335C21.5482 56.8209 21.4971 56.9085 21.4317 56.9907ZM1.50169 46.8056C1.60089 46.8944 1.64803 46.4349 1.56714 46.3345C1.42561 46.1632 1.33973 46.6623 1.50169 46.8056ZM25.2899 49.8447C25.2489 49.4275 24.6409 49.6816 24.3766 50.2437C24.3539 50.2925 24.6673 50.0422 24.6402 50.1679C24.6373 50.1806 24.4994 50.3449 24.4983 50.4113C24.4972 50.4778 24.605 50.4918 24.5822 50.5843C24.5423 50.7458 24.2281 50.9402 24.2288 51.085C24.229 51.1043 24.4592 51.0133 24.4713 51.0057C24.6667 50.8792 24.6691 50.6121 24.6891 50.5849C24.7925 50.4442 24.8769 50.544 24.9279 50.5278C25.0239 50.4973 25.0702 50.3467 25.0798 50.3411C25.3323 50.2012 24.932 50.6594 24.918 50.7517C24.88 51.0017 25.097 50.9128 24.8257 51.372C24.7998 51.4156 24.4248 51.8816 25.0032 51.3766C24.3248 52.7256 25.5959 50.8974 25.6972 50.6618C25.7423 50.5548 25.5416 50.613 25.5403 50.5257C25.537 50.3263 25.6824 50.1039 25.5282 50.0137C25.2032 49.8253 25.1827 50.2477 24.9853 50.3976C24.9372 50.3279 24.8811 50.2717 24.8476 50.1863C24.8874 50.3081 25.2935 49.8759 25.2904 49.8452C25.2902 49.845 25.2901 49.8449 25.2899 49.8447ZM23.3268 53.0723C23.0396 53.2724 23.2423 53.3932 22.9581 53.5581C22.9766 53.8949 23.267 53.4648 23.3142 53.4219C23.5233 53.2265 23.7021 53.3707 23.8158 53.1006C23.6485 53.0975 23.4909 53.0794 23.3268 53.0723ZM25.1707 50.8435C25.1263 51.0926 25.3716 50.7772 25.3997 50.7782C25.6982 50.7891 24.9226 51.6998 25.1707 50.8435ZM9.62332 53.498C9.51776 53.4543 9.5505 53.5854 9.44389 53.5851C9.33587 53.585 9.04029 53.3788 9.02525 53.4483C9.00827 53.5184 9.55491 53.9027 8.93316 53.7288C8.94047 53.7737 8.92365 53.7993 8.92165 53.8368C9.08857 53.8967 9.25933 53.9569 9.42634 54.0137C9.37102 53.8743 9.31479 53.7278 9.26304 53.5928C9.38609 53.5384 9.40107 53.667 9.40613 53.6688C9.40617 53.6686 9.4062 53.6685 9.40624 53.6684C9.58361 53.7187 9.86081 53.5953 9.62332 53.498ZM18.0263 56.4054C18.1632 56.1527 17.8023 56.3523 17.6903 56.3483C17.5805 56.3441 17.48 56.1949 17.489 56.329C17.6174 56.4654 18.0116 56.4331 18.0264 56.4051C18.0263 56.4052 18.0263 56.4053 18.0263 56.4054ZM22.3022 54.5382C22.2142 54.8032 22.2966 54.8096 22.0521 55.0473C22.1177 55.072 22.1845 55.0977 22.2491 55.1222C22.3858 54.9024 22.2103 54.8049 22.4416 54.5947C22.4802 54.5601 22.555 54.7369 22.6359 54.5206C22.5285 54.5284 22.4127 54.5322 22.3022 54.5382ZM21.8392 55.8188C21.9725 55.5495 21.6078 55.0561 21.5522 55.6839C21.5447 55.7787 21.7395 56.0262 21.8392 55.8188ZM12.4799 54.3347C11.9561 54.1731 12.5321 54.4261 12.6469 54.5462C11.3981 54.2724 12.7919 54.5626 12.8395 54.8701C13.0117 54.8329 13.3412 54.7301 13.0421 54.5972C12.9171 54.5417 12.9423 54.6366 12.9346 54.6341C12.6994 54.5481 12.766 54.4224 12.4799 54.3347ZM23.6614 52.6034C23.6523 52.6224 23.7484 52.6549 23.7242 52.7187C23.6998 52.7825 23.5571 52.86 23.5957 52.9071C23.634 52.9548 23.8501 52.7448 23.8698 52.6479C23.8896 52.5498 23.7434 52.4342 23.6614 52.6034ZM22.2526 54.1559C22.16 54.4203 22.7012 54.2471 22.7317 54.2012C23.0039 53.772 22.3387 54.2255 22.2526 54.1559ZM13.8638 54.0876C13.1796 54.0884 13.5637 54.5172 13.9123 54.8067C13.9748 54.7842 14.0387 54.7621 14.1003 54.7398C13.8012 54.8983 13.3232 55.0046 14.3054 55.0644C13.8103 54.8719 14.2532 54.9289 14.2603 54.9173C14.4282 54.5218 13.6226 54.5067 13.8643 54.0878C13.8641 54.0877 13.864 54.0877 13.8638 54.0876ZM24.2795 51.9659C24.4531 51.7396 24.8551 51.1089 24.4948 51.2675C24.4232 51.4994 24.35 51.7339 24.2795 51.9659ZM4.26986 49.8897C4.19248 49.6548 4.06008 49.5084 3.88884 49.2991C3.91848 49.5861 3.8059 49.4731 3.72356 49.4284C3.59944 49.3611 3.79521 49.6052 3.78921 49.6116C3.67379 49.6994 3.5204 49.559 3.82649 49.9116C3.71185 49.8588 3.59846 49.8039 3.48506 49.743C3.70915 50.0298 3.69721 50.1524 3.77663 50.4063C3.82542 50.0423 3.90199 50.3898 4.19462 50.47C4.33693 50.5073 4.304 50.0078 4.26928 49.8891C4.26947 49.8893 4.26967 49.8895 4.26986 49.8897ZM13.2217 53.8536C13.1428 53.8854 13.0646 53.9362 12.9857 53.9756C12.9153 53.9622 12.8452 53.9481 12.7749 53.9346C12.7784 53.8884 12.7839 53.8406 12.7856 53.7957C12.6985 53.758 12.717 53.8288 12.6885 53.8271C12.6886 53.8269 12.6886 53.8266 12.6887 53.8264C12.28 53.8009 12.1239 53.7474 11.861 53.5267C11.8229 53.6608 11.7848 53.7948 11.7468 53.9288C11.8184 53.9354 11.8907 53.9423 11.9623 53.949C12.0187 53.8872 12.0753 53.8252 12.1316 53.7632C12.199 53.825 12.2659 53.8862 12.3337 53.9479C12.4041 53.9395 12.4875 53.9332 12.5491 53.923C12.7604 54.3853 12.1152 53.9326 12.0656 54.0861C12.033 54.1855 12.7564 54.3807 12.8787 54.3393C12.8964 54.3332 12.8167 54.0108 13.0412 54.2287C13.0761 54.2629 12.9262 54.8724 13.3439 54.4595C13.4032 54.401 13.3642 53.9865 13.2217 53.8536ZM10.6862 52.9183C10.9632 53.4273 9.62917 52.5581 10.1588 53.0744C9.92198 53.1917 9.95486 53.1999 10.0883 53.4148C10.1 53.434 9.9576 53.4414 9.96638 53.451C10.1107 53.5927 10.3329 53.6119 10.2852 53.769C10.3345 53.7752 10.3807 53.7814 10.43 53.7875C10.2816 53.5796 10.621 53.5761 10.7777 53.4869C10.8491 53.4467 10.7299 53.3915 10.7904 53.3559C10.8127 53.343 10.9758 53.4315 10.9983 53.3816C11.0483 53.2686 10.9863 53.0776 10.8299 52.9355C10.8299 52.9354 10.8299 52.9352 10.83 52.9351C10.7818 52.9288 10.7344 52.9244 10.6862 52.9183ZM19.1889 55.9286C19.1634 56.1629 19.3894 56.3376 18.8485 56.205C18.8548 56.2559 18.8617 56.3067 18.8674 56.3575C18.9492 56.391 19.0349 56.4273 19.1193 56.4647C19.6651 56.0002 19.7822 56.9124 19.7086 56.3416C19.7005 56.2794 19.4716 56.2217 19.7356 56.2073C19.7353 56.207 19.7351 56.2068 19.7349 56.2065C19.4381 56.0965 19.374 56.1539 19.1889 55.9286ZM17.2204 55.3149C16.4112 55.5307 18.0445 55.8787 17.8255 55.6749C17.8081 55.6534 17.0954 55.5086 17.2204 55.3149ZM21.0291 54.7564C20.8576 55.0373 21.0719 55.1765 21.1659 55.1926C21.2603 55.209 21.2889 54.9725 21.3164 54.9544C21.404 54.8976 21.332 55.0838 21.4485 55.012C21.4871 54.9829 21.8441 54.5688 21.8513 54.5409C21.8757 54.3896 21.5898 54.4529 21.5912 54.4063C21.5969 54.2503 21.7828 54.1625 21.7114 54.0699C21.5582 53.8728 21.5861 54.2843 21.5587 54.3365C21.4769 54.4877 21.3724 54.4048 21.2824 54.5004C21.1927 54.5966 21.1906 54.6889 21.1236 54.7848C21.1016 54.8163 21.0382 54.7425 21.0291 54.7564ZM21.0019 55.9411C20.9774 55.5989 20.5421 56.0796 20.4619 56.2733C20.4581 56.2804 20.4572 56.2864 20.4599 56.2916C20.4882 56.3511 20.5649 56.4098 20.6727 56.3596C20.8265 56.2537 21.0087 56.0466 21.0019 55.9411ZM11.5152 53.7971C11.8411 53.7471 11.2021 53.4469 10.9969 53.4425C11.0151 53.5084 11.4023 53.8146 11.5152 53.7971ZM14.0402 54.1365C13.7626 54.1055 14.0341 54.502 14.2561 54.5579C14.4412 54.3965 14.3065 54.4015 14.1647 54.354C14.0222 54.3063 14.2565 54.1607 14.0402 54.1365ZM23.1795 52.0353C23.14 52.0786 22.6972 52.9527 23.0846 52.5522C23.1136 52.5205 23.4963 51.9684 23.5034 51.9089C23.5157 51.7885 23.2797 51.9188 23.1795 52.0353ZM15.4014 54.2004C15.2114 54.3303 15.0727 54.2889 15.1464 54.5257C15.1466 54.5257 15.1468 54.5258 15.147 54.5258C14.7713 54.4861 14.8719 54.0734 14.7918 54.0605C14.5135 54.0166 14.6884 54.379 14.493 54.4281C14.9108 54.4467 14.7413 54.6115 15.037 54.7079C15.1035 54.7294 15.4039 54.6882 15.4637 54.6266C15.5237 54.5648 15.4503 54.3067 15.4014 54.2004ZM23.9773 50.9346C23.7245 51.1471 23.7667 51.5596 24.0803 51.2321C24.2325 51.0741 24.1317 50.8047 23.9773 50.9346ZM3.77077 43.4566C3.68277 43.4507 3.59365 43.4478 3.50299 43.4489C3.55299 43.3423 3.60456 43.238 3.66044 43.1329C3.6237 43.2213 3.58899 43.3095 3.55638 43.3979C3.7024 43.2352 3.86933 43.242 3.77109 43.4561C3.77098 43.4563 3.77087 43.4564 3.77077 43.4566ZM10.2784 40.1141C10.3749 40.1808 10.555 39.9516 10.5316 39.9349C10.3439 39.8083 10.1397 40.0218 10.2784 40.1141ZM11.2831 53.0197C10.9402 52.8848 11.0769 53.3066 11.2883 53.3947C11.175 53.2887 11.4785 53.0958 11.2831 53.0197ZM7.67841 40.6346C7.63787 40.616 7.59707 40.5976 7.55204 40.581C7.67353 40.5821 7.70104 40.604 7.67841 40.6346ZM22.8308 51.9617C22.7728 51.9911 22.4976 52.3188 22.4919 52.3853C22.4797 52.5239 22.8375 52.3795 22.9063 52.1863C22.9139 52.165 22.8877 51.933 22.8302 51.9624C22.8304 51.9622 22.8306 51.962 22.8308 51.9617ZM4.16573 43.1691C4.16265 43.1673 4.16028 43.165 4.1586 43.1622C4.16087 43.1645 4.16354 43.1666 4.16573 43.1691ZM17.6909 38.7611C17.6854 38.7586 17.6806 38.7555 17.6768 38.7516C17.6812 38.7547 17.6863 38.7574 17.6909 38.7611ZM20.834 54.2937C20.4608 54.2373 20.4418 54.6384 20.7297 54.486C20.746 54.4758 20.8145 54.3241 20.834 54.2937Z" fill="white"/>
</svg>
